<svg width="555" height="452" viewBox="0 0 555 452" fill="none" xmlns="http://www.w3.org/2000/svg">
<path d="M459.695 194.795C462.351 194.493 465.139 194.501 467.751 195.113C468.073 195.187 468.393 195.27 468.71 195.36C469.028 195.45 469.344 195.548 469.657 195.654C469.97 195.76 470.28 195.873 470.588 195.995C470.895 196.116 471.2 196.245 471.501 196.382C471.802 196.518 472.099 196.663 472.393 196.814C472.687 196.965 472.977 197.124 473.263 197.29C473.549 197.456 473.83 197.628 474.107 197.808C474.384 197.988 474.657 198.175 474.925 198.368C475.193 198.561 475.456 198.761 475.714 198.968C475.972 199.175 476.225 199.388 476.472 199.607C476.72 199.826 476.961 200.051 477.198 200.282C477.434 200.514 477.664 200.75 477.889 200.993C478.113 201.236 478.331 201.484 478.543 201.738C478.755 201.991 478.961 202.25 479.16 202.514C479.359 202.777 479.551 203.046 479.737 203.319C479.923 203.593 480.102 203.871 480.273 204.153C483.456 209.296 484.604 215.138 483.184 221.06C480.079 234.003 468.643 234.989 458.876 240.908C455.252 243.239 451.421 246.081 448.335 249.084C448.102 243.623 447.78 238.102 446.27 232.818C444.988 228.335 443.041 223.971 442.342 219.345C441.456 213.488 442.69 207.492 446.294 202.735C449.62 198.345 454.252 195.559 459.695 194.795Z" fill="#A5C1DC"/>
<path d="M262.525 124.759C263.661 124.696 264.811 124.618 265.949 124.651C272.416 124.833 279.329 128.34 282.923 133.785C284.718 136.504 285.814 139.7 287.575 142.455C290.175 146.521 293.363 150.148 296.673 153.639C292.62 155.697 287.853 156.95 284.117 159.496C281.284 161.426 279.326 164.366 276.409 166.366C274.223 167.423 271.983 168.229 269.586 168.659C263.692 169.717 258.03 168.367 253.174 164.894C252.874 164.68 252.579 164.459 252.289 164.23C252 164.002 251.716 163.766 251.438 163.523C251.16 163.281 250.888 163.032 250.623 162.776C250.357 162.52 250.098 162.258 249.846 161.989C249.593 161.72 249.347 161.445 249.108 161.164C248.869 160.884 248.638 160.597 248.413 160.304C248.188 160.012 247.971 159.714 247.76 159.411C247.55 159.108 247.348 158.8 247.153 158.487C246.958 158.173 246.771 157.856 246.592 157.533C246.413 157.211 246.242 156.884 246.079 156.553C245.916 156.222 245.761 155.888 245.615 155.549C245.468 155.211 245.33 154.869 245.201 154.523C245.071 154.178 244.95 153.83 244.838 153.479C244.726 153.128 244.622 152.774 244.527 152.417C244.432 152.061 244.346 151.702 244.269 151.341C244.192 150.981 244.124 150.618 244.065 150.254C244.006 149.89 243.955 149.524 243.913 149.157C243.872 148.79 243.839 148.422 243.815 148.054C243.792 147.685 243.777 147.316 243.772 146.947C243.767 146.578 243.77 146.208 243.783 145.839C243.795 145.47 243.817 145.102 243.847 144.734C243.878 144.365 243.918 143.998 243.966 143.632C244.015 143.266 244.072 142.901 244.139 142.538C244.205 142.175 244.28 141.813 244.364 141.454C244.449 141.094 244.542 140.736 244.643 140.381C244.745 140.026 244.855 139.674 244.974 139.324C245.093 138.975 245.22 138.628 245.356 138.285C245.492 137.941 245.637 137.601 245.789 137.265C245.942 136.928 246.102 136.596 246.272 136.267C246.44 135.939 246.617 135.615 246.802 135.295C246.987 134.975 247.179 134.66 247.379 134.35C247.579 134.039 247.787 133.734 248.002 133.434C251.479 128.638 256.722 125.67 262.525 124.759Z" fill="#A5C1DC"/>
<path d="M163.008 416.216L173.605 416.191C173.919 419.415 174.199 422.643 174.445 425.873C180.312 425.777 186.18 425.718 192.049 425.696C197.477 425.671 202.984 425.352 208.302 426.624C214.365 429.076 219.208 432.581 221.859 438.747C223.699 443.026 223.45 446.932 223.883 451.434C192.109 451.208 160.251 450.997 128.48 451.376C128.303 443.001 128.024 434.219 128.552 425.875C133.831 425.461 139.257 425.705 144.558 425.721C148.926 425.734 153.476 425.495 157.813 425.932C159.393 426.091 160.955 426.481 162.475 426.93C162.406 423.347 162.676 419.78 163.008 416.216Z" fill="black"/>
<path d="M163.009 416.216L173.606 416.191C173.919 419.415 174.199 422.643 174.445 425.873C174.449 429.662 174.511 433.461 174.42 437.248C171.224 432.158 168.146 429.103 162.476 426.93C162.407 423.347 162.676 419.78 163.009 416.216Z" fill="#FEFEFE"/>
<path d="M130.125 427.544C136.97 427.471 154.747 426.835 160.38 428.247C161.115 428.426 161.836 428.65 162.544 428.918C163.251 429.185 163.939 429.495 164.609 429.847C165.278 430.199 165.923 430.591 166.545 431.022C167.166 431.453 167.759 431.92 168.323 432.424C173.6 437.174 174.727 442.826 175.059 449.611C160.104 449.716 145.15 449.481 130.195 449.647L130.125 427.544Z" fill="#668CC3"/>
<path d="M176.082 427.692C184.431 427.382 192.951 427.326 201.304 427.539C207.039 427.685 212.802 429.894 216.77 434.126C220.658 438.272 222.233 444.186 222.091 449.772C206.923 449.582 191.743 449.741 176.573 449.679C176.574 442.369 176.152 435.013 176.082 427.692Z" fill="#668CC3"/>
<path d="M443.324 101.643C447.026 100.96 451.643 101.605 455.144 102.958C461.819 105.537 467.857 111.516 470.653 118.083C470.849 118.541 471.033 119.005 471.206 119.472C471.379 119.94 471.54 120.411 471.69 120.887C471.839 121.363 471.976 121.842 472.102 122.324C472.228 122.807 472.341 123.292 472.443 123.78C472.544 124.268 472.633 124.759 472.71 125.251C472.787 125.744 472.852 126.238 472.905 126.734C472.957 127.23 472.997 127.727 473.025 128.224C473.053 128.722 473.068 129.22 473.071 129.719C473.074 130.217 473.065 130.716 473.043 131.214C473.021 131.712 472.987 132.209 472.941 132.705C472.894 133.202 472.835 133.697 472.764 134.19C472.693 134.684 472.61 135.175 472.514 135.664C472.419 136.154 472.311 136.641 472.191 137.125C472.072 137.609 471.94 138.089 471.796 138.567C471.652 139.044 471.497 139.518 471.33 139.988C471.163 140.457 470.984 140.922 470.794 141.383C468.063 147.915 463.11 152.98 456.523 155.633C449.631 158.408 442.06 158.628 435.178 155.73C427.786 152.203 423.571 145.277 417.313 140.344C412.776 136.767 407.542 134.248 403.055 130.699C408.073 128.014 412.948 125.326 417.104 121.369C426.602 112.326 428.277 103.557 443.324 101.643Z" fill="#A5C1DC"/>
<path d="M149.596 135.51C149.6 125.709 148.385 106.307 152.057 97.8521C152.214 97.4877 152.38 97.1273 152.555 96.771C152.73 96.4148 152.913 96.063 153.106 95.7158C153.298 95.3689 153.499 95.0269 153.708 94.6898C153.917 94.3523 154.135 94.0205 154.361 93.6943C154.587 93.3681 154.821 93.0476 155.063 92.7328C155.304 92.4183 155.554 92.1099 155.811 91.8076C156.068 91.5052 156.333 91.2095 156.605 90.9205C156.877 90.6314 157.156 90.3494 157.442 90.0744C157.727 89.799 158.02 89.531 158.319 89.2705C158.618 89.0099 158.924 88.757 159.236 88.5117C159.548 88.2664 159.866 88.0289 160.189 87.7992C160.513 87.5695 160.842 87.348 161.177 87.1347C161.512 86.9214 161.851 86.7168 162.196 86.5207C162.541 86.3242 162.891 86.1365 163.245 85.9576C163.599 85.7787 163.958 85.6087 164.32 85.4478C164.683 85.2869 165.049 85.1349 165.42 84.9919C170.898 82.9183 177.466 82.8205 182.847 85.2615C187.94 87.5712 192.219 92.0982 194.108 97.3757C194.877 99.5255 195.398 102.04 194.289 104.171C193.767 105.176 193.103 105.414 192.091 105.743C191.987 105.778 191.881 105.809 191.776 105.841C191.796 109.409 192.73 124.135 190.529 126.37C189.087 127.834 180.72 127.438 178.535 127.445L178.563 138.476C186.657 140.245 193.744 144.093 199.712 149.847C215.379 164.957 213.162 182.382 213.179 202.027C213.184 207.062 213.128 212.244 216.042 216.61C218.599 220.441 222.661 222.919 227.146 223.789C234.066 225.129 242.755 222.329 246.746 216.336C248.442 213.787 250.168 208.371 252.602 206.73L253.071 206.865C254.587 208.751 255.089 211.754 255.709 214.048C255.943 213.913 256.178 213.78 256.415 213.651C260.524 211.38 265.378 210.307 269.98 211.736C272.78 212.605 275.054 214.312 276.387 216.964C277.414 219.007 277.684 221.313 276.912 223.488C276.161 225.601 274.528 227.326 272.837 228.744C269.499 231.543 265.57 232.702 262.081 235.078C255.823 239.338 250.613 244.757 243.575 247.915C234.413 252.025 223.235 252.492 213.841 248.876C204.016 245.095 196.624 238.572 192.368 228.909C189.492 222.378 189.311 216.618 189.309 209.611C189.308 207.691 189.082 205.311 189.779 203.495L190.147 203.44C191.169 205.264 190.867 207.768 190.855 209.795C190.795 219.725 191.611 227.384 197.9 235.556C203.634 243.008 213.103 248.32 222.412 249.459C237.773 251.338 247.298 244.726 258.762 235.69C255.096 229.907 251.733 223.665 247.467 218.31C244.091 220.84 241.627 223.368 237.437 224.591C232.024 226.172 226.006 225.856 221.032 223.076C217.054 220.853 213.877 217.082 212.513 212.718C211.334 208.942 211.688 204.819 211.693 200.914C211.705 190.768 212.68 179.55 209.797 169.719C209.603 169.039 209.392 168.364 209.164 167.695C208.936 167.026 208.692 166.363 208.432 165.706C208.171 165.049 207.894 164.399 207.601 163.755C207.308 163.112 207 162.476 206.675 161.848C206.351 161.22 206.011 160.601 205.656 159.99C205.301 159.378 204.931 158.776 204.546 158.184C204.16 157.591 203.761 157.008 203.347 156.435C202.933 155.862 202.505 155.299 202.064 154.748C201.622 154.196 201.166 153.655 200.698 153.126C200.229 152.597 199.748 152.08 199.253 151.574C198.759 151.069 198.253 150.576 197.734 150.096C197.215 149.616 196.685 149.149 196.143 148.695C195.601 148.241 195.048 147.801 194.484 147.374C193.921 146.948 193.347 146.536 192.763 146.137C192.179 145.739 191.585 145.356 190.982 144.987C190.379 144.619 189.767 144.266 189.146 143.927C179.71 138.889 168.815 138.134 158.629 141.256C157.995 141.449 157.366 141.658 156.742 141.883C156.119 142.108 155.501 142.347 154.889 142.602C154.277 142.858 153.673 143.128 153.075 143.413C152.476 143.698 151.885 143.998 151.302 144.313C150.718 144.627 150.143 144.956 149.576 145.299C149.009 145.642 148.451 145.999 147.902 146.37C147.352 146.741 146.812 147.125 146.282 147.523C145.752 147.92 145.232 148.331 144.722 148.754C144.212 149.177 143.713 149.613 143.224 150.061C142.736 150.51 142.259 150.969 141.794 151.441C141.328 151.913 140.875 152.396 140.433 152.89C139.992 153.385 139.563 153.89 139.147 154.406C138.73 154.921 138.326 155.447 137.936 155.982C137.546 156.518 137.169 157.063 136.806 157.618C136.443 158.172 136.093 158.735 135.758 159.306C135.423 159.878 135.102 160.458 134.795 161.045C132.572 165.233 130.897 169.794 130.13 174.48C129.396 178.957 129.229 183.589 128.896 188.116C128.264 197.142 127.723 206.173 127.273 215.21C126.942 221.597 126.526 227.978 126.026 234.354C125.677 238.723 125.141 243.121 124.979 247.497C124.946 248.401 124.942 249.349 125.248 250.212C125.78 251.716 127.234 252.339 128.559 253.007L128.917 253.661C128.49 253.717 128.046 253.791 127.613 253.766C126.554 253.707 125.176 253.097 124.483 252.288C123.408 251.03 123.508 248.852 123.56 247.284C123.933 236.102 125.066 224.824 125.758 213.64L127.399 188.43C127.855 182.013 127.928 175.356 129.781 169.155C130.069 168.179 130.39 167.214 130.744 166.259C131.097 165.304 131.482 164.363 131.898 163.434C132.315 162.505 132.761 161.591 133.239 160.692C133.717 159.793 134.224 158.911 134.76 158.046C135.297 157.181 135.861 156.335 136.454 155.508C137.048 154.68 137.668 153.874 138.315 153.088C138.963 152.302 139.635 151.539 140.333 150.799C141.032 150.058 141.754 149.341 142.5 148.649C152.885 139.088 163.336 137.561 176.939 138.151C177.118 134.057 177.181 129.922 176.864 125.832C180.732 125.785 185.449 126.538 189.16 125.432C191.039 123.46 190.311 108.903 190.263 105.614C189.168 104.058 188.03 102.71 186.672 101.378C183.254 103.431 180.417 106.975 177.652 109.817C176.39 108.863 174.913 107.458 173.231 107.525C172.433 107.556 172.083 107.767 171.525 108.3C171.322 109.028 171.331 109.482 171.586 110.18C172.301 112.134 173.876 112.911 175.638 113.735C175.758 119.965 173.63 130.129 169.938 135.207C163.33 136.007 156.258 135.521 149.596 135.51Z" fill="black"/>
<path d="M252.323 209.522C252.408 209.588 252.502 209.644 252.577 209.72C254.014 211.195 254.098 215.246 254.242 217.252C256.652 215.453 258.851 213.937 261.794 213.145C264.954 212.295 268.643 212.365 271.507 214.099C274.113 215.675 275.261 217.932 275.896 220.803C275.064 224.473 273.279 226.329 270.432 228.614C267.207 231.06 263.32 232.548 259.716 234.347L248.594 216.598C249.917 214.28 250.939 211.816 252.323 209.522Z" fill="#FEFEFE"/>
<path d="M171.266 85.2269C173.652 85.0341 176.03 85.0195 178.383 85.5087C183.738 86.6232 187.707 89.6332 190.624 94.2117C191.869 96.1669 194.078 100.219 193.319 102.536C193.026 103.429 192.615 103.703 191.864 104.166C190.966 103.912 190.243 102.589 189.656 101.884C188.857 100.925 187.722 100.052 186.412 100.07C183.945 100.106 179.536 106.215 177.378 108.089C176.017 106.8 174.749 105.555 172.728 105.677C171.845 105.729 171.007 106.119 170.464 106.837C169.714 107.828 169.594 109.219 169.884 110.392C170.501 112.893 172.292 114.199 174.331 115.518C174.05 117.741 173.705 119.923 173.263 122.119C172.356 126.081 171.054 130.304 169.055 133.851C163.118 134.306 157.026 134.052 151.07 134.059C151.074 125.605 150.35 111.054 152.066 103.354C152.813 100.001 154.159 96.7968 156.207 94.0259C160.007 88.882 164.996 86.1234 171.266 85.2269Z" fill="#3F68AC"/>
<path d="M222.311 0.288274C227.312 0.0439377 232.37 0.176362 237.378 0.161128L262.318 0.0872957L276.257 0.0714796C279.157 0.058003 282.182 -0.141219 285.06 0.191008C285.866 0.289055 286.666 0.424801 287.459 0.598239C288.252 0.772067 289.035 0.982806 289.808 1.23046C290.58 1.47851 291.34 1.76249 292.086 2.08241C292.832 2.40233 293.561 2.75683 294.274 3.14589C294.629 3.33964 294.979 3.54198 295.324 3.75292C295.67 3.96386 296.009 4.18319 296.344 4.41093C296.678 4.63866 297.007 4.8744 297.33 5.11815C297.653 5.3619 297.97 5.61327 298.28 5.87226C298.591 6.13163 298.895 6.39843 299.193 6.67265C299.49 6.94686 299.781 7.22812 300.064 7.5164C300.348 7.80507 300.625 8.10039 300.894 8.40234C301.163 8.70429 301.425 9.01269 301.679 9.32753C301.933 9.64237 302.179 9.96328 302.418 10.2902C302.656 10.6172 302.886 10.9498 303.108 11.2881C303.331 11.626 303.544 11.9693 303.749 12.3182C303.954 12.667 304.151 13.0205 304.339 13.3787C304.527 13.7369 304.706 14.0996 304.876 14.4668C305.046 14.834 305.207 15.2051 305.359 15.5801C305.511 15.9551 305.654 16.3336 305.787 16.7156C305.92 17.0976 306.044 17.4826 306.159 17.8705C307.663 22.9834 307.738 51.9937 306.843 57.9926C306.729 58.7496 306.582 59.4998 306.401 60.2431C306.22 60.9865 306.005 61.7203 305.757 62.4445C305.51 63.1687 305.23 63.8803 304.918 64.5791C304.606 65.2779 304.263 65.9611 303.889 66.6287C303.649 67.0603 303.395 67.484 303.128 67.8996C302.861 68.3152 302.581 68.7219 302.288 69.1195C301.995 69.5176 301.69 69.9058 301.373 70.2843C301.055 70.6629 300.726 71.031 300.386 71.3888C300.045 71.7467 299.693 72.0933 299.331 72.4289C298.968 72.7644 298.595 73.0881 298.212 73.3998C297.829 73.7119 297.437 74.0115 297.035 74.2986C296.633 74.5857 296.222 74.8597 295.802 75.1207C284.92 81.9299 274.967 77.3051 263.633 80.5131C256.022 82.7197 250.119 87.791 246.242 94.6511C245.549 95.8787 245.309 97.2996 244.585 98.4931C244.235 99.0709 244.459 98.9033 243.843 99.0545C242.211 98.0912 240.309 93.4166 238.896 91.5597C236.782 88.7853 234.149 86.199 231.238 84.2689C223.269 78.9867 213.889 79.8123 206.333 73.5387C205.993 73.2574 205.66 72.968 205.335 72.6703C205.01 72.3723 204.693 72.0664 204.383 71.7527C204.073 71.4387 203.772 71.117 203.479 70.7877C203.185 70.4584 202.9 70.1221 202.624 69.7787C202.347 69.435 202.08 69.0846 201.821 68.7275C201.562 68.3705 201.313 68.0072 201.073 67.6377C200.832 67.2678 200.602 66.8922 200.38 66.5109C200.159 66.1293 199.947 65.7426 199.746 65.3508C199.544 64.9586 199.352 64.5615 199.17 64.1596C198.988 63.758 198.817 63.3519 198.656 62.9414C198.495 62.5308 198.344 62.1166 198.204 61.6986C198.064 61.2807 197.934 60.8594 197.815 60.4348C197.696 60.0101 197.588 59.5828 197.491 59.1527C197.394 58.7226 197.307 58.2902 197.232 57.8554C197.156 57.4211 197.092 56.9851 197.038 56.5476C196.985 56.1098 196.943 55.6709 196.911 55.231C196.53 50.4574 196.782 45.5262 196.774 40.7308C196.757 30.0668 195.596 18.4365 203.05 9.74941C208.041 3.93281 214.744 0.839055 222.311 0.288274Z" fill="#A5C1DC"/>
<path d="M317.229 303.778C317.257 315.727 317.502 327.719 317.266 339.663L317.311 426.872C311.112 429.558 305.919 433.594 303.388 440.055C303.105 440.789 302.864 441.537 302.664 442.298C302.464 443.059 302.307 443.828 302.193 444.607C302.08 445.385 302.01 446.167 301.983 446.954C301.956 447.74 301.973 448.525 302.034 449.31L248.173 449.333L231.912 449.383C229.886 449.392 227.502 449.126 225.52 449.361C225.127 449.408 224.788 449.558 224.428 449.712C223.952 450.277 223.964 450.727 223.886 451.434C223.452 446.932 223.702 443.026 221.862 438.747C219.211 432.581 214.367 429.076 208.305 426.624C207.461 419.617 208.06 411.929 208.081 404.846C208.108 395.703 207.701 386.331 208.332 377.227C212.663 377.188 216.995 377.178 221.326 377.198C221.679 374.283 222.085 371.387 222.737 368.521C226.22 353.22 235.051 340.023 248.375 331.649C261.093 323.655 275.65 321.322 290.267 324.697C292.024 323.395 293.301 320.686 294.886 319.053C300.798 312.958 309.299 306.957 317.229 303.778Z" fill="#A5C1DC"/>
<path d="M128.555 253.007C137.537 252.467 146.713 252.821 155.719 252.773L208.979 252.769L208.453 334.564L208.445 362.931C208.442 367.617 208.767 372.579 208.327 377.227C207.697 386.331 208.104 395.703 208.077 404.846C208.056 411.929 207.457 419.617 208.3 426.624C202.982 425.352 197.476 425.671 192.047 425.696C186.179 425.718 180.311 425.777 174.443 425.873C174.197 422.643 173.917 419.415 173.604 416.191L163.007 416.216C162.674 419.78 162.405 423.347 162.474 426.93C160.954 426.481 159.392 426.091 157.812 425.932C153.474 425.495 148.924 425.734 144.557 425.721C139.256 425.705 133.829 425.462 128.551 425.875L129.066 425.477C129.92 423.294 129.646 415.944 129.247 413.515C129.316 413.402 129.413 413.302 129.453 413.175C129.926 411.652 129.782 378.038 129.211 376.397C129.924 372.284 129.382 362.981 129.38 358.492C129.379 352.642 129.966 345.419 129.255 339.686C130.103 337.777 129.733 309.834 129.184 306.887L129.505 306.76C129.601 306.408 129.641 306.301 129.682 305.892C130.199 300.595 129.713 292.274 129.707 286.751C129.696 276.629 130.106 266.33 129.574 256.238C129.523 255.268 129.518 254.435 128.914 253.661L128.555 253.007Z" fill="#EBA992"/>
<path d="M164.068 297.277C161.985 297.271 159.776 297.406 157.723 297.066L157.418 296.486L157.619 296.065C159.962 295.313 163.005 295.697 165.439 295.802C166.893 306.251 167.239 316.936 168.188 327.447C168.948 335.324 169.612 343.209 170.179 351.103C170.467 355.047 171.01 359.189 170.82 363.141C170.65 366.699 169.39 370.342 168.905 373.899C168.006 378.378 167.254 382.882 166.649 387.411C166.181 390.71 165.866 394.177 164.994 397.399C164.709 395.504 164.978 393.281 165.079 391.366C165.393 385.398 166.311 379.611 167.348 373.736C168.033 369.859 169.016 365.817 169.068 361.878C169.181 353.218 168.083 344.256 167.34 335.609L164.068 297.277Z" fill="black"/>
<path d="M168.903 373.899C169.327 374.38 169.562 374.73 169.708 375.368C170.793 380.101 170.821 386.036 171.285 390.921C171.888 397.151 172.446 403.384 172.959 409.622C173.143 411.794 173.52 414.022 173.604 416.191L163.008 416.216C163.697 409.95 164.187 403.649 164.992 397.399C165.864 394.177 166.179 390.71 166.647 387.411C167.251 382.882 168.003 378.378 168.903 373.899Z" fill="#A5C1DC"/>
<path d="M402.204 287.06C428.245 284.115 451.813 288.157 475.232 299.942C484.225 304.468 492.611 309.686 500.483 315.974C506.23 320.565 511.376 325.745 516.308 331.192C536.613 353.614 550.065 381.464 553.43 411.646C554.862 424.491 554.568 436.936 553.179 449.751C539.175 450.069 525.114 449.783 511.105 449.758L437.751 449.613L409.658 449.479C405.216 449.45 399.887 448.892 395.521 449.665C394.709 445.778 395.312 437.515 395.327 433.252L395.341 399.215L395.373 333.236L395.364 314.481C395.364 310.917 395.099 307.121 395.598 303.593C396.066 300.268 398.281 296.833 399.634 293.754C400.596 291.566 401.397 289.309 402.204 287.06Z" fill="#A5C1DC"/>
<path d="M34.0378 450.061C24.0492 427.746 42.3399 416.974 36.5772 399.139C33.4108 389.339 24.1337 384.036 17.1304 377.246C16.6571 376.785 16.1921 376.316 15.7353 375.839C15.2784 375.361 14.8301 374.876 14.3902 374.383C13.9503 373.89 13.5193 373.389 13.097 372.881C12.6746 372.373 12.2613 371.858 11.857 371.335C11.4527 370.812 11.0577 370.283 10.6719 369.747C10.2861 369.21 9.90988 368.667 9.54312 368.118C9.17636 367.568 8.81931 367.012 8.47197 366.45C8.12466 365.888 7.7873 365.32 7.45988 364.746C7.13246 364.172 6.81517 363.593 6.50802 363.008C6.20088 362.423 5.90406 361.833 5.61757 361.238C5.33105 360.642 5.05505 360.041 4.78959 359.436C4.52408 358.832 4.26925 358.222 4.02511 357.608C3.78093 356.994 3.54757 356.376 3.32504 355.754C3.10254 355.132 2.89097 354.506 2.69035 353.876C2.48972 353.247 2.30017 352.614 2.1217 351.978C1.94318 351.342 1.77587 350.703 1.61978 350.061C-0.89518 339.606 -0.951372 327.208 4.85691 317.796C9.76994 309.834 17.8517 305.975 27.1192 306.002C32.8348 306.019 38.6368 306.877 44.2606 305.469C48.3001 304.458 51.7214 302.39 53.8471 298.695C60.0165 287.971 53.0397 276.485 48.8854 266.53C46.5247 260.873 44.3977 254.98 42.7577 249.072C36.6469 227.062 36.7067 203.062 48.2831 182.761C53.6268 173.389 61.7977 164.924 72.5245 162.052C78.2772 160.512 84.3546 161.099 89.5179 164.135C116.272 179.867 119.981 250.107 123.791 278.926C125.049 288.436 126.798 297.604 129.186 306.887C129.736 309.834 130.106 337.777 129.258 339.686C129.969 345.419 129.382 352.642 129.383 358.492C129.384 362.981 129.927 372.284 129.213 376.397C129.785 378.038 129.929 411.652 129.455 413.175C129.416 413.302 129.319 413.402 129.25 413.515C128.575 414.326 127.895 415.144 127.33 416.038C121.079 425.941 122.291 439.29 124.748 450.161C112.983 450.076 101.219 450.064 89.454 450.123C89.229 420.556 89.2184 390.99 89.4223 361.424L89.3649 337.096C89.3632 333.261 88.9237 328.649 89.6766 324.911C90.2122 322.252 92.188 319.008 93.3639 316.501L101.896 298.536C103.33 295.513 104.998 292.424 106.154 289.294C106.512 288.327 106.821 287.538 106.375 286.567L105.708 286.509C104.824 287.008 104.294 287.552 103.782 288.437C102.733 290.251 102.128 292.558 101.22 294.487C97.4063 302.585 93.9188 311.252 89.3596 318.938L89.1382 233.691C89.1423 229.808 89.6843 203.921 89.0555 201.479L88.404 201.135C87.6376 201.206 87.5567 201.069 86.9878 201.642C86.2266 206.975 86.8846 212.964 86.8823 218.377L86.8764 255.057C83.6087 250.279 57.7102 214.335 55.8628 213.489C55.496 213.847 55.4544 213.755 55.3964 214.212C55.2516 215.345 56.0046 216.496 56.5934 217.405C58.5944 220.495 61.1503 223.322 63.31 226.325C71.1141 237.178 79.1415 247.857 86.8624 258.772L86.8999 413.11C83.3848 407.684 80.1276 402.069 76.6911 396.589L41.0673 339.149C39.1348 336.038 31.7626 322.915 29.8823 321.345C29.348 320.898 29.3645 320.88 28.6441 320.963C28.6185 321.057 28.5801 321.148 28.5673 321.244C28.2321 323.759 37.121 337.436 38.9245 340.497C33.2358 340.416 27.5469 340.368 21.8578 340.351C19.2647 340.338 16.4182 340.061 13.868 340.38C13.1432 340.47 13.0718 340.485 12.6732 341.048C12.6167 341.817 12.5786 341.803 13.0439 342.409C15.3818 343.503 36.8409 342.87 40.5083 342.862C49.118 356.154 57.1671 369.853 65.5442 383.296C72.685 394.755 80.222 406.027 87.1237 417.626C87.0596 428.447 87.0569 439.267 87.1155 450.087L34.0378 450.061Z" fill="#3A7569"/>
<path d="M129.258 339.686C129.969 345.419 129.382 352.642 129.384 358.492C129.385 362.981 129.927 372.284 129.214 376.397C127.67 374.172 126.548 371.624 125.721 369.052C122.373 358.647 124.35 349.17 129.258 339.686Z" fill="#FEFEFE"/>
<path d="M344.711 128.255C342.256 128.088 339.779 127.751 337.7 126.33C335.441 124.787 334.227 122.31 333.867 119.649C333.469 116.712 333.836 113.545 333.798 110.577C333.692 102.364 332.196 93.849 337.609 86.881C341.095 82.3933 346.422 79.5996 352.042 78.9726C352.431 78.9285 352.821 78.8941 353.212 78.8695C353.603 78.8445 353.994 78.8294 354.386 78.8244C354.777 78.8193 355.169 78.824 355.56 78.8384C355.952 78.8529 356.343 78.8773 356.733 78.9117C357.123 78.9457 357.512 78.9894 357.9 79.0429C358.288 79.0964 358.675 79.1595 359.06 79.2322C359.444 79.3052 359.827 79.3877 360.208 79.4795C360.589 79.5716 360.967 79.6732 361.342 79.7841C361.718 79.8951 362.091 80.0154 362.46 80.1451C362.83 80.2748 363.196 80.4134 363.559 80.5611C363.922 80.7091 364.28 80.8662 364.635 81.0322C364.99 81.1982 365.341 81.3728 365.687 81.556C366.033 81.7396 366.374 81.9316 366.71 82.132C367.047 82.3324 367.378 82.5412 367.704 82.7583C368.03 82.9755 368.351 83.2007 368.665 83.4339C368.98 83.6671 369.289 83.908 369.591 84.1564C369.895 84.4005 370.193 84.6523 370.484 84.9117C370.776 85.1711 371.06 85.4374 371.338 85.7109C371.616 85.9843 371.887 86.2646 372.151 86.5517C372.415 86.8388 372.671 87.1322 372.921 87.4318C373.17 87.7318 373.411 88.0378 373.645 88.3499C373.879 88.6621 374.105 88.9796 374.323 89.3027C374.541 89.6261 374.751 89.9548 374.953 90.2888C375.154 90.6224 375.347 90.9611 375.532 91.3048C375.716 91.6482 375.892 91.996 376.059 92.3484C376.226 92.7007 376.384 93.057 376.534 93.4171C376.683 93.7777 376.823 94.1416 376.954 94.5087C377.085 94.8759 377.207 95.2462 377.319 95.6197C377.432 95.9931 377.535 96.3691 377.628 96.7476C377.722 97.1261 377.806 97.5068 377.881 97.8896C377.955 98.2724 378.02 98.6568 378.076 99.0427C378.131 99.4287 378.176 99.8158 378.212 100.204C378.986 108.161 376.376 115.476 371.318 121.584C369.901 123.295 366.581 127.127 364.33 127.35C363.871 126.969 363.633 126.745 363.053 126.565C361.9 128.144 362.539 132.441 362.589 134.394C362.833 134.461 363.076 134.534 363.317 134.612C377.368 139.178 387.79 150.917 394.194 163.771C411.806 199.12 414.769 249.715 402.205 287.06C401.398 289.309 400.597 291.566 399.635 293.754C398.282 296.834 396.067 300.268 395.599 303.593C395.101 307.121 395.365 310.917 395.366 314.481L395.374 333.236L395.342 399.215L395.328 433.252C395.313 437.515 394.71 445.778 395.523 449.665C395.466 450.03 395.357 450.363 395.251 450.715C394.348 451.144 393.375 451.139 392.393 451.158C384.738 451.305 304.019 451.242 303.082 450.904C302.235 450.599 302.262 450.084 302.032 449.31C301.971 448.525 301.954 447.74 301.981 446.954C302.008 446.167 302.078 445.385 302.192 444.607C302.306 443.828 302.462 443.059 302.662 442.298C302.862 441.537 303.103 440.789 303.386 440.055C305.917 433.594 311.11 429.558 317.309 426.872L317.264 339.663C317.5 327.719 317.255 315.726 317.227 303.778C317.13 296.241 317.589 288.476 317.027 280.974C316.781 277.689 315.452 274.63 315.399 271.284C315.126 254.343 315.414 237.356 315.363 220.406C315.352 216.709 315.54 212.981 315.458 209.291C315.37 205.315 314.899 207.623 313.009 205.806C312.429 203.845 312.774 200.962 312.777 198.884C312.795 187.391 313.558 176.583 317.508 165.647C322.634 151.46 331.19 141.943 344.797 135.521L344.711 128.255Z" fill="black"/>
<path d="M396.887 174.415C400.597 180.849 403.878 197.113 405.229 204.697L398.688 204.742C397.855 194.724 396.898 184.467 396.887 174.415Z" fill="#E16349"/>
<path d="M356.858 366.059C357.577 368.446 357.705 371.236 358.026 373.724L359.906 389.044C361.407 401.428 363.374 413.797 364.534 426.212L360.668 426.198L352.676 426.233C352.825 418.272 353.835 410.235 354.405 402.283C355.273 390.214 355.842 378.117 356.858 366.059Z" fill="#A5C1DC"/>
<path d="M398.843 206.689L405.658 206.732C410.69 233.796 408.556 268.326 397.651 293.804C396.972 295.697 396.18 297.553 395.419 299.415C395.361 292.559 394.742 248.529 395.676 246.551C397.335 246.019 398.735 245.321 399.923 244.009C400.852 242.982 401.329 241.748 401.486 240.386C401.996 235.946 401.065 230.995 400.632 226.552C399.943 219.94 399.346 213.319 398.843 206.689Z" fill="#FEFEFE"/>
<path d="M335.326 99.9855L353.615 99.9756C353.745 102.889 354.46 104.027 356.429 106.105C356.702 105.349 356.961 104.333 357.43 103.679C358.045 102.824 358.797 102.517 359.811 102.339C360.301 102.488 360.531 102.463 360.867 102.887C361.656 103.881 361.621 105.321 361.437 106.52C360.97 109.577 358.825 110.334 356.691 112.119C355.952 112.737 355.501 113.541 355.47 114.52C355.388 117.145 358.306 121.55 360.106 123.36C360.578 123.835 360.895 124.169 361.195 124.788L360.825 125.588C360.837 128.234 361.78 133.068 360.433 135.34C358.461 136.838 349.24 135.863 346.187 135.8L346.165 126.363L344.169 126.393C341.727 126.425 339.318 125.846 337.569 124.031C336.531 122.955 335.896 121.61 335.582 120.156C334.713 116.126 335.33 104.958 335.326 99.9855Z" fill="#FEFEFE"/>
<path d="M348.256 116.384C348.725 116.437 348.892 116.547 349.291 116.781L349.362 117.313C347.952 119.179 345.08 120.398 343.055 121.48C342.486 121.303 342.405 121.266 342.012 120.821C342.476 119.293 346.8 117.251 348.256 116.384Z" fill="black"/>
<path d="M352.928 427.903L377.769 427.926C383.008 427.934 388.286 427.802 393.518 428.09C393.502 431.282 394.06 447.844 393.257 449.442L352.926 449.515L352.928 427.903Z" fill="#668CC3"/>
<path d="M353.932 80.5548C354.223 80.5372 354.516 80.5249 354.808 80.5267C360.66 80.563 365.855 82.653 370.03 86.778C374.653 91.3466 376.736 97.2001 376.711 103.651C376.674 112.886 371.328 119.323 365.12 125.521C362.223 122.891 360.034 121.287 358.18 117.696C357.628 116.383 357.251 115.01 356.842 113.647L357.074 113.537L357.459 113.348C359.905 112.178 361.582 110.694 362.584 108.104C363.254 106.372 363.406 104.13 362.526 102.44C362.097 101.615 361.39 100.965 360.473 100.727C358.641 100.25 356.962 101.158 355.475 102.114L354.894 98.2911C348.334 98.4903 341.773 98.5817 335.211 98.5653C335.342 94.1427 336.653 90.3915 339.548 87.0329C343.383 82.5833 348.217 80.9954 353.932 80.5548Z" fill="#3F68AC"/>
<path d="M322.565 427.714C331.98 427.122 341.726 427.627 351.176 427.651L351.159 449.431L332.322 449.368L303.684 449.269C303.721 444.076 304.803 439.428 308.087 435.278C311.724 430.683 316.853 428.406 322.565 427.714Z" fill="#668CC3"/>
<path d="M317.015 206.443C325.125 206.363 333.24 206.436 341.35 206.456L341.423 267.683L341.38 284.191C341.365 287.732 341.539 291.444 341.074 294.954C340.836 296.748 339.836 298.242 338.825 299.688C337.453 300.937 336.026 301.833 334.106 301.798C331.579 301.753 329.465 300.064 327.779 298.331C322.378 292.779 318.772 282.973 317.471 275.389C316.276 268.419 317.033 257.688 317.035 250.402C316.91 235.748 316.904 221.096 317.015 206.443Z" fill="#FEFEFE"/>
<path d="M362.941 136.831C368.708 137.878 375.2 142.745 379.449 146.585C385.836 152.358 391.969 160.853 394.58 169.153C395.456 171.938 395.059 175.777 395.112 178.696C395.363 192.138 396.809 205.642 398.119 219.018C398.696 224.901 399.468 230.843 399.72 236.748C399.826 239.26 400.076 241.417 398.156 243.355C397.215 244.305 396.049 244.429 394.777 244.574C390.016 245.119 384.769 244.649 379.962 244.616L351.154 244.536L342.987 244.547L343.177 204.899L314.539 204.853C314.451 187.373 314.969 171.605 324.066 155.972C328.109 149.026 338.547 137.801 347.099 137.381C352.094 137.135 357.825 138.267 362.663 136.915C362.756 136.889 362.848 136.859 362.941 136.831Z" fill="#E16349"/>
<path d="M342.997 246.268L393.681 246.344L393.654 426.463L366.191 426.277C364.75 411.318 362.737 396.302 360.779 381.398C359.724 373.362 358.183 365.054 357.859 356.962C357.493 347.798 359.101 338.164 359.901 329.035C360.845 318.275 361.327 307.441 362.678 296.723C363.768 296.263 364.933 295.639 365.902 294.949C366.917 294.227 368.222 292.917 368.456 291.669L367.833 291.581C366.507 291.954 365.582 292.761 364.51 293.587C363.401 294.303 362.304 294.739 361.073 295.197C357.093 338.745 353.688 382.337 350.859 425.975C341.175 425.939 328.216 425.155 318.973 426.559L318.945 317.913C318.944 307.236 318.604 296.546 318.69 285.877C320.689 290.056 322.551 294.51 325.543 298.096C327.699 300.68 330.509 303.142 334.03 303.343C334.279 303.359 334.528 303.362 334.778 303.353C335.027 303.343 335.275 303.32 335.522 303.285C335.769 303.249 336.013 303.2 336.255 303.139C336.497 303.078 336.735 303.005 336.969 302.919C337.203 302.834 337.433 302.736 337.657 302.626C337.881 302.517 338.099 302.396 338.31 302.263C338.522 302.131 338.726 301.989 338.923 301.835C339.119 301.682 339.308 301.518 339.487 301.345C341.083 299.831 341.933 297.764 342.338 295.636C343.44 289.849 342.89 283.284 342.906 277.379L342.997 246.268Z" fill="#3F68AC"/>
</svg>
