<svg width="256" height="240" viewBox="0 0 256 240" fill="none" xmlns="http://www.w3.org/2000/svg">
<path d="M0.0952054 60.6265C0.0841073 60.4585 0.0734071 60.2917 0.0706325 60.1237C-0.102972 48.1897 0.103132 36.2341 0.0789545 24.2979L0.0563594 12.4889C0.0527922 10.1956 -0.145779 7.77607 0.22442 5.50287C0.477296 3.9498 0.865725 2.88881 2.3707 1.75221C4.7425 -0.0392755 7.32874 0.0415182 10.4069 0.0329815L50.4795 0.0387734L62.027 0.0402993C64.1063 0.0399945 66.3818 -0.101166 68.427 0.146703C68.6228 0.171907 68.817 0.203106 69.0096 0.240302C69.2022 0.2777 69.3926 0.320792 69.5808 0.369573C69.7689 0.418557 69.9543 0.47313 70.1369 0.533293C70.3195 0.59366 70.4985 0.659515 70.6739 0.730857C70.8496 0.8022 71.0214 0.878725 71.1892 0.960433C71.3567 1.04235 71.5199 1.12924 71.6787 1.22111C71.8375 1.31298 71.9912 1.40953 72.1397 1.51075C72.2884 1.61197 72.4316 1.71766 72.5693 1.82782C72.7984 2.01441 73.0101 2.21208 73.2043 2.42082C73.3985 2.62956 73.5734 2.84745 73.729 3.07449C73.885 3.30152 74.02 3.53557 74.1341 3.77663C74.2485 4.0179 74.3412 4.26393 74.412 4.51475C75.064 6.78978 74.5357 13.0588 74.523 15.6661C85.4751 15.9219 96.5276 15.7311 107.492 15.7454C111.43 15.7506 116.809 15.3472 120.6 15.9469C122.877 16.307 124.975 17.2299 126.64 18.4668C128.223 19.6427 129.606 21.2507 130.03 22.9269C130.549 24.9784 130.399 27.112 130.398 29.1907L130.413 37.2372L130.573 72.3828C132.14 73.2846 133.367 74.2325 133.914 75.7353C134.578 77.5591 133.814 79.5996 132.68 81.2237C133.52 82.9716 134.462 84.7567 134.552 86.6418C134.706 89.8458 133.151 89.9735 130.849 92.0041C130.464 92.3443 130.346 92.6464 130.365 93.0958C130.425 93.1638 130.452 93.2596 130.545 93.2998C130.662 93.3507 138.772 93.4532 140.454 93.7879C145.777 94.8471 148.927 97.931 151.623 101.395L151.546 59.693L151.525 44.8156C151.526 42.0634 151.356 39.2296 151.622 36.4871C151.74 35.2731 152.042 34.1487 152.8 33.0642C154.313 30.8987 157.109 29.1023 160.18 28.3974C163.789 27.5696 170.335 28.0154 174.298 28.0276L190.67 28.0498L220.786 28.0169C226.195 28.0132 231.748 27.8123 237.142 28.0821C238.988 28.1742 240.482 28.4447 242.121 29.1282C242.303 29.2024 242.482 29.2801 242.659 29.3614C242.835 29.4427 243.009 29.5274 243.179 29.6154C243.35 29.7034 243.518 29.7947 243.683 29.8892C243.848 29.9837 244.009 30.0814 244.168 30.1822C244.326 30.2832 244.481 30.3872 244.633 30.4941C244.784 30.601 244.932 30.7107 245.076 30.8233C245.221 30.9362 245.361 31.0516 245.498 31.1697C245.634 31.288 245.767 31.4088 245.896 31.5322C246.024 31.6556 246.149 31.7814 246.269 31.9096C246.39 32.0379 246.506 32.1684 246.618 32.3011C246.729 32.4338 246.837 32.5687 246.94 32.7057C247.042 32.8427 247.141 32.9816 247.234 33.1225C247.328 33.2631 247.417 33.4056 247.501 33.5499C247.586 33.6942 247.665 33.8401 247.74 33.9874C247.815 34.1348 247.884 34.2836 247.949 34.4338C248.014 34.5838 248.074 34.735 248.129 34.8874C249.186 37.76 248.678 45.3309 248.683 48.7001L248.677 73.3767L248.697 112.281C248.701 118.763 249.069 125.372 248.667 131.842C248.554 133.681 248.122 135.447 246.918 137.059C245.323 139.196 242.479 140.883 239.358 141.473C235.429 142.216 226.837 141.837 222.394 141.839L194.836 141.883L175.804 141.877C172.425 141.885 168.896 142.085 165.538 141.852C165.035 141.821 164.538 141.768 164.044 141.691C163.55 141.614 163.064 141.516 162.586 141.394C162.107 141.273 161.64 141.131 161.184 140.967C160.728 140.803 160.286 140.618 159.858 140.414C156.16 138.648 154.885 136.081 153.905 132.958C154.091 137.063 154.893 141.225 155.39 145.318C155.575 146.837 155.908 148.442 155.841 149.961L155.58 150.143C155.062 150.141 154.585 150.151 154.07 150.204C153.994 150.281 153.886 150.344 153.84 150.434C153.547 151.009 153.34 156.433 153.241 157.58L151.468 178.779C151.118 183.362 150.94 187.992 150.363 192.56L150.212 193.517C150.177 195.485 149.871 197.487 149.689 199.453C149.415 202.418 149.208 205.396 148.822 208.354C147.232 208.407 145.628 208.39 144.036 208.402C143.711 210.301 143.462 212.253 143.408 214.168L146.61 214.21C146.688 216.348 146.647 218.494 146.68 220.633C148.734 222.039 151.378 223.168 153.677 224.327C157.396 226.225 161.133 228.1 164.889 229.953C167.178 231.061 169.881 232.116 171.812 233.588C174.061 235.302 173.778 237.757 173.746 239.99L87.8101 240C87.9559 236.584 88.6472 233.112 89.1359 229.716C89.8578 224.543 90.6201 219.372 91.4229 214.206C92.1613 214.227 92.8799 214.286 93.5906 214.1C94.3135 212.495 94.155 210.147 94.3024 208.425L90.7122 208.411C90.4582 203.484 91.2088 198.409 91.5549 193.483L91.589 192.576C92.4467 186.433 92.4705 180.115 92.9425 173.937C93.3122 169.232 93.6492 164.527 93.9536 159.819C94.1855 156.567 94.5387 153.296 94.4875 150.037L91.1478 149.99C92.4062 143.32 93.1538 136.453 93.8308 129.733C93.6437 129.601 93.4583 129.468 93.2747 129.334C91.0261 127.685 89.6979 125.618 89.6539 123.204C89.5731 118.794 94.522 107.843 97.2006 103.711C98.4535 101.778 99.899 99.9024 101.891 98.3627C109.655 92.3608 119.312 93.3748 129.357 93.3815C129.788 91.2382 129.057 90.3007 128.841 88.3815L129.087 88.1845C130.066 88.5369 130.202 89.8504 130.812 90.4888L131.269 90.4675C132.035 90.111 132.585 89.7479 132.974 89.112C134.373 86.8165 132.742 83.6469 131.725 81.4286C131.408 81.6914 131.097 81.9587 130.793 82.2305C129.284 83.5887 129.159 84.6146 129.341 86.3116C127.616 87.2705 126.359 88.6464 124.901 89.8278C123.457 90.9986 121.82 91.8596 120.027 92.6815L119.794 92.6294C116.855 91.9513 111.454 88.9065 110.049 86.7625C108.429 84.2884 112.238 81.2762 113.129 78.9524C113.512 77.9523 113.435 76.8749 113.899 75.8795C113.978 75.703 114.069 75.5302 114.171 75.3609C114.273 75.1915 114.386 75.0266 114.51 74.866C114.633 74.7053 114.767 74.5498 114.911 74.3996C115.054 74.2491 115.208 74.1046 115.37 73.966C115.533 73.8276 115.704 73.6957 115.884 73.5703C116.064 73.4449 116.252 73.3268 116.447 73.216C116.642 73.105 116.844 73.002 117.053 72.9069C117.261 72.8115 117.475 72.7244 117.695 72.6456C119.992 71.826 122.031 72.1212 124.315 72.7194C125.979 72.2407 127.447 72.0413 129.222 71.9928L129.207 37.5628C129.183 33.702 129.673 26.4266 128.745 23.0891C128.357 21.6949 127.148 20.3058 125.861 19.3C124.457 18.2034 122.643 17.2948 120.665 16.9887C116.443 16.3359 109.477 16.6957 104.939 16.693L74.5796 16.6759L74.521 46.6916C74.5226 51.3023 74.7727 55.942 74.5654 60.5463C70.161 60.8305 65.6307 60.6292 61.2065 60.6171L39.7802 60.6411L13.6261 60.6884C9.15833 60.6933 4.5475 60.8759 0.0952054 60.6265Z" fill="#010001"/>
<path d="M152.851 63.5398C169.634 63.2513 186.48 63.4541 203.271 63.4623C218.013 63.4693 232.79 63.2571 247.529 63.426L247.542 111.826L247.526 125.495C247.531 128.171 247.826 131.088 247.284 133.733C246.925 135.488 245.815 137.068 244.192 138.319C243.98 138.484 243.759 138.642 243.53 138.793C243.301 138.945 243.065 139.089 242.821 139.226C242.577 139.363 242.327 139.493 242.07 139.615C241.813 139.737 241.55 139.85 241.282 139.956C241.013 140.062 240.739 140.16 240.461 140.25C240.182 140.339 239.899 140.42 239.612 140.492C239.326 140.565 239.035 140.628 238.742 140.683C238.449 140.738 238.153 140.784 237.855 140.82C235.477 141.13 232.71 140.936 230.286 140.932L216.237 140.905L167.833 140.949C164.154 140.936 161.155 140.465 158.481 138.377C156.795 137.062 155.955 135.604 155.481 133.814C159.639 132.968 163.077 131.774 165.347 128.822C167.489 126.038 167.677 122.877 168.402 119.769L171.208 107.142C174.249 107.066 177.284 107.157 180.325 107.129C180.331 100.922 180.154 94.6807 180.345 88.4779L180.34 87.8194C180.305 85.7525 180.299 83.6856 180.32 81.6187L160.238 81.5995L160.243 98.5451C160.243 100.851 159.912 103.821 160.141 106.019C160.178 106.366 160.495 106.68 160.731 106.963C160.646 107.585 158.953 108.701 158.492 110.209C156.527 107.735 154.442 105.276 152.645 102.729C153.262 100.028 152.856 94.1536 152.848 91.1877C152.823 81.9854 152.549 72.7375 152.851 63.5398Z" fill="white"/>
<path d="M180.324 87.8203C192.501 87.6982 204.678 87.6584 216.856 87.7011C222.625 87.7011 228.481 87.4843 234.236 87.6258C234.866 87.6414 235.482 87.6795 236.074 87.8548L236.145 88.1215C235.687 88.4036 235.363 88.4414 234.78 88.4755C233.078 88.5749 231.303 88.4447 229.592 88.4462L217.619 88.4734L180.329 88.4789L180.324 87.8203Z" fill="#6BA1D5"/>
<path d="M182.282 113.84C191.568 113.734 200.879 113.835 210.168 113.838C215.164 113.839 221.165 113.56 226.031 113.932C227.152 114.018 228.013 114.151 228.943 114.663C230.419 115.475 231.313 116.745 231.59 118.111C231.892 119.598 231.5 121.34 230.274 122.544C229.21 123.589 227.834 124.109 226.151 124.297L197.638 124.273L187.948 124.313C186.078 124.321 184.104 124.417 182.248 124.261C180.911 124.149 179.586 123.92 178.516 123.26C177.094 122.383 176.36 120.987 176.218 119.615C176.067 118.157 176.463 116.33 177.778 115.21C179.015 114.155 180.539 113.942 182.282 113.84Z" fill="#EE5F59"/>
<path d="M166.578 77.6664C181.613 77.9759 196.722 77.8137 211.764 77.7478C214.208 77.7372 234.633 77.4524 235.764 77.742C236.145 77.8396 236.137 77.9948 236.315 78.2564C236.241 78.274 236.168 78.2954 236.092 78.3091C233.823 78.7225 224.37 78.4125 221.2 78.4073L186.323 78.4244C183.8 78.424 167.706 78.6676 166.713 78.2271L166.578 77.6664Z" fill="#3B6ABD"/>
<path d="M8.86699 1.0394L48.2211 1.0205L60.3155 0.998852C62.7694 0.994889 65.3232 0.876291 67.7541 1.14459C69.323 1.31776 70.3293 1.57447 71.4883 2.45588C72.3758 3.13089 73.0318 3.94158 73.2208 4.90165C73.6378 7.01967 73.3485 9.37732 73.3187 11.5209C73.2763 14.6161 73.3314 17.7085 73.3326 20.8037L73.3116 59.657L65.8952 59.6707L1.36178 59.664L1.34671 23.1754L1.34116 12.1261C1.34077 9.99684 1.18182 7.78218 1.49733 5.66751C1.6757 4.47085 2.03322 3.3998 3.15296 2.50345C4.71267 1.25465 6.7496 1.09123 8.86699 1.0394Z" fill="white"/>
<path d="M24.8268 43.0892C24.6102 42.9601 24.3969 42.8278 24.1871 42.6923C23.9773 42.5567 23.7709 42.4181 23.568 42.2764C23.3653 42.1345 23.1662 41.9898 22.9707 41.8422C22.7751 41.6945 22.5834 41.5439 22.3955 41.3904C22.2074 41.2372 22.0233 41.0811 21.8434 40.9221C21.6634 40.7632 21.4876 40.6016 21.3158 40.4373C21.1438 40.2731 20.9761 40.1064 20.8128 39.9373C20.6495 39.768 20.4905 39.5964 20.3356 39.4224C20.181 39.2484 20.0308 39.0722 19.8849 38.8937C19.7391 38.7153 19.5978 38.5347 19.4612 38.352C19.3246 38.1692 19.1926 37.9846 19.0653 37.798C18.9381 37.6112 18.8157 37.4227 18.6978 37.2324C18.58 37.0422 18.467 36.8502 18.3589 36.6565C18.2508 36.4628 18.1478 36.2675 18.0498 36.0705C17.9517 35.8738 17.8586 35.6756 17.7703 35.476C17.6821 35.2764 17.599 35.0756 17.521 34.8735C17.443 34.6715 17.3702 34.4684 17.3026 34.2641C17.235 34.0598 17.1725 33.8546 17.1151 33.6485C17.0578 33.4424 17.0057 33.2355 16.9589 33.0278C16.9122 32.8201 16.8707 32.6117 16.8345 32.4028C16.798 32.1938 16.767 31.9845 16.7413 31.7747C16.7157 31.5648 16.6954 31.3546 16.6803 31.1442C16.6652 30.9337 16.6555 30.7231 16.651 30.5125C16.6467 30.3017 16.6478 30.091 16.6541 29.8802C16.6602 29.6694 16.6717 29.4588 16.6886 29.2485C16.7055 29.0381 16.7279 28.828 16.7556 28.6183C16.7831 28.4085 16.8159 28.1993 16.8539 27.9905C16.8922 27.7818 16.9357 27.5738 16.9843 27.3664C17.0329 27.1589 17.0868 26.9523 17.146 26.7466C17.2052 26.5407 17.2696 26.3358 17.3391 26.132C17.4086 25.9281 17.4832 25.7254 17.563 25.5237C17.6428 25.3221 17.7276 25.1217 17.8175 24.9225C17.9073 24.7233 18.0022 24.5256 18.1021 24.3295C18.2022 24.1332 18.3071 23.9384 18.4168 23.7453C18.5265 23.5523 18.641 23.3608 18.7604 23.171C18.8801 22.9813 19.0045 22.7935 19.1334 22.6075C19.2624 22.4216 19.396 22.2376 19.5342 22.0557C19.6724 21.8736 19.8152 21.6937 19.9626 21.516C20.1101 21.3384 20.2619 21.163 20.4181 20.9898C20.5745 20.8167 20.7351 20.6459 20.9 20.4776C21.0649 20.3091 21.234 20.1433 21.4074 19.9801C21.5805 19.8168 21.7578 19.6562 21.9393 19.498C22.1208 19.3401 22.3062 19.1849 22.4954 19.0325C22.6846 18.88 22.8776 18.7305 23.0745 18.584C23.2714 18.4373 23.4719 18.2935 23.6762 18.1529C23.8802 18.0122 24.0878 17.8747 24.2989 17.7404C24.51 17.606 24.7245 17.4748 24.9422 17.3468C25.1599 17.2187 25.3807 17.094 25.6045 16.9727C25.8286 16.8514 26.0557 16.7334 26.2859 16.6187C26.5158 16.5041 26.7486 16.393 26.9843 16.2855C27.2197 16.1778 27.4579 16.0737 27.6989 15.9733C27.9399 15.8729 28.1833 15.776 28.429 15.6827C28.6748 15.5896 28.9228 15.5002 29.173 15.4144C29.4235 15.3287 29.676 15.2467 29.9305 15.1684C30.1849 15.0902 30.4413 15.0158 30.6994 14.9452C30.9576 14.8747 31.2175 14.808 31.4791 14.7452C31.7407 14.6826 32.0039 14.6239 32.2686 14.569C32.5332 14.5141 32.799 14.4632 33.0661 14.4163C33.3333 14.3693 33.6015 14.3264 33.8708 14.2876C34.1403 14.2488 34.4106 14.2139 34.6817 14.183C34.9526 14.1523 35.2242 14.1256 35.4967 14.1028C35.7694 14.0803 36.0423 14.0618 36.3156 14.0474C36.5891 14.0327 36.8627 14.0223 37.1364 14.0159C37.4105 14.0099 37.6845 14.0077 37.9585 14.0095C38.2325 14.0114 38.5064 14.0174 38.7802 14.0275C39.0539 14.0377 39.3273 14.0519 39.6003 14.0702C39.8732 14.0885 40.1457 14.111 40.4176 14.1376C40.6895 14.164 40.9606 14.1945 41.2309 14.2291C41.5012 14.2636 41.7705 14.3022 42.0387 14.3449C42.3072 14.3876 42.5745 14.4342 42.8406 14.4849C43.1064 14.5355 43.371 14.5901 43.6345 14.6489C43.8977 14.7074 44.1593 14.7699 44.4193 14.8364C44.6793 14.9026 44.9376 14.9729 45.1942 15.0471C45.4508 15.1212 45.7054 15.1992 45.958 15.2809C46.2104 15.3628 46.4607 15.4484 46.7091 15.5376C46.9572 15.6268 47.2031 15.7197 47.4468 15.8163C47.6904 15.913 47.9314 16.0133 48.1697 16.1172C48.4083 16.2211 48.6442 16.3284 48.8772 16.4392C49.11 16.5501 49.3401 16.6646 49.5673 16.7824C49.7946 16.9001 50.0188 17.0213 50.24 17.1459C50.4611 17.2705 50.679 17.3982 50.8936 17.5291C51.1084 17.6602 51.3197 17.7945 51.5274 17.9319C51.7353 18.0693 51.9397 18.2097 52.1405 18.3532C52.3411 18.4967 52.5381 18.6431 52.7315 18.7925C52.9249 18.9419 53.1144 19.0941 53.2999 19.2489C53.4857 19.404 53.6673 19.5619 53.8449 19.7224C54.0225 19.883 54.196 20.0461 54.3654 20.2118C54.5347 20.3774 54.6999 20.5456 54.8608 20.7163C55.0217 20.8869 55.1783 21.0598 55.3305 21.2353C55.4824 21.4105 55.63 21.588 55.7733 21.7679C55.9165 21.9476 56.0551 22.1294 56.189 22.3133C56.3227 22.4973 56.452 22.683 56.5767 22.8706C56.7011 23.0585 56.8208 23.2481 56.9358 23.4396C57.0507 23.6308 57.1608 23.8238 57.266 24.0185C57.3711 24.213 57.4713 24.4092 57.5664 24.6069C57.6618 24.8045 57.752 25.0035 57.8371 25.2039C57.9222 25.4043 58.0023 25.6058 58.0773 25.8085C58.1524 26.0113 58.2221 26.2151 58.2866 26.4198C58.3513 26.6247 58.4108 26.8305 58.465 27.0372C58.5191 27.2437 58.5682 27.451 58.612 27.6591C58.6559 27.8673 58.6943 28.0759 58.7274 28.285C58.7607 28.4944 58.7885 28.7041 58.811 28.914C58.8337 29.1242 58.851 29.3346 58.8629 29.5451C58.8748 29.7557 58.8814 29.9664 58.8827 30.1771C58.8838 30.3879 58.8797 30.5986 58.8705 30.8092C58.861 31.0199 58.8462 31.2304 58.8261 31.4406C58.806 31.6507 58.7806 31.8606 58.75 32.0702C58.7193 32.2795 58.6834 32.4885 58.6422 32.697C58.6009 32.9053 58.5544 33.113 58.5026 33.3199C58.4508 33.527 58.3939 33.7332 58.3318 33.9385C58.2697 34.1438 58.2023 34.348 58.1296 34.5513C58.0572 34.7545 57.9797 34.9566 57.897 35.1574C57.814 35.3584 57.7262 35.5581 57.6334 35.7565C57.5404 35.9547 57.4425 36.1515 57.3397 36.347C57.2369 36.5424 57.1292 36.7361 57.0167 36.9282C56.9041 37.1204 56.7866 37.3109 56.6643 37.4995C56.5419 37.6881 56.415 37.8748 56.2834 38.0596C56.1515 38.2445 56.0152 38.4274 55.8743 38.6081C55.7332 38.7887 55.5877 38.9673 55.4379 39.1437C55.2878 39.3202 55.1334 39.4942 54.9746 39.666C54.8158 39.8377 54.6526 40.0071 54.4851 40.1739C54.3178 40.341 54.1463 40.5053 53.9706 40.6669C53.7948 40.8287 53.6152 40.9879 53.4315 41.1444C53.2476 41.3007 53.0598 41.4542 52.8683 41.605C52.677 41.7557 52.4817 41.9034 52.2824 42.0483C52.0835 42.1933 51.8809 42.3351 51.6748 42.474C51.4687 42.6128 51.259 42.7485 51.0458 42.881C50.8328 43.0137 50.6165 43.1431 50.3969 43.2691C50.1675 43.4008 49.9349 43.5289 49.6989 43.6532C49.4627 43.7776 49.2234 43.8983 48.9811 44.0151C48.7385 44.132 48.493 44.245 48.2446 44.3542C47.9962 44.4635 47.7451 44.5688 47.4911 44.67C47.2369 44.7715 46.9804 44.8688 46.7214 44.9621C46.4622 45.0556 46.2006 45.1449 45.9366 45.2301C45.6729 45.3153 45.4069 45.3963 45.1387 45.4731C44.8705 45.5499 44.6004 45.6225 44.3285 45.6908C44.0566 45.7593 43.783 45.8234 43.5077 45.8832C43.2323 45.9431 42.9555 45.9987 42.6773 46.0499C42.3988 46.1009 42.1192 46.1477 41.8386 46.1902C41.5577 46.2326 41.2758 46.2708 40.9931 46.3045C40.7104 46.338 40.4268 46.3672 40.1425 46.392C39.8582 46.4168 39.5733 46.4371 39.2879 46.453C39.0025 46.4688 38.7168 46.4802 38.4306 46.4871C38.1447 46.494 37.8586 46.4965 37.5724 46.4944C37.2863 46.4926 37.0004 46.4862 36.7147 46.4752C36.4288 46.4643 36.1434 46.4488 35.8586 46.4289C35.5734 46.409 35.289 46.3847 35.0052 46.356C34.7216 46.3272 34.4389 46.2939 34.1569 46.2563C33.875 46.2187 33.5941 46.1768 33.3143 46.1304C33.0347 46.0839 32.7563 46.0331 32.4791 45.978C32.2022 45.9229 31.9267 45.8635 31.6527 45.7999C31.3789 45.7361 31.1069 45.6681 30.8366 45.596C30.5662 45.5238 30.2979 45.4474 30.0316 45.3667C29.7655 45.286 29.5015 45.2012 29.2396 45.1124C28.9777 45.0236 28.7184 44.9307 28.4615 44.8338C28.2047 44.7368 27.9505 44.6359 27.6989 44.531C27.4474 44.4259 27.1987 44.3171 26.953 44.2045C26.7072 44.0917 26.4645 43.9752 26.2248 43.8551C25.9852 43.7347 25.7488 43.6108 25.5157 43.4831C25.2827 43.3553 25.053 43.224 24.8268 43.0892Z" fill="#6BA1D5"/>
<path d="M30.5197 32.1941C33.3684 30.8197 36.562 30.2374 39.8934 30.8469C41.4678 31.1347 42.9439 31.7243 44.4017 32.2521C47.952 34.3713 49.4015 36.8726 49.9655 40.2485C50.1259 41.2538 50.269 42.2606 50.3948 43.269C50.1654 43.4007 49.9328 43.5287 49.6968 43.6531C49.4606 43.7775 49.2213 43.8982 48.979 44.015C48.7364 44.1319 48.4909 44.2449 48.2425 44.3541C47.9941 44.4634 47.743 44.5687 47.489 44.6699C47.2348 44.7713 46.9782 44.8687 46.7193 44.962C46.4601 45.0555 46.1985 45.1448 45.9345 45.23C45.6708 45.3152 45.4048 45.3961 45.1366 45.473C44.8684 45.5498 44.5983 45.6224 44.3264 45.6907C44.0545 45.7592 43.7809 45.8233 43.5055 45.883C43.2302 45.943 42.9534 45.9986 42.6751 46.0498C42.3966 46.1008 42.1171 46.1476 41.8364 46.1901C41.5555 46.2325 41.2737 46.2706 40.991 46.3044C40.7082 46.3379 40.4247 46.3671 40.1404 46.3919C39.856 46.4167 39.5712 46.437 39.2858 46.4529C39.0004 46.4687 38.7146 46.4801 38.4285 46.487C38.1425 46.4939 37.8565 46.4964 37.5703 46.4943C37.2842 46.4925 36.9982 46.4861 36.7126 46.4751C36.4267 46.4641 36.1413 46.4487 35.8564 46.4288C35.5713 46.4089 35.2869 46.3846 35.0031 46.3559C34.7195 46.3271 34.4368 46.2938 34.1548 46.2562C33.8729 46.2186 33.592 46.1766 33.3122 46.1303C33.0326 46.0838 32.7542 46.0329 32.477 45.9779C32.2001 45.9228 31.9246 45.8634 31.6506 45.7998C31.3768 45.736 31.1048 45.668 30.8345 45.5958C30.5641 45.5237 30.2958 45.4473 30.0294 45.3666C29.7633 45.2859 29.4994 45.2011 29.2375 45.1123C28.9756 45.0235 28.7163 44.9306 28.4594 44.8336C28.2026 44.7367 27.9484 44.6358 27.6968 44.5309C27.4453 44.4258 27.1966 44.317 26.9508 44.2044C26.7051 44.0916 26.4624 43.9751 26.2227 43.855C25.9831 43.7346 25.7467 43.6107 25.5136 43.483C25.2806 43.3552 25.0509 43.2239 24.8247 43.0891C24.6793 42.1455 24.6646 41.2369 24.8033 40.2921C25.2825 37.0229 27.1578 34.2359 30.5197 32.1941Z" fill="#EE5F59"/>
<path d="M31.112 24.7351C31.4145 23.0591 32.0475 21.7253 33.9033 20.6804C34.0555 20.5932 34.213 20.5122 34.3757 20.4374C34.5382 20.3624 34.7054 20.2939 34.8771 20.2319C35.0489 20.1699 35.2242 20.1147 35.4031 20.0661C35.582 20.0177 35.7636 19.9762 35.9477 19.9417C36.1322 19.9073 36.3183 19.8801 36.5062 19.86C36.6941 19.8399 36.8828 19.8271 37.0722 19.8216C37.2617 19.8161 37.451 19.8179 37.6402 19.8271C37.8297 19.8362 38.018 19.8527 38.205 19.8764C39.9257 20.0853 41.3914 20.8789 42.3435 21.989C43.0526 22.8158 43.3955 23.639 43.4763 24.6192C45.4681 24.5625 47.2216 24.5 48.7702 25.6537C49.6165 26.2842 50.0549 27.1933 50.0378 28.093C50.018 29.1677 49.3584 30.1379 48.3425 30.8571C47.1919 31.6723 45.8744 31.9681 44.4007 32.2525C42.9428 31.7248 41.4668 31.1351 39.8924 30.8473C36.5609 30.2379 33.3674 30.8202 30.5187 32.1946C28.6427 31.9376 26.7687 31.4278 25.5653 30.2263C24.83 29.4918 24.4923 28.59 24.6945 27.6702C24.9121 26.6781 25.7171 25.8049 26.8059 25.2591C28.2047 24.5582 29.5258 24.4994 31.112 24.7351Z" fill="white"/>
<path d="M31.1055 24.7351C31.4079 23.0591 32.0409 21.7253 33.8967 20.6804C34.0489 20.5932 34.2064 20.5122 34.3692 20.4374C34.5317 20.3624 34.6988 20.2939 34.8706 20.2319C35.0423 20.1699 35.2177 20.1147 35.3966 20.0661C35.5754 20.0177 35.757 19.9762 35.9412 19.9417C36.1256 19.9073 36.3118 19.8801 36.4996 19.86C36.6875 19.8399 36.8762 19.8271 37.0657 19.8216C37.2551 19.8161 37.4444 19.8179 37.6336 19.8271C37.8231 19.8362 38.0114 19.8527 38.1985 19.8764C39.9191 20.0853 41.3849 20.8789 42.3369 21.989C43.046 22.8158 43.3889 23.639 43.4698 24.6192C43.3473 25.9409 42.74 27.2726 41.5977 28.2811C40.56 29.1976 39.1319 29.8129 37.5397 29.8897C37.3479 29.8978 37.156 29.8987 36.9642 29.8924C36.7721 29.8861 36.581 29.8726 36.391 29.8519C36.2008 29.8314 36.0122 29.8036 35.8254 29.7687C35.6389 29.7337 35.455 29.6918 35.2737 29.643C35.0921 29.5943 34.9143 29.5388 34.7402 29.4766C34.566 29.4144 34.3961 29.3457 34.2304 29.2705C34.065 29.1955 33.9048 29.1145 33.7496 29.0275C33.5943 28.9403 33.445 28.8475 33.3017 28.7491C31.7615 27.6964 31.1903 26.2735 31.1055 24.7351Z" fill="#EE5F59"/>
<path d="M116.417 94.317C120.275 94.1466 124.207 94.2472 128.073 94.2395C131.397 94.2328 134.966 94.0319 138.251 94.3975C139.993 94.5917 141.716 94.9755 143.26 95.635C145.035 96.3935 146.737 97.5359 147.967 98.7774C150.06 100.888 151.722 103.347 153.462 105.634L160.155 114.314C161.653 116.287 163.519 118.066 165.014 120.026C165.505 120.67 166.273 121.611 166.43 122.346C166.899 124.552 165.081 127.714 163.318 129.407C161.597 131.06 158.394 132.65 155.614 132.808C153.88 132.906 152.296 132.374 150.934 131.582C149.313 130.638 147.867 129.238 147.081 127.793C145.625 125.119 145.351 114.127 143.916 113.189L143.558 113.404C143.441 113.663 143.343 113.893 143.343 114.169C143.34 116.004 143.939 118.043 144.242 119.874C144.576 121.888 144.737 123.94 145.176 125.941C145.812 128.841 147.775 130.88 150.824 132.552L152.548 133.401C153.41 138.655 154.102 143.922 154.623 149.203C133.909 149.093 113.195 149.069 92.4805 149.131C93.257 145.114 93.6581 141.036 94.1928 136.995C95.073 130.566 95.8944 124.133 96.657 117.695C97.089 114.031 97.4014 107.635 98.5247 104.231C99.0285 102.704 100.331 101.22 101.621 100.019C105.281 96.6109 110.762 94.7054 116.417 94.317Z" fill="white"/>
<path d="M161.932 29.0413C162.471 29.0074 163.01 28.9908 163.55 28.9916L216.094 29.0053L230.199 28.9901C232.965 28.9858 236.114 28.7718 238.824 29.1761C240.747 29.463 242.776 30.4724 244.143 31.5285C245.501 32.5785 246.546 33.7895 247.006 35.2389C248.019 38.4286 247.499 42.6238 247.504 45.926L247.535 62.568L238.872 62.6058L152.855 62.543C152.79 57.0866 152.772 51.6302 152.802 46.1739C152.793 42.9134 152.464 39.4088 152.985 36.1801C153.172 35.0216 153.569 33.9755 154.386 32.9807C156.098 30.8968 158.841 29.5727 161.932 29.0413Z" fill="white"/>
<path d="M167.893 42.3787C170.455 42.0013 172.394 42.0059 174.949 42.3821C177.526 42.1443 180.275 42.2839 182.874 42.2964L196.882 42.3739L239.173 42.3909L239.073 58.3436C223.563 58.664 207.971 58.4338 192.45 58.4277L181.664 58.4262C179.866 58.4268 177.67 58.6226 175.932 58.3265C172.591 59.1445 169.658 59.0183 166.298 58.3259C163.598 58.2973 160.897 58.2827 158.196 58.2823C157.801 53.0203 158.117 47.6334 158.037 42.3519C161.251 42.319 164.715 42.0867 167.893 42.3787Z" fill="#6BA1D5"/>
<path d="M167.893 42.3787C170.455 42.0013 172.394 42.0059 174.949 42.3821C178.232 43.6254 180.895 45.1138 182.142 47.9145C182.197 48.0372 182.247 48.161 182.294 48.2858C182.341 48.4104 182.383 48.5359 182.421 48.6624C182.46 48.7888 182.494 48.9158 182.524 49.0435C182.555 49.1711 182.581 49.2993 182.603 49.4279C182.625 49.5566 182.643 49.6855 182.656 49.8148C182.67 49.9443 182.68 50.0739 182.685 50.2035C182.69 50.3332 182.691 50.4629 182.689 50.5926C182.685 50.7222 182.678 50.8518 182.667 50.9813C182.655 51.1108 182.64 51.2399 182.62 51.3688C182.6 51.4977 182.576 51.6261 182.548 51.7542C182.52 51.8822 182.488 52.0096 182.452 52.1362C182.416 52.263 182.375 52.389 182.331 52.5142C182.287 52.6394 182.238 52.7636 182.186 52.8868C182.133 53.0102 182.077 53.1325 182.017 53.2539C181.956 53.375 181.892 53.4949 181.824 53.6136C181.756 53.7323 181.684 53.8497 181.609 53.9658C180.348 55.9152 178.302 57.21 175.932 58.3265C172.591 59.1445 169.658 59.0183 166.298 58.3259C163.598 58.2973 160.897 58.2827 158.196 58.2823C157.801 53.0203 158.117 47.6334 158.037 42.3519C161.251 42.319 164.715 42.0867 167.893 42.3787Z" fill="#010001"/>
<path d="M158.037 42.3522C161.251 42.3193 164.715 42.087 167.893 42.379C164.612 43.6041 162.012 45.1023 160.815 47.8874C159.842 50.1499 160.223 52.6075 161.655 54.6972C162.779 56.3353 164.28 57.3518 166.298 58.3262C163.598 58.2976 160.897 58.283 158.196 58.2826C157.801 53.0207 158.117 47.6337 158.037 42.3522Z" fill="#6BA1D5"/>
<path d="M169.872 43.0843C170.031 43.0648 170.19 43.0482 170.35 43.0346C170.509 43.0212 170.669 43.0107 170.83 43.0032C170.99 42.9957 171.151 42.9912 171.311 42.9898C171.472 42.9883 171.633 42.99 171.793 42.9946C171.954 42.9993 172.114 43.007 172.275 43.0178C172.434 43.0286 172.594 43.0424 172.753 43.0593C172.912 43.0759 173.071 43.0957 173.229 43.1184C173.387 43.1412 173.544 43.167 173.7 43.1959C173.857 43.2245 174.012 43.2561 174.166 43.2907C174.32 43.3252 174.474 43.3627 174.625 43.4032C174.777 43.4436 174.928 43.4869 175.077 43.5331C175.226 43.579 175.373 43.6278 175.519 43.6794C175.665 43.7312 175.81 43.7857 175.952 43.8428C176.095 43.8999 176.235 43.9597 176.374 44.0221C176.513 44.0845 176.649 44.1495 176.784 44.2172C176.918 44.2847 177.05 44.3548 177.18 44.4276C177.31 44.5001 177.438 44.5751 177.563 44.6526C177.689 44.73 177.811 44.8098 177.932 44.8919C178.052 44.9738 178.169 45.0581 178.284 45.1447C178.399 45.2313 178.511 45.3199 178.62 45.4105C178.729 45.5014 178.835 45.5942 178.938 45.6889C179.041 45.7836 179.141 45.8802 179.238 45.9788C179.335 46.0774 179.429 46.1777 179.519 46.2797C179.61 46.382 179.697 46.4857 179.781 46.591C179.865 46.6965 179.946 46.8034 180.023 46.9118C180.1 47.0203 180.173 47.1302 180.243 47.2413C180.313 47.3527 180.38 47.4652 180.443 47.5788C180.506 47.6927 180.565 47.8075 180.62 47.9234C180.676 48.0394 180.728 48.1564 180.775 48.2743C180.824 48.3924 180.868 48.5112 180.908 48.6307C180.949 48.7504 180.986 48.8707 181.018 48.9917C181.051 49.1126 181.08 49.2342 181.105 49.3563C181.13 49.4785 181.151 49.6009 181.168 49.7237C181.185 49.8467 181.198 49.9698 181.208 50.0932C181.217 50.2166 181.222 50.3401 181.224 50.4636C181.225 50.5872 181.223 50.7108 181.216 50.8344C181.21 50.9578 181.199 51.081 181.185 51.2042C181.17 51.3272 181.152 51.4499 181.13 51.5725C181.108 51.6949 181.081 51.8167 181.051 51.9381C181.021 52.0596 180.987 52.1804 180.95 52.3006C180.912 52.4207 180.87 52.54 180.825 52.6585C180.78 52.777 180.73 52.8947 180.678 53.0115C180.624 53.1282 180.568 53.2438 180.508 53.3582C180.447 53.4728 180.383 53.5863 180.316 53.6985C180.248 53.8104 180.177 53.9212 180.102 54.0308C180.028 54.1401 179.95 54.248 179.868 54.3546C179.787 54.4611 179.702 54.5659 179.614 54.6692C179.525 54.7724 179.434 54.8741 179.339 54.9741C179.244 55.0739 179.147 55.1718 179.045 55.268C178.944 55.3641 178.84 55.4582 178.733 55.5503C178.626 55.6426 178.516 55.7327 178.404 55.8207C178.291 55.9087 178.175 55.9946 178.057 56.0784C177.939 56.1619 177.818 56.2432 177.695 56.3223C177.571 56.4013 177.445 56.4781 177.317 56.5525C177.188 56.6268 177.058 56.6987 176.925 56.768C176.792 56.8373 176.657 56.9042 176.519 56.9686C176.382 57.0328 176.243 57.0944 176.102 57.1534C175.96 57.2123 175.817 57.2686 175.673 57.3223C175.528 57.3759 175.381 57.4268 175.233 57.4747C175.086 57.5227 174.936 57.5679 174.785 57.6104C174.634 57.6529 174.482 57.6924 174.329 57.729C174.175 57.7656 174.02 57.7993 173.865 57.8302C173.709 57.8609 173.553 57.8888 173.396 57.9138C173.238 57.9385 173.08 57.9604 172.921 57.9793C172.763 57.9982 172.604 58.0141 172.445 58.0269C172.286 58.0397 172.126 58.0495 171.966 58.0564C171.806 58.0631 171.646 58.0669 171.486 58.0677C171.326 58.0685 171.166 58.0663 171.006 58.061C170.846 58.0559 170.686 58.0477 170.527 58.0363C170.367 58.0251 170.208 58.0109 170.05 57.9936C169.891 57.9764 169.733 57.9561 169.576 57.933C169.419 57.9098 169.262 57.8836 169.106 57.8543C168.951 57.8252 168.796 57.7932 168.643 57.7583C168.489 57.7233 168.337 57.6855 168.186 57.6448C168.035 57.6042 167.885 57.5607 167.737 57.5144C167.588 57.468 167.441 57.4189 167.296 57.3671C167.151 57.3153 167.007 57.2607 166.865 57.2034C166.724 57.1463 166.584 57.0864 166.446 57.0238C166.308 56.9612 166.172 56.8961 166.038 56.8284C165.904 56.7607 165.773 56.6906 165.643 56.618C165.514 56.5454 165.387 56.4704 165.262 56.393C165.138 56.3156 165.016 56.2358 164.897 56.1537C164.777 56.0718 164.66 55.9876 164.546 55.9012C164.432 55.8148 164.321 55.7263 164.212 55.6357C164.104 55.545 163.998 55.4524 163.896 55.3579C163.793 55.2632 163.694 55.1667 163.597 55.0683C163.501 54.9701 163.408 54.87 163.317 54.768C163.227 54.6661 163.141 54.5627 163.057 54.4576C162.974 54.3525 162.894 54.2459 162.817 54.1378C162.74 54.0296 162.667 53.9201 162.598 53.8091C162.528 53.6983 162.462 53.5862 162.399 53.4728C162.337 53.3594 162.278 53.2449 162.223 53.1292C162.167 53.0136 162.116 52.897 162.068 52.7795C162.02 52.6618 161.976 52.5435 161.936 52.4243C161.896 52.305 161.859 52.1851 161.827 52.0646C161.794 51.9441 161.765 51.8229 161.74 51.7012C161.716 51.5794 161.694 51.4574 161.677 51.335C161.66 51.2124 161.647 51.0897 161.638 50.9667C161.628 50.8437 161.623 50.7207 161.621 50.5975C161.62 50.4743 161.623 50.3512 161.629 50.2283C161.635 50.1051 161.646 49.9822 161.66 49.8597C161.674 49.7369 161.692 49.6145 161.714 49.4926C161.736 49.3706 161.762 49.2491 161.792 49.128C161.821 49.007 161.855 48.8866 161.893 48.7667C161.93 48.6469 161.971 48.528 162.016 48.41C162.061 48.2917 162.11 48.1743 162.162 48.0578C162.215 47.9416 162.271 47.8263 162.331 47.7121C162.391 47.5979 162.454 47.4847 162.521 47.3727C162.588 47.261 162.659 47.1505 162.733 47.0413C162.807 46.932 162.884 46.8242 162.965 46.7179C163.046 46.6118 163.131 46.5071 163.218 46.4038C163.306 46.3008 163.397 46.1995 163.491 46.0999C163.585 46.0001 163.682 45.9022 163.782 45.8063C163.882 45.7101 163.986 45.616 164.092 45.5239C164.198 45.4319 164.307 45.3418 164.419 45.2538C164.531 45.1658 164.646 45.0799 164.764 44.9962C164.881 44.9127 165.002 44.8312 165.124 44.752C165.247 44.6729 165.372 44.5961 165.499 44.5215C165.627 44.4471 165.757 44.3751 165.889 44.3056C166.021 44.2361 166.156 44.1691 166.292 44.1047C166.429 44.0403 166.567 43.9784 166.707 43.919C166.848 43.8599 166.99 43.8033 167.134 43.7492C167.278 43.6954 167.424 43.6442 167.571 43.5959C167.718 43.5475 167.867 43.5019 168.017 43.459C168.167 43.4163 168.319 43.3764 168.471 43.3392C168.624 43.3022 168.778 43.268 168.933 43.2367C169.088 43.2054 169.243 43.1771 169.4 43.1516C169.557 43.1262 169.714 43.1038 169.872 43.0843Z" fill="white"/>
<path d="M95.8888 150.023L152.611 150.086C152.584 155.291 151.655 161.27 151.227 166.569L147.768 207.593C140.009 207.496 132.186 207.507 124.427 207.623C124.407 196.094 124.221 184.566 123.869 173.04C123.811 170.664 123.949 154.865 123.048 153.615L122.728 153.719C122.592 153.901 122.564 153.916 122.482 154.152C122.17 155.052 122.3 156.428 122.189 157.391C121.81 160.688 121.391 163.982 120.931 167.272C118.922 180.686 117.106 194.114 115.482 207.559C107.637 207.475 99.7717 207.562 91.9252 207.568C91.7698 201.863 92.6117 196.078 92.9934 190.376L95.8888 150.023Z" fill="#EE5F59"/>
<path d="M124.176 215.067C131.305 215.153 138.446 214.964 145.579 215.022C145.626 216.967 145.425 218.905 145.505 220.852C147.472 222.809 153.947 225.512 156.808 226.938C160.677 228.867 164.499 230.831 168.397 232.725C171.194 234.084 172.032 235.139 172.757 237.593C170.039 237.697 167.283 237.629 164.561 237.626L136.363 237.595C135.364 235.557 134.152 233.629 131.629 232.453C130.092 231.736 128.325 231.508 126.582 231.876C123.724 232.48 122.226 234.227 120.809 236.066C121.476 232.229 122.066 228.385 122.577 224.533C122.974 221.438 123.172 218.086 124.176 215.067Z" fill="white"/>
<path d="M92.4272 215.116C99.5214 214.992 106.684 215.029 113.778 215.146C113.885 217.095 113.804 219.069 113.789 221.02C116.221 222.282 118.651 223.535 121.274 224.553C121.124 228.882 119.974 233.321 119.389 237.64L113.082 237.673L105.102 237.658C104.315 235.617 103.077 233.825 100.643 232.662C99.0053 231.879 97.0849 231.628 95.2105 231.993C91.707 232.675 91.0237 234.369 89.418 236.44C90.3185 229.324 91.3216 222.216 92.4272 215.116Z" fill="white"/>
<path d="M162.259 83.435C167.377 83.4072 172.495 83.4086 177.613 83.4393L177.732 105.073C172.61 104.915 167.452 104.968 162.326 104.959C161.98 97.8157 162.243 90.5854 162.259 83.435Z" fill="white"/>
<path d="M169.652 90.0314C170.832 90.117 171.865 90.3414 172.797 90.9329C172.917 91.0083 173.033 91.0881 173.143 91.1722C173.253 91.2566 173.357 91.3449 173.456 91.4372C173.554 91.5295 173.647 91.6253 173.733 91.7247C173.819 91.8241 173.898 91.9265 173.971 92.032C174.044 92.1377 174.109 92.2458 174.168 92.3564C174.227 92.467 174.278 92.5795 174.322 92.6939C174.366 92.8085 174.402 92.9245 174.431 93.0418C174.46 93.1593 174.481 93.2775 174.495 93.3964C174.507 93.5112 174.512 93.6261 174.51 93.7412C174.507 93.8562 174.497 93.971 174.48 94.0854C174.463 94.1998 174.439 94.3132 174.407 94.4256C174.375 94.5382 174.336 94.6493 174.29 94.7589C174.244 94.8684 174.191 94.976 174.131 95.0814C174.072 95.1869 174.005 95.29 173.932 95.3906C173.859 95.491 173.78 95.5885 173.694 95.683C173.609 95.7775 173.518 95.8685 173.42 95.9562C172.445 96.8302 171.307 97.126 169.855 97.2156C168.895 97.1123 167.88 96.9263 167.054 96.5235C166.018 96.0193 165.229 95.2528 164.976 94.3195C164.73 93.4098 165.056 92.4564 165.761 91.7119C166.729 90.6902 168.08 90.243 169.652 90.0314Z" fill="#6BA1D5"/>
<path d="M123.076 189.917C123.408 192.604 123.407 195.531 123.204 198.231C123.207 201.585 123.234 204.939 123.286 208.294C124.249 208.411 125.237 208.423 126.211 208.464C126.058 210.35 125.888 212.227 125.532 214.098L123.252 214.102C122.284 217.257 121.989 220.501 121.359 223.701C119.339 222.611 117.17 221.673 115.071 220.675C115.066 218.529 115.105 216.375 114.937 214.232L111.957 214.214C112.157 212.254 112.335 210.263 112.827 208.333C114.042 208.327 115.257 208.301 116.472 208.284C116.925 206.434 116.996 204.45 117.228 202.572C117.613 199.576 118.024 196.582 118.461 193.59C118.475 193.24 118.538 192.903 118.597 192.557L123.047 192.547C123.019 191.67 123.052 190.793 123.076 189.917Z" fill="white"/>
<path d="M123.068 189.917C123.4 192.604 123.4 195.531 123.196 198.231C123.011 196.687 123.082 195.109 123.076 193.559L118.453 193.59C118.467 193.24 118.53 192.903 118.589 192.557L123.04 192.547C123.011 191.67 123.044 190.793 123.068 189.917Z" fill="#6BA1D5"/>
<path d="M118.609 192.557C120.236 183.582 120.759 174.472 122.446 165.496C122.734 168.384 122.714 171.312 122.787 174.208L123.088 189.917C123.064 190.794 123.031 191.67 123.06 192.547L118.609 192.557Z" fill="white"/>
<path d="M96.6033 107.174C96.8891 108.935 96.1764 111.248 95.9596 113.048L94.038 128.768L92.5837 127.412C92.2016 126.974 91.8667 126.522 91.5932 126.038C90.8492 124.72 90.6847 123.167 90.8536 121.746C91.2971 118.007 94.8161 110.854 96.6033 107.174Z" fill="white"/>
<path d="M4.35106 102.659L40.1482 102.63L51.0662 102.624C53.2402 102.625 55.4983 102.53 57.6577 102.738C59.0633 102.874 60.0447 103.102 61.0879 103.871C61.9567 104.511 62.7955 105.464 63.0051 106.39C63.3761 108.03 63.2113 109.86 63.2124 111.527L63.2109 119.582L63.214 147.172C63.1986 148.898 62.8256 150.211 61.1343 151.451C60.1295 152.188 58.8659 152.764 57.4691 152.904C55.1987 153.132 52.7178 153.012 50.4221 153.012L37.5984 153.004L19.5799 153.016C16.4078 153.023 13.1671 153.137 10.0013 153.014C9.48045 152.994 8.96517 152.931 8.45386 152.854L6.79466 152.174C5.67611 151.291 4.68043 150.335 4.42716 149.075C4.1061 147.475 4.26425 145.726 4.2702 144.111L4.29715 135.34C4.25752 124.626 4.1279 113.889 4.32569 103.176C4.32965 103.003 4.33811 102.831 4.35106 102.659Z" fill="#010001"/>
<path d="M5.45937 103.555L40.987 103.536L51.574 103.543C53.5296 103.546 55.6181 103.44 57.5532 103.641C58.5484 103.744 59.3788 104.021 60.1371 104.533C61.5069 105.458 61.8197 106.62 61.9382 107.968C62.1637 110.529 62.0032 113.178 62.0083 115.746L62.0428 130.58L62.1126 141.677C62.1264 143.679 62.3147 145.803 62.0135 147.792C61.8193 149.074 61.4927 149.784 60.3975 150.763C58.9468 151.703 57.5758 151.968 55.7176 152.048C52.8404 152.173 49.8922 152.074 47.009 152.069L30.3437 152.047L17.3936 152.066C15.0083 152.069 12.5056 152.188 10.1365 151.992C8.98665 151.897 7.92121 151.721 7.06545 151.09C6.22436 150.469 5.67697 149.681 5.52556 148.791C5.18627 146.796 5.40903 144.663 5.44272 142.651C5.48632 140.036 5.44946 137.423 5.45263 134.808L5.45937 103.555Z" fill="white"/>
<path d="M20.3662 115.689C20.46 115.687 20.5537 115.686 20.6472 115.687C20.741 115.688 20.8347 115.69 20.9283 115.695C21.0221 115.7 21.1155 115.706 21.2085 115.714C21.3018 115.722 21.3947 115.732 21.4871 115.743C21.5799 115.755 21.6721 115.768 21.7638 115.783C21.8555 115.798 21.9467 115.815 22.0373 115.833C22.1279 115.851 22.2179 115.872 22.3072 115.893C22.3968 115.915 22.4855 115.938 22.5732 115.964C22.6612 115.989 22.7482 116.015 22.8344 116.044C22.9205 116.072 23.0059 116.102 23.0904 116.134C23.1747 116.165 23.258 116.198 23.3402 116.233C23.4223 116.268 23.5033 116.304 23.5831 116.342C23.6629 116.38 23.7415 116.419 23.819 116.459C23.8964 116.5 23.9725 116.542 24.0473 116.586C24.1221 116.629 24.1954 116.674 24.2673 116.721C24.3391 116.767 24.4096 116.815 24.4785 116.864C24.5472 116.912 24.6145 116.963 24.6803 117.014C24.7461 117.066 24.81 117.118 24.8721 117.172C24.9345 117.226 24.9951 117.281 25.054 117.337C25.113 117.393 25.1701 117.451 25.2253 117.509C25.2805 117.567 25.3338 117.627 25.385 117.687C25.4365 117.747 25.4861 117.809 25.5337 117.871C25.5812 117.933 25.6268 117.996 25.6704 118.06C25.714 118.124 25.7555 118.188 25.7949 118.254C25.8342 118.319 25.8716 118.385 25.907 118.452C25.9422 118.519 25.9753 118.586 26.0065 118.654C26.0374 118.722 26.0662 118.791 26.0929 118.86C26.1194 118.929 26.1437 118.999 26.1659 119.069C26.1881 119.139 26.2081 119.21 26.2261 119.281C26.2438 119.351 26.2593 119.422 26.2725 119.494C26.2857 119.565 26.2967 119.637 26.3054 119.709C26.3138 119.78 26.3202 119.852 26.3244 119.924C26.3286 119.996 26.3305 120.068 26.33 120.141C26.3294 120.213 26.3267 120.285 26.3216 120.357C26.3166 120.429 26.3093 120.501 26.2998 120.573C26.2901 120.644 26.2782 120.716 26.2642 120.787C26.2499 120.859 26.2335 120.93 26.215 121C26.1962 121.071 26.1754 121.141 26.1524 121.211C26.1291 121.281 26.1038 121.35 26.0763 121.419C26.0488 121.488 26.0191 121.557 25.9871 121.625C25.9554 121.692 25.9214 121.76 25.8852 121.826C25.849 121.893 25.8108 121.959 25.7707 122.024C25.7303 122.089 25.6878 122.153 25.6434 122.217C25.5991 122.28 25.5527 122.343 25.5043 122.405C25.456 122.466 25.4058 122.527 25.3537 122.587C25.3014 122.647 25.2472 122.706 25.1912 122.764C25.1354 122.822 25.0777 122.879 25.018 122.935C24.9585 122.99 24.8972 123.045 24.8341 123.098C24.7712 123.151 24.7066 123.204 24.6402 123.255C24.5739 123.306 24.506 123.355 24.4365 123.404C24.367 123.452 24.2959 123.499 24.2233 123.545C24.1509 123.591 24.077 123.635 24.0017 123.678C23.9264 123.721 23.8498 123.763 23.7718 123.803C23.6938 123.843 23.6147 123.881 23.5344 123.919C23.454 123.956 23.3725 123.992 23.2898 124.026C23.2071 124.06 23.1233 124.092 23.0385 124.123C22.954 124.154 22.8683 124.183 22.7817 124.211C22.6953 124.239 22.6079 124.265 22.5197 124.289C22.4314 124.314 22.3424 124.337 22.2525 124.358C22.1629 124.379 22.0727 124.398 21.9818 124.416C21.8909 124.434 21.7995 124.45 21.7075 124.464C21.6156 124.478 21.5232 124.491 21.4305 124.501C21.338 124.512 21.245 124.521 21.1514 124.528C21.0581 124.536 20.9647 124.541 20.8712 124.545C20.7766 124.549 20.6818 124.551 20.587 124.551C20.4921 124.552 20.3973 124.55 20.3024 124.547C20.2078 124.543 20.1132 124.538 20.0186 124.531C19.9243 124.524 19.8302 124.516 19.7364 124.505C19.6426 124.494 19.5492 124.482 19.4561 124.468C19.3629 124.454 19.2703 124.438 19.1783 124.421C19.0863 124.403 18.9949 124.384 18.904 124.363C18.8131 124.342 18.723 124.319 18.6337 124.294C18.5444 124.27 18.456 124.244 18.3685 124.216C18.2808 124.188 18.194 124.159 18.1081 124.128C18.0225 124.096 17.9378 124.063 17.854 124.029C17.7703 123.995 17.6877 123.959 17.6063 123.921C17.5249 123.884 17.4448 123.845 17.3661 123.804C17.2874 123.764 17.2098 123.722 17.1334 123.678C17.0573 123.635 16.9827 123.59 16.9095 123.544C16.836 123.497 16.7643 123.45 16.6943 123.401C16.624 123.352 16.5553 123.301 16.4882 123.25C16.4213 123.198 16.356 123.145 16.2923 123.091C16.2289 123.037 16.1671 122.982 16.1068 122.925C16.0469 122.869 15.9887 122.811 15.9324 122.752C15.8762 122.694 15.8217 122.634 15.7691 122.573C15.7166 122.513 15.666 122.451 15.6173 122.388C15.5687 122.326 15.5222 122.262 15.4778 122.198C15.4334 122.133 15.391 122.068 15.3506 122.002C15.3104 121.936 15.2724 121.869 15.2364 121.802C15.2002 121.734 15.1664 121.666 15.135 121.597C15.1032 121.528 15.0738 121.459 15.0466 121.389C15.0193 121.319 14.9944 121.249 14.9716 121.178C14.9492 121.107 14.9288 121.036 14.9106 120.964C14.8926 120.893 14.8769 120.821 14.8634 120.749C14.85 120.676 14.8387 120.604 14.8297 120.531C14.821 120.459 14.8146 120.386 14.8103 120.313C14.8061 120.24 14.8042 120.167 14.8048 120.095C14.8053 120.022 14.8082 119.949 14.8135 119.876C14.8188 119.803 14.8263 119.73 14.8361 119.658C14.8459 119.585 14.858 119.513 14.8726 119.441C14.8871 119.369 14.904 119.297 14.9233 119.225C14.9423 119.154 14.9637 119.083 14.9875 119.012C15.011 118.941 15.0369 118.871 15.0652 118.802C15.0935 118.732 15.1239 118.663 15.1564 118.595C15.1889 118.526 15.2236 118.458 15.2606 118.391C15.2976 118.324 15.3367 118.257 15.3779 118.191C15.4191 118.126 15.4625 118.061 15.5079 117.997C15.5534 117.933 15.6008 117.87 15.6502 117.808C15.6996 117.745 15.751 117.684 15.8044 117.624C15.8578 117.563 15.9132 117.504 15.9705 117.446C16.0276 117.388 16.0866 117.331 16.1477 117.275C16.2084 117.219 16.2711 117.164 16.3355 117.11C16.3998 117.057 16.4658 117.005 16.5337 116.953C16.6014 116.902 16.6706 116.853 16.7414 116.804C16.8125 116.756 16.8849 116.709 16.9586 116.663C17.0326 116.617 17.1081 116.573 17.185 116.53C17.2619 116.487 17.3399 116.446 17.4192 116.406C17.4988 116.367 17.5795 116.328 17.6614 116.291C17.7433 116.255 17.8263 116.219 17.9103 116.186C17.9946 116.152 18.0798 116.12 18.166 116.09C18.2521 116.059 18.3392 116.03 18.4272 116.003C18.5154 115.976 18.6044 115.951 18.6939 115.927C18.7838 115.903 18.8741 115.881 18.9651 115.861C19.0562 115.841 19.1479 115.822 19.2401 115.805C19.3326 115.789 19.4255 115.774 19.5188 115.76C19.6121 115.747 19.7056 115.736 19.7994 115.726C19.8935 115.716 19.9878 115.708 20.0824 115.702C20.1767 115.696 20.2713 115.692 20.3662 115.689Z" fill="#6BA1D5"/>
<path d="M20.149 132.492C20.2409 132.486 20.333 132.482 20.4253 132.479C20.5177 132.477 20.6101 132.476 20.7023 132.477C20.7945 132.478 20.8868 132.481 20.979 132.485C21.0712 132.49 21.1632 132.496 21.2549 132.504C21.3465 132.512 21.438 132.522 21.5291 132.533C21.6203 132.545 21.7111 132.558 21.8014 132.573C21.8915 132.588 21.9813 132.604 22.0706 132.622C22.1599 132.641 22.2485 132.661 22.3365 132.682C22.4243 132.704 22.5115 132.727 22.5981 132.752C22.6846 132.777 22.7702 132.803 22.855 132.832C22.9398 132.86 23.0236 132.89 23.1063 132.921C23.1893 132.952 23.271 132.985 23.3516 133.019C23.4325 133.054 23.5122 133.09 23.5906 133.127C23.6691 133.164 23.7464 133.203 23.8225 133.244C23.8984 133.284 23.973 133.326 24.0465 133.369C24.1197 133.412 24.1915 133.457 24.2621 133.503C24.3326 133.548 24.4016 133.595 24.469 133.644C24.5364 133.693 24.6023 133.742 24.6668 133.793C24.731 133.844 24.7936 133.896 24.8547 133.95C24.9154 134.003 24.9746 134.058 25.0322 134.113C25.0896 134.169 25.1452 134.225 25.1991 134.283C25.253 134.341 25.3049 134.399 25.3549 134.459C25.4051 134.519 25.4533 134.579 25.4995 134.641C25.5458 134.702 25.5901 134.765 25.6323 134.828C25.6746 134.891 25.7148 134.955 25.7528 135.019C25.7909 135.084 25.827 135.15 25.861 135.215C25.8951 135.281 25.927 135.348 25.9566 135.415C25.9864 135.483 26.014 135.55 26.0394 135.619C26.0648 135.687 26.0879 135.756 26.1088 135.825C26.1299 135.894 26.1487 135.963 26.1651 136.033C26.1817 136.103 26.1961 136.173 26.2083 136.244C26.2201 136.314 26.2299 136.385 26.2376 136.456C26.2452 136.526 26.2505 136.597 26.2534 136.668C26.2566 136.739 26.2574 136.81 26.2558 136.881C26.2542 136.952 26.2504 137.023 26.2443 137.094C26.2382 137.165 26.2299 137.236 26.2194 137.306C26.2088 137.377 26.196 137.447 26.1809 137.517C26.1661 137.587 26.1489 137.657 26.1294 137.726C26.1098 137.796 26.088 137.865 26.064 137.933C26.0402 138.002 26.0142 138.07 25.9859 138.138C25.9576 138.205 25.9272 138.272 25.8947 138.339C25.862 138.405 25.8272 138.471 25.7905 138.536C25.7538 138.601 25.7149 138.666 25.674 138.729C25.6333 138.793 25.5904 138.856 25.5455 138.918C25.5006 138.98 25.4537 139.041 25.4048 139.102C25.3559 139.162 25.3052 139.221 25.2526 139.279C25.2 139.338 25.1456 139.395 25.0893 139.452C25.033 139.508 24.975 139.563 24.9153 139.617C24.8556 139.671 24.794 139.724 24.7306 139.776C24.6674 139.828 24.6027 139.878 24.5364 139.928C24.4701 139.977 24.4021 140.025 24.3326 140.072C24.2631 140.119 24.1922 140.164 24.1198 140.208C24.0474 140.252 23.9737 140.295 23.8986 140.336C23.8233 140.377 23.7468 140.417 23.6691 140.456C23.5914 140.494 23.5127 140.531 23.4329 140.567C23.3528 140.602 23.2717 140.636 23.1895 140.668C23.1073 140.701 23.0241 140.731 22.9398 140.761C22.8558 140.79 22.7708 140.818 22.6849 140.844C22.5988 140.87 22.512 140.894 22.4245 140.916C22.3371 140.939 22.2489 140.96 22.1602 140.98C22.0714 140.999 21.9821 141.017 21.8922 141.033C21.8021 141.049 21.7116 141.063 21.6207 141.076C21.5298 141.088 21.4386 141.099 21.3472 141.108C21.2555 141.117 21.1637 141.125 21.0717 141.13C20.98 141.136 20.8881 141.14 20.7959 141.142C20.7039 141.144 20.6119 141.145 20.52 141.144C20.4278 141.142 20.3358 141.139 20.2441 141.134C20.1522 141.13 20.0605 141.123 19.969 141.115C19.8776 141.107 19.7864 141.097 19.6955 141.085C19.6046 141.074 19.5143 141.06 19.4244 141.045C19.3343 141.03 19.2449 141.013 19.1561 140.995C19.067 140.976 18.9788 140.956 18.8913 140.935C18.8036 140.913 18.7166 140.889 18.6305 140.864C18.5444 140.839 18.4591 140.813 18.3748 140.784C18.2903 140.756 18.2068 140.726 18.1243 140.695C18.0419 140.664 17.9604 140.631 17.8798 140.596C17.7995 140.562 17.7202 140.526 17.642 140.488C17.5637 140.451 17.4869 140.412 17.4113 140.371C17.3357 140.331 17.2613 140.289 17.1881 140.246C17.1152 140.203 17.0437 140.158 16.9737 140.112C16.9034 140.067 16.8347 140.02 16.7676 139.971C16.7005 139.923 16.6349 139.873 16.571 139.822C16.507 139.771 16.4447 139.719 16.3839 139.666C16.3234 139.612 16.2645 139.558 16.2071 139.502C16.15 139.447 16.0947 139.39 16.041 139.333C15.9874 139.275 15.9356 139.217 15.8857 139.157C15.836 139.098 15.788 139.037 15.7418 138.976C15.6958 138.914 15.6518 138.852 15.6098 138.789C15.5678 138.726 15.5279 138.662 15.4901 138.598C15.452 138.533 15.4161 138.468 15.3823 138.402C15.3484 138.336 15.3167 138.27 15.2871 138.203C15.2575 138.136 15.2301 138.068 15.2047 138C15.1796 137.932 15.1565 137.864 15.1353 137.794C15.1145 137.725 15.0958 137.656 15.0794 137.586C15.0631 137.517 15.0488 137.447 15.0366 137.377C15.0248 137.306 15.015 137.236 15.0073 137.165C14.9996 137.095 14.9944 137.024 14.9915 136.953C14.9883 136.883 14.9875 136.812 14.9891 136.741C14.9907 136.67 14.9944 136.599 15.0002 136.529C15.0063 136.458 15.0146 136.388 15.0251 136.317C15.0355 136.247 15.0481 136.177 15.0632 136.107C15.0783 136.037 15.0954 135.967 15.1147 135.898C15.134 135.829 15.1555 135.76 15.1793 135.692C15.2031 135.623 15.2291 135.555 15.2574 135.488C15.2854 135.42 15.3155 135.354 15.3478 135.287C15.3803 135.221 15.4148 135.155 15.4512 135.09C15.488 135.025 15.5266 134.961 15.567 134.897C15.6077 134.834 15.6503 134.771 15.695 134.709C15.7397 134.647 15.7863 134.586 15.8349 134.526C15.8835 134.466 15.934 134.406 15.9863 134.348C16.0387 134.29 16.0927 134.233 16.1485 134.176C16.2045 134.12 16.2622 134.065 16.3217 134.011C16.3811 133.957 16.4423 133.904 16.5052 133.852C16.5681 133.8 16.6325 133.75 16.6986 133.701C16.7647 133.651 16.8323 133.603 16.9015 133.557C16.9708 133.51 17.0413 133.464 17.1132 133.42C17.1853 133.376 17.2588 133.333 17.3336 133.292C17.4084 133.251 17.4843 133.211 17.5615 133.172C17.6389 133.134 17.7174 133.097 17.7969 133.061C17.8767 133.026 17.9575 132.992 18.0391 132.959C18.121 132.927 18.2039 132.896 18.2876 132.867C18.3714 132.837 18.4561 132.809 18.5417 132.783C18.6273 132.757 18.7137 132.733 18.8009 132.71C18.8879 132.687 18.9756 132.666 19.0641 132.646C19.1527 132.626 19.2417 132.608 19.3313 132.592C19.4211 132.576 19.5112 132.561 19.6016 132.549C19.6922 132.536 19.7831 132.525 19.8743 132.515C19.9657 132.506 20.0573 132.498 20.149 132.492Z" fill="#6BA1D5"/>
<path d="M36.125 120.676C39.4894 120.566 42.9183 120.726 46.2906 120.725C48.546 120.724 51.8112 120.44 53.9639 120.763C54.4443 120.834 54.4665 120.904 54.7253 121.198C54.4693 121.274 54.2271 121.334 53.9536 121.361C52.554 121.497 36.8924 121.455 36.5126 121.338C36.3922 121.301 36.301 121.222 36.1952 121.164L36.125 120.676Z" fill="#6BA1D5"/>
<path d="M36.1992 136.079C38.5592 135.968 53.8245 135.825 54.6854 136.262L54.7845 136.701C52.3028 136.698 37.6638 136.989 36.3423 136.529L36.1992 136.079Z" fill="#6BA1D5"/>
<path d="M25.1773 90.7463C23.2831 89.1143 21.6992 86.8493 20.9861 84.7301C20.9174 84.5293 20.8552 84.3273 20.7994 84.124C20.744 83.9207 20.6949 83.7166 20.6524 83.5115C20.6098 83.3062 20.574 83.1003 20.545 82.8938C20.5156 82.6873 20.4931 82.4804 20.4772 82.2731C20.4616 82.0657 20.4525 81.8582 20.4498 81.6505C20.4475 81.4428 20.4518 81.2351 20.4629 81.0276C20.474 80.8201 20.4917 80.6129 20.516 80.406C20.5404 80.1992 20.5714 79.993 20.6092 79.7874C20.647 79.5817 20.6912 79.3768 20.742 79.1727C20.793 78.9689 20.8506 78.766 20.9148 78.5642C20.9787 78.3623 21.0492 78.1619 21.1261 77.9629C21.2032 77.7637 21.2867 77.5662 21.3766 77.3702C21.4661 77.1743 21.5621 76.9803 21.6643 76.7882C21.7666 76.5959 21.8751 76.4058 21.9897 76.2178C22.1044 76.0296 22.225 75.8437 22.3516 75.6602C22.4782 75.4768 22.6106 75.2959 22.7488 75.1175C25.0303 72.2119 28.8421 69.9881 33.1439 69.2C37.3454 68.4305 41.6305 68.9137 45.3096 70.6823C45.5419 70.7917 45.7705 70.9054 45.9953 71.0235C46.2202 71.1416 46.4411 71.264 46.6581 71.3906C46.875 71.517 47.0877 71.6476 47.2962 71.7824C47.505 71.9171 47.7091 72.0557 47.9086 72.1982C48.1081 72.3407 48.3029 72.487 48.4929 72.637C48.6831 72.787 48.8683 72.9405 49.0486 73.0976C49.2288 73.2545 49.4037 73.4149 49.5734 73.5787C49.7433 73.7426 49.9076 73.9094 50.0664 74.0793C50.2255 74.2495 50.3789 74.4224 50.5266 74.5983C50.6746 74.7743 50.8166 74.9529 50.9527 75.1342C51.0891 75.3155 51.2195 75.4994 51.3439 75.6858C51.4681 75.8722 51.5864 76.0608 51.6987 76.2516C51.8107 76.4425 51.9165 76.6354 52.0162 76.8303C52.1158 77.0252 52.2091 77.222 52.296 77.4206C52.3829 77.6189 52.4635 77.8189 52.5378 78.0206C52.6118 78.2222 52.6792 78.425 52.7399 78.6291C53.931 82.7895 52.1192 86.4493 49.2626 89.9293C49.2777 90.3524 49.3879 90.6375 49.0882 91.0049C46.3624 91.1668 26.9538 91.321 25.3759 90.9162L25.3648 90.7945L25.1773 90.7463Z" fill="#6BA1D5"/>
<path d="M25.1914 90.7465C25.3809 89.0873 25.627 87.551 26.7412 86.0763C26.8443 85.9416 26.9515 85.8089 27.0631 85.6784C27.1746 85.548 27.2903 85.4197 27.4103 85.2937C27.5302 85.1675 27.6543 85.0437 27.7825 84.9223C27.9104 84.8012 28.0422 84.6825 28.178 84.5662C28.3136 84.45 28.453 84.3364 28.5962 84.2254C28.7392 84.1146 28.8857 84.0066 29.0358 83.9013C29.1859 83.796 29.3394 83.6937 29.4964 83.5943C29.6531 83.4951 29.8129 83.3988 29.976 83.3056C30.139 83.2125 30.3049 83.1225 30.4738 83.0357C30.6426 82.9487 30.8143 82.8652 30.9887 82.7851C31.1631 82.7048 31.3399 82.628 31.519 82.5546C31.6985 82.4812 31.8801 82.4113 32.064 82.3449C32.2477 82.2786 32.4336 82.2158 32.6217 82.1564C32.8096 82.0971 32.9993 82.0415 33.1909 81.9897C33.3825 81.9376 33.5755 81.8894 33.77 81.8449C33.9647 81.8003 34.1608 81.7596 34.3582 81.7226C37.4657 81.1543 40.8745 81.508 43.6027 82.8034C47.1866 84.5053 48.3591 86.9388 49.2767 89.9294C49.2918 90.3526 49.4019 90.6377 49.1023 91.005C46.3765 91.1669 26.9679 91.3212 25.39 90.9163L25.3789 90.7947L25.1914 90.7465Z" fill="#EE5F59"/>
<path d="M35.2953 70.8651C35.3962 70.8474 35.4978 70.8316 35.6001 70.8175C35.7021 70.8035 35.8045 70.7915 35.9073 70.7816C36.0101 70.7714 36.1131 70.7633 36.2164 70.7572C36.3197 70.7511 36.4232 70.7468 36.5268 70.7444C36.6306 70.7421 36.7344 70.7418 36.8379 70.7435C36.9415 70.7453 37.045 70.7489 37.1483 70.7544C37.2519 70.7599 37.3551 70.7674 37.4579 70.777C37.5609 70.7866 37.6634 70.7979 37.7654 70.8111C37.8677 70.8246 37.9694 70.8399 38.0706 70.8572C38.1718 70.8743 38.2725 70.8933 38.3727 70.9142C38.4726 70.9353 38.5718 70.9582 38.6703 70.9828C38.7689 71.0076 38.8666 71.0342 38.9633 71.0627C39.0602 71.0911 39.1562 71.1214 39.251 71.1535C39.3459 71.1856 39.4397 71.2195 39.5325 71.2551C39.6252 71.2906 39.7168 71.3279 39.8071 71.3669C39.8975 71.406 39.9865 71.4467 40.0743 71.4892C40.162 71.5317 40.2483 71.5758 40.3331 71.6215C40.4182 71.6673 40.5017 71.7145 40.5836 71.7633C40.6655 71.8123 40.7459 71.8627 40.8246 71.9145C40.9033 71.9663 40.9802 72.0197 41.0553 72.0746C41.1306 72.1293 41.2042 72.1854 41.2761 72.2432C41.3477 72.3007 41.4174 72.3595 41.4853 72.4197C41.5533 72.4801 41.6192 72.5416 41.6831 72.6042C41.7474 72.667 41.8093 72.7309 41.869 72.7959C41.929 72.861 41.9869 72.9271 42.0426 72.9944C42.0984 73.0615 42.1519 73.1297 42.2032 73.199C42.2544 73.2683 42.3036 73.3385 42.3506 73.4097C42.3974 73.4808 42.4419 73.5527 42.4842 73.6255C42.5265 73.6983 42.5664 73.7719 42.6039 73.8462C42.6414 73.9206 42.6766 73.9956 42.7093 74.0712C42.7421 74.1469 42.7725 74.2231 42.8005 74.2999C42.8282 74.3765 42.8536 74.4538 42.8766 74.5316C42.8996 74.6095 42.9201 74.6876 42.938 74.7661C42.956 74.8445 42.9715 74.9233 42.9844 75.0024C42.9974 75.0816 43.0077 75.161 43.0153 75.2405C43.0233 75.3199 43.0287 75.3995 43.0316 75.4792C43.0342 75.5589 43.0343 75.6385 43.032 75.7182C43.0299 75.7979 43.0251 75.8776 43.0177 75.9573C43.0103 76.0367 43.0003 76.116 42.9876 76.1951C42.9752 76.2743 42.9602 76.3533 42.9428 76.432C42.9253 76.5104 42.9053 76.5886 42.8825 76.6664C42.8601 76.7442 42.8351 76.8216 42.8076 76.8984C42.7801 76.9755 42.7503 77.0518 42.7181 77.1274C42.6858 77.2032 42.6511 77.2783 42.6138 77.3527C42.5768 77.4271 42.5373 77.5008 42.4953 77.5737C42.4535 77.6467 42.4094 77.7189 42.3629 77.7902C42.3167 77.8615 42.268 77.9319 42.217 78.0012C42.166 78.0707 42.1129 78.1392 42.0577 78.2067C42.0022 78.2739 41.9447 78.3402 41.8853 78.4055C41.8258 78.4709 41.7643 78.535 41.7006 78.5978C41.6369 78.6608 41.5712 78.7225 41.5036 78.7829C41.4359 78.8435 41.3664 78.9026 41.2951 78.9603C41.2237 79.0183 41.1507 79.0747 41.0759 79.1295C41.0009 79.1846 40.9241 79.2383 40.8456 79.2905C40.7671 79.3428 40.6872 79.3934 40.6058 79.4424C40.5242 79.4915 40.4409 79.5391 40.3561 79.585C40.2715 79.6312 40.1855 79.6756 40.0981 79.7183C40.0103 79.761 39.9214 79.802 39.8313 79.8414C39.7412 79.8809 39.6499 79.9185 39.5574 79.9543C39.4649 79.9902 39.3713 80.0244 39.2764 80.0567C39.1818 80.0892 39.0861 80.1198 38.9894 80.1485C38.8927 80.1773 38.7952 80.2043 38.6969 80.2293C38.5986 80.2545 38.4995 80.2777 38.3996 80.2991C38.2997 80.3204 38.1992 80.3398 38.098 80.3573C37.997 80.3748 37.8956 80.3903 37.7936 80.404C37.6918 80.4178 37.5896 80.4296 37.4868 80.4393C37.3843 80.4491 37.2813 80.4569 37.178 80.4628C37.075 80.4689 36.9718 80.473 36.8685 80.475C36.7649 80.477 36.6614 80.477 36.5581 80.475C36.4548 80.4732 36.3515 80.4694 36.2481 80.4637C36.1451 80.458 36.0422 80.4503 35.9394 80.4405C35.8366 80.431 35.7343 80.4194 35.6326 80.4058C35.5306 80.3924 35.4291 80.3769 35.3282 80.3594C35.2272 80.3422 35.1268 80.323 35.0269 80.3018C34.9273 80.2807 34.8283 80.2577 34.7301 80.2329C34.6318 80.2081 34.5343 80.1815 34.4375 80.153C34.3411 80.1244 34.2456 80.094 34.151 80.0619C34.0564 80.0298 33.9628 79.9958 33.8703 79.96C33.7779 79.9245 33.6866 79.8872 33.5964 79.8482C33.5063 79.8089 33.4176 79.7681 33.3301 79.7256C33.2426 79.6831 33.1565 79.6391 33.0717 79.5936C32.9871 79.5478 32.904 79.5005 32.8223 79.4515C32.7407 79.4027 32.6606 79.3524 32.5821 79.3006C32.5037 79.2488 32.4269 79.1954 32.3518 79.1405C32.2768 79.0859 32.2035 79.0298 32.1319 78.9722C32.0605 78.9147 31.991 78.8559 31.9234 78.7957C31.8555 78.7355 31.7897 78.6742 31.726 78.6116C31.662 78.549 31.6002 78.4851 31.5405 78.4201C31.4808 78.355 31.4232 78.289 31.3677 78.2219C31.3122 78.1548 31.2588 78.0867 31.2075 78.0176C31.1565 77.9483 31.1077 77.8782 31.0609 77.8073C31.0141 77.7363 30.9697 77.6645 30.9277 77.5917C30.8854 77.5192 30.8455 77.4458 30.808 77.3716C30.7707 77.2974 30.7357 77.2225 30.703 77.1469C30.6702 77.0715 30.6399 76.9955 30.6122 76.9188C30.5845 76.8422 30.5591 76.7651 30.5361 76.6874C30.5131 76.6098 30.4926 76.5318 30.4747 76.4536C30.4569 76.3751 30.4416 76.2965 30.4287 76.2176C30.4157 76.1386 30.4053 76.0594 30.3974 75.9801C30.3894 75.9009 30.384 75.8214 30.3811 75.7417C30.3785 75.6622 30.3782 75.5827 30.3803 75.503C30.3827 75.4235 30.3876 75.3441 30.395 75.2649C30.4021 75.1854 30.4119 75.1061 30.4243 75.0271C30.4367 74.9482 30.4517 74.8695 30.4691 74.7911C30.4865 74.7126 30.5064 74.6346 30.5286 74.5569C30.551 74.4791 30.5759 74.4018 30.6031 74.3252C30.6306 74.2484 30.6603 74.1722 30.6923 74.0966C30.7245 74.0209 30.7591 73.9459 30.7961 73.8716C30.8331 73.7974 30.8723 73.7238 30.9138 73.6508C30.9556 73.5781 30.9996 73.5061 31.0458 73.435C31.0921 73.3636 31.1406 73.2933 31.1913 73.224C31.2418 73.1547 31.2946 73.0864 31.3498 73.0191C31.4048 72.9516 31.462 72.8853 31.5215 72.82C31.5806 72.7548 31.642 72.6907 31.7054 72.6279C31.7688 72.5651 31.8341 72.5034 31.9012 72.4429C31.9686 72.3825 32.0378 72.3235 32.1089 72.2657C32.18 72.2078 32.2529 72.1513 32.3277 72.0962C32.4022 72.0411 32.4785 71.9876 32.5568 71.9355C32.6347 71.8833 32.7144 71.8326 32.7958 71.7834C32.8772 71.7342 32.96 71.6866 33.0443 71.6404C33.1286 71.5945 33.2144 71.5501 33.3016 71.5072C33.3888 71.4643 33.4773 71.4231 33.5671 71.3837C33.657 71.3443 33.748 71.3066 33.8402 71.2706C33.9324 71.2344 34.0257 71.2001 34.12 71.1676C34.2146 71.135 34.31 71.1043 34.4062 71.0755C34.5027 71.0466 34.5999 71.0195 34.6979 70.9941C34.7962 70.9689 34.8952 70.9455 34.9948 70.9239C35.0942 70.9024 35.1943 70.8828 35.2953 70.8651Z" fill="#EE5F59"/>
<path d="M6.78516 152.174L8.44435 152.854C7.59613 154.808 12.7156 164.556 14.1548 166.756C21.0607 177.314 34.8484 186.402 49.4506 190.039C53.1201 190.952 57.0228 191.721 60.8434 192.116C65.5336 192.602 70.2947 192.542 75.0171 192.553L91.5864 192.576L91.5523 193.482C81.6443 193.264 71.5346 193.964 61.6749 193.217C50.8434 192.395 39.6286 188.646 30.9739 183.593C18.1149 176.086 8.97112 164.515 6.78516 152.174Z" fill="#6BA1D5"/>
<path d="M150.365 192.56C159.126 192.564 254.938 192.366 255.838 192.716C256.035 193.031 256.038 193.029 255.931 193.368C254.912 193.724 229.539 193.401 226.657 193.398L183.832 193.44C172.642 193.424 161.398 193.259 150.215 193.517L150.365 192.56Z" fill="#6BA1D5"/>
<path d="M112.124 34.1241C113.396 34.0948 114.668 34.0716 115.941 34.0543C116.675 34.0467 117.624 33.9616 118.163 34.3662L118.083 34.6406C117.048 35.0778 86.1397 34.7887 82.1186 34.7866C80.3975 34.7772 77.6424 35.14 76.1719 34.4506L76.2317 34.3055C77.508 33.9457 107.899 34.139 112.124 34.1241Z" fill="#6BA1D5"/>
</svg>
