<svg width="390" height="326" viewBox="0 0 390 326" fill="none" xmlns="http://www.w3.org/2000/svg">
<path d="M93.8246 111.032L93.7339 70.9362L93.6985 60.3651C93.6886 58.2095 93.4936 55.9058 93.8729 53.7693C94.1803 52.0368 95.1743 50.2868 96.6437 49.0277C96.8298 48.8681 97.0237 48.7152 97.2253 48.5692C97.4271 48.4232 97.6358 48.2846 97.8514 48.1534C98.067 48.0223 98.2889 47.8989 98.5171 47.7832C98.7454 47.6677 98.979 47.5606 99.2179 47.4616C99.4571 47.3625 99.7007 47.2721 99.9488 47.1904C100.197 47.1087 100.449 47.0359 100.704 46.972C100.96 46.9081 101.218 46.8533 101.479 46.8074C101.74 46.7618 102.003 46.7255 102.268 46.6985C104.473 46.4878 106.754 46.5807 108.97 46.5801L119.36 46.5833L152.15 46.5314L259.566 46.5381C263.196 46.5651 266.512 46.5763 269.216 48.9624C270.489 50.0852 271.671 51.7464 271.97 53.2832C272.385 55.4216 272.158 57.8185 272.155 59.9843L272.145 71.4978L272.153 112.955C272.128 113.456 272.225 114.022 271.854 114.419C271.488 114.444 271.159 114.467 270.794 114.425L270.795 114.252L270.769 72.9151L270.753 60.7162C270.747 58.3753 270.948 55.8526 270.519 53.543C270.257 52.1304 269.271 50.7159 268.046 49.7261C266.745 48.6746 264.986 48.0427 263.195 47.8803C261.324 47.7109 259.344 47.8032 257.461 47.7982L247.168 47.781L212.739 47.8122L104.994 47.8434C101.996 47.8637 99.6673 48.227 97.5231 50.1448C97.3824 50.2698 97.2477 50.3992 97.119 50.5329C96.9903 50.6666 96.8678 50.8041 96.7515 50.9455C96.6352 51.0868 96.5255 51.2318 96.4224 51.3803C96.3196 51.5287 96.2235 51.6801 96.1341 51.8346C96.0447 51.9891 95.9626 52.1463 95.8877 52.3061C95.8128 52.4659 95.7452 52.6279 95.6851 52.7919C95.6249 52.956 95.5722 53.1217 95.527 53.2889C95.4818 53.4564 95.4444 53.625 95.4146 53.7948C95.017 56.0605 95.2063 58.4762 95.2097 60.7665L95.2231 72.4573C95.2017 85.7062 95.0734 98.9604 95.2383 112.208C94.8677 112.221 94.5074 112.206 94.1369 112.195C93.7575 111.817 93.8508 111.516 93.8246 111.032Z" fill="#151419"/>
<path d="M272.153 112.955C272.218 113.425 272.167 113.9 272.528 114.273C277.129 114.449 281.796 114.27 286.405 114.255L311.438 114.21C316.894 114.189 324.41 113.703 329.623 114.76C330.169 114.87 330.709 114.998 331.243 115.142C331.778 115.287 332.305 115.448 332.825 115.626C333.345 115.804 333.856 115.998 334.358 116.208C334.861 116.417 335.353 116.643 335.835 116.884C336.317 117.125 336.788 117.38 337.247 117.651C337.706 117.921 338.152 118.206 338.586 118.504C339.019 118.803 339.439 119.115 339.844 119.44C340.25 119.765 340.64 120.102 341.015 120.452C341.379 120.788 341.728 121.135 342.062 121.492C342.395 121.85 342.713 122.217 343.014 122.594C343.316 122.971 343.601 123.357 343.868 123.752C344.136 124.146 344.386 124.548 344.619 124.958C344.851 125.368 345.066 125.784 345.262 126.207C345.458 126.63 345.635 127.058 345.793 127.492C345.952 127.926 346.091 128.364 346.211 128.806C346.331 129.249 346.432 129.694 346.513 130.142C346.875 132.237 346.766 134.388 346.755 136.499L346.719 145.329L346.787 177.246L346.77 209.69L346.783 219.73C346.786 221.621 346.906 223.599 346.707 225.482C346.693 225.618 346.669 225.754 346.641 225.889C344.172 222.716 342.75 220.159 339.689 217.072C340.207 215.663 339.832 211.94 339.824 210.325L339.768 196.892L339.915 161.099C339.91 155.84 340.049 150.545 339.835 145.291C339.64 140.977 340.507 131.893 339.294 128.233C338.721 126.506 337.581 124.873 336.241 123.485C333.347 120.489 329.599 118.96 325.038 118.565C321.827 118.287 318.545 118.459 315.318 118.446C313.292 118.438 311.111 118.236 309.102 118.459C308.472 118.529 307.973 118.654 307.491 119.013C306.525 119.73 306.772 120.925 306.792 121.894C306.255 122.513 305.812 122.954 305.053 123.393C298.15 123.451 291.073 123.687 284.181 123.412C279.574 123.228 277.897 121.759 274.953 119.084C271.802 119.039 268.651 119.021 265.5 119.03C259.201 119.022 254.094 119 249.203 122.812C244.36 126.586 244.395 130.906 244.424 136.063C244.441 139.099 244.534 142.146 244.411 145.18L244.374 194.716L244.384 213.428C244.365 216.54 244.434 219.674 244.258 222.782C242.588 221.02 240.926 219.43 238.815 218.019C238.597 212.318 238.79 206.566 238.782 200.86C238.699 189.011 238.709 177.162 238.812 165.314L238.807 142.408C238.8 138.63 238.564 134.777 238.817 131.01C239.12 126.521 241.615 121.871 245.676 118.884C251.113 114.886 256.442 114.317 263.384 114.313C265.849 114.312 268.333 114.289 270.794 114.425C271.158 114.467 271.488 114.444 271.854 114.419C272.225 114.022 272.128 113.456 272.153 112.955Z" fill="#151419"/>
<path d="M306.793 121.894C306.773 120.925 306.526 119.73 307.492 119.013C307.973 118.654 308.473 118.529 309.103 118.459C311.112 118.236 313.292 118.438 315.319 118.446C318.546 118.459 321.828 118.287 325.039 118.565C329.6 118.96 333.348 120.489 336.242 123.485C337.582 124.873 338.722 126.506 339.294 128.233C340.507 131.893 339.641 140.977 339.836 145.291L244.412 145.18C244.534 142.146 244.441 139.099 244.425 136.063C244.396 130.906 244.36 126.586 249.203 122.812C254.095 119 259.202 119.022 265.501 119.03C268.652 119.021 271.803 119.039 274.953 119.084C277.898 121.759 279.575 123.228 284.182 123.412C291.073 123.687 298.151 123.451 305.053 123.393C305.813 122.954 306.256 122.513 306.793 121.894Z" fill="#151419"/>
<path d="M257.673 128.483C258.544 128.443 259.382 128.45 260.218 128.686C260.376 128.73 260.53 128.781 260.682 128.838C260.833 128.895 260.98 128.959 261.124 129.029C261.267 129.099 261.406 129.175 261.54 129.257C261.674 129.339 261.803 129.426 261.926 129.519C262.05 129.612 262.167 129.71 262.278 129.814C262.39 129.917 262.495 130.024 262.593 130.136C262.691 130.248 262.782 130.364 262.866 130.484C262.95 130.604 263.026 130.727 263.095 130.853C263.161 130.976 263.22 131.102 263.27 131.23C263.321 131.358 263.363 131.488 263.397 131.62C263.431 131.752 263.457 131.885 263.475 132.019C263.492 132.153 263.501 132.288 263.502 132.423C263.503 132.558 263.495 132.692 263.479 132.826C263.462 132.961 263.438 133.094 263.405 133.226C263.372 133.358 263.33 133.488 263.281 133.617C263.232 133.745 263.174 133.871 263.109 133.995C262.492 135.165 261.358 135.836 259.976 136.286C259.208 136.373 258.519 136.402 257.772 136.201C256.387 135.829 255.279 135.037 254.663 133.929C254.118 132.949 254.047 131.814 254.541 130.808C255.149 129.57 256.234 128.958 257.673 128.483Z" fill="#FEFEFE"/>
<path d="M272.826 129.625C282.036 129.306 291.383 129.572 300.609 129.575C308.88 129.577 317.28 129.298 325.535 129.6C326.527 129.636 328.011 129.623 328.874 130.078C329.581 130.45 329.9 130.975 330.06 131.646C330.274 132.537 330.191 133.494 329.518 134.238C328.802 135.029 327.882 135.185 326.766 135.337C322.928 135.52 319.004 135.402 315.159 135.393L295.447 135.342L279.999 135.304C277.777 135.302 275.441 135.471 273.234 135.326C272.263 135.262 271.285 135.087 270.48 134.605C269.777 134.184 269.252 133.534 269.164 132.805C269.072 132.053 269.434 131.336 269.988 130.756C270.795 129.911 271.585 129.765 272.826 129.625Z" fill="#FEFEFE"/>
<path d="M93.8248 111.032C93.8511 111.516 93.7578 111.817 94.1371 112.195C94.5077 112.206 94.868 112.221 95.2386 112.208L114.539 112.13C117.567 112.116 121.262 111.763 124.203 112.266C125.072 112.415 125.902 112.934 126.511 113.454C127.146 113.996 127.569 114.765 127.669 115.52C127.965 117.761 127.724 120.21 127.71 122.473L127.713 134.763L127.763 154.97C127.779 158.718 127.947 162.514 127.761 166.255C127.683 167.827 127.174 168.747 125.728 169.788C125.061 170.268 124.165 170.347 123.319 170.412C120.1 170.66 116.681 170.419 113.437 170.392C107.221 170.332 101.005 170.363 94.7895 170.484L93.487 170.465C93.1168 170.813 93.3072 184.66 93.2604 186.426C92.8148 181.487 93.2006 175.512 93.1774 170.446C85.3755 170.228 77.4837 170.397 69.6711 170.38C66.4746 170.373 62.9131 170.625 59.757 170.197C58.7606 170.062 57.9635 169.845 57.1907 169.287C56.0063 168.433 55.5287 167.447 55.4026 166.17C55.0945 163.054 55.3382 159.765 55.3443 156.632L55.2979 140.106L55.3264 124.439C55.326 121.534 55.1238 118.487 55.4209 115.594C55.5047 114.776 55.9484 113.98 56.6004 113.371C57.1907 112.819 58.0046 112.401 58.8737 112.245C61.4312 111.787 64.6582 112.084 67.2755 112.088L84.1784 112.133C87.2261 112.15 90.3704 112.33 93.4082 112.152C93.8397 111.872 93.7563 111.473 93.8248 111.032Z" fill="#151419"/>
<path d="M73.339 124.086C73.8855 124.104 74.3407 124.132 74.779 124.431C77.0509 125.979 79.1513 128.136 81.1657 129.921C84.551 132.929 87.9715 135.909 91.4272 138.861C95.521 135.622 99.3426 132.054 103.206 128.619C104.465 127.5 105.633 126.273 106.964 125.217C107.392 124.878 107.922 124.465 108.505 124.322C108.94 124.216 109.405 124.323 109.766 124.536C110.142 124.758 110.414 125.094 110.432 125.487C110.499 126.91 95.9354 139.168 93.8707 140.938C95.9754 142.773 110.313 155.37 110.426 156.685C110.461 157.097 110.336 157.341 109.978 157.618C109.529 157.964 108.704 157.958 108.138 157.971C105.329 155.681 102.75 153.17 100.099 150.751C97.2147 148.147 94.3005 145.566 91.3559 143.009C88.8194 145.295 75.2962 158.075 73.8193 158.318C73.3828 158.39 72.906 158.286 72.5468 158.073C72.169 157.849 71.8898 157.486 71.8677 157.093C71.8437 156.672 72.1054 156.319 72.38 155.989C73.4609 154.689 75.0216 153.542 76.2979 152.367C80.4216 148.529 84.6749 144.794 89.0578 141.162C85.76 137.899 82.237 134.812 78.7084 131.725C76.7561 130.017 74.5109 128.314 72.8302 126.414C72.4825 126.021 72.3568 125.76 72.3301 125.274C72.4912 124.743 72.8938 124.461 73.339 124.086Z" fill="#FEFEFE"/>
<path d="M95.2383 112.208C95.0734 98.9604 95.2018 85.7062 95.2231 72.4573L95.2098 60.7665C95.2064 58.4763 95.0171 56.0605 95.4147 53.7948C95.4444 53.625 95.4818 53.4564 95.527 53.2889C95.5722 53.1217 95.6249 52.956 95.6851 52.7919C95.7453 52.6279 95.8128 52.4659 95.8877 52.3061C95.9626 52.1463 96.0447 51.9891 96.1341 51.8346C96.2235 51.6801 96.3196 51.5287 96.4224 51.3803C96.5255 51.2318 96.6352 51.0868 96.7515 50.9455C96.8678 50.8041 96.9903 50.6666 97.119 50.5329C97.2478 50.3992 97.3825 50.2698 97.5231 50.1448C99.6674 48.227 101.996 47.8637 104.994 47.8434L212.739 47.8122L247.168 47.781L257.461 47.7982C259.344 47.8033 261.324 47.7109 263.195 47.8803C264.986 48.0427 266.745 48.6746 268.046 49.7261C269.271 50.7159 270.256 52.1304 270.519 53.543C270.948 55.8527 270.747 58.3753 270.753 60.7162L270.769 72.9151L270.795 114.252L270.794 114.425C268.333 114.289 265.849 114.312 263.384 114.313C256.443 114.317 251.114 114.886 245.676 118.884C241.615 121.871 239.12 126.521 238.818 131.01C238.564 134.777 238.8 138.63 238.807 142.408L238.812 165.314C238.709 177.163 238.699 189.011 238.783 200.86C238.791 206.566 238.597 212.318 238.815 218.019C240.926 219.43 242.588 221.02 244.258 222.782C244.434 219.674 244.365 216.54 244.384 213.428L244.374 194.716L244.412 145.18L339.836 145.291C340.049 150.545 339.91 155.84 339.915 161.099L339.769 196.892L339.824 210.325C339.833 211.94 340.207 215.663 339.689 217.072C342.75 220.159 344.172 222.716 346.641 225.889C346.674 226.205 346.701 226.417 346.563 226.716C346.506 226.86 346.392 226.996 346.392 227.147C346.394 227.789 347.786 229.927 348.144 230.65C348.948 232.277 349.519 233.949 349.998 235.66C352.394 244.213 354.225 252.876 356.481 261.455L360.755 277.786C361.674 281.235 362.746 284.699 363.464 288.18C340.9 287.901 318.283 288.1 295.714 288.109C289.91 288.116 284.106 288.154 278.302 288.224C275.137 288.254 271.832 288.43 268.683 288.227C269.025 287.348 269.361 286.469 269.743 285.602C264.492 288.437 258.547 289.676 252.361 288.55C243.442 286.927 239.864 282.658 235.521 276.475C233.165 273.122 230.935 269.696 228.413 266.428C228.198 269.773 227.682 273.121 227.305 276.457C226.862 280.394 226.544 284.368 225.913 288.287C220.178 288.493 214.352 288.314 208.608 288.315C201.14 288.317 193.627 288.457 186.166 288.254C185.621 285.139 185.515 281.871 185.159 278.727L182.146 249.013C178.585 248.909 174.989 248.987 171.425 248.985C165.624 248.967 159.824 248.976 154.023 249.014C153.72 259.114 153.953 269.296 154.07 279.401L167.065 279.443C168.892 279.447 170.909 279.268 172.712 279.438C173.054 279.471 173.323 279.577 173.628 279.703C173.826 279.953 173.931 280.002 173.931 280.316C173.928 281.568 171.682 283.803 170.632 284.68C168.441 286.509 165.744 287.602 162.688 287.963C158.411 288.467 153.678 288.132 149.342 288.128L123.693 288.109L40.0134 288.29C36.543 288.296 33.8783 287.684 31.3962 285.587C30.0708 284.467 28.6617 282.705 28.3261 281.132C27.8848 279.064 28.1378 276.699 28.1397 274.587L28.1291 262.5L28.0283 215.843C28.0451 213.877 28.2579 212.247 30.0665 210.81C30.9052 210.143 32.4596 209.958 33.5906 209.866C35.8485 209.683 38.2142 209.792 40.4857 209.79L52.5817 209.789C66.1071 209.768 79.6319 209.809 93.1562 209.914C93.255 202.085 93.2896 194.256 93.2602 186.426C93.307 184.66 93.1166 170.813 93.4868 170.465L94.7893 170.484C101.004 170.363 107.22 170.332 113.437 170.392C116.68 170.419 120.1 170.66 123.319 170.412C124.165 170.347 125.061 170.268 125.728 169.788C127.173 168.747 127.683 167.827 127.761 166.255C127.947 162.514 127.779 158.718 127.763 154.97L127.713 134.763L127.71 122.473C127.724 120.21 127.965 117.76 127.669 115.52C127.569 114.765 127.146 113.996 126.51 113.454C125.902 112.934 125.072 112.415 124.203 112.266C121.262 111.763 117.567 112.116 114.539 112.13L95.2383 112.208Z" fill="#151419"/>
<path d="M309.258 190.875C309.962 190.812 310.655 190.748 311.349 190.909C311.481 190.939 311.611 190.975 311.739 191.017C311.867 191.058 311.992 191.106 312.114 191.158C312.237 191.21 312.356 191.268 312.471 191.331C312.585 191.393 312.696 191.461 312.803 191.533C312.909 191.606 313.011 191.682 313.109 191.764C313.206 191.845 313.297 191.93 313.384 192.019C313.47 192.108 313.551 192.201 313.626 192.297C313.701 192.393 313.77 192.493 313.833 192.595C313.895 192.7 313.951 192.807 314 192.917C314.049 193.027 314.091 193.139 314.126 193.252C314.161 193.365 314.188 193.48 314.209 193.596C314.23 193.712 314.243 193.829 314.249 193.946C314.255 194.063 314.254 194.18 314.245 194.297C314.236 194.414 314.22 194.53 314.197 194.646C314.174 194.762 314.143 194.876 314.106 194.989C314.068 195.102 314.023 195.213 313.972 195.322C313.437 196.465 312.45 197.009 311.164 197.498C310.434 197.552 309.705 197.585 308.999 197.389C308.863 197.353 308.731 197.311 308.601 197.263C308.471 197.215 308.344 197.161 308.22 197.103C308.097 197.044 307.977 196.98 307.862 196.911C307.746 196.841 307.635 196.768 307.529 196.689C307.422 196.61 307.321 196.527 307.224 196.44C307.128 196.352 307.038 196.261 306.953 196.165C306.868 196.07 306.789 195.971 306.716 195.869C306.643 195.767 306.577 195.662 306.517 195.554C306.464 195.456 306.416 195.356 306.375 195.254C306.333 195.152 306.298 195.049 306.269 194.944C306.239 194.838 306.217 194.732 306.2 194.625C306.184 194.519 306.173 194.411 306.17 194.304C306.166 194.196 306.169 194.088 306.178 193.98C306.187 193.873 306.202 193.766 306.224 193.66C306.246 193.554 306.274 193.449 306.308 193.345C306.342 193.241 306.383 193.138 306.429 193.038C306.954 191.898 307.964 191.333 309.258 190.875Z" fill="#FEFEFE"/>
<path d="M29.7676 280.747L37.3293 280.774C38.9052 283.722 41.2833 285.623 44.7975 286.952C41.6645 287.119 38.0598 287.368 35.1763 286.17C32.3518 284.996 30.7851 283.174 29.7676 280.747Z" fill="#FEFEFE"/>
<path d="M217.265 213.824C224.53 213.184 231.127 215.571 236.864 219.164C240.086 221.182 243.522 223.97 244.08 227.47C244.448 229.783 243.791 233.26 242.069 235.133L241.753 235.16C241.144 234.245 241.374 232.917 241.391 231.897C241.346 228.937 241.462 225.423 239.248 222.914C237.899 221.386 235.894 220.216 234.039 219.16C229.173 216.39 223.872 214.002 217.793 214.748C216.886 214.859 215.913 215.028 215.077 215.347C214.518 215.56 213.852 216.06 213.259 216.162C213.097 216.189 212.932 216.125 212.768 216.107C212.467 215.81 212.336 215.822 212.369 215.415C213.388 214.473 215.799 214.021 217.265 213.824Z" fill="#FEFEFE"/>
<path d="M183.272 184.433C185.117 185.545 186.838 187.379 188.441 188.761C191.159 191.102 194.078 193.359 196.565 195.872C195.632 196.51 194.704 197.155 193.782 197.806C192.757 198.577 191.726 199.307 190.62 199.997C187.965 197.122 184.567 188.129 183.272 184.433Z" fill="#FEFEFE"/>
<path d="M198.207 236.153L210.722 236.21C211.197 237.572 211.316 239.043 211.633 240.435C212.036 242.203 212.79 243.85 213.671 245.485C208.845 245.713 203.88 245.512 199.04 245.501C198.935 242.379 198.389 239.273 198.207 236.153Z" fill="#FEFEFE"/>
<path d="M33.9866 210.976C44.2662 211.156 54.5745 211.032 64.857 211.032L115.17 211.067L137.847 211.079C141.045 211.085 144.369 210.862 147.546 211.059C148.793 211.135 149.559 211.324 150.519 211.988L150.378 212.169L67.8071 212.151L45.3897 212.138C42.213 212.142 37.132 212.471 34.1573 212.002C33.8862 211.681 33.985 211.36 33.9866 210.976Z" fill="#FEFEFE"/>
<path d="M213.138 276.947C217.299 276.93 221.46 276.936 225.62 276.963C225.105 280.351 225.057 283.787 224.428 287.168C220.111 287.201 215.789 287.156 211.471 287.147C211.77 283.794 212.345 280.243 213.138 276.947Z" fill="#FEFEFE"/>
<path d="M193.822 236.146L196.697 236.136C197.191 239.224 197.379 242.383 197.559 245.495L185.43 245.481L183.392 245.479C182.764 242.448 182.646 239.259 182.217 236.194L193.822 236.146Z" fill="#FEFEFE"/>
<path d="M186.478 276.997C191.03 276.969 195.582 276.962 200.134 276.976C200.753 280.291 200.833 283.8 201.145 287.153C196.588 287.174 192.032 287.176 187.475 287.158C187.189 283.768 186.856 280.381 186.478 276.997Z" fill="#FEFEFE"/>
<path d="M31.9342 211.163L32.1587 211.327C32.6818 212.689 32.2535 224.617 32.2384 226.938L32.1996 253.919L32.2222 270.624C32.2275 273.428 32.496 276.451 32.1377 279.23C31.4906 279.386 30.7896 279.318 30.1186 279.31L29.812 279.157C29.3448 277.27 29.7127 274.743 29.7149 272.787L29.7131 258.636L29.6774 228.309L29.66 219.024C29.6579 217.323 29.5274 215.53 29.7656 213.843C29.9361 212.635 30.8456 211.891 31.9342 211.163Z" fill="#FEFEFE"/>
<path d="M217.358 250.55C218.498 251.496 226.043 262.758 227.251 264.68C226.364 268.31 226.643 272.104 225.798 275.743L222.946 275.752L213.319 275.763C213.942 270.789 214.803 265.825 215.581 260.866C216.116 257.454 216.474 253.909 217.358 250.55Z" fill="#FEFEFE"/>
<path d="M301.938 180.06L303.732 180C305.183 180.699 306.562 181.487 307.951 182.268C307.745 182.502 307.536 182.738 307.36 182.989C306.036 184.868 308.525 187.69 309.144 189.617C307.63 189.92 306.487 190.461 305.55 191.533C305.445 191.655 305.348 191.781 305.259 191.911C305.17 192.04 305.088 192.173 305.015 192.31C304.941 192.447 304.876 192.586 304.819 192.728C304.762 192.87 304.714 193.014 304.674 193.16C304.634 193.306 304.603 193.453 304.581 193.601C304.559 193.75 304.545 193.899 304.541 194.049C304.536 194.199 304.541 194.348 304.554 194.498C304.567 194.647 304.589 194.795 304.62 194.943C304.654 195.096 304.696 195.248 304.747 195.398C304.798 195.548 304.859 195.696 304.928 195.841C304.997 195.986 305.074 196.128 305.16 196.267C305.246 196.405 305.34 196.54 305.443 196.671C305.545 196.801 305.654 196.928 305.771 197.049C305.888 197.171 306.013 197.287 306.144 197.398C306.275 197.51 306.412 197.615 306.556 197.715C306.7 197.815 306.849 197.908 307.004 197.995C308.875 199.068 310.804 198.957 312.919 198.629L312.932 205.466C310.862 205.205 308.694 205.186 306.604 205.179C302.513 205.175 300.517 205.724 296.813 203.757C293.209 201.843 290.482 198.573 289.561 195.087C289.509 194.889 289.463 194.69 289.423 194.49C289.382 194.29 289.348 194.09 289.319 193.889C289.291 193.688 289.269 193.486 289.252 193.284C289.236 193.082 289.225 192.879 289.221 192.677C289.217 192.474 289.218 192.272 289.226 192.069C289.234 191.867 289.247 191.664 289.267 191.462C289.286 191.26 289.312 191.059 289.344 190.858C289.375 190.657 289.413 190.457 289.456 190.258C289.5 190.059 289.549 189.86 289.604 189.663C289.659 189.466 289.72 189.27 289.787 189.075C289.854 188.88 289.926 188.687 290.005 188.495C290.083 188.303 290.167 188.113 290.256 187.925C290.346 187.737 290.441 187.55 290.542 187.366C290.642 187.182 290.748 187 290.86 186.82C290.971 186.64 291.087 186.462 291.209 186.287C291.331 186.112 291.458 185.939 291.59 185.77C293.969 182.686 297.732 180.841 301.938 180.06Z" fill="#FEFEFE"/>
<path d="M183.428 246.727L197.777 246.739L200.139 275.825L186.297 275.837L183.428 246.727Z" fill="#FEFEFE"/>
<path d="M199.198 246.757C204.358 246.741 209.517 246.748 214.677 246.779C215.226 247.507 215.665 248.249 216.103 249.026C215.144 252.923 214.769 257.031 214.146 260.983C213.062 268.274 211.886 275.554 210.619 282.824C210.381 284.247 210.173 285.674 209.994 287.103L202.551 287.101C202.142 283.404 201.951 279.68 201.603 275.977C200.689 266.258 199.768 256.493 199.198 246.757Z" fill="#FEFEFE"/>
<path d="M218.292 215.878C219.144 215.808 219.997 215.796 220.851 215.842C221.705 215.888 222.55 215.99 223.384 216.149C226.655 216.773 229.853 218.333 232.623 219.865C239.121 223.458 239.907 225.169 239.937 231.539C239.944 232.835 239.838 234.246 240.34 235.488C240.864 236.782 242.437 238.166 243.337 239.348C235.58 243.429 227.574 247.249 219.688 251.158C217.215 248.097 214.127 244.646 213.168 240.97C212.625 238.889 212.554 236.966 211.57 234.951C210.185 232.37 207.989 229.997 207.006 227.282C206.182 225.008 206.695 223.137 208.03 221.122C208.415 222.419 208.902 223.827 209.87 224.908C211.548 226.784 217.933 231.775 220.782 232.018C221.665 232.094 222.834 232.039 223.503 231.478C223.937 231.114 224.083 230.564 224.043 230.066C223.949 228.888 222.958 227.948 221.919 227.23C218.722 225.021 214.731 223.365 210.542 223.706C210.205 222.862 209.983 221.989 209.738 221.123C210.274 219.528 211.11 218.7 212.616 217.684C215.363 218.282 221.177 221.044 223.121 220.974L223.251 220.78C222.022 219.236 216.964 217.527 214.79 216.765C215.957 216.39 217.066 216.086 218.292 215.878Z" fill="#FEFEFE"/>
<path d="M39.1973 280.772C44.5419 280.654 49.9303 280.79 55.2787 280.801L84.4925 280.802L172.271 280.79C171.374 282.07 170.363 283.149 169.101 284.191C168.289 284.739 167.476 285.249 166.546 285.653C164.811 286.408 163.023 286.742 161.078 286.827C154.926 287.096 148.62 286.878 142.455 286.869L107.2 286.837L70.1417 286.864C63.9375 286.872 57.6149 287.12 51.424 286.863C49.8362 286.797 48.2552 286.594 46.7444 286.172C43.2957 285.211 40.838 283.483 39.1973 280.772Z" fill="#FEFEFE"/>
<path d="M51.9964 283.101L71.8327 283.111C74.5288 283.117 77.41 282.906 80.079 283.078C80.6496 283.115 81.075 283.156 81.5606 283.414C81.7046 283.836 81.6577 283.849 81.4486 284.258L80.9802 284.37L61.6668 284.363C58.8511 284.364 56.016 284.463 53.2037 284.398C52.4153 284.379 51.3863 284.429 50.8047 283.92L50.8333 283.447C51.2335 283.095 51.4323 283.154 51.9964 283.101Z" fill="#151419"/>
<path d="M183.961 170.632C187.015 172.801 190.24 174.804 193.365 176.902C199.494 181.041 205.592 185.212 211.659 189.414C214.466 191.364 217.347 193.264 220.03 195.333C212.749 195.432 205.468 195.443 198.187 195.364C195.093 192.818 192.053 190.226 189.068 187.59C187.035 185.809 184.74 183.342 182.289 181.99C181.901 181.776 181.717 181.772 181.279 181.858L181.083 182.217C181.097 182.901 181.301 183.387 181.597 184.021C183.084 187.814 184.706 191.574 186.238 195.355C173.032 195.411 159.826 195.4 146.62 195.323C159.331 187.414 171.573 178.891 183.961 170.632Z" fill="#FEFEFE"/>
<path d="M146.925 144.064L220.339 144.091C215.013 148.022 209.323 151.651 203.869 155.463C197.351 160.033 190.671 164.515 184.025 168.958C179.861 166.43 175.945 163.608 171.93 160.919C163.549 155.347 155.214 149.729 146.925 144.064Z" fill="#FEFEFE"/>
<path d="M221.828 144.494C222.154 144.659 222.438 144.864 222.679 145.11C223.136 145.57 223.087 146.41 223.12 146.985C223.309 150.316 223.199 153.692 223.188 157.028L223.206 171.084L223.206 185.19C223.204 187.899 223.322 190.664 223.109 193.366C223.055 194.049 222.94 194.358 222.316 194.82C221.782 194.856 221.523 194.801 221.088 194.518C219.547 193.518 218.087 192.333 216.569 191.289L202.889 181.878C197.003 177.819 190.908 173.993 185.132 169.817C187.956 167.704 190.962 165.758 193.893 163.748L211.232 151.941C214.789 149.52 218.522 147.153 221.828 144.494Z" fill="#FEFEFE"/>
<path d="M145.038 144.293C148.493 146.466 151.75 148.887 155.122 151.153C160.296 154.631 165.569 158.018 170.701 161.538C174.712 164.289 178.627 167.239 182.854 169.752C180.53 171.483 178.005 173.063 175.573 174.688L165.958 181.186C161.017 184.285 156.211 187.592 151.333 190.766C149.278 192.104 147.289 193.54 145.119 194.745C144.663 194.663 144.582 194.588 144.227 194.325C143.279 191.494 143.765 185.201 143.766 181.975L143.769 161.646L143.763 151.024C143.763 149.373 143.605 147.582 143.802 145.946C143.899 145.135 144.311 144.802 145.038 144.293Z" fill="#FEFEFE"/>
<path d="M244.412 145.18L339.836 145.291C340.05 150.545 339.911 155.84 339.916 161.099L339.769 196.892L339.824 210.325C339.833 211.94 340.208 215.663 339.69 217.072C332.63 210.881 324.365 207.403 314.442 205.59C314.45 203.605 314.478 201.62 314.526 199.635C316.477 201.053 318.437 202.246 320.974 202.804C324.357 203.549 328.053 203.029 331.053 201.559C334.326 199.955 336.831 197.242 337.737 194.149C338.643 191.056 338.1 187.831 336.071 185.127C333.651 181.902 330.332 180.535 326.016 179.725C327.624 176.518 328.436 173.891 327.133 170.477C326.043 167.624 323.743 165.551 320.558 164.211C317.199 162.798 313.364 162.696 309.823 163.703C306.564 164.629 303.955 166.508 302.453 169.107C300.595 172.32 301.182 175.374 302.523 178.622C300.824 178.829 299.257 179.119 297.69 179.723C292.988 181.537 289.975 184.76 288.22 188.749C287.605 191.478 287.501 193.723 288.23 196.443C290.127 200.904 293.502 203.824 298.545 205.854C294.763 206.735 290.907 208.053 287.678 209.951C285.673 211.293 283.833 212.653 282.218 214.338C279.75 216.913 277.919 219.988 275.851 222.799C272.818 226.921 269.605 230.929 266.717 235.127C262.657 240.717 258.558 246.286 254.418 251.834C252.042 248.61 249.635 245.401 247.199 242.208C245.779 240.316 244.247 238.41 243.103 236.389C243.429 235.841 243.741 235.288 244.041 234.729C246.245 230.591 246.191 226.962 244.259 222.782C244.434 219.674 244.365 216.54 244.384 213.428L244.375 194.716L244.412 145.18Z" fill="#FEFEFE"/>
<path d="M288.23 196.443C288.076 196.754 288.091 196.662 288.043 196.935C287.924 197.615 287.942 198.217 287.337 198.735C285.364 199.265 261.745 199.179 258.355 198.991C257.303 198.932 256.262 198.806 255.262 198.517C255.063 198.31 255.111 198.391 254.99 198.1C254.568 197.079 254.639 190.655 254.822 189.231C254.884 188.746 255.012 188.398 255.292 187.972C255.918 187.517 256.743 187.444 257.542 187.378C261.044 187.09 264.799 187.352 268.333 187.36C274.617 187.33 280.901 187.328 287.185 187.354C287.548 187.807 287.877 188.284 288.22 188.749C287.604 191.478 287.5 193.723 288.23 196.443Z" fill="#151419"/>
<path d="M266.716 235.127C264.071 235.045 257.176 235.6 255.038 234.795L255.086 234.577L254.926 234.625C254.151 231.645 254.593 224.433 254.596 220.921C254.599 216.705 254.359 212.391 254.641 208.191C254.688 207.484 254.819 206.808 255.084 206.135C255.508 205.78 256.217 205.733 256.785 205.674C258.632 205.485 260.594 205.594 262.459 205.592L272.72 205.601C276.894 205.615 282.066 205.359 286.079 205.573C286.579 205.6 286.964 205.597 287.371 205.867C288.186 206.957 287.744 208.703 287.677 209.951C285.672 211.293 283.832 212.653 282.217 214.338C279.749 216.913 277.918 219.988 275.85 222.799C272.818 226.921 269.605 230.929 266.716 235.127Z" fill="#151419"/>
<path d="M258.912 152.252C263.171 152.247 284.385 151.859 287.089 152.709C287.672 153.195 287.704 154.31 287.751 154.982C287.883 156.847 287.78 158.749 287.775 160.619L287.736 170.947C287.71 173.366 288.015 175.948 287.81 178.34C287.756 178.961 287.542 179.596 287.015 180.055C286.252 180.721 285.184 180.626 284.18 180.617C277.742 180.507 271.29 180.54 264.851 180.515C262.335 180.505 259.679 180.695 257.182 180.527C256.598 180.488 255.937 180.434 255.45 180.136C255.044 179.888 255.032 179.163 254.975 178.746C254.737 176.992 254.814 175.172 254.796 173.409L254.75 164.325C254.752 160.904 254.425 157.193 254.874 153.796C254.921 153.442 254.949 153.117 255.261 152.846C256.116 152.102 257.775 152.264 258.912 152.252Z" fill="#151419"/>
<path d="M255.379 253.128C262.689 243.427 269.578 233.502 276.935 223.82C279.067 221.015 280.805 217.864 283.237 215.243C284.803 213.555 286.812 212.069 288.923 210.875C296.599 206.533 306.415 205.674 315.346 207.154C324.429 208.659 334.534 213.278 340.099 219.589C341.874 221.601 343.322 224.55 345.06 226.324C345.481 226.754 345.943 226.666 346.563 226.716C346.506 226.86 346.392 226.996 346.393 227.147C346.395 227.789 347.787 229.927 348.144 230.65C348.948 232.277 349.52 233.949 349.999 235.66C352.394 244.213 354.225 252.876 356.481 261.455L360.755 277.786C361.674 281.235 362.746 284.699 363.465 288.18C340.9 287.901 318.283 288.1 295.715 288.109C289.91 288.116 284.106 288.154 278.302 288.224C275.137 288.254 271.832 288.43 268.683 288.227C269.025 287.348 269.361 286.469 269.744 285.602C271.321 284.543 272.728 283.461 273.983 282.13C276.176 279.803 277.935 277.113 279.752 274.573C281.68 271.874 283.655 269.198 285.675 266.547C290.855 259.648 295.986 252.724 301.071 245.776C303.303 242.745 305.81 239.757 307.879 236.66C308.179 236.211 308.578 235.624 308.447 235.093C308.39 234.865 308.198 234.823 307.986 234.698C307.337 234.751 307.147 235.038 306.759 235.457C304.531 237.859 302.85 240.799 300.905 243.38C294.527 251.843 288.337 260.427 282.067 268.949C279.319 272.685 275.966 277.862 272.858 281.179C271.393 282.743 269.762 284.088 267.731 285.132C263.172 287.475 257.394 288.403 252.172 287.305C248.549 286.543 244.865 284.873 242.249 282.629C238.518 279.428 236.109 274.855 233.457 271.009C229.218 264.861 225.051 258.638 220.651 252.571C223.742 250.236 230.052 247.584 233.783 245.704C237.2 243.982 240.512 242.001 244.086 240.516C245.892 242.54 247.365 244.859 248.951 247.011L258.537 260C259.332 261.068 260.408 263.121 261.543 263.892C261.902 264.136 262.177 264.167 262.614 264.125L262.756 263.849C262.374 262.116 256.799 255.198 255.379 253.128Z" fill="#151419"/>
<path d="M33.864 213.174L121.791 213.158L144.05 213.267C145.76 213.279 149.816 213.072 151.198 213.345C151.342 213.374 151.544 213.499 151.64 213.572C152.258 214.045 152.461 215.021 152.508 215.68C152.755 219.146 152.542 222.707 152.534 226.181L152.517 246.241L152.531 267.563C152.548 271.493 152.776 275.508 152.541 279.428L33.7295 279.397L33.864 213.174Z" fill="#151419"/>
<path d="M60.7074 254.249C71.3288 253.319 72.9809 264.833 81.0536 266.321C85.341 267.111 88.1624 262.822 91.3959 261.173C99.9869 256.791 103.615 266.749 110.61 268.029C117.056 269.208 119.637 261.42 124.301 259.054C125.926 258.23 127.646 258.012 129.482 258.435C132.777 259.195 137.171 263.313 138.659 265.843C138.892 266.239 138.955 266.425 138.789 266.84L138.357 266.987C137.956 266.898 137.723 266.745 137.457 266.478C135.728 264.733 134.66 262.718 132.586 261.157C130.782 259.8 129.036 259.324 126.662 259.441C120.499 261.112 119.284 268.493 113.092 269.255C107.523 269.941 103.94 265.172 100.035 262.744C91.5757 257.485 89.3659 266.884 82.8616 267.521C76 268.192 71.9801 260.041 67.3656 257.109C65.2735 255.779 62.9091 255.11 60.2713 255.475C56.2643 256.031 53.9178 259.246 52.8297 262.228C52.5619 262.961 52.3018 264.297 51.7572 264.884C51.5328 265.125 51.6585 265.044 51.2384 265.084C51.0198 264.926 50.8614 264.881 50.8046 264.629C50.4706 263.141 52.5395 259.512 53.5411 258.204C55.2733 255.943 57.5973 254.821 60.7074 254.249Z" fill="#FEFEFE"/>
<path d="M93.198 226.723C96.513 226.473 99.3535 226.882 102.194 228.399C105.295 230.057 107.633 232.541 108.384 235.585C109.153 238.699 108.48 242.036 106.342 244.684C104.13 247.425 100.925 248.911 97.1106 249.551C93.3386 250.026 89.693 249.376 86.6092 247.469C83.6503 245.639 81.7703 243.079 81.2261 240.033C81.1898 239.841 81.1593 239.648 81.1347 239.455C81.1098 239.262 81.0908 239.069 81.0776 238.875C81.0644 238.681 81.0569 238.487 81.0551 238.292C81.0533 238.098 81.0574 237.904 81.0673 237.71C81.0772 237.516 81.0928 237.322 81.1141 237.128C81.1355 236.935 81.1626 236.742 81.1956 236.55C81.2284 236.357 81.267 236.166 81.3114 235.975C81.3556 235.785 81.4055 235.595 81.4611 235.406C81.5164 235.217 81.5775 235.03 81.6443 234.844C81.7111 234.658 81.7832 234.473 81.8606 234.29C81.9383 234.107 82.0215 233.926 82.1101 233.746C82.1984 233.566 82.2921 233.389 82.3911 233.213C82.4902 233.037 82.5944 232.864 82.7038 232.692C82.8133 232.521 82.9277 232.352 83.047 232.185C83.1663 232.018 83.2906 231.854 83.4198 231.693C83.5491 231.532 83.683 231.373 83.8217 231.217C86.1491 228.601 89.3936 227.205 93.198 226.723Z" fill="#FEFEFE"/>
<path d="M95.2381 112.208C95.0732 98.9604 95.2015 85.7062 95.2229 72.4573L95.2095 60.7665C95.2061 58.4763 95.0168 56.0605 95.4144 53.7948C95.4441 53.625 95.4816 53.4564 95.5268 53.2889C95.572 53.1217 95.6247 52.956 95.6848 52.7919C95.745 52.6279 95.8126 52.4659 95.8875 52.3061C95.9624 52.1463 96.0445 51.9892 96.1339 51.8346C96.2233 51.6801 96.3194 51.5287 96.4222 51.3803C96.5253 51.2318 96.635 51.0868 96.7513 50.9455C96.8675 50.8041 96.9901 50.6666 97.1188 50.5329C97.2475 50.3992 97.3822 50.2698 97.5229 50.1448C99.6671 48.227 101.996 47.8637 104.993 47.8434L212.739 47.8122L247.167 47.781L257.461 47.7982C259.344 47.8033 261.324 47.7109 263.195 47.8803C264.986 48.0427 266.745 48.6746 268.046 49.7262C269.271 50.7159 270.256 52.1304 270.519 53.543C270.948 55.8527 270.747 58.3753 270.753 60.7162L270.769 72.9151L270.795 114.252L270.794 114.425C268.333 114.289 265.849 114.312 263.384 114.313C256.443 114.317 251.114 114.886 245.676 118.884C241.615 121.871 239.12 126.521 238.818 131.01C238.564 134.777 238.8 138.63 238.807 142.408L238.812 165.314C238.709 177.163 238.699 189.011 238.782 200.86C238.79 206.566 238.597 212.318 238.815 218.019C235.429 215.657 230.89 213.458 226.596 212.525C221.219 211.355 216.074 211.619 211.26 213.962C209.544 212.107 208.129 209.819 206.663 207.805C203.905 204.069 201.178 200.318 198.481 196.551C203.608 196.344 208.803 196.491 213.934 196.531C216.205 196.548 218.63 196.704 220.888 196.491C221.624 196.422 222.4 196.189 223.018 195.846C223.805 195.41 224.167 194.789 224.339 194.03C224.808 191.967 224.537 189.541 224.541 187.432L224.526 174.64L224.495 156.482C224.491 153.362 224.676 150.136 224.431 147.031C224.355 146.08 224.137 144.976 223.44 144.19C222.812 143.479 221.776 143.115 220.756 143.025C216.99 142.695 212.916 142.971 209.116 142.963L185.15 142.919L158.904 142.926C154.482 142.921 149.84 142.672 145.437 142.937C144.678 142.982 144.067 143.188 143.501 143.62C142.623 144.29 142.434 145.269 142.407 146.215C142.139 155.626 142.389 165.089 142.376 174.506L142.364 186.263C142.363 188.341 142.231 190.482 142.415 192.549C142.49 193.399 142.619 194.853 143.369 195.454C143.459 195.525 143.552 195.593 143.648 195.658C143.745 195.723 143.844 195.785 143.946 195.844C144.049 195.902 144.153 195.957 144.261 196.008C144.368 196.06 144.478 196.108 144.59 196.152C144.702 196.197 144.816 196.237 144.931 196.274C145.047 196.311 145.165 196.343 145.283 196.372C145.402 196.401 145.523 196.426 145.644 196.447C145.765 196.468 145.887 196.485 146.01 196.498C149.383 196.834 154.004 196.497 157.521 196.493C167.25 196.485 177.005 196.342 186.731 196.502C188.619 199.636 190.553 201.151 192.644 203.91C197.079 209.763 201.266 215.742 205.68 221.606C204.039 227.442 206.667 230.022 209.937 234.943L188.705 234.938C185.38 234.936 181.799 234.698 178.5 234.981C178.12 235.21 178.103 235.194 177.995 235.572L178.26 235.872C179.078 236.118 179.999 236.076 180.861 236.099C181.533 239.958 181.646 243.941 182.054 247.829L154.038 247.837C153.811 237.444 154.048 227.051 153.965 216.659C153.948 214.474 153.92 212.783 151.89 211.185C151.052 210.526 150.121 210.079 148.975 209.94C146.73 209.67 144.354 209.81 142.086 209.828C138.913 209.854 135.739 209.865 132.565 209.86L94.8405 209.92L94.7891 170.484C101.004 170.363 107.22 170.332 113.437 170.392C116.68 170.419 120.1 170.66 123.318 170.412C124.164 170.347 125.061 170.268 125.727 169.788C127.173 168.747 127.682 167.827 127.761 166.255C127.947 162.514 127.779 158.718 127.762 154.97L127.713 134.763L127.709 122.473C127.724 120.21 127.965 117.761 127.668 115.52C127.568 114.765 127.145 113.996 126.51 113.454C125.902 112.934 125.072 112.415 124.202 112.266C121.262 111.763 117.567 112.116 114.539 112.13L95.2381 112.208Z" fill="#FEFEFE"/>
<path d="M146.685 68.3359C153.965 68.539 161.295 68.4415 168.579 68.4295L200.823 68.4256C206.924 68.4345 213.512 68.1569 219.554 68.4718C220.547 68.5234 221.595 68.6924 222.508 69.0273C223.47 69.3801 224.042 70.0353 224.403 70.8439C224.695 71.4984 224.68 72.3147 224.7 73.0068C224.995 83.0768 224.668 93.2029 224.672 103.279L224.648 117.97C224.632 120.087 224.778 122.282 224.592 124.388C224.534 125.054 224.386 125.681 224.004 126.272C223.184 127.542 221.9 128.011 220.327 128.363C217.555 128.692 214.422 128.441 211.606 128.432L195.001 128.433L164.925 128.458C159.498 128.471 154.004 128.641 148.584 128.476C147.362 128.439 145.629 128.359 144.558 127.85C143.565 127.377 142.856 126.537 142.571 125.621C142.015 123.834 142.356 120.287 142.351 118.33L142.409 100.363L142.429 81.9027C142.416 78.8112 142.214 75.6747 142.356 72.5888C142.395 71.7582 142.528 70.9298 143.063 70.211C143.881 69.1114 145.243 68.6303 146.685 68.3359Z" fill="#151419"/>
<path d="M183.411 98.6405C184.457 99.0508 216.298 124.632 219.334 127.339C207.517 127.49 195.678 127.377 183.859 127.363L147.678 127.343C150.03 125.232 152.597 123.301 155.071 121.292C164.433 113.69 174.334 106.482 183.411 98.6405Z" fill="#FEFEFE"/>
<path d="M143.589 93.7801L223.391 93.7622C223.458 104.301 223.382 114.84 223.164 125.378C222.551 126.269 221.914 126.738 220.876 127.29C217.51 124.042 213.58 121.137 209.846 118.184C207.016 115.946 204.262 113.58 201.321 111.449C201.418 107.761 201.683 103.08 201.227 99.4851L200.832 99.26L200.526 99.3367C199.804 100.206 200.158 102.812 200.158 103.909C200.16 106.068 200.189 108.228 200.067 110.386C198.547 109.292 197.135 108.044 195.679 106.889C191.626 103.673 187.666 100.393 183.66 97.1403C181.809 98.3816 180.095 99.9929 178.38 101.377L167.395 110.211C167.347 108.237 167.272 106.258 167.277 104.283C167.281 102.752 167.561 101.048 167.176 99.5503C166.833 99.2886 166.851 99.3096 166.383 99.3167C165.768 100.617 165.944 109.386 166.216 111.132C161.382 114.648 156.847 118.516 152.222 122.224C150.429 123.661 147.92 126.109 145.796 127.071C145.26 127.044 144.953 126.898 144.586 126.581C143.879 125.969 143.73 125.244 143.622 124.426C143.174 121.055 143.532 117.348 143.547 113.942L143.589 93.7801Z" fill="#FEFEFE"/>
<path d="M146.501 69.4354C146.798 69.4233 147.095 69.4157 147.393 69.4125C163.382 69.2511 179.398 69.4214 195.391 69.4307L211.79 69.4253C214.653 69.424 217.663 69.2683 220.508 69.4886C221.328 69.552 222.018 69.7544 222.582 70.2775C223.099 70.7573 223.173 71.4733 223.262 72.0899C223.597 74.433 223.382 76.9997 223.381 79.3654C223.396 83.8373 223.376 88.309 223.32 92.7804L220.496 92.7963L143.577 92.7893C143.571 89.8063 143.131 72.1628 144.012 70.7095C144.458 69.9719 145.63 69.6548 146.501 69.4354Z" fill="#FEFEFE"/>
<path d="M175.352 74.399C175.663 74.4846 176.098 74.6037 176.249 74.8632C177.433 76.8949 175.099 81.1323 178.271 84.6107C179.453 85.9071 181.432 86.6498 183.342 86.8061C183.469 86.8173 183.596 86.8259 183.723 86.8319C183.851 86.8376 183.978 86.8408 184.106 86.8414C184.234 86.8419 184.361 86.8396 184.489 86.8348C184.616 86.8299 184.743 86.8223 184.871 86.8122C184.998 86.802 185.124 86.789 185.25 86.7733C185.377 86.7578 185.503 86.7397 185.628 86.7189C185.753 86.6981 185.877 86.6746 186.001 86.6485C186.125 86.6224 186.248 86.5938 186.37 86.5626C186.492 86.5311 186.613 86.4973 186.733 86.461C186.853 86.4247 186.972 86.3859 187.089 86.3445C187.207 86.3031 187.323 86.2593 187.438 86.213C187.553 86.1667 187.667 86.1181 187.779 86.0672C187.891 86.016 188.001 85.9627 188.11 85.9071C188.219 85.8512 188.326 85.7933 188.432 85.7332C188.537 85.673 188.64 85.6106 188.742 85.546C188.844 85.4815 188.944 85.4149 189.041 85.3461C193.08 82.5296 191.064 78.9398 191.762 75.313C191.843 74.8947 191.977 74.7801 192.371 74.5327L192.596 74.6008C192.887 74.9908 192.886 75.1058 192.915 75.5706C192.93 77.432 193.085 79.3934 192.818 81.238C192.523 83.2704 191.457 85.1357 189.469 86.3811C187.575 87.567 185.063 87.9904 182.744 87.674C180.387 87.3524 178.103 86.2665 176.753 84.5967C174.823 82.2096 174.739 77.2155 175.352 74.399Z" fill="#151419"/>
</svg>
