<svg width="608" height="516" viewBox="0 0 608 516" fill="none" xmlns="http://www.w3.org/2000/svg">
<g clip-path="url(#clip0_1466_7709)">
<path d="M127.454 95.9931C128.97 85.9664 132.718 75.9326 138.982 67.271C152.3 48.8519 175.517 35.2372 200.18 30.326C200.864 30.1926 201.549 30.066 202.236 29.9463C202.923 29.8266 203.612 29.7138 204.302 29.6079C204.992 29.502 205.683 29.403 206.376 29.311C207.069 29.2189 207.763 29.1338 208.459 29.0557C209.154 28.9776 209.85 28.9064 210.548 28.8422C211.245 28.7781 211.943 28.7209 212.642 28.6707C213.34 28.6205 214.04 28.5774 214.74 28.5412C215.44 28.505 216.14 28.4759 216.841 28.4538C217.542 28.4317 218.243 28.4166 218.944 28.4085C219.646 28.4004 220.347 28.3994 221.048 28.4054C221.749 28.4114 222.451 28.4244 223.152 28.4445C223.853 28.4645 224.553 28.4916 225.254 28.5256C225.954 28.5597 226.653 28.6008 227.352 28.6489C228.051 28.6971 228.75 28.7522 229.447 28.8143C230.145 28.8764 230.841 28.9455 231.537 29.0216C232.232 29.0976 232.927 29.1807 233.62 29.2707C234.313 29.3607 235.005 29.4576 235.696 29.5615C236.387 29.6653 237.076 29.7761 237.763 29.8938C238.45 30.0115 239.136 30.136 239.821 30.2674C240.505 30.3989 241.187 30.5371 241.867 30.6822C242.547 30.8273 243.225 30.9792 243.901 31.1379C244.577 31.2966 245.251 31.462 245.922 31.6342C246.593 31.8064 247.262 31.9853 247.928 32.1709C248.595 32.3566 249.259 32.5488 249.92 32.7477C250.581 32.9466 251.239 33.1521 251.894 33.3642C252.549 33.5763 253.202 33.795 253.851 34.0201C254.5 34.2453 255.146 34.4769 255.789 34.7151C256.432 34.9532 257.071 35.1977 257.707 35.4487C258.343 35.6996 258.975 35.9569 259.604 36.2205C260.233 36.4841 260.858 36.754 261.479 37.0302C262.1 37.3063 262.718 37.5886 263.331 37.8771C263.945 38.1657 264.554 38.4603 265.159 38.761C267.737 40.0327 269.491 42.2586 271.968 43.5002C272.107 43.5699 272.249 43.6356 272.389 43.7032C273.18 41.1837 274.547 39.0252 277.337 37.7338C280.891 36.0883 292.177 36.0906 296.113 37.2231C298.349 37.8665 300.105 39.0793 301.096 40.914C303.889 46.078 301.053 50.0073 309.52 52.8069C311.759 53.5471 314.152 53.4917 316.354 52.6713C320.84 50.9999 323.954 47.8023 329.395 49.3391C332.99 50.3546 341.909 57.7613 343.545 60.755C344.655 62.7882 344.685 64.9359 343.682 67.0029C341.549 71.4015 337.38 73.7477 339.891 79.0125C341.115 81.5779 343.102 83.7825 346.195 84.8296C350.86 86.4088 356.042 84.9697 358.691 89.6908C360.217 92.4104 360.333 105.433 359.003 108.305C358.225 109.985 356.848 111.28 354.872 111.985C348.863 114.129 343.47 111.721 339.778 118.543C339.348 119.355 339.003 120.192 338.742 121.054C338.482 121.916 338.311 122.791 338.229 123.678L400.5 123.658C410.805 123.653 422.574 123.214 432.712 123.735C435.055 121.262 437.275 118.931 436.928 115.542C436.164 108.083 427.879 110.91 423.247 107.237C421.235 105.641 420.997 103.583 420.954 101.384C420.999 98.8584 420.975 96.3056 421.182 93.786C421.915 84.8513 429.867 88.6457 434.936 84.6628C435.983 83.8394 436.513 82.7288 436.845 81.5724C438.384 76.2189 432.149 74.1826 432.584 69.792C432.927 66.3297 438.814 62.2188 441.813 60.0042C448.66 54.9485 452.411 61.1697 459.138 61.4811C460.722 61.5542 462.097 61.147 463.372 60.3599C468.713 57.0654 465.518 51.7139 469.38 48.8288C472.034 46.8456 482.787 46.9055 486.595 47.1574C494.605 47.6872 492.25 55.4937 496.34 59.2307C502.54 64.8961 508.711 56.8144 514.07 57.1465C516.934 57.3244 518.739 59.2125 520.492 60.9172C523.761 63.7084 528.245 66.0072 528.474 70.2879C532.244 71.2624 536.114 72.1538 539.777 73.3939C559.051 79.9231 575.587 91.7371 585.405 107.332C594.07 121.099 599.812 138.709 594.284 154.137C591.788 161.111 586.737 166.786 583.758 173.52C574.214 195.097 575.273 222.284 588.021 242.793C591.083 247.719 595.234 252.107 598.108 257.111C605.458 269.906 606.866 287.52 602.062 301.116C599.545 308.249 594.694 315.919 589.51 321.899C587.41 324.322 584.931 326.59 582.593 328.854C580.861 330.532 578.602 332.958 576.282 334.04C576.172 334.091 576.06 334.139 575.949 334.188L576.006 414.723L576.022 436.505C576.032 440.474 576.432 444.698 575.756 448.625C575.267 451.465 573.686 454.241 571.291 456.27C568.474 458.659 565.031 459.74 561.129 459.992C554.414 460.426 547.421 460.053 540.668 460.046L502.181 460.055L376.395 460.033L164.433 460.007L95.7424 460.006C83.146 460.021 70.5032 460.266 57.9147 460.056C53.266 459.979 48.9986 458.854 45.6519 455.985C43.6135 454.239 42.0089 451.917 41.3583 449.511C40.23 445.34 40.9299 438.134 40.9357 433.691C40.9499 422.636 41.0947 411.554 40.8629 400.501C39.9106 397.669 40.5372 391.597 40.5525 388.475C40.6067 381.147 40.6081 373.818 40.5567 366.489C37.3678 363.98 33.9861 361.629 30.8465 359.083C25.0193 354.358 19.5335 348.543 15.4166 342.687C12.9671 339.202 10.4551 335.635 8.48093 331.936C8.01108 331.065 7.56345 330.186 7.13805 329.299C6.71264 328.411 6.30987 327.517 5.92973 326.615C5.54958 325.713 5.19241 324.805 4.85822 323.89C4.52402 322.975 4.21311 322.054 3.92548 321.128C3.63785 320.202 3.37377 319.271 3.13324 318.335C2.8927 317.399 2.67594 316.459 2.48294 315.515C2.28995 314.571 2.1209 313.625 1.9758 312.675C1.8307 311.725 1.70968 310.773 1.61274 309.818C1.5158 308.864 1.44304 307.908 1.39444 306.951C1.34584 305.994 1.32146 305.037 1.32129 304.079C1.32112 303.121 1.34517 302.164 1.39343 301.206C1.44169 300.249 1.51412 299.294 1.61073 298.339C1.70733 297.385 1.82801 296.433 1.97278 295.483C2.11755 294.533 2.28626 293.586 2.47892 292.642C2.67159 291.698 2.88802 290.759 3.12823 289.823C3.36843 288.886 3.63218 287.955 3.91949 287.029C8.84383 270.702 23.465 252.722 40.7603 244.049C41.0079 204.46 40.9876 164.871 40.6995 125.282C40.6586 121.026 39.9627 107.824 41.0736 104.663C41.6938 102.899 42.9734 101.361 44.4957 100.07C46.6483 98.2456 49.5583 96.7057 52.575 96.2562C55.4395 95.8294 58.626 96.033 61.5245 96.033L76.3475 96.0461L127.454 95.9931Z" fill="black"/>
<path d="M127.454 95.9931C128.971 85.9664 132.718 75.9326 138.982 67.271C152.3 48.8519 175.517 35.2372 200.18 30.326C200.864 30.1926 201.549 30.066 202.236 29.9463C202.923 29.8266 203.612 29.7138 204.302 29.6079C204.992 29.502 205.683 29.403 206.376 29.311C207.069 29.2189 207.763 29.1338 208.459 29.0557C209.154 28.9776 209.85 28.9064 210.548 28.8422C211.245 28.7781 211.943 28.7209 212.642 28.6707C213.34 28.6205 214.04 28.5774 214.74 28.5412C215.44 28.505 216.14 28.4759 216.841 28.4538C217.542 28.4317 218.243 28.4166 218.944 28.4085C219.646 28.4004 220.347 28.3994 221.048 28.4054C221.749 28.4114 222.451 28.4244 223.152 28.4445C223.853 28.4645 224.553 28.4916 225.254 28.5256C225.954 28.5597 226.653 28.6008 227.352 28.6489C228.052 28.6971 228.75 28.7522 229.447 28.8143C230.145 28.8764 230.841 28.9455 231.537 29.0216C232.233 29.0976 232.927 29.1807 233.62 29.2707C234.313 29.3607 235.005 29.4576 235.696 29.5615C236.387 29.6653 237.076 29.7761 237.763 29.8938C238.45 30.0115 239.136 30.136 239.821 30.2674C240.505 30.3989 241.187 30.5371 241.867 30.6822C242.547 30.8273 243.225 30.9792 243.901 31.1379C244.577 31.2966 245.251 31.462 245.922 31.6342C246.593 31.8064 247.262 31.9853 247.928 32.1709C248.595 32.3566 249.259 32.5488 249.92 32.7477C250.581 32.9466 251.239 33.1521 251.894 33.3642C252.549 33.5763 253.202 33.795 253.851 34.0201C254.5 34.2453 255.146 34.4769 255.789 34.7151C256.432 34.9532 257.071 35.1977 257.707 35.4487C258.343 35.6996 258.975 35.9569 259.604 36.2205C260.233 36.4841 260.858 36.754 261.479 37.0302C262.1 37.3063 262.718 37.5886 263.331 37.8771C263.945 38.1657 264.554 38.4603 265.16 38.761C267.737 40.0327 269.491 42.2586 271.968 43.5002C272.107 43.5699 272.249 43.6356 272.389 43.7032C272.27 46.5496 271.512 49.0055 268.988 51.0477C266.841 52.7857 263.964 53.6559 261.012 53.5642C252.954 53.3138 249.578 44.8366 240.867 51.4282C236.96 54.3846 230.084 59.0392 229.925 63.7714C229.737 69.3944 236.998 71.7527 234.332 78.5454C233.705 80.1443 232.666 81.718 231.248 82.9077C225.235 87.9533 215.309 83.2373 214.988 93.9715C214.88 97.6031 214.174 106.468 217.188 109.03C222.437 113.492 234.156 109.586 234.277 121.57C234.285 122.375 234.157 123.19 233.961 123.976C213.083 123.715 192.175 124.163 171.307 123.801L171.289 96.0269L127.454 95.9931Z" fill="#BFE8FB"/>
<path d="M420.954 101.384C420.999 98.8584 420.975 96.3056 421.182 93.7861C421.915 84.8513 429.867 88.6457 434.936 84.6628C435.983 83.8394 436.513 82.7288 436.845 81.5724C438.384 76.2189 432.149 74.1826 432.584 69.7921C432.926 66.3297 438.814 62.2188 441.813 60.0042C448.66 54.9485 452.411 61.1697 459.138 61.4811C460.722 61.5542 462.097 61.147 463.372 60.3599C468.713 57.0654 465.518 51.7139 469.38 48.8288C472.034 46.8456 482.787 46.9055 486.595 47.1574C494.605 47.6873 492.25 55.4937 496.34 59.2307C502.54 64.8961 508.711 56.8145 514.07 57.1465C516.934 57.3244 518.739 59.2125 520.492 60.9173C523.761 63.7084 528.245 66.0072 528.474 70.2879C527.119 74.6411 521.357 79.1934 524.311 83.8379C527.698 89.1642 538.059 86.0854 539.803 93.3406C540.209 95.0342 539.996 96.8654 539.921 98.5827C539.819 100.921 540.086 103.394 539.388 105.677C538.965 107.055 538.231 108.057 536.72 108.734C532.643 110.561 525.443 109.033 523.527 113.664C521.845 117.73 524.817 120.242 526.292 123.706C520.822 123.738 515.352 123.717 509.882 123.643L434.25 123.696L432.712 123.735C435.054 121.262 437.275 118.931 436.928 115.542C436.164 108.083 427.879 110.91 423.247 107.237C421.235 105.641 420.997 103.583 420.954 101.384Z" fill="#FEFEFE"/>
<path d="M420.954 101.384C420.999 98.8584 420.975 96.3056 421.182 93.7861C421.915 84.8513 429.867 88.6457 434.936 84.6628C435.983 83.8394 436.513 82.7288 436.845 81.5724C438.384 76.2189 432.149 74.1826 432.584 69.7921C432.926 66.3297 438.814 62.2188 441.813 60.0042C448.66 54.9485 452.411 61.1697 459.138 61.4811C460.722 61.5542 462.097 61.147 463.372 60.3599C468.713 57.0654 465.518 51.7139 469.38 48.8288C472.034 46.8456 482.787 46.9055 486.595 47.1574C494.605 47.6873 492.25 55.4937 496.34 59.2307C502.54 64.8961 508.711 56.8145 514.07 57.1465C516.934 57.3244 518.739 59.2125 520.492 60.9173C523.761 63.7084 528.245 66.0072 528.474 70.2879C527.119 74.6411 521.357 79.1934 524.311 83.8379C527.698 89.1642 538.059 86.0854 539.803 93.3406C540.209 95.0342 539.996 96.8654 539.921 98.5827C539.819 100.921 540.086 103.394 539.388 105.677C538.965 107.055 538.231 108.057 536.72 108.734C532.643 110.561 525.443 109.033 523.527 113.664C521.845 117.73 524.817 120.242 526.292 123.706C520.822 123.738 515.352 123.717 509.882 123.643C514.932 123.423 520.047 123.556 525.106 123.557C523.344 120.92 521.779 118.323 522.051 115.178C522.72 107.456 532.947 110.562 537.233 107.02C539.448 105.19 538.989 99.2696 539.066 96.6064C539.366 86.2053 529.677 90.5006 524.567 85.6958C523.413 84.6104 522.798 83.1899 522.51 81.7669C521.279 75.6883 527.21 74.6895 527.219 70.6089C527.226 67.079 522.961 64.1433 520.288 61.7951C518.457 60.1402 516.438 57.9704 513.496 57.98C510.168 57.9906 506.686 61.1415 503.617 62.2622C503.515 62.2995 503.415 62.3398 503.315 62.3786C499.943 61.9382 496.846 61.4141 494.687 58.9273C491.626 55.403 493.292 49.2981 486.962 48.2499C484.861 47.9019 476.338 47.9681 474.043 48.2326C472.868 48.368 471.682 48.6467 470.691 49.2174C466.35 51.719 469.617 57.8868 463.683 61.2927C462.058 62.2254 460.304 62.5832 458.357 62.3237C453.098 61.6232 448.98 56.7751 443.555 59.9694C440.934 61.5139 434.347 67.0155 433.917 69.5119C433.097 74.2708 440.503 76.6437 437.652 82.7591C437.117 83.908 436.436 84.9516 435.303 85.7487C430.802 88.9153 423.312 86.4341 422.271 93.0403C421.891 95.45 422.105 97.9539 421.915 100.382C421.857 102.426 421.822 104.781 423.571 106.387C427.563 110.05 438.226 107.187 438.125 116.205C438.093 119.047 436.258 121.539 434.25 123.696L432.712 123.735C435.054 121.262 437.275 118.931 436.928 115.542C436.164 108.083 427.879 110.91 423.247 107.237C421.235 105.641 420.997 103.583 420.954 101.384Z" fill="#FE8A56"/>
<path d="M478.121 75.0352C478.545 75.0006 478.97 74.9749 479.396 74.9581C479.821 74.9409 480.246 74.9327 480.672 74.9334C481.098 74.9341 481.524 74.9436 481.949 74.9621C482.375 74.9806 482.799 75.0078 483.223 75.0437C483.647 75.0797 484.069 75.1244 484.491 75.1778C484.912 75.2315 485.331 75.2938 485.749 75.3647C486.166 75.4356 486.582 75.5151 486.995 75.6031C487.408 75.6914 487.818 75.7882 488.226 75.8933C488.633 75.9985 489.037 76.112 489.438 76.234C489.839 76.3559 490.237 76.4861 490.63 76.6245C491.023 76.7629 491.413 76.9094 491.797 77.0639C492.182 77.2184 492.563 77.3809 492.938 77.5512C493.314 77.7215 493.685 77.8996 494.05 78.0853C494.415 78.2711 494.775 78.4643 495.129 78.6648C495.484 78.8654 495.832 79.0731 496.174 79.2881C496.516 79.5035 496.852 79.7255 497.182 79.9543C497.511 80.1834 497.834 80.4192 498.15 80.6618C498.466 80.904 498.774 81.1528 499.076 81.4081C499.378 81.6634 499.672 81.9248 499.958 82.1922C500.245 82.4596 500.524 82.7327 500.794 83.0115C501.065 83.2907 501.328 83.5752 501.582 83.8651C501.837 84.155 502.083 84.45 502.32 84.75C502.557 85.05 502.786 85.3548 503.006 85.6646C503.226 85.974 503.437 86.2879 503.638 86.6064C503.84 86.9245 504.033 87.2468 504.216 87.5734C504.399 87.8996 504.573 88.2295 504.737 88.563C504.901 88.8963 505.056 89.2329 505.201 89.5729C505.346 89.9128 505.48 90.2557 505.606 90.6013C505.731 90.9467 505.846 91.2946 505.951 91.6449C506.056 91.9953 506.151 92.3475 506.236 92.7016C506.32 93.0557 506.395 93.4115 506.459 93.7689C506.523 94.1263 506.577 94.4848 506.621 94.8442C506.664 95.2037 506.698 95.564 506.721 95.9251C506.744 96.2859 506.756 96.647 506.758 97.0085C506.76 97.37 506.752 97.7313 506.733 98.0924C506.714 98.4535 506.685 98.814 506.645 99.1738C506.606 99.5339 506.556 99.8929 506.496 100.251C506.436 100.608 506.365 100.965 506.285 101.319C506.204 101.675 506.113 102.028 506.012 102.379C505.911 102.73 505.8 103.079 505.679 103.425C505.557 103.772 505.426 104.115 505.286 104.457C505.145 104.798 504.994 105.136 504.834 105.471C504.673 105.805 504.503 106.136 504.324 106.464C504.144 106.792 503.955 107.116 503.757 107.436C503.559 107.756 503.351 108.072 503.135 108.383C502.919 108.694 502.694 109.001 502.46 109.303C502.226 109.605 501.983 109.902 501.732 110.194C501.481 110.486 501.222 110.773 500.954 111.054C500.687 111.335 500.411 111.611 500.128 111.88C499.844 112.15 499.553 112.414 499.254 112.671C498.955 112.929 498.649 113.18 498.336 113.425C498.023 113.67 497.703 113.909 497.376 114.14C497.05 114.372 496.716 114.597 496.376 114.815C496.037 115.033 495.691 115.243 495.339 115.447C494.987 115.651 494.629 115.847 494.266 116.035C493.903 116.224 493.534 116.405 493.161 116.578C492.787 116.752 492.408 116.917 492.025 117.075C491.642 117.233 491.254 117.382 490.863 117.524C490.471 117.666 490.075 117.799 489.675 117.924C489.276 118.049 488.873 118.166 488.467 118.275C488.06 118.383 487.651 118.483 487.239 118.575C486.827 118.666 486.413 118.749 485.996 118.824C485.579 118.898 485.16 118.964 484.74 119.021C484.319 119.078 483.897 119.126 483.474 119.165C483.047 119.205 482.619 119.236 482.19 119.258C481.761 119.28 481.332 119.293 480.903 119.297C480.473 119.3 480.044 119.295 479.614 119.281C479.185 119.267 478.757 119.245 478.329 119.213C477.901 119.18 477.474 119.139 477.048 119.09C476.622 119.04 476.199 118.981 475.777 118.914C475.354 118.846 474.934 118.77 474.517 118.685C474.099 118.599 473.684 118.505 473.272 118.403C472.86 118.3 472.451 118.189 472.044 118.07C471.639 117.95 471.237 117.822 470.839 117.686C470.44 117.549 470.046 117.405 469.656 117.251C469.266 117.099 468.881 116.938 468.5 116.769C468.119 116.599 467.744 116.422 467.373 116.238C467.003 116.053 466.639 115.86 466.279 115.661C465.92 115.46 465.567 115.253 465.22 115.038C464.873 114.823 464.532 114.601 464.198 114.372C463.864 114.143 463.536 113.907 463.216 113.665C462.895 113.422 462.582 113.172 462.276 112.916C461.97 112.66 461.672 112.398 461.381 112.13C461.09 111.862 460.807 111.587 460.532 111.307C460.257 111.027 459.991 110.741 459.733 110.45C459.475 110.158 459.225 109.862 458.984 109.56C458.743 109.258 458.511 108.951 458.288 108.64C458.065 108.328 457.85 108.012 457.645 107.692C457.441 107.371 457.245 107.047 457.059 106.718C456.873 106.389 456.697 106.057 456.53 105.721C456.364 105.385 456.207 105.046 456.06 104.703C455.913 104.361 455.776 104.015 455.649 103.667C455.523 103.318 455.406 102.968 455.299 102.614C455.192 102.261 455.096 101.906 455.011 101.549C454.925 101.191 454.849 100.832 454.784 100.472C454.719 100.112 454.665 99.7503 454.621 99.3875C454.577 99.0246 454.543 98.6613 454.52 98.2975C454.498 97.9333 454.485 97.5689 454.484 97.204C454.482 96.8395 454.491 96.4752 454.51 96.1111C454.53 95.7469 454.56 95.3832 454.6 95.0201C454.641 94.6573 454.692 94.2955 454.754 93.9347C454.815 93.5735 454.887 93.2141 454.97 92.8563C455.052 92.4985 455.145 92.1428 455.248 91.7891C455.351 91.435 455.465 91.0832 455.589 90.7339C455.712 90.3848 455.846 90.0385 455.989 89.6948C456.133 89.3511 456.287 89.0109 456.45 88.6739C456.614 88.3366 456.787 88.003 456.97 87.6731C457.153 87.3433 457.345 87.0174 457.547 86.6956C457.749 86.3737 457.96 86.0563 458.18 85.7432C458.4 85.4301 458.629 85.1219 458.867 84.8185C459.106 84.5148 459.353 84.2165 459.608 83.9236C459.864 83.6303 460.127 83.3427 460.4 83.0609C460.672 82.7787 460.952 82.5024 461.241 82.232C461.529 81.9615 461.825 81.6975 462.128 81.4398C462.432 81.1818 462.743 80.9302 463.061 80.685C463.379 80.4401 463.704 80.2021 464.037 79.9709C464.369 79.7395 464.707 79.5151 465.052 79.2977C465.397 79.0807 465.748 78.8709 466.106 78.6683C466.463 78.4661 466.826 78.2713 467.195 78.0838C467.563 77.8967 467.937 77.7173 468.316 77.5456C468.695 77.374 469.079 77.2102 469.467 77.0543C469.856 76.8988 470.249 76.7515 470.646 76.6124C471.043 76.4733 471.444 76.3426 471.849 76.2204C472.253 76.0977 472.661 75.9839 473.072 75.8787C473.483 75.7736 473.898 75.677 474.315 75.589C474.732 75.501 475.151 75.4217 475.572 75.3511C475.994 75.2809 476.417 75.2194 476.843 75.1667C477.268 75.114 477.694 75.0701 478.121 75.0352Z" fill="#FE8A56"/>
<path d="M477.024 76.0566C477.429 76.0062 477.836 75.9643 478.244 75.9311C478.653 75.8975 479.061 75.8725 479.471 75.856C479.881 75.8395 480.291 75.8316 480.701 75.8323C481.111 75.833 481.521 75.8422 481.93 75.86C482.34 75.8778 482.748 75.904 483.157 75.9386C483.564 75.9736 483.971 76.0167 484.377 76.0681C484.782 76.1199 485.186 76.18 485.588 76.2485C485.99 76.3171 486.39 76.3938 486.787 76.4788C487.185 76.5642 487.58 76.6575 487.972 76.759C488.364 76.8605 488.753 76.9701 489.139 77.0881C489.525 77.2056 489.907 77.3313 490.286 77.465C490.665 77.5987 491.039 77.7401 491.41 77.8893C491.78 78.0384 492.146 78.1953 492.508 78.3599C492.869 78.5242 493.225 78.696 493.577 78.8754C493.928 79.0548 494.274 79.2414 494.615 79.4352C494.956 79.6287 495.29 79.8293 495.619 80.0369C495.949 80.2445 496.272 80.459 496.588 80.6804C496.905 80.9014 497.215 81.1289 497.518 81.3627C497.822 81.5968 498.118 81.837 498.408 82.0833C498.698 82.3295 498.98 82.5818 499.255 82.8401C499.531 83.0981 499.798 83.3617 500.058 83.6308C500.317 83.9002 500.569 84.1747 500.813 84.4542C501.057 84.734 501.293 85.0187 501.521 85.3083C501.748 85.5979 501.967 85.892 502.178 86.1906C502.388 86.4893 502.59 86.7921 502.783 87.0992C502.976 87.4062 503.16 87.7169 503.335 88.0314C503.511 88.3462 503.676 88.6643 503.833 88.9858C503.989 89.3076 504.137 89.6323 504.275 89.9598C504.413 90.2877 504.541 90.6181 504.66 90.951C504.779 91.2843 504.888 91.6197 504.988 91.9573C505.087 92.2949 505.177 92.6344 505.257 92.9757C505.336 93.317 505.406 93.6598 505.466 94.0042C505.526 94.3485 505.576 94.6939 505.616 95.0402C505.656 95.3866 505.686 95.7336 505.707 96.0813C505.726 96.4286 505.736 96.7763 505.736 97.1244C505.736 97.4724 505.726 97.8203 505.706 98.168C505.686 98.5157 505.656 98.8625 505.615 99.2085C505.575 99.5549 505.525 99.9002 505.464 100.245C505.404 100.589 505.334 100.932 505.254 101.273C505.174 101.614 505.084 101.954 504.985 102.291C504.885 102.629 504.776 102.964 504.657 103.297C504.538 103.63 504.41 103.961 504.271 104.288C504.133 104.616 503.986 104.941 503.829 105.262C503.672 105.584 503.506 105.902 503.331 106.216C503.156 106.531 502.971 106.842 502.778 107.149C502.585 107.456 502.383 107.759 502.173 108.057C501.962 108.356 501.742 108.65 501.515 108.939C501.287 109.229 501.051 109.513 500.807 109.793C500.563 110.073 500.311 110.347 500.051 110.616C499.791 110.885 499.523 111.149 499.248 111.407C498.973 111.665 498.69 111.917 498.4 112.163C498.111 112.409 497.814 112.649 497.51 112.884C497.207 113.117 496.897 113.345 496.58 113.566C496.263 113.787 495.94 114.001 495.611 114.208C495.282 114.416 494.947 114.616 494.606 114.81C494.265 115.003 493.919 115.19 493.567 115.369C493.216 115.548 492.859 115.72 492.498 115.884C492.137 116.049 491.771 116.206 491.4 116.354C491.03 116.504 490.655 116.645 490.276 116.779C489.897 116.912 489.515 117.038 489.129 117.155C488.743 117.273 488.354 117.382 487.962 117.484C487.569 117.585 487.175 117.678 486.777 117.763C486.379 117.848 485.979 117.925 485.577 117.993C485.175 118.062 484.772 118.122 484.366 118.173C483.96 118.225 483.552 118.268 483.143 118.303C482.734 118.337 482.324 118.363 481.914 118.381C481.504 118.398 481.093 118.407 480.682 118.407C480.271 118.408 479.86 118.4 479.45 118.383C479.039 118.366 478.63 118.341 478.221 118.307C477.812 118.273 477.404 118.231 476.998 118.18C476.591 118.129 476.186 118.07 475.783 118.002C475.38 117.935 474.979 117.859 474.58 117.774C474.181 117.69 473.785 117.597 473.392 117.496C472.999 117.395 472.609 117.286 472.221 117.169C471.835 117.052 471.451 116.926 471.071 116.793C470.692 116.66 470.316 116.519 469.944 116.37C469.573 116.221 469.206 116.064 468.843 115.9C468.48 115.736 468.123 115.564 467.771 115.385C467.418 115.206 467.071 115.02 466.729 114.826C466.387 114.633 466.051 114.432 465.721 114.224C465.391 114.017 465.067 113.802 464.749 113.581C464.431 113.36 464.12 113.132 463.816 112.898C463.511 112.664 463.213 112.424 462.923 112.178C462.632 111.931 462.348 111.679 462.073 111.42C461.797 111.162 461.528 110.898 461.267 110.628C461.007 110.359 460.754 110.084 460.509 109.804C460.264 109.523 460.027 109.238 459.799 108.949C459.571 108.659 459.351 108.364 459.14 108.065C458.929 107.766 458.726 107.463 458.532 107.155C458.338 106.847 458.154 106.536 457.978 106.221C457.802 105.905 457.636 105.587 457.479 105.264C457.322 104.942 457.174 104.617 457.035 104.288C456.897 103.96 456.768 103.629 456.649 103.295C456.53 102.962 456.42 102.626 456.32 102.287C456.22 101.949 456.131 101.609 456.051 101.266C455.971 100.924 455.901 100.581 455.84 100.236C455.78 99.891 455.73 99.545 455.69 99.1979C455.65 98.8509 455.62 98.5032 455.6 98.1549C455.58 97.8065 455.57 97.458 455.57 97.1093C455.571 96.7602 455.581 96.4115 455.601 96.0631C455.622 95.7151 455.652 95.3674 455.693 95.0201C455.733 94.673 455.783 94.327 455.844 93.982C455.905 93.6373 455.975 93.294 456.056 92.952C456.136 92.61 456.227 92.2699 456.327 91.9316C456.427 91.5933 456.537 91.2574 456.656 90.9238C456.776 90.5899 456.905 90.2588 457.044 89.9306C457.183 89.6024 457.331 89.2772 457.489 88.955C457.646 88.6329 457.813 88.3142 457.989 87.9991C458.165 87.684 458.35 87.3728 458.544 87.0654C458.738 86.758 458.941 86.4548 459.153 86.1558C459.365 85.8569 459.585 85.5626 459.814 85.273C460.042 84.9831 460.279 84.6982 460.525 84.4184C460.77 84.1385 461.023 83.8639 461.284 83.5945C461.545 83.3254 461.814 83.0617 462.09 82.8034C462.367 82.5454 462.65 82.2932 462.941 82.047C463.232 81.8008 463.53 81.5607 463.835 81.3269C464.14 81.0931 464.451 80.8657 464.769 80.6446C465.087 80.4239 465.411 80.2099 465.742 80.0026C466.072 79.795 466.409 79.5947 466.751 79.4015C467.093 79.2083 467.44 79.0222 467.793 78.8432C468.146 78.6644 468.504 78.4931 468.866 78.3292C469.229 78.1652 469.596 78.009 469.968 77.8605C470.34 77.7121 470.716 77.5713 471.096 77.4383C471.476 77.3056 471.859 77.1808 472.246 77.0639C472.634 76.947 473.024 76.8381 473.417 76.7373C473.811 76.6369 474.207 76.5447 474.606 76.4607C475.005 76.3764 475.406 76.3006 475.809 76.2334C476.212 76.1659 476.617 76.1069 477.024 76.0566Z" fill="#FEFEFE"/>
<path d="M528.474 70.2878C532.244 71.2624 536.114 72.1538 539.777 73.3939C559.051 79.923 575.588 91.7371 585.405 107.331C594.07 121.099 599.812 138.709 594.284 154.137C591.788 161.111 586.737 166.786 583.758 173.52C574.214 195.097 575.273 222.284 588.021 242.793C591.083 247.719 595.234 252.107 598.108 257.111C605.459 269.906 606.866 287.52 602.062 301.116C599.545 308.249 594.694 315.919 589.51 321.899C587.41 324.322 584.931 326.59 582.593 328.854C580.861 330.532 578.602 332.958 576.282 334.04C576.172 334.091 576.06 334.139 575.949 334.188L575.899 193.139L575.842 154.12C575.842 148.464 576.447 139.856 575.535 134.465C575.103 131.909 573.393 129.383 571.257 127.588C569.407 126.033 567.136 124.797 564.602 124.233C559.695 123.14 553.671 123.672 548.601 123.67L526.293 123.706C524.817 120.242 521.845 117.73 523.528 113.664C525.444 109.033 532.643 110.561 536.72 108.734C538.231 108.057 538.966 107.055 539.388 105.677C540.087 103.393 539.819 100.921 539.921 98.5827C539.996 96.8654 540.21 95.0342 539.803 93.3405C538.06 86.0853 527.699 89.1642 524.311 83.8379C521.357 79.1934 527.119 74.6411 528.474 70.2878Z" fill="#BFE8FB"/>
<path d="M40.5567 366.489C37.3678 363.98 33.9861 361.629 30.8465 359.083C25.0193 354.358 19.5335 348.543 15.4166 342.687C12.9671 339.202 10.4551 335.635 8.48093 331.936C8.01108 331.065 7.56345 330.186 7.13805 329.299C6.71265 328.411 6.30987 327.517 5.92973 326.615C5.54958 325.713 5.19241 324.805 4.85822 323.89C4.52402 322.975 4.21311 322.054 3.92548 321.128C3.63785 320.202 3.37377 319.271 3.13324 318.335C2.8927 317.399 2.67594 316.459 2.48294 315.515C2.28995 314.571 2.1209 313.625 1.9758 312.675C1.8307 311.725 1.70968 310.773 1.61274 309.818C1.5158 308.864 1.44304 307.908 1.39444 306.951C1.34584 305.994 1.32146 305.037 1.32129 304.079C1.32112 303.121 1.34517 302.163 1.39343 301.206C1.44169 300.249 1.51412 299.294 1.61073 298.339C1.70733 297.385 1.82801 296.433 1.97278 295.483C2.11755 294.533 2.28626 293.586 2.47892 292.642C2.67159 291.698 2.88802 290.759 3.12823 289.823C3.36843 288.886 3.63218 287.955 3.91949 287.029C8.84383 270.702 23.465 252.722 40.7603 244.049L40.8629 400.501C39.9106 397.669 40.5372 391.597 40.5525 388.475C40.6067 381.147 40.6081 373.818 40.5567 366.489Z" fill="#BFE8FB"/>
<path d="M338.441 124.455L486.678 124.495L536.471 124.51C544.243 124.515 553.666 124.023 561.237 124.641C564.455 124.903 567.605 125.917 570.012 127.777C572.625 129.795 574.53 132.702 574.719 135.721C575.1 141.809 574.863 148.029 574.878 154.131L574.832 194.445L575.065 326.361L575.088 409.341L575.079 434.74C575.076 438.946 575.443 443.403 574.943 447.573C574.599 450.44 573.007 453.373 570.69 455.462C568.704 457.253 565.641 458.649 562.757 458.938C556.331 459.58 549.324 459.108 542.836 459.115L502.793 459.172C453.154 459.244 403.47 458.663 353.838 459.166C352.633 454.736 351.66 450.258 350.527 445.814C349.603 442.197 348.432 438.506 347.799 434.849C347.16 431.161 347.359 427.357 346.794 423.64C346.026 418.582 344.889 413.535 344.53 408.441C344.08 402.065 344.746 395.658 344.28 389.269C343.934 384.528 342.431 379.912 342.141 375.162C341.853 370.447 342.309 365.707 342.015 360.979C341.551 353.518 339.844 346.14 339.342 338.699C339.026 334.019 339.53 329.064 339.882 324.379C340.012 322.658 340.769 323.447 341.863 322.62C341.734 319.694 340.505 316.481 339.764 313.599C348.355 313.729 355.728 313.106 362.178 307.755C366.89 303.846 369.175 298.827 369.241 293.272C369.249 292.423 369.203 291.575 369.106 290.729C369.008 289.884 368.858 289.045 368.656 288.213C368.453 287.38 368.2 286.559 367.896 285.75C367.592 284.94 367.238 284.147 366.835 283.369C364.517 278.987 348.331 261.044 343.909 257.243C334.796 249.41 323.217 246.451 310.51 246.369C310.322 244.487 310.307 242.669 310.529 240.791C311.676 240.098 312.65 239.41 313.323 238.338C315.387 235.053 313.37 231.22 312.208 227.955C313.591 226.828 314.802 225.566 315.36 223.983C315.977 222.231 315.621 220.605 314.589 219.025C314.452 218.819 314.304 218.619 314.143 218.426C313.983 218.233 313.812 218.047 313.63 217.868C313.448 217.689 313.256 217.518 313.054 217.355C312.853 217.193 312.642 217.039 312.422 216.894C312.201 216.75 311.973 216.614 311.737 216.489C311.502 216.363 311.259 216.248 311.01 216.143C310.76 216.037 310.505 215.943 310.245 215.859C309.984 215.776 309.72 215.703 309.451 215.642C307.47 215.189 304.776 215.429 302.991 216.31C300.159 217.708 299.93 220.453 299.198 222.87C298.791 224.211 294.923 224.445 293.492 225.194C291.68 226.143 290.265 228.545 289.863 230.269C289.382 232.336 289.912 234.609 291.353 236.332C293.173 238.508 295.363 238.987 298.282 239.364C298.547 241.762 298.423 244.227 298.429 246.636C291.837 246.688 285.948 248.056 280.042 250.445C278.502 251.096 277.001 251.788 275.56 252.588C272.684 254.183 270.132 256.232 267.925 258.459C262.776 263.655 247.662 283.119 246.279 289.094C245.028 294.496 246.57 300.468 250.205 305.009C254.257 310.072 260.107 312.749 267.068 313.88C266.696 315.617 264.802 321.554 265.81 322.904C266.466 322.938 267.085 322.988 267.73 323.094C268.257 324.472 268.048 326.48 268.101 327.951C268.227 331.484 268.551 335.103 268.032 338.616C267.358 343.185 265.779 347.645 265.146 352.23C264.587 356.279 265.135 360.347 264.667 364.38C264.009 370.057 262.37 375.615 261.85 381.328C261.393 386.347 261.911 391.352 261.534 396.347C261.211 400.611 260.024 404.838 259.62 409.116C258.89 416.847 259.162 424.656 259.179 432.404C254.09 438.691 247.201 451.715 245.355 459.131C200.434 458.714 155.461 459.076 110.536 459.081L73.9251 459.165C67.9205 459.19 61.3833 459.667 55.4462 459.063C55.0354 459.023 54.6273 458.969 54.2218 458.9C53.8163 458.831 53.4148 458.749 53.0174 458.652C52.62 458.555 52.2279 458.445 51.8412 458.32C51.4545 458.196 51.0746 458.058 50.7013 457.907C50.328 457.756 49.9627 457.593 49.6054 457.416C49.2481 457.239 48.9 457.05 48.5611 456.849C48.2221 456.649 47.8935 456.436 47.5753 456.212C47.2571 455.988 46.9503 455.753 46.6549 455.508C43.9628 453.271 42.4086 450.581 42.05 447.385C41.6347 443.683 41.8881 439.859 41.9214 436.141C41.9869 430.179 42.0081 424.217 41.9848 418.254L41.9692 352.347L41.8554 124.976L147.232 124.861C176.177 124.777 205.209 124.429 234.146 124.841C232.563 128.071 228.159 131.975 229.083 135.613C229.975 139.119 237.228 145.351 240.835 147.249C247.513 150.765 251.684 146.067 257.868 144.918C260.236 144.478 262.281 144.794 264.4 145.765C272.548 149.502 269.338 156.727 275.577 159.967C279.418 161.962 291.752 161.536 296.069 160.595C302.54 159.185 300.88 152.891 303.547 149.124C305.168 146.835 307.91 145.443 310.932 144.85C315.122 144.027 317.786 146.126 321.113 147.817C323.596 149.08 326.125 149.744 328.992 149.067C333.055 148.107 340.859 142.143 342.89 138.94C346.81 132.762 340.462 130.058 338.577 124.84L338.441 124.455Z" fill="#FEFEFE"/>
<path d="M432.056 316.528L484.114 316.524C493.693 316.526 503.376 316.292 512.942 316.633C514.101 324.347 516.485 331.974 522.231 338.208C527.339 343.749 534.274 346.489 542.397 347.298C542.236 350.585 541.925 353.861 541.463 357.127C537.486 385.076 525.546 410.822 498.853 428.546C496.85 429.833 494.79 431.051 492.674 432.2C490.557 433.349 488.391 434.426 486.174 435.429C483.958 436.433 481.698 437.361 479.395 438.213C477.091 439.065 474.752 439.839 472.377 440.535C458.581 435.904 446.567 430.11 435.871 421.273C412.099 401.635 402.491 373.962 402.112 346.449C402.717 346.46 403.321 346.454 403.925 346.428C404.529 346.403 405.131 346.36 405.732 346.297C406.332 346.236 406.929 346.155 407.522 346.057C408.116 345.958 408.704 345.842 409.288 345.707C409.871 345.572 410.448 345.42 411.019 345.25C411.59 345.08 412.152 344.893 412.707 344.688C413.262 344.484 413.807 344.263 414.343 344.025C414.879 343.787 415.404 343.534 415.918 343.264C427.445 337.107 429.225 326.832 432.056 316.528Z" fill="black"/>
<path d="M433.004 317.516C445.909 317.498 458.814 317.536 471.718 317.631L471.698 379.09C461.951 378.874 452.169 378.999 442.418 378.988C431.081 378.966 419.744 379.012 408.408 379.128C404.821 368.56 403.438 358.184 403.129 347.223C403.726 347.23 404.322 347.218 404.918 347.187C405.515 347.157 406.109 347.108 406.7 347.041C407.292 346.974 407.88 346.889 408.465 346.786C409.05 346.682 409.629 346.561 410.203 346.422C410.777 346.283 411.345 346.126 411.905 345.951C412.466 345.777 413.018 345.586 413.562 345.377C414.107 345.169 414.641 344.944 415.166 344.702C415.691 344.461 416.205 344.203 416.708 343.93C427.604 337.965 430.473 327.582 433.004 317.516Z" fill="#ADDFA3"/>
<path d="M472.893 317.58C485.898 317.329 498.966 317.509 511.976 317.509C512.947 324.522 515.481 331.316 520.131 337.218C525.289 343.766 532.309 346.712 541.239 348.185C541.057 357.029 539.056 366.396 536.536 374.963L535.326 378.622C529.614 379.5 520.754 378.947 514.71 378.96L472.829 379.055C472.648 358.563 472.67 338.071 472.893 317.58Z" fill="#FEFEFE"/>
<path d="M408.575 379.98C429.588 379.65 450.649 379.87 471.665 379.894L471.758 439.315C466.677 437.912 461.733 435.931 457.069 433.719C432.871 422.241 416.106 402.452 408.575 379.98Z" fill="#FEFEFE"/>
<path d="M505.729 379.819C515.461 379.781 525.211 379.638 534.94 379.798C527.262 401.29 515.329 418.149 492.962 430.885C486.626 434.416 479.894 437.071 472.856 439.405C473.125 419.566 472.62 399.716 472.871 379.875C483.807 379.68 494.788 379.829 505.729 379.819Z" fill="#ADDFA3"/>
<path d="M151.084 139.173C151.883 139.114 152.684 139.075 153.487 139.055C161.188 138.909 168.379 141.398 173.895 145.971C182.171 152.832 182.241 161.141 182.319 170.286L182.469 183.663C187.64 183.712 196.909 182.752 201.485 184.661C203.986 185.704 205.923 187.957 206.712 190.189C208.058 194.001 207.242 202.989 207.246 207.269C207.251 213.508 207.523 219.804 207.199 226.036C207.098 228.229 206.816 230.405 206.355 232.564C206.052 233.871 205.691 235.166 205.271 236.45C204.851 237.734 204.373 239.002 203.837 240.254C203.302 241.506 202.71 242.739 202.063 243.953C201.416 245.166 200.714 246.357 199.958 247.524C190.455 262.362 173.63 271.577 154.945 276.277C154.2 276.424 153.408 276.599 152.641 276.598C150.271 276.595 147.398 275.593 145.219 274.882C135.092 271.578 125.753 267.066 117.995 260.541C108.348 252.427 100.448 241.167 99.0434 229.514C98.4645 224.715 98.8706 219.646 98.9015 214.819L98.8036 195.896C98.7941 192.413 99.2964 189.122 102.419 186.573C107.264 182.619 118.492 183.833 124.866 183.852C124.952 179.317 124.974 174.782 124.931 170.247C124.927 161.875 124.828 155.043 131.278 148.06C136.115 142.822 143.442 139.997 151.084 139.173Z" fill="black"/>
<path d="M184.245 184.548C189.287 184.435 196.897 183.632 201.412 185.712C203.628 186.732 205.159 188.749 205.833 190.768C207.096 194.553 206.282 201.265 206.273 205.339C206.233 221.688 208.253 233.801 198 248.633C189.069 261.553 172.558 271.501 155.498 275.208C148.915 276.639 136.981 271.023 131.136 268.101C127.712 266.316 124.373 264.268 121.366 262.009C110.305 253.694 100.861 240.776 99.9213 228.028C99.3982 220.929 99.9213 213.668 99.9439 206.549C99.9581 202.002 99.2166 196.681 100.136 192.243C100.5 190.489 101.374 188.834 102.809 187.522C104.562 185.917 106.516 185.261 109.006 184.925C114.82 184.139 124.525 184.696 130.667 184.674C148.527 184.737 166.386 184.695 184.245 184.548Z" fill="#FEFEFE"/>
<path d="M169.278 190.852C175.124 190.81 191.612 189.974 195.818 191.794C196.923 192.272 197.463 193.178 197.782 194.153C198.877 197.498 198.068 202.888 198.075 206.495C198.089 213.111 198.422 219.779 198.006 226.387C197.876 228.585 197.563 230.765 197.066 232.926C196.023 237.399 193.886 241.746 191.119 245.645C183.205 256.802 167.318 266.38 152.398 269.563C148.998 268.546 145.717 267.217 142.424 265.975C136.702 263.94 131.014 260.567 126.416 257.054C116.43 249.424 108.959 239.587 108.318 227.946C107.959 221.39 108.167 214.794 108.111 208.232C108.077 204.321 107.566 200.048 108.073 196.177C108.241 194.899 108.685 193.449 109.79 192.509C110.904 191.561 112.745 191.385 114.244 191.241C120.198 190.671 126.71 191.045 132.736 191.015L169.278 190.852Z" fill="#FE8A56"/>
<path d="M153.001 206.194L153.504 206.22C156.589 206.409 159.404 207.401 161.377 209.491C161.578 209.708 161.767 209.933 161.942 210.166C162.118 210.398 162.28 210.638 162.427 210.884C162.575 211.13 162.709 211.382 162.827 211.639C162.946 211.896 163.05 212.158 163.138 212.424C163.227 212.689 163.3 212.958 163.357 213.23C163.414 213.502 163.456 213.776 163.482 214.051C163.508 214.327 163.518 214.603 163.512 214.879C163.506 215.155 163.484 215.43 163.446 215.705C162.997 218.963 160.712 220.974 157.834 222.9C159.213 231.944 161.236 240.931 162.794 249.958L153.633 249.944L143.56 249.943C144.669 240.926 147.307 232.061 148.445 223.028C147.897 222.741 147.358 222.442 146.829 222.13C146.56 221.967 146.302 221.793 146.053 221.607C145.805 221.422 145.568 221.227 145.343 221.021C145.117 220.816 144.905 220.601 144.706 220.377C144.506 220.153 144.32 219.921 144.148 219.682C143.976 219.442 143.819 219.196 143.677 218.942C143.534 218.689 143.406 218.431 143.295 218.167C143.183 217.902 143.087 217.634 143.007 217.362C142.927 217.09 142.863 216.814 142.816 216.537C142.415 214.116 143.311 211.567 145.069 209.648C147.126 207.402 149.768 206.478 153.001 206.194Z" fill="black"/>
<path d="M151.033 143.689C152.229 143.581 153.429 143.536 154.631 143.556C160.503 143.628 166.574 146.058 170.614 149.643C177.403 155.667 177.211 163.208 177.224 170.981C177.246 175.225 177.218 179.468 177.14 183.711L156.899 183.734C148.047 183.721 139.196 183.753 130.346 183.83C130.342 177.502 129.507 164.687 130.911 159.155C131.077 158.483 131.285 157.82 131.533 157.166C131.781 156.513 132.069 155.872 132.397 155.244C132.724 154.616 133.089 154.005 133.492 153.409C133.896 152.814 134.335 152.238 134.809 151.681C138.737 147.104 144.523 144.552 151.033 143.689Z" fill="#FEFEFE"/>
<path d="M460.826 139.169C461.976 139.034 463.243 139.022 464.405 139.016C464.852 139.01 465.299 139.014 465.745 139.027C466.192 139.041 466.638 139.064 467.083 139.096C467.528 139.128 467.972 139.17 468.414 139.222C468.857 139.274 469.298 139.335 469.737 139.406C470.176 139.476 470.613 139.556 471.047 139.646C471.481 139.735 471.913 139.833 472.341 139.941C472.769 140.049 473.194 140.166 473.616 140.292C474.037 140.418 474.454 140.553 474.867 140.697C475.281 140.841 475.69 140.994 476.094 141.155C476.498 141.317 476.897 141.487 477.292 141.666C477.685 141.844 478.074 142.031 478.457 142.227C478.84 142.423 479.217 142.626 479.588 142.837C479.958 143.049 480.322 143.268 480.68 143.496C481.038 143.723 481.389 143.958 481.732 144.2C482.076 144.442 482.412 144.692 482.741 144.949C483.07 145.205 483.391 145.469 483.704 145.739C492.299 153.05 492.318 160.692 492.273 170.389L492.306 184.44C497.332 184.445 507.732 183.558 511.977 185.262C514.155 186.137 515.61 187.751 516.37 189.665C517.734 193.094 517.368 221.445 517.083 226.528C516.966 228.739 516.7 230.938 516.283 233.124C515.41 237.536 513.558 241.718 511.22 245.714C508.612 250.17 505.312 254.095 501.451 257.827C491.453 267.49 479.718 272.795 465.607 276.819C464.937 276.917 464.252 277.016 463.572 277.032C457.14 277.184 444.825 271.608 439.461 268.533C435.785 266.404 432.332 264.043 429.099 261.448C416.423 251.296 409.865 237.902 409.424 223.192C409.245 217.202 409.47 211.187 409.414 205.193C409.375 200.985 408.652 195.986 409.573 191.87C409.623 191.635 409.683 191.401 409.754 191.169C409.825 190.937 409.906 190.708 409.997 190.482C410.088 190.255 410.189 190.031 410.3 189.811C410.411 189.591 410.531 189.374 410.662 189.162C410.792 188.95 410.931 188.742 411.079 188.538C411.228 188.334 411.386 188.136 411.552 187.942C411.718 187.749 411.893 187.561 412.076 187.379C412.259 187.196 412.449 187.02 412.648 186.849C413.949 185.745 415.539 185.047 417.323 184.681C421.89 183.743 430.489 184.348 435.473 184.334C435.554 179.742 435.495 175.14 435.486 170.547C435.467 161.923 435.385 155.223 441.89 147.973C446.571 142.756 453.276 139.999 460.826 139.169Z" fill="black"/>
<path d="M419.263 185.232C423.158 185.061 427.213 185.295 431.126 185.32L454.442 185.39C471.683 185.419 489.01 185 506.241 185.363C509.248 185.427 511.638 185.59 513.773 187.612C515.123 188.89 515.666 190.469 515.945 192.141C516.721 196.782 516.206 202.041 516.213 206.752C516.224 213.549 516.621 220.531 516.055 227.306C514.814 242.14 505.916 254.263 492.816 263.875C485.534 268.999 476.278 273.309 467.124 275.509C459.802 277.269 450.947 273.267 444.646 270.24C429.796 263.107 417.124 251.233 412.628 237.034C411.51 233.503 410.934 229.744 410.609 226.097C410.014 219.424 410.393 212.666 410.371 205.979C410.358 201.723 409.822 197.041 410.454 192.835C410.649 191.539 411.071 190.293 411.878 189.172C413.579 186.807 416.203 185.8 419.263 185.232Z" fill="#FEFEFE"/>
<path d="M419.783 191.828C430.907 191.536 442.183 191.924 453.321 191.98L508.371 191.946C508.27 199.873 508.274 207.8 508.384 215.727C508.413 220.292 508.67 224.98 508.152 229.525C506.97 239.907 500.513 248.802 492.019 256.098C491.354 256.676 490.649 257.211 489.924 257.734C484.405 261.716 469.455 269.527 461.905 268.88C451.25 267.965 436.348 258.385 429.798 251.473C417.167 238.144 418.151 223.866 418.249 207.828C418.277 203.295 417.62 198.242 418.33 193.781C418.502 192.697 418.823 192.478 419.783 191.828Z" fill="#BFE8FB"/>
<path d="M461.907 205.647C462.513 205.596 463.111 205.553 463.721 205.556C466.859 205.573 469.951 206.612 472.138 208.54C474.3 210.447 475.521 213.225 475.432 215.866C475.319 219.164 473.304 221.555 470.6 223.738C471.495 232.742 473.154 241.671 473.876 250.694L466.242 250.73L454.434 250.754C455.068 241.626 457.342 232.644 458.212 223.544C455.677 221.983 453.763 220.3 452.848 217.669C452.018 215.283 452.489 212.636 453.922 210.485C455.748 207.744 458.438 206.425 461.907 205.647Z" fill="black"/>
<path d="M461.554 143.438C462.335 143.383 463.117 143.355 463.9 143.353C469.883 143.365 476.074 145.232 480.324 148.884C487.618 155.153 487.078 162.982 487.075 171.12L487.062 184.435L467.429 184.476L440.823 184.491L440.781 169.959C440.771 166.271 440.424 162.319 441.373 158.703C442.054 156.111 443.442 153.693 445.272 151.548C449.306 146.819 454.853 144.352 461.554 143.438Z" fill="#FEFEFE"/>
<path d="M128.553 312.935C133.429 313.002 143.405 312.508 147.573 313.392C149.694 314.502 151.132 315.537 151.678 317.691C152.092 319.328 152.096 321.088 152.415 322.757C153.843 325.257 155.867 326.686 158.764 327.908C164.778 329.302 167.914 325.361 173.085 324.034C176.124 323.822 178.681 323.899 181.123 325.693C182.047 326.372 182.858 327.134 183.642 327.927C186.49 330.676 191.887 333.598 191.587 337.66C191.197 342.952 184.122 345.28 186.526 351.421C186.972 352.561 187.57 353.686 188.459 354.63C192.951 359.4 202.005 355.063 203.564 363.222C203.99 365.452 203.736 367.852 203.682 370.104C203.634 372.108 203.814 374.153 203.61 376.148C203.42 378.009 202.868 379.831 201.075 381.041C196.125 384.383 186.92 380.682 185.107 390.105C183.899 396.382 194.398 400.743 188.487 407.041C187.346 408.256 185.778 409.247 184.379 410.239C181.617 412.634 178.435 415.807 174.18 415.922C168.166 416.084 165.479 410.28 158.287 412.32C156.725 412.763 155.198 413.473 154.038 414.478C148.793 419.021 154.294 426.416 142.768 426.866C140.298 426.962 137.737 426.961 135.268 426.855C132.401 427.178 127.827 427.199 125.303 426.002C121.384 424.144 121.643 420.148 120.476 416.97C119.772 415.05 118.2 413.615 116.073 412.761C107.554 409.34 105.585 413.848 99.3061 415.558C97.2695 416.114 95.2549 415.867 93.3834 415.023C90.4545 413.703 83.048 408.01 82.0487 405.406C81.8825 404.906 81.7675 404.398 81.7038 403.882C81.373 401.318 82.9031 399.25 84.6832 397.328C85.8743 396.095 86.6527 394.909 86.788 393.287C86.9525 391.322 86.3279 389.402 85.3185 387.647C80.7555 379.714 73.5243 384.429 69.599 380.246C68.418 378.987 68.4222 377.118 68.5486 375.591C68.2773 372.194 67.8925 364.199 69.1839 361.238C71.2912 356.404 76.7483 358.656 80.9176 356.929C84.3465 355.508 85.7757 352.325 86.9579 349.468C87.1983 343.672 80.3548 342.269 81.2115 336.613C81.6384 335.78 82.0968 334.95 82.6924 334.194C84.2403 332.227 86.7892 330.557 88.7593 328.874C101.448 318.03 102.784 330.547 113.083 328.412C123.608 326.229 119.828 320.361 123.418 315.548C124.663 313.879 126.375 313.34 128.553 312.935Z" fill="#FEFEFE"/>
<path d="M81.2115 336.613C81.6384 335.78 82.0968 334.95 82.6924 334.194C84.2403 332.227 86.7892 330.557 88.7593 328.874C101.448 318.03 102.784 330.547 113.083 328.412C123.608 326.229 119.828 320.361 123.418 315.548C124.663 313.879 126.375 313.34 128.553 312.935L127.839 314.018C125.65 314.796 124.498 315.578 123.627 317.499C121.5 322.18 122.836 325.831 116.34 328.412C113.532 329.527 110.327 330.12 107.351 329.111C103.558 327.827 99.4931 324.178 95.0293 325.746C91.7156 326.91 83.9772 333.616 82.5926 336.435C82.2085 337.217 82.2393 337.971 82.3005 338.8C83.8739 341.917 86.9828 343.882 88.3502 347.173L87.5558 350.443C86.3202 353.423 85.0311 356.105 81.4585 357.572C77.7886 359.08 71.8172 357.636 70.0823 361.601C69.2018 363.613 69.4678 366.315 69.4161 368.462C69.4434 371.615 68.4317 377.836 71.2633 380.071C73.5884 381.905 77.0577 380.872 79.7931 381.676C83.9933 382.91 87.6899 388.201 87.928 391.898C88.08 394.261 86.9959 396.335 85.3613 398.198C83.8223 400.446 82.5795 402.188 82.9447 404.881C84.948 407.605 92.2565 414.213 95.8445 414.833C101.901 415.878 104.638 408.47 115.046 411.372C117.161 411.962 118.95 412.817 120.265 414.382C123.519 418.25 121.173 424.716 128.286 425.802C132.259 426.408 136.337 425.767 140.317 426.078C141.811 426.005 143.419 426.043 144.876 425.744C152.424 424.198 148.669 416.641 154.116 412.984C162.956 407.051 167.447 414.494 173.866 414.819C177.95 415.026 181 411.59 183.739 409.464C196.711 399.847 182.337 399.271 183.886 390.37C184.201 388.558 185.036 386.739 186.348 385.279C190.888 380.222 196.382 383.14 200.573 380.218C202.31 379.007 202.486 376.875 202.623 375.098C204.511 350.619 194.688 362.716 187.448 355.264C186.369 354.154 185.739 352.83 185.283 351.459C182.965 344.475 190.01 342.925 190.293 337.686C190.489 334.075 185.49 331.12 182.808 328.768C180.155 326.158 178.019 325.267 174.028 324.894C167.175 326.286 167.044 329.934 158.426 328.9C158.347 328.875 158.268 328.852 158.19 328.826C155.016 327.806 152.819 326.105 151.429 323.488C150.905 321.838 150.876 320.138 150.417 318.481C149.855 316.455 148.942 315.532 146.901 314.423L147.573 313.392C149.694 314.501 151.132 315.537 151.678 317.691C152.092 319.328 152.096 321.088 152.415 322.757C153.843 325.257 155.867 326.686 158.764 327.908C164.778 329.302 167.914 325.361 173.085 324.034C176.124 323.822 178.681 323.899 181.123 325.693C182.047 326.371 182.858 327.134 183.642 327.927C186.49 330.676 191.887 333.597 191.587 337.66C191.197 342.952 184.122 345.28 186.526 351.421C186.972 352.56 187.57 353.686 188.459 354.63C192.951 359.4 202.005 355.063 203.564 363.222C203.99 365.452 203.736 367.852 203.682 370.104C203.634 372.108 203.814 374.153 203.61 376.148C203.42 378.009 202.868 379.831 201.075 381.041C196.125 384.383 186.92 380.681 185.107 390.105C183.899 396.382 194.398 400.742 188.487 407.041C187.346 408.256 185.778 409.247 184.379 410.239C181.617 412.634 178.435 415.807 174.18 415.922C168.166 416.084 165.479 410.28 158.287 412.32C156.725 412.763 155.198 413.473 154.038 414.478C148.793 419.021 154.294 426.416 142.768 426.866C140.298 426.962 137.737 426.961 135.268 426.855C132.401 427.178 127.827 427.199 125.303 426.002C121.384 424.144 121.643 420.148 120.476 416.97C119.772 415.05 118.2 413.615 116.073 412.761C107.554 409.34 105.585 413.848 99.3061 415.558C97.2695 416.114 95.2549 415.867 93.3834 415.023C90.4545 413.703 83.048 408.01 82.0487 405.406C81.8825 404.906 81.7675 404.398 81.7038 403.882C81.373 401.317 82.9031 399.25 84.6832 397.328C85.8743 396.094 86.6527 394.909 86.788 393.287C86.9525 391.322 86.3279 389.402 85.3185 387.646C80.7555 379.714 73.5243 384.429 69.599 380.246C68.418 378.987 68.4222 377.118 68.5486 375.591C68.2773 372.194 67.8925 364.199 69.1839 361.238C71.2912 356.404 76.7483 358.656 80.9176 356.929C84.3465 355.508 85.7757 352.325 86.9579 349.468C87.1983 343.672 80.3548 342.269 81.2115 336.613Z" fill="#5FA6F3"/>
<path d="M128.554 312.935C133.429 313.002 143.406 312.508 147.574 313.392L146.901 314.423C142.691 313.405 132.452 313.712 127.84 314.018L128.554 312.935Z" fill="#5272B6"/>
<path d="M132.526 344.676C133.012 344.625 133.499 344.583 133.988 344.552C134.476 344.521 134.965 344.5 135.454 344.49C135.944 344.479 136.434 344.479 136.923 344.488C137.413 344.499 137.902 344.519 138.39 344.549C138.879 344.579 139.366 344.62 139.852 344.67C140.338 344.721 140.823 344.781 141.305 344.852C141.788 344.923 142.268 345.004 142.746 345.095C143.224 345.186 143.699 345.287 144.171 345.398C144.643 345.508 145.111 345.628 145.577 345.759C146.042 345.889 146.503 346.029 146.959 346.179C147.416 346.328 147.869 346.487 148.317 346.656C148.764 346.824 149.207 347.002 149.644 347.188C150.082 347.376 150.513 347.572 150.939 347.776C151.366 347.981 151.786 348.195 152.199 348.417C152.613 348.64 153.02 348.871 153.42 349.11C153.82 349.35 154.213 349.598 154.599 349.854C154.985 350.11 155.364 350.373 155.734 350.645C156.105 350.916 156.467 351.196 156.822 351.483C157.176 351.77 157.522 352.064 157.86 352.365C158.197 352.666 158.525 352.974 158.845 353.289C159.165 353.604 159.475 353.926 159.776 354.254C160.076 354.582 160.368 354.915 160.649 355.255C160.931 355.596 161.202 355.942 161.464 356.293C161.725 356.644 161.976 357.001 162.217 357.363C162.458 357.725 162.688 358.092 162.908 358.463C163.127 358.835 163.336 359.211 163.533 359.591C163.731 359.971 163.918 360.355 164.093 360.743C164.269 361.131 164.433 361.523 164.586 361.918C164.738 362.313 164.88 362.711 165.009 363.111C165.139 363.512 165.257 363.915 165.363 364.321C165.47 364.727 165.564 365.135 165.647 365.544C165.729 365.954 165.8 366.365 165.859 366.778C165.918 367.19 165.965 367.604 166 368.018C166.035 368.433 166.057 368.848 166.068 369.264C166.079 369.679 166.078 370.095 166.065 370.51C166.051 370.926 166.026 371.341 165.989 371.755C165.951 372.17 165.901 372.583 165.84 372.995C165.779 373.408 165.706 373.819 165.62 374.228C165.535 374.637 165.439 375.044 165.33 375.45C165.221 375.855 165.101 376.258 164.968 376.658C164.836 377.058 164.693 377.456 164.537 377.85C164.382 378.244 164.216 378.635 164.038 379.022C163.86 379.41 163.672 379.793 163.472 380.172C163.271 380.551 163.06 380.926 162.839 381.297C162.617 381.668 162.385 382.034 162.142 382.394C161.899 382.755 161.645 383.111 161.382 383.461C161.118 383.811 160.844 384.156 160.561 384.495C160.278 384.834 159.984 385.166 159.681 385.493C159.378 385.82 159.066 386.14 158.745 386.453C158.423 386.767 158.093 387.074 157.754 387.373C157.415 387.673 157.067 387.966 156.711 388.251C156.355 388.536 155.991 388.814 155.618 389.084C155.246 389.354 154.866 389.616 154.479 389.871C154.091 390.125 153.697 390.371 153.295 390.608C152.893 390.846 152.485 391.076 152.07 391.296C151.655 391.517 151.233 391.729 150.806 391.932C150.379 392.135 149.946 392.329 149.507 392.514C149.069 392.699 148.626 392.875 148.177 393.041C147.728 393.208 147.275 393.365 146.817 393.513C146.359 393.66 145.897 393.798 145.431 393.926C144.965 394.055 144.496 394.173 144.023 394.281C143.551 394.39 143.075 394.489 142.597 394.578C142.118 394.666 141.637 394.745 141.154 394.814C140.671 394.883 140.187 394.942 139.7 394.99C139.216 395.038 138.731 395.076 138.244 395.104C137.758 395.133 137.271 395.151 136.783 395.158C136.296 395.166 135.808 395.164 135.321 395.152C134.833 395.139 134.347 395.117 133.861 395.084C133.375 395.052 132.89 395.009 132.407 394.956C131.923 394.903 131.441 394.84 130.961 394.767C130.481 394.695 130.004 394.612 129.528 394.519C129.053 394.427 128.581 394.324 128.111 394.212C127.642 394.099 127.177 393.977 126.714 393.846C126.252 393.714 125.794 393.573 125.34 393.422C124.886 393.271 124.436 393.111 123.991 392.942C123.547 392.772 123.107 392.594 122.673 392.406C122.238 392.219 121.809 392.022 121.386 391.816C120.963 391.611 120.546 391.397 120.135 391.174C119.724 390.951 119.32 390.72 118.923 390.48C118.525 390.24 118.135 389.993 117.752 389.737C117.369 389.481 116.993 389.217 116.625 388.946C116.257 388.674 115.897 388.395 115.545 388.109C115.193 387.822 114.85 387.528 114.515 387.228C114.18 386.927 113.854 386.62 113.537 386.305C113.22 385.991 112.912 385.67 112.613 385.343C112.315 385.016 112.026 384.683 111.747 384.344C111.467 384.005 111.197 383.66 110.938 383.309C110.679 382.959 110.429 382.604 110.19 382.243C109.951 381.882 109.723 381.517 109.505 381.147C109.287 380.776 109.08 380.402 108.883 380.023C108.688 379.645 108.502 379.262 108.328 378.876C108.154 378.489 107.991 378.099 107.839 377.706C107.687 377.313 107.547 376.916 107.419 376.517C107.29 376.118 107.172 375.717 107.067 375.313C106.961 374.909 106.867 374.503 106.785 374.095C106.703 373.687 106.632 373.278 106.574 372.867C106.515 372.456 106.468 372.044 106.434 371.632C106.399 371.219 106.376 370.806 106.365 370.392C106.354 369.978 106.355 369.565 106.368 369.151C106.381 368.737 106.406 368.324 106.443 367.912C106.479 367.499 106.528 367.087 106.589 366.676C106.649 366.266 106.721 365.857 106.805 365.449C106.89 365.042 106.986 364.636 107.093 364.233C107.201 363.829 107.32 363.428 107.45 363.029C107.581 362.63 107.723 362.235 107.877 361.842C108.03 361.449 108.195 361.06 108.371 360.674C108.547 360.288 108.734 359.906 108.932 359.528C109.13 359.15 109.339 358.776 109.559 358.407C109.778 358.037 110.009 357.673 110.25 357.313C110.49 356.953 110.741 356.598 111.002 356.249C111.263 355.899 111.534 355.556 111.815 355.218C112.096 354.879 112.387 354.547 112.687 354.221C112.987 353.895 113.297 353.575 113.616 353.262C113.934 352.949 114.262 352.643 114.598 352.343C114.934 352.043 115.279 351.751 115.632 351.466C115.985 351.18 116.347 350.903 116.716 350.632C117.085 350.362 117.462 350.1 117.846 349.845C118.23 349.59 118.622 349.344 119.021 349.106C119.419 348.868 119.824 348.638 120.237 348.416C120.649 348.195 121.067 347.982 121.491 347.778C121.915 347.574 122.345 347.379 122.78 347.192C123.216 347.006 123.656 346.829 124.102 346.661C124.547 346.493 124.997 346.335 125.452 346.186C125.907 346.036 126.366 345.897 126.829 345.767C127.292 345.637 127.758 345.516 128.228 345.406C128.698 345.295 129.17 345.194 129.646 345.103C130.121 345.012 130.599 344.931 131.08 344.859C131.56 344.788 132.042 344.727 132.526 344.676Z" fill="#5FA6F3"/>
<path d="M133.869 345.516C134.336 345.484 134.804 345.46 135.273 345.446C135.742 345.433 136.212 345.429 136.681 345.435C137.15 345.441 137.619 345.457 138.087 345.482C138.555 345.508 139.023 345.543 139.489 345.588C139.955 345.633 140.419 345.688 140.883 345.752C141.346 345.816 141.807 345.89 142.265 345.973C142.725 346.056 143.181 346.149 143.634 346.252C144.088 346.354 144.538 346.466 144.985 346.587C145.432 346.708 145.875 346.838 146.315 346.978C146.754 347.117 147.189 347.266 147.62 347.424C148.051 347.581 148.477 347.748 148.899 347.923C149.32 348.098 149.736 348.283 150.147 348.475C150.557 348.668 150.962 348.869 151.361 349.079C151.76 349.288 152.153 349.505 152.54 349.731C152.926 349.957 153.306 350.191 153.679 350.433C154.052 350.674 154.418 350.923 154.776 351.18C155.135 351.437 155.486 351.701 155.829 351.972C156.173 352.244 156.508 352.522 156.835 352.808C157.163 353.093 157.482 353.385 157.792 353.684C158.102 353.982 158.404 354.287 158.697 354.599C158.989 354.91 159.273 355.227 159.548 355.55C159.822 355.873 160.087 356.201 160.343 356.535C160.598 356.869 160.844 357.208 161.08 357.553C161.316 357.897 161.542 358.246 161.758 358.599C161.973 358.953 162.179 359.311 162.374 359.673C162.569 360.035 162.754 360.401 162.928 360.771C163.102 361.141 163.265 361.514 163.418 361.891C163.57 362.267 163.712 362.647 163.842 363.03C163.973 363.412 164.092 363.797 164.2 364.185C164.309 364.572 164.406 364.962 164.491 365.353C164.577 365.745 164.652 366.138 164.715 366.532C164.778 366.927 164.83 367.323 164.87 367.72C164.91 368.116 164.939 368.514 164.956 368.912C164.974 369.31 164.98 369.708 164.974 370.106C164.968 370.504 164.951 370.902 164.922 371.299C164.894 371.697 164.854 372.093 164.802 372.49C164.751 372.885 164.688 373.28 164.614 373.673C164.539 374.066 164.453 374.458 164.356 374.847C164.26 375.237 164.151 375.624 164.032 376.009C163.913 376.395 163.783 376.777 163.642 377.157C163.5 377.536 163.348 377.913 163.184 378.286C163.021 378.66 162.848 379.029 162.663 379.396C162.479 379.762 162.284 380.124 162.078 380.482C161.873 380.84 161.657 381.194 161.432 381.543C161.206 381.892 160.97 382.236 160.725 382.576C160.479 382.915 160.223 383.249 159.959 383.577C159.694 383.906 159.419 384.229 159.136 384.546C158.852 384.864 158.56 385.175 158.258 385.48C157.956 385.785 157.646 386.084 157.327 386.376C157.008 386.668 156.681 386.953 156.346 387.232C156.011 387.511 155.668 387.782 155.317 388.047C154.966 388.311 154.607 388.568 154.241 388.817C153.876 389.067 153.503 389.308 153.123 389.542C152.743 389.776 152.357 390.002 151.964 390.22C151.572 390.438 151.173 390.647 150.768 390.848C150.363 391.05 149.953 391.242 149.536 391.427C149.12 391.611 148.699 391.786 148.273 391.953C147.847 392.12 147.416 392.277 146.981 392.426C146.546 392.575 146.106 392.715 145.663 392.845C145.22 392.976 144.773 393.097 144.323 393.209C143.872 393.32 143.419 393.423 142.962 393.516C142.506 393.609 142.048 393.693 141.587 393.767C141.126 393.841 140.663 393.905 140.198 393.96C139.733 394.015 139.267 394.06 138.8 394.095C138.331 394.131 137.861 394.156 137.39 394.172C136.919 394.188 136.449 394.194 135.978 394.19C135.507 394.187 135.036 394.173 134.566 394.149C134.095 394.126 133.626 394.093 133.158 394.05C132.69 394.007 132.223 393.954 131.758 393.891C131.293 393.829 130.83 393.757 130.368 393.675C129.907 393.593 129.449 393.502 128.993 393.401C128.538 393.3 128.085 393.189 127.636 393.07C127.187 392.95 126.741 392.82 126.299 392.682C125.857 392.544 125.42 392.396 124.986 392.239C124.553 392.082 124.125 391.917 123.701 391.742C123.277 391.568 122.859 391.384 122.446 391.192C122.033 391 121.625 390.799 121.224 390.59C120.823 390.381 120.427 390.164 120.038 389.938C119.65 389.713 119.268 389.479 118.892 389.237C118.517 388.996 118.149 388.747 117.788 388.49C117.427 388.233 117.074 387.969 116.729 387.697C116.383 387.425 116.046 387.147 115.716 386.861C115.387 386.575 115.066 386.283 114.753 385.984C114.441 385.685 114.138 385.379 113.843 385.068C113.548 384.755 113.263 384.438 112.986 384.114C112.71 383.79 112.443 383.461 112.186 383.126C111.929 382.791 111.681 382.451 111.444 382.106C111.206 381.761 110.979 381.411 110.762 381.056C110.544 380.702 110.338 380.343 110.141 379.979C109.945 379.616 109.759 379.249 109.584 378.878C109.409 378.507 109.244 378.132 109.091 377.754C108.937 377.376 108.795 376.995 108.663 376.611C108.532 376.227 108.412 375.841 108.303 375.452C108.194 375.063 108.096 374.672 108.01 374.279C107.924 373.887 107.849 373.492 107.785 373.096C107.722 372.7 107.67 372.303 107.63 371.905C107.589 371.506 107.56 371.107 107.543 370.708C107.526 370.308 107.52 369.909 107.526 369.509C107.532 369.109 107.549 368.71 107.578 368.311C107.607 367.912 107.647 367.514 107.7 367.117C107.752 366.719 107.815 366.323 107.89 365.929C107.965 365.534 108.052 365.142 108.15 364.751C108.248 364.36 108.357 363.971 108.477 363.584C108.597 363.198 108.729 362.814 108.871 362.433C109.014 362.052 109.167 361.674 109.331 361.3C109.496 360.925 109.671 360.554 109.857 360.187C110.043 359.819 110.239 359.456 110.446 359.097C110.653 358.738 110.871 358.384 111.098 358.033C111.326 357.684 111.564 357.339 111.811 356.998C112.059 356.658 112.316 356.324 112.583 355.995C112.85 355.665 113.126 355.341 113.412 355.024C113.698 354.706 113.992 354.394 114.296 354.089C114.6 353.784 114.912 353.485 115.233 353.192C115.555 352.899 115.884 352.614 116.222 352.335C116.559 352.056 116.905 351.785 117.258 351.521C117.611 351.257 117.972 351 118.34 350.751C118.709 350.501 119.084 350.26 119.467 350.026C119.849 349.793 120.237 349.568 120.633 349.35C121.028 349.133 121.43 348.924 121.837 348.723C122.244 348.523 122.657 348.331 123.076 348.147C123.494 347.964 123.918 347.79 124.347 347.624C124.775 347.458 125.209 347.302 125.646 347.154C126.084 347.007 126.526 346.868 126.972 346.739C127.417 346.61 127.867 346.49 128.319 346.38C128.772 346.27 129.227 346.169 129.686 346.077C130.145 345.986 130.606 345.904 131.069 345.832C131.532 345.76 131.997 345.698 132.464 345.645C132.931 345.593 133.399 345.55 133.869 345.516Z" fill="#FEFEFE"/>
<path d="M280.681 37.324C285.145 37.1177 290.732 36.7093 295.076 37.6213C302.733 39.229 299.859 44.9463 303.22 49.2914C304.446 50.8774 306.384 52.1901 308.4 52.9888C317.133 56.4491 320.709 48.1306 328.432 49.6783C329.704 49.9332 330.931 50.4345 332.005 51.0623C334.235 52.3664 340.777 58.047 342.299 60.1296C346.56 65.9654 340.043 68.7666 338.693 73.8641C337.997 76.4894 338.98 79.4358 340.682 81.6535C343.761 85.6666 347.692 85.5154 352.543 86.4844C354.745 86.9248 356.741 87.8525 357.882 89.5683C359.562 92.0949 359.523 104.603 358.547 107.418C356.39 113.635 349.045 111.234 343.883 113.696C340.852 115.141 338.859 118.086 338.019 120.889C336.549 125.797 339.832 127.911 342.322 131.789C343.407 133.48 343.866 135.5 343.165 137.367C342.017 140.428 333.849 146.665 330.345 148.03C323.475 150.705 321.407 146.224 316.078 144.575C313.089 143.651 310.037 144.197 307.248 145.366C300.899 148.026 302.395 151.464 300.423 156.057C299.414 158.406 297.661 159.265 295.113 160.21C290.204 160.711 280.629 161.396 276.32 159.547C272.628 157.963 272.276 154.837 271.198 151.828C270.131 148.854 267.856 146.461 264.542 145.058C258.324 142.427 254.038 146.183 248.491 147.576C246.148 148.164 243.648 148.141 241.514 147.04C238.247 145.355 230.681 138.875 229.91 135.781C229.165 132.796 231.178 130.627 232.91 128.243C235.073 125.264 235.546 122.161 234.557 118.76C231.851 109.462 224.586 112.628 219.158 109.731C217.392 108.788 216.39 107.198 215.955 105.504C215.271 102.834 215.622 99.6616 215.596 96.9198C215.579 95.006 215.264 92.691 215.906 90.8493C218.057 84.6709 228.912 87.6278 233.5 81.5728C234.474 80.2874 235.02 78.759 235.307 77.2589C236.419 71.4544 231.854 69.8273 230.717 65.0825C230.273 63.2276 230.921 61.4544 232.12 59.9013C233.799 57.727 236.364 55.9522 238.541 54.1367C240.087 52.8472 241.654 51.4246 243.529 50.4788C250.663 46.8809 255.189 55.5526 263.878 53.9376C274.62 51.9406 270.847 45.5216 274.739 40.4533C276.135 38.6358 278.228 37.7381 280.681 37.324Z" fill="#FEFEFE"/>
<path d="M336.788 322.877C337.539 322.903 337.854 322.838 338.519 323.184C338.879 323.874 338.982 324.455 339 325.21C339.033 326.621 338.666 328.089 338.546 329.5C338.247 333.003 338.096 336.463 338.445 339.969C339.157 347.113 340.635 354.182 341.081 361.351C341.389 366.298 340.739 371.287 341.198 376.225C341.633 380.912 343.043 385.473 343.362 390.196C343.783 396.424 343.108 402.694 343.581 408.917C344.194 416.945 346.915 424.785 346.453 432.891L317.198 432.947C316.524 426.466 316.717 420.103 316.35 413.634C316.086 408.977 314.891 404.384 314.586 399.724C313.501 383.192 313.157 366.585 312.287 350.037C312.164 347.7 311.86 334.241 311.118 333.437L310.222 333.479C309.248 334.328 304.725 358.04 303.908 361.778L293.858 410.294C292.328 417.825 290.649 425.345 289.356 432.908C279.638 432.813 269.91 432.896 260.19 432.903C260.027 424.887 259.91 416.616 260.699 408.625C261.106 404.505 262.192 400.429 262.535 396.32C262.909 391.839 262.416 387.287 262.735 382.775C263.156 376.831 264.816 371.102 265.603 365.216C266.104 361.458 265.627 357.616 266.045 353.834C266.628 348.569 268.494 343.492 269.12 338.267C269.726 333.21 268.938 328.008 269.023 322.919L336.788 322.877Z" fill="#F7CEF0"/>
<path d="M53.0818 97.0453C58.1276 96.8291 63.2301 96.9601 68.2835 96.9601L94.2458 96.9566L170.205 96.9818C170.165 105.946 170.382 114.923 170.199 123.884C166.66 123.952 163.111 123.929 159.571 123.947L41.8284 124.002C41.8691 118.774 40.5106 106.708 43.5325 102.503C45.676 99.5195 49.1838 97.8586 53.0818 97.0453Z" fill="#FE8A56"/>
<path d="M66.7144 106.458C66.7988 106.447 66.8833 106.436 66.968 106.428C67.0527 106.42 67.1376 106.414 67.2227 106.409C67.3082 106.404 67.3935 106.401 67.4786 106.4C67.5641 106.399 67.6494 106.399 67.7345 106.402C67.82 106.404 67.9053 106.408 67.9904 106.414C68.0755 106.42 68.1602 106.428 68.2445 106.437C68.3292 106.447 68.4136 106.458 68.4975 106.471C68.5818 106.484 68.6655 106.499 68.7486 106.515C68.8318 106.532 68.9143 106.55 68.9962 106.57C69.0782 106.589 69.1595 106.611 69.2403 106.634C69.3214 106.658 69.4016 106.683 69.4807 106.709C69.5603 106.736 69.6389 106.764 69.7164 106.794C69.7944 106.824 69.8714 106.855 69.9474 106.888C70.023 106.921 70.0978 106.956 70.1718 106.992C70.2459 107.028 70.3187 107.066 70.3903 107.105C70.462 107.145 70.5327 107.185 70.6023 107.227C70.6716 107.27 70.7397 107.313 70.8066 107.358C70.8735 107.403 70.939 107.45 71.0031 107.497C71.0676 107.545 71.1306 107.594 71.1919 107.644C71.2533 107.695 71.313 107.746 71.3712 107.799C71.4298 107.852 71.4866 107.906 71.5416 107.961C71.597 108.017 71.6507 108.073 71.7025 108.13C71.7548 108.188 71.8053 108.246 71.8539 108.306C71.9022 108.365 71.9489 108.426 71.9941 108.487C72.0392 108.549 72.0825 108.611 72.1241 108.674C72.1657 108.738 72.2054 108.802 72.2434 108.867C72.281 108.932 72.3169 108.997 72.3509 109.064C72.385 109.13 72.417 109.197 72.4471 109.265C72.4776 109.333 72.5059 109.401 72.532 109.47C72.5581 109.539 72.5823 109.609 72.6044 109.679C72.6266 109.749 72.6468 109.819 72.665 109.89C72.6832 109.96 72.6992 110.031 72.7131 110.103C72.7269 110.175 72.7388 110.246 72.7487 110.318C72.7586 110.39 72.7665 110.462 72.7725 110.534C72.778 110.607 72.7816 110.679 72.7832 110.752C72.7847 110.824 72.7842 110.896 72.7814 110.969C72.7786 111.041 72.7739 111.114 72.7671 111.186C72.76 111.258 72.7511 111.33 72.7404 111.402C72.7293 111.473 72.7163 111.545 72.7012 111.616C72.6858 111.688 72.6686 111.759 72.6496 111.829C72.6302 111.9 72.6088 111.97 72.5854 112.04C72.5621 112.109 72.5368 112.179 72.5094 112.247C72.4821 112.316 72.4528 112.384 72.4216 112.451C72.3907 112.519 72.3576 112.585 72.3224 112.651C72.2872 112.717 72.2502 112.783 72.2114 112.847C72.1726 112.912 72.1318 112.975 72.0891 113.038C72.0467 113.101 72.0026 113.163 71.9567 113.224C71.9103 113.285 71.8624 113.344 71.813 113.404C71.7635 113.462 71.7122 113.52 71.6592 113.577C71.6062 113.634 71.5515 113.69 71.4953 113.744C71.4391 113.799 71.3815 113.852 71.3225 113.904C71.2632 113.957 71.2024 114.007 71.1403 114.057C71.0781 114.107 71.0146 114.155 70.9497 114.202C70.8847 114.249 70.8184 114.295 70.7508 114.339C70.6831 114.383 70.6142 114.426 70.5441 114.467C70.4741 114.509 70.4028 114.548 70.3304 114.587C70.2583 114.625 70.1849 114.662 70.1101 114.698C70.0357 114.733 69.9603 114.767 69.8839 114.799C69.8075 114.831 69.7301 114.862 69.6517 114.891C69.5737 114.92 69.4948 114.947 69.4148 114.973C69.3349 114.998 69.2543 115.022 69.1732 115.045C69.092 115.067 69.0103 115.088 68.9279 115.107C68.8456 115.126 68.7627 115.143 68.6792 115.158C68.596 115.174 68.5123 115.187 68.428 115.2C68.3437 115.212 68.259 115.222 68.1739 115.23C68.0892 115.239 68.0041 115.245 67.9186 115.25C67.8335 115.255 67.7482 115.259 67.6627 115.26C67.5772 115.261 67.4917 115.261 67.4062 115.259C67.3207 115.257 67.2352 115.253 67.1497 115.247C67.0646 115.241 66.9795 115.234 66.8943 115.224C66.8096 115.215 66.7251 115.204 66.6408 115.191C66.5569 115.178 66.4732 115.164 66.3897 115.148C66.3065 115.131 66.2238 115.113 66.1415 115.093C66.0591 115.074 65.9774 115.052 65.8963 115.029C65.8151 115.006 65.7348 114.981 65.6552 114.955C65.5756 114.928 65.4969 114.9 65.4189 114.87C65.3409 114.84 65.2639 114.809 65.1879 114.776C65.1115 114.743 65.0363 114.708 64.9623 114.672C64.8879 114.636 64.8148 114.598 64.7432 114.559C64.6711 114.52 64.6003 114.479 64.5306 114.437C64.461 114.395 64.3925 114.351 64.3252 114.306C64.2583 114.261 64.1926 114.215 64.1281 114.167C64.0635 114.119 64.0006 114.07 63.9393 114.02C63.8775 113.969 63.8173 113.918 63.7588 113.865C63.7002 113.812 63.6432 113.758 63.5878 113.703C63.5323 113.647 63.4785 113.591 63.4263 113.534C63.374 113.476 63.3235 113.418 63.2748 113.358C63.2262 113.298 63.1791 113.238 63.1335 113.176C63.0884 113.114 63.0451 113.052 63.0035 112.988C62.9619 112.925 62.9222 112.861 62.8842 112.796C62.8462 112.731 62.8101 112.665 62.7761 112.598C62.7417 112.532 62.7094 112.465 62.6793 112.397C62.6488 112.329 62.6205 112.26 62.5944 112.191C62.5683 112.122 62.5439 112.053 62.5214 111.983C62.4992 111.912 62.479 111.842 62.4608 111.771C62.4426 111.7 62.4266 111.629 62.4127 111.557C62.3989 111.486 62.387 111.414 62.3771 111.342C62.3672 111.27 62.3593 111.197 62.3533 111.125C62.3478 111.052 62.3442 110.98 62.3427 110.907C62.3411 110.835 62.3417 110.762 62.3444 110.69C62.3472 110.617 62.3522 110.545 62.3593 110.472C62.366 110.4 62.3749 110.328 62.386 110.256C62.3971 110.184 62.4102 110.112 62.4252 110.041C62.4406 109.969 62.458 109.898 62.4774 109.827C62.4968 109.757 62.5182 109.687 62.5416 109.617C62.5649 109.547 62.5903 109.478 62.6176 109.409C62.6453 109.34 62.6748 109.272 62.706 109.205C62.7373 109.137 62.7706 109.07 62.8058 109.004C62.841 108.938 62.8782 108.872 62.9174 108.808C62.9566 108.743 62.9976 108.68 63.0403 108.616C63.0831 108.554 63.1276 108.492 63.1739 108.431C63.2202 108.37 63.2681 108.31 63.3176 108.251C63.3675 108.192 63.4189 108.134 63.472 108.077C63.5254 108.02 63.5802 107.964 63.6364 107.91C63.693 107.855 63.751 107.802 63.8104 107.75C63.8698 107.697 63.9307 107.646 63.9933 107.597C64.0554 107.547 64.1192 107.499 64.1845 107.452C64.2498 107.405 64.3163 107.359 64.384 107.315C64.4521 107.271 64.5211 107.228 64.5912 107.187C64.6617 107.146 64.7333 107.106 64.8061 107.067C64.8786 107.029 64.9522 106.992 65.027 106.957C65.1018 106.922 65.1776 106.888 65.2544 106.856C65.3308 106.824 65.4084 106.794 65.4872 106.765C65.5655 106.736 65.6447 106.709 65.7247 106.683C65.8046 106.657 65.8854 106.634 65.9669 106.611C66.0484 106.589 66.1306 106.569 66.2133 106.55C66.2956 106.531 66.3788 106.514 66.4627 106.499C66.5462 106.484 66.6301 106.47 66.7144 106.458Z" fill="#FEFEFE"/>
<path d="M87.4907 106.709C87.5988 106.68 87.7079 106.654 87.8179 106.632C87.9283 106.609 88.0394 106.589 88.151 106.572C88.2626 106.556 88.3746 106.542 88.4871 106.532C88.5999 106.522 88.7129 106.515 88.8261 106.511C88.9397 106.507 89.0531 106.506 89.1663 106.509C89.2795 106.511 89.3925 106.517 89.5053 106.525C89.6185 106.534 89.731 106.546 89.8426 106.562C89.9546 106.577 90.0658 106.595 90.1763 106.616C90.2871 106.638 90.3967 106.662 90.5052 106.69C90.6137 106.718 90.7211 106.748 90.8276 106.782C90.9337 106.815 91.0384 106.852 91.1417 106.892C91.245 106.931 91.3468 106.974 91.4469 107.019C91.547 107.064 91.6452 107.112 91.7414 107.163C91.8376 107.214 91.9318 107.267 92.024 107.323C92.1159 107.38 92.2055 107.438 92.293 107.499C92.3805 107.56 92.4656 107.624 92.5483 107.69C92.6306 107.756 92.7106 107.824 92.7882 107.894C92.8654 107.965 92.9396 108.037 93.0108 108.112C93.0825 108.187 93.1511 108.263 93.2169 108.341C93.2822 108.42 93.3445 108.5 93.4039 108.582C93.4633 108.664 93.5193 108.748 93.5719 108.833C93.6246 108.918 93.6738 109.005 93.7198 109.093C93.7661 109.181 93.8086 109.27 93.8474 109.36C93.8866 109.45 93.922 109.541 93.9537 109.634C93.9858 109.726 94.0141 109.819 94.0386 109.914C94.0632 110.007 94.0841 110.102 94.1015 110.197C94.1186 110.292 94.132 110.387 94.1419 110.483C94.1514 110.579 94.1574 110.675 94.1597 110.771C94.1621 110.867 94.1605 110.964 94.155 111.06C94.1498 111.156 94.1409 111.252 94.1283 111.347C94.1156 111.443 94.0992 111.538 94.079 111.632C94.0588 111.727 94.0349 111.821 94.0071 111.915C93.9794 112.008 93.9484 112.1 93.9139 112.192C93.8791 112.283 93.8407 112.374 93.7987 112.463C93.7568 112.553 93.7115 112.641 93.6628 112.728C93.6141 112.815 93.562 112.9 93.5066 112.984C93.4512 113.068 93.3926 113.15 93.3309 113.231C93.2687 113.311 93.2038 113.39 93.1361 113.467C93.068 113.544 92.997 113.619 92.923 113.692C92.8493 113.765 92.7727 113.836 92.6932 113.904C92.6136 113.973 92.5317 114.039 92.4474 114.104C92.3627 114.167 92.2756 114.229 92.1861 114.288C92.0967 114.347 92.005 114.404 91.9112 114.458C91.8174 114.512 91.7216 114.563 91.6238 114.612C91.5261 114.66 91.4265 114.706 91.3252 114.749C91.2234 114.792 91.1203 114.832 91.0158 114.869C90.9113 114.906 90.8054 114.94 90.6982 114.972C90.5909 115.003 90.4826 115.031 90.3734 115.056C90.2934 115.075 90.2131 115.092 90.1323 115.106C90.0516 115.121 89.9702 115.135 89.8883 115.147C89.8068 115.158 89.725 115.168 89.6431 115.177C89.5607 115.185 89.4782 115.191 89.3955 115.196C89.3132 115.202 89.2306 115.205 89.1479 115.206C89.0652 115.208 88.9824 115.208 88.8997 115.206C88.817 115.204 88.7342 115.2 88.6515 115.195C88.5692 115.19 88.4869 115.183 88.4045 115.174C88.3226 115.166 88.2408 115.155 88.1593 115.144C88.0778 115.131 87.9964 115.118 87.9153 115.102C87.8345 115.087 87.7544 115.07 87.6748 115.051C87.5948 115.033 87.5157 115.013 87.4373 114.99C87.3585 114.969 87.2806 114.945 87.2034 114.92C87.1258 114.895 87.0492 114.868 86.9736 114.84C86.8976 114.812 86.8226 114.782 86.7485 114.751C86.6745 114.719 86.6015 114.687 86.5295 114.652C86.457 114.618 86.3858 114.582 86.3157 114.545C86.2456 114.508 86.1766 114.469 86.1085 114.429C86.0404 114.389 85.9737 114.347 85.9084 114.305C85.8427 114.262 85.7784 114.217 85.7154 114.172C85.6521 114.126 85.5903 114.079 85.5302 114.031C85.4696 113.983 85.4106 113.934 85.3532 113.884C85.2955 113.833 85.2392 113.782 85.1846 113.729C85.13 113.676 85.077 113.622 85.0255 113.567C84.9736 113.513 84.9236 113.457 84.8753 113.4C84.827 113.342 84.7803 113.284 84.7351 113.226C84.69 113.167 84.6467 113.107 84.6051 113.046C84.5635 112.986 84.5238 112.924 84.4858 112.862C84.4474 112.799 84.411 112.736 84.3765 112.672C84.3421 112.609 84.3094 112.544 84.2785 112.479C84.2477 112.414 84.2186 112.348 84.1913 112.281C84.1644 112.215 84.1392 112.148 84.1159 112.081C84.0925 112.013 84.0711 111.945 84.0517 111.877C84.0323 111.809 84.0149 111.74 83.9995 111.671C83.9841 111.602 83.9706 111.533 83.9591 111.464C83.9476 111.394 83.9381 111.324 83.9306 111.254C83.9227 111.184 83.9172 111.114 83.914 111.044C83.9104 110.974 83.9088 110.904 83.9092 110.833C83.9096 110.763 83.912 110.693 83.9164 110.623C83.9207 110.553 83.9272 110.483 83.936 110.413C83.9443 110.343 83.9548 110.273 83.9674 110.204C83.9797 110.134 83.9939 110.065 84.0102 109.996C84.0268 109.927 84.0452 109.859 84.0654 109.791C84.0856 109.723 84.1077 109.655 84.1319 109.588C84.156 109.521 84.1822 109.454 84.2103 109.388C84.2384 109.322 84.2683 109.256 84.2999 109.191C84.3316 109.127 84.365 109.062 84.4003 108.999C84.4355 108.935 84.4727 108.873 84.5119 108.81C84.5507 108.749 84.5913 108.688 84.6336 108.627C84.6764 108.567 84.7205 108.507 84.766 108.449C84.8119 108.39 84.8594 108.333 84.9085 108.276C84.9576 108.22 85.0083 108.164 85.0605 108.11C85.1128 108.055 85.1666 108.002 85.222 107.95C85.2774 107.897 85.3342 107.846 85.3924 107.797C85.4506 107.747 85.5102 107.698 85.5711 107.65C85.6325 107.603 85.6948 107.557 85.7582 107.512C85.8219 107.467 85.8868 107.423 85.9529 107.381C86.019 107.339 86.0863 107.298 86.1548 107.258C86.2233 107.219 86.2929 107.181 86.3638 107.145C86.4343 107.108 86.5059 107.073 86.5787 107.039C86.6512 107.005 86.7246 106.973 86.799 106.943C86.8738 106.912 86.9492 106.883 87.0252 106.855C87.1012 106.828 87.1782 106.802 87.2562 106.778C87.3338 106.753 87.412 106.73 87.4907 106.709Z" fill="#FEFEFE"/>
<path d="M110.578 106.465C110.66 106.465 110.741 106.467 110.823 106.471C110.904 106.475 110.986 106.48 111.068 106.488C111.149 106.495 111.23 106.503 111.31 106.514C111.391 106.524 111.471 106.536 111.551 106.55C111.632 106.564 111.712 106.579 111.791 106.596C111.87 106.613 111.948 106.632 112.026 106.652C112.105 106.672 112.182 106.694 112.259 106.717C112.336 106.74 112.413 106.765 112.488 106.791C112.563 106.818 112.638 106.845 112.712 106.875C112.786 106.904 112.859 106.935 112.931 106.968C113.004 107 113.075 107.034 113.145 107.069C113.216 107.104 113.285 107.141 113.353 107.179C113.421 107.217 113.488 107.257 113.554 107.298C113.62 107.339 113.685 107.381 113.749 107.424C113.813 107.468 113.875 107.513 113.936 107.559C113.997 107.605 114.057 107.652 114.115 107.7C114.173 107.749 114.23 107.798 114.286 107.849C114.342 107.9 114.396 107.952 114.448 108.005C114.501 108.058 114.552 108.112 114.602 108.167C114.652 108.222 114.7 108.278 114.746 108.335C114.793 108.392 114.837 108.45 114.881 108.509C114.924 108.567 114.965 108.627 115.005 108.688C115.045 108.749 115.083 108.81 115.119 108.871C115.156 108.934 115.19 108.996 115.223 109.06C115.256 109.123 115.287 109.188 115.316 109.252C115.345 109.317 115.373 109.383 115.398 109.448C115.424 109.514 115.447 109.581 115.469 109.647C115.491 109.714 115.511 109.782 115.528 109.849C115.547 109.917 115.563 109.985 115.576 110.053C115.591 110.121 115.603 110.19 115.613 110.259C115.624 110.327 115.632 110.396 115.638 110.465C115.645 110.535 115.649 110.604 115.651 110.673C115.654 110.742 115.654 110.812 115.652 110.881C115.651 110.95 115.648 111.019 115.642 111.089C115.637 111.158 115.63 111.227 115.62 111.296C115.611 111.365 115.6 111.433 115.587 111.501C115.574 111.57 115.558 111.638 115.541 111.706C115.524 111.774 115.505 111.841 115.484 111.908C115.464 111.975 115.441 112.042 115.417 112.108C115.392 112.174 115.365 112.239 115.337 112.305C115.309 112.369 115.279 112.434 115.247 112.498C115.215 112.561 115.181 112.625 115.145 112.687C115.11 112.75 115.073 112.811 115.034 112.872C114.995 112.933 114.954 112.993 114.912 113.052C114.87 113.112 114.826 113.17 114.78 113.228C114.734 113.285 114.687 113.342 114.638 113.397C114.589 113.452 114.539 113.507 114.487 113.561C114.435 113.614 114.382 113.667 114.327 113.718C114.272 113.769 114.215 113.819 114.157 113.868C114.1 113.917 114.041 113.965 113.98 114.012C113.92 114.059 113.858 114.104 113.795 114.148C113.732 114.192 113.668 114.235 113.602 114.276C113.537 114.318 113.47 114.358 113.403 114.397C113.335 114.436 113.266 114.473 113.197 114.509C113.127 114.545 113.056 114.58 112.984 114.612C112.913 114.646 112.84 114.677 112.766 114.708C112.693 114.738 112.618 114.767 112.543 114.793C112.468 114.821 112.392 114.846 112.316 114.87C112.239 114.894 112.162 114.917 112.084 114.938C112.006 114.959 111.927 114.978 111.848 114.995C111.77 115.013 111.69 115.029 111.61 115.044C111.53 115.058 111.45 115.071 111.37 115.083C111.289 115.094 111.208 115.103 111.127 115.111C111.046 115.119 110.964 115.125 110.883 115.13C110.769 115.136 110.655 115.14 110.541 115.14C110.426 115.14 110.312 115.136 110.199 115.13C110.085 115.123 109.971 115.114 109.858 115.101C109.745 115.088 109.632 115.071 109.521 115.052C109.409 115.033 109.298 115.01 109.188 114.984C109.078 114.959 108.969 114.93 108.861 114.898C108.753 114.866 108.647 114.831 108.542 114.793C108.437 114.755 108.333 114.715 108.231 114.671C108.129 114.627 108.03 114.58 107.931 114.531C107.833 114.481 107.737 114.429 107.643 114.374C107.549 114.319 107.457 114.261 107.368 114.201C107.278 114.141 107.192 114.079 107.107 114.013C107.023 113.948 106.941 113.881 106.861 113.811C106.782 113.741 106.706 113.669 106.632 113.595C106.559 113.521 106.489 113.445 106.421 113.367C106.354 113.289 106.289 113.209 106.228 113.127C106.167 113.045 106.109 112.962 106.054 112.877C106 112.792 105.949 112.705 105.901 112.617C105.853 112.529 105.809 112.44 105.768 112.349C105.727 112.259 105.69 112.167 105.657 112.075C105.623 111.982 105.593 111.889 105.567 111.794C105.541 111.7 105.519 111.605 105.5 111.509C105.481 111.414 105.467 111.318 105.455 111.221C105.445 111.125 105.438 111.028 105.434 110.931C105.43 110.835 105.431 110.738 105.435 110.641C105.44 110.544 105.448 110.447 105.46 110.351C105.471 110.255 105.487 110.159 105.506 110.064C105.526 109.968 105.549 109.873 105.576 109.779C105.603 109.685 105.634 109.592 105.668 109.499C105.702 109.407 105.74 109.316 105.781 109.225C105.823 109.135 105.868 109.046 105.917 108.958C105.965 108.87 106.017 108.784 106.072 108.7C106.128 108.615 106.186 108.532 106.248 108.45C106.31 108.369 106.375 108.289 106.443 108.212C106.512 108.134 106.583 108.058 106.657 107.985C106.731 107.911 106.808 107.84 106.888 107.77C106.968 107.701 107.05 107.634 107.135 107.569C107.22 107.505 107.308 107.443 107.398 107.383C107.487 107.323 107.58 107.267 107.674 107.212C107.769 107.158 107.865 107.106 107.964 107.057C108.063 107.008 108.163 106.962 108.265 106.919C108.367 106.876 108.471 106.836 108.576 106.798C108.681 106.761 108.788 106.727 108.896 106.696C109.005 106.665 109.114 106.637 109.224 106.611C109.334 106.587 109.446 106.565 109.558 106.546C109.67 106.527 109.782 106.512 109.895 106.5C110.009 106.488 110.122 106.478 110.236 106.472C110.35 106.467 110.464 106.464 110.578 106.465Z" fill="#FEFEFE"/>
<path d="M297.92 247.606C298.431 249.897 299.459 251.308 301.528 252.84C300.69 255.237 303.381 267.646 303.792 271.118C304.172 274.176 304.342 277.241 304.301 280.315C296.866 279.817 289.026 280.2 281.546 280.196C279.346 280.283 277.276 280.517 275.243 281.28C271.708 282.607 269.201 284.98 267.866 288.025C282.575 284.841 297.661 282.657 312.554 280.179C319.457 279.031 326.914 278.193 333.59 276.306C337.758 281.301 342.173 286.232 345.841 291.506C333.718 295.315 321.498 298.916 309.407 302.795C302.197 305.107 295.019 307.449 287.745 309.616C283.329 310.931 278.846 312.434 274.199 313.036C270.089 313.568 265.728 313.044 261.872 311.763C255.896 309.778 251.303 306.01 248.809 300.982C246.49 296.307 246.246 290.665 248.508 285.948C250.595 281.595 254.141 277.527 257.095 273.566C260.151 269.468 263.064 265.228 266.497 261.351C268.385 259.217 270.507 257.113 272.886 255.359C276.7 252.549 281.134 250.891 285.74 249.251C289.779 248.169 293.685 247.683 297.92 247.606Z" fill="#FEFEFE"/>
<path d="M297.92 247.606C298.431 249.897 299.459 251.308 301.528 252.84C300.69 255.237 303.381 267.646 303.792 271.118C304.172 274.176 304.342 277.241 304.301 280.315C296.866 279.817 289.026 280.2 281.546 280.196C282.952 276.348 282.749 271.648 283.188 267.631C283.806 261.481 284.656 255.354 285.74 249.251C289.779 248.169 293.685 247.683 297.92 247.606Z" fill="#FE8A56"/>
<path d="M301.528 252.84C303.512 253.352 305.987 253.782 307.908 252.877C309.413 252.168 310.311 250.725 310.658 249.337C310.825 248.67 310.837 247.944 310.85 247.265C322.836 247.203 334.365 250.373 343.027 257.622C346.963 260.917 350.085 265.025 353.429 268.75C357.656 273.459 362.898 278.151 365.884 283.512C366.29 284.242 366.648 284.99 366.958 285.754C367.267 286.518 367.527 287.294 367.735 288.083C367.944 288.871 368.101 289.666 368.207 290.47C368.313 291.273 368.366 292.078 368.367 292.886C368.364 298.256 366.077 303.302 361.563 307.1C356.482 311.374 350.424 312.843 343.397 312.749C336.982 312.663 330.441 310.848 324.278 309.446L305.453 305.134C319.219 300.244 333.709 296.823 347.467 291.929C345.028 288.397 342.08 285.064 339.347 281.69C336.712 278.436 334.238 274.716 330.916 271.933C331.313 273.287 331.671 274.634 332.295 275.928C326.403 276.956 320.502 277.945 314.591 278.894C311.256 279.431 307.686 280.182 304.301 280.315C304.342 277.241 304.172 274.176 303.792 271.118C303.381 267.646 300.69 255.237 301.528 252.84Z" fill="#FEFEFE"/>
<path d="M310.363 336.541C311.242 341.124 310.999 346.084 311.246 350.736C311.822 361.341 312.331 371.949 312.773 382.559C313.043 388.639 313.079 394.794 313.646 400.857C314.082 405.512 315.165 410.11 315.396 414.783C315.524 417.356 315.374 419.936 315.43 422.511C315.488 425.153 315.736 427.823 315.693 430.461C315.654 432.811 315.427 435.15 315.459 437.504C315.558 444.703 316.113 451.894 316.171 459.095L293.124 459.071L286.717 459.043C287.874 451.99 289.13 444.934 290.145 437.865C290.525 435.214 290.476 432.533 290.95 429.895C292.262 422.603 293.955 415.337 295.443 408.068C297.972 394.99 300.656 381.935 303.496 368.903L307.802 348.374C308.607 344.451 309.21 340.397 310.363 336.541Z" fill="#FEFEFE"/>
<path d="M304.139 305.606C307.908 306.966 312.211 307.664 316.182 308.56C323.725 310.264 331.26 312.025 338.897 313.399C339.346 316.292 340.287 319.111 340.671 322.024L304.342 322.099C291.815 322.113 279.287 322.072 266.76 321.975C266.937 319.354 267.506 316.735 268.079 314.158C279.023 314.459 293.636 308.855 304.139 305.606Z" fill="#FEFEFE"/>
<path d="M303.566 227.769C306.156 228.191 308.333 228.409 310.957 227.986C311.92 230.203 313.126 232.465 313.251 234.857C313.321 236.178 313.017 237.544 311.879 238.51C310.079 240.037 307.604 239.884 305.26 239.915C302.223 239.382 299.166 238.4 297.087 236.346C296.318 235.586 295.422 234.183 295.754 233.136C296.244 231.591 300.076 231.641 301.575 230.924C302.902 230.288 303.135 229.29 303.466 228.132L303.566 227.769Z" fill="#FEFEFE"/>
<path d="M308.589 242.118L309.181 242.292C309.61 244.677 310.175 248.139 308.978 250.393C308.516 251.262 307.701 251.987 306.604 252.263C304.8 252.717 302.928 252.171 301.326 251.488C299.124 249.336 299.436 245.757 299.458 243.095C303.288 243.755 305.17 243.797 308.589 242.118Z" fill="#FEFEFE"/>
<path d="M278.653 281.234C285.816 280.766 293.312 281.128 300.519 281.111C296.114 281.927 291.704 282.724 287.289 283.502C281.395 284.53 275.441 285.453 269.612 286.724C271.986 283.838 274.622 282.149 278.653 281.234Z" fill="#FEFEFE"/>
</g>
<defs>
<clipPath id="clip0_1466_7709">
<rect width="608" height="516" fill="white"/>
</clipPath>
</defs>
</svg>
