<svg width="76" height="95" viewBox="0 0 76 95" fill="none" xmlns="http://www.w3.org/2000/svg">
<g id="Frame" clip-path="url(#clip0_1879_6087)">
<g id="Group">
<path id="Vector" d="M75.1429 90.4482C75.1429 92.9272 72.9215 94.942 70.1768 94.942L5.95712 95.0083C3.7724 95.0083 1.91814 93.7398 1.24804 91.9737C1.07363 91.5177 0.981834 91.0368 0.981834 90.5311L0.880859 6.88167C0.880859 4.40261 3.1023 2.38786 5.84696 2.38786L64.816 2.32982L70.0667 2.32153C72.8113 2.32153 75.0419 4.32799 75.0419 6.80704L75.1429 90.4482Z" fill="url(#paint0_linear_1879_6087)"/>
<g id="Group_2">
<path id="Vector_2" d="M68.4879 89.9673L7.63705 90.0253C6.15915 90.0253 4.96582 88.9474 4.96582 87.6126L4.87402 9.76697C4.87402 8.43209 6.06736 7.35424 7.54525 7.35424L68.3869 7.2962C69.8648 7.2962 71.0581 8.37405 71.0581 9.70893L71.1499 87.5545C71.1591 88.8811 69.9658 89.9673 68.4879 89.9673Z" fill="white"/>
</g>
<path id="Vector_3" d="M59.9421 13.7136L15.5593 13.7633C14.0906 13.7633 12.8881 12.6855 12.8881 11.3589L12.8789 4.67623C12.8789 3.34964 14.0722 2.2635 15.541 2.2635L59.933 2.22205C61.4017 2.22205 62.6042 3.2999 62.6042 4.62648L62.6134 11.3091C62.6042 12.6357 61.4109 13.7136 59.9421 13.7136ZM15.541 3.49059C14.825 3.49059 14.2375 4.02123 14.2375 4.66793L14.2467 11.3506C14.2467 11.9973 14.8341 12.5279 15.5501 12.5279L59.9421 12.4865C60.6581 12.4865 61.2456 11.9559 61.2456 11.3091L61.2364 4.62648C61.2364 3.97977 60.649 3.44914 59.933 3.44914L15.541 3.49059Z" fill="url(#paint1_linear_1879_6087)"/>
<path id="Vector_4" d="M58.6837 5.11564L17.2383 5.1571C16.7793 5.1571 16.4121 4.82545 16.4121 4.41089V0.787659C16.4121 0.373102 16.7793 0.0414557 17.2383 0.0414557L58.6745 0C59.1335 0 59.5006 0.331646 59.5006 0.746203V4.36944C59.5098 4.78399 59.1427 5.11564 58.6837 5.11564Z" fill="url(#paint2_linear_1879_6087)"/>
<path id="Vector_5" d="M17.2754 5.15708L58.6473 5.11562C59.1247 5.11562 59.5102 4.7674 59.5102 4.33626V2.56195L16.4033 2.60341V4.37771C16.4033 4.80885 16.798 5.15708 17.2754 5.15708Z" fill="#B6D4CA"/>
</g>
<path id="Vector_6" d="M31.8157 81.2118L28.2357 61.6447L25.335 70.1597L17.0367 70.168C16.5318 70.168 16.1279 69.8032 16.1279 69.3472C16.1279 68.8912 16.5318 68.5264 17.0367 68.5264L24.0039 68.5181L28.7864 54.4977L32.3664 74.1146L37.0113 60.6415L39.4805 67.0257L45.0433 54.846L50.45 74.1643L52.4879 68.0206L58.4545 68.0123C58.9594 68.0123 59.3633 68.3771 59.3633 68.8331C59.3633 69.2892 58.9594 69.654 58.4545 69.654L53.8373 69.6623L50.3032 80.3164L44.6302 60.0528L39.3337 71.6355L37.1031 65.8732L31.8157 81.2118Z" fill="#B6D4CA"/>
<path id="Vector_7" d="M25.6651 43.4871L13.998 43.4954C12.1162 43.4954 10.574 42.1107 10.574 40.411L10.5557 25.6777C10.5557 23.978 12.0886 22.5851 13.9704 22.5851L25.6376 22.5768C27.5194 22.5768 29.0615 23.9614 29.0615 25.6611L29.0799 40.3945C29.0799 42.0942 27.5469 43.4788 25.6651 43.4871ZM13.9613 23.4805C12.621 23.4805 11.5379 24.4672 11.5379 25.6777L11.5562 40.411C11.5562 41.6216 12.6486 42.5999 13.9888 42.5999L25.6559 42.5916C26.9961 42.5916 28.0793 41.605 28.0793 40.3945L28.061 25.6611C28.061 24.4506 26.9686 23.4722 25.6284 23.4722L13.9613 23.4805Z" fill="url(#paint3_linear_1879_6087)"/>
<path id="Vector_8" d="M19.818 40.6598C25.3349 40.6515 27.0515 37.7745 27.0515 37.7745C26.8036 37.4926 26.4915 37.2439 26.0693 36.9951C24.6189 36.1411 23.4531 35.7763 22.9666 35.4115C22.4709 35.055 22.1955 34.5327 22.1955 34.5327L21.8926 34.6985C21.8926 34.6985 21.709 34.1264 21.81 33.2558C21.81 33.2558 22.2414 33.1563 22.5627 31.838C23.0768 31.9292 23.6826 30.7519 23.398 30.3207C23.2145 30.0388 22.9942 30.0637 22.8381 30.1301C22.9942 29.5414 23.701 26.283 19.8089 26.283C15.9168 26.283 16.6236 29.5414 16.7888 30.1301C16.6328 30.0637 16.4125 30.0388 16.2289 30.3207C15.9443 30.7519 16.5593 31.9292 17.0734 31.838C17.3947 33.1563 17.8353 33.2475 17.8353 33.2475C17.9454 34.1098 17.7527 34.6902 17.7527 34.6902L17.4497 34.5244C17.4497 34.5244 17.1744 35.0384 16.6787 35.4032C16.183 35.768 15.0264 36.1411 13.576 36.9951C13.1537 37.2439 12.8325 37.4926 12.5938 37.7745C12.5846 37.7911 14.3104 40.6681 19.818 40.6598Z" fill="url(#paint4_linear_1879_6087)"/>
<path id="Vector_9" d="M56.1509 27.2779L33.6887 27.3028C33.2664 27.3028 32.9268 26.996 32.9268 26.6146V26.4986C32.9268 26.1172 33.2664 25.8104 33.6887 25.8104L56.1509 25.7855C56.5731 25.7855 56.9128 26.0923 56.9128 26.4737V26.5898C56.9128 26.9712 56.5639 27.2779 56.1509 27.2779Z" fill="url(#paint5_linear_1879_6087)"/>
<path id="Vector_10" d="M47.8893 31.1415L33.6887 31.1581C33.2664 31.1581 32.9268 30.8513 32.9268 30.4699V30.3539C32.9268 29.9725 33.2664 29.6657 33.6887 29.6657L47.8893 29.6491C48.3116 29.6491 48.6512 29.9559 48.6512 30.3373V30.4534C48.6512 30.8348 48.3116 31.1415 47.8893 31.1415Z" fill="url(#paint6_linear_1879_6087)"/>
<path id="Vector_11" opacity="0.6" d="M63.898 35.7348L33.6974 35.768C33.2752 35.768 32.9355 35.4612 32.9355 35.0798V34.9638C32.9355 34.5824 33.2752 34.2756 33.6974 34.2756L63.898 34.2424C64.3202 34.2424 64.6599 34.5492 64.6599 34.9306V35.0467C64.6507 35.4281 64.311 35.7348 63.898 35.7348Z" fill="url(#paint7_linear_1879_6087)"/>
<path id="Vector_12" opacity="0.6" d="M63.2465 48.6442L12.8695 48.6939C12.4381 48.6939 12.0801 48.3789 12.0801 47.9809V47.9146C12.0801 47.5249 12.4289 47.2015 12.8695 47.2015L63.2465 47.1518C63.678 47.1518 64.036 47.4668 64.036 47.8648V47.9311C64.036 48.3291 63.678 48.6442 63.2465 48.6442Z" fill="url(#paint8_linear_1879_6087)"/>
<path id="Vector_13" opacity="0.6" d="M63.898 40.2452L33.6974 40.2784C33.2752 40.2784 32.9355 39.9716 32.9355 39.5902V39.4741C32.9355 39.0927 33.2752 38.786 33.6974 38.786L63.898 38.7528C64.3202 38.7528 64.6599 39.0596 64.6599 39.441V39.5571C64.6599 39.9384 64.3202 40.2452 63.898 40.2452Z" fill="url(#paint9_linear_1879_6087)"/>
</g>
<defs>
<linearGradient id="paint0_linear_1879_6087" x1="-9.40304" y1="34.748" x2="83.4255" y2="68.1414" gradientUnits="userSpaceOnUse">
<stop stop-color="#B6D4CA"/>
<stop offset="0.1713" stop-color="#B6D4CA"/>
<stop offset="0.4084" stop-color="#127453" stop-opacity="0.4"/>
<stop offset="0.6698" stop-color="#127453" stop-opacity="0.7"/>
<stop offset="1" stop-color="#127453"/>
</linearGradient>
<linearGradient id="paint1_linear_1879_6087" x1="-4.90349" y1="-21.375" x2="59.8538" y2="13.1518" gradientUnits="userSpaceOnUse">
<stop stop-color="#DBEAE5"/>
<stop offset="1" stop-color="#B6D4CA"/>
</linearGradient>
<linearGradient id="paint2_linear_1879_6087" x1="16.4016" y1="2.57952" x2="59.5091" y2="2.57952" gradientUnits="userSpaceOnUse">
<stop stop-color="#DBEAE5"/>
<stop offset="1" stop-color="#B6D4CA"/>
</linearGradient>
<linearGradient id="paint3_linear_1879_6087" x1="16.5299" y1="29.2075" x2="26.0195" y2="42.7703" gradientUnits="userSpaceOnUse">
<stop stop-color="#B6D4CA"/>
<stop offset="1" stop-color="#127453"/>
</linearGradient>
<linearGradient id="paint4_linear_1879_6087" x1="15.3557" y1="30.0293" x2="24.8454" y2="43.5921" gradientUnits="userSpaceOnUse">
<stop stop-color="#E7F1EE"/>
<stop offset="0.0994384" stop-color="#E7F1EE"/>
<stop offset="0.2994" stop-color="#DBEAE5"/>
<stop offset="0.5095" stop-color="#DBEAE5"/>
<stop offset="0.7344" stop-color="#B6D4CA"/>
<stop offset="1" stop-color="#B6D4CA"/>
</linearGradient>
<linearGradient id="paint5_linear_1879_6087" x1="32.928" y1="26.551" x2="56.9079" y2="26.5669" gradientUnits="userSpaceOnUse">
<stop stop-color="#B6D4CA"/>
<stop offset="1" stop-color="#127453"/>
</linearGradient>
<linearGradient id="paint6_linear_1879_6087" x1="32.9324" y1="30.4036" x2="48.6503" y2="30.4036" gradientUnits="userSpaceOnUse">
<stop stop-color="#B6D4CA"/>
<stop offset="1" stop-color="#127453"/>
</linearGradient>
<linearGradient id="paint7_linear_1879_6087" x1="32.9373" y1="35.0098" x2="64.6547" y2="35.0098" gradientUnits="userSpaceOnUse">
<stop stop-color="#B6D4CA"/>
<stop offset="1" stop-color="#127453"/>
</linearGradient>
<linearGradient id="paint8_linear_1879_6087" x1="12.0796" y1="47.9272" x2="64.0334" y2="47.9272" gradientUnits="userSpaceOnUse">
<stop stop-color="#B6D4CA"/>
<stop offset="1" stop-color="#127453"/>
</linearGradient>
<linearGradient id="paint9_linear_1879_6087" x1="32.9424" y1="39.5191" x2="64.6598" y2="39.5191" gradientUnits="userSpaceOnUse">
<stop stop-color="#B6D4CA"/>
<stop offset="1" stop-color="#10684B"/>
</linearGradient>
<clipPath id="clip0_1879_6087">
<rect width="74.2621" height="95" fill="white" transform="translate(0.880859)"/>
</clipPath>
</defs>
</svg>
