<svg width="102" height="90" viewBox="0 0 102 90" fill="none" xmlns="http://www.w3.org/2000/svg">
<g id="Frame" clip-path="url(#clip0_1879_6029)">
<g id="Group">
<path id="Vector" d="M62.2383 43.3151L52.1879 51.9802L9.74626 88.5661C8.63205 89.5289 7.2027 90.0103 5.77334 90.0103C4.20894 90.0103 2.64453 89.4367 1.5078 88.2998C-0.73189 86.0669 -0.439267 82.5743 2.13807 80.6692L52.1879 43.8272L57.7027 39.7712L62.2383 43.3151Z" fill="url(#paint0_linear_1879_6029)"/>
<path id="Vector_2" d="M51.7489 52.4206L41.856 60.9423L40.9443 52.185L46.3579 48.2007L51.7489 52.4206Z" fill="#127453" fill-opacity="0.8"/>
<path id="Vector_3" d="M101.832 29.9078C101.832 46.4288 87.1109 59.8259 68.9683 59.8259C57.5335 59.8259 47.4605 54.5101 41.5743 46.4391C38.1191 41.7071 36.1045 36.0225 36.1045 29.9078C36.1045 13.3868 50.8257 0 68.9683 0C77.1618 0 84.6462 2.72448 90.3973 7.23114C97.3978 12.7211 101.832 20.8433 101.832 29.9078Z" fill="url(#paint1_linear_1879_6029)"/>
<path id="Vector_4" d="M68.9688 53.2093C83.1098 53.2093 94.5733 42.7768 94.5733 29.9078C94.5733 17.0387 83.1098 6.60632 68.9688 6.60632C54.8278 6.60632 43.3643 17.0387 43.3643 29.9078C43.3643 42.7768 54.8278 53.2093 68.9688 53.2093Z" fill="white"/>
<path id="Vector_5" opacity="0.06" d="M101.832 29.9078C101.832 46.4288 87.1109 59.8259 68.9682 59.8259C57.5334 59.8259 47.4604 54.5101 41.5742 46.4391C78.636 43.6941 88.4051 15.1178 90.4085 7.23114C97.3977 12.7211 101.832 20.8433 101.832 29.9078Z" fill="#127453"/>
</g>
<path id="Vector_6" d="M68.9685 29.959C71.9398 29.959 74.3483 27.7672 74.3483 25.0632C74.3483 22.3592 71.9398 20.1673 68.9685 20.1673C65.9973 20.1673 63.5887 22.3592 63.5887 25.0632C63.5887 27.7672 65.986 29.959 68.9685 29.959ZM68.9685 32.407C65.3782 32.407 58.209 34.0458 58.209 37.3028V38.5319C58.209 39.2079 58.8167 39.761 59.5596 39.761H78.4C79.1428 39.761 79.7505 39.2079 79.7505 38.5319V37.3028C79.728 34.056 72.5588 32.407 68.9685 32.407Z" fill="url(#paint2_linear_1879_6029)"/>
</g>
<defs>
<linearGradient id="paint0_linear_1879_6029" x1="6.28239" y1="84.3265" x2="54.7874" y2="35.8728" gradientUnits="userSpaceOnUse">
<stop stop-color="#B6D4CA"/>
<stop offset="1" stop-color="#127453"/>
</linearGradient>
<linearGradient id="paint1_linear_1879_6029" x1="55.3756" y1="2.11336" x2="76.5907" y2="54.5199" gradientUnits="userSpaceOnUse">
<stop stop-color="#B6D4CA"/>
<stop offset="1" stop-color="#127453"/>
</linearGradient>
<linearGradient id="paint2_linear_1879_6029" x1="61.1898" y1="28.3947" x2="79.9287" y2="38.4376" gradientUnits="userSpaceOnUse">
<stop stop-color="white"/>
<stop offset="0.071077" stop-color="#E7F1EE"/>
<stop offset="0.2937" stop-color="#E7F1EE"/>
<stop offset="0.5209" stop-color="#DBEAE5"/>
<stop offset="0.7536" stop-color="#B6D4CA"/>
<stop offset="1" stop-color="#B6D4CA"/>
</linearGradient>
<clipPath id="clip0_1879_6029">
<rect width="101.833" height="90" fill="white"/>
</clipPath>
</defs>
</svg>
