<svg width="75" height="95" viewBox="0 0 75 95" fill="none" xmlns="http://www.w3.org/2000/svg">
<g id="Frame" clip-path="url(#clip0_1879_6070)">
<path id="Vector" d="M71.9307 0H2.57932C1.15301 0 0 1.02822 0 2.30017V92.7074C0 93.9794 1.15301 95.0076 2.57932 95.0076H71.9307C73.357 95.0076 74.51 93.9794 74.51 92.7074V2.30017C74.5015 1.02822 73.3485 0 71.9307 0Z" fill="url(#paint0_linear_1879_6070)"/>
<path id="Vector_2" d="M67.3787 4.09766H7.1233C5.73969 4.09766 4.6123 5.10303 4.6123 6.34451V81.0923C4.6123 82.3338 5.73969 83.3316 7.1233 83.3316H67.3787C68.7709 83.3316 69.8897 82.3262 69.8897 81.0923V6.34451C69.8897 5.10303 68.7709 4.09766 67.3787 4.09766Z" fill="white"/>
<g id="Group">
<path id="Vector_3" d="M49.5704 39.636H24.9387C23.8113 39.636 22.8975 38.8211 22.8975 37.8157V15.8422C22.8975 14.8369 23.8113 14.0219 24.9387 14.0219H49.5704C50.6978 14.0219 51.6117 14.8369 51.6117 15.8422V37.8081C51.6117 38.8135 50.6978 39.636 49.5704 39.636Z" fill="url(#paint1_linear_1879_6070)"/>
</g>
<g id="Group_2">
<path id="Vector_4" d="M37.255 92.5475C39.3493 92.5475 41.0471 91.0335 41.0471 89.1658C41.0471 87.2981 39.3493 85.7841 37.255 85.7841C35.1607 85.7841 33.4629 87.2981 33.4629 89.1658C33.4629 91.0335 35.1607 92.5475 37.255 92.5475Z" fill="white"/>
</g>
<path id="Vector_5" d="M58.7181 51.015H15.7835C14.6988 51.015 13.8105 50.2229 13.8105 49.2556C13.8105 48.2883 14.6988 47.4962 15.7835 47.4962H58.7096C59.7943 47.4962 60.6825 48.2883 60.6825 49.2556C60.6825 50.2229 59.8028 51.015 58.7181 51.015Z" fill="url(#paint2_linear_1879_6070)"/>
<path id="Vector_6" opacity="0.6" d="M51.4502 60.764H15.0663C14.3745 60.764 13.8193 60.2613 13.8193 59.652V59.5302C13.8193 58.9132 14.383 58.4182 15.0663 58.4182H51.4502C52.142 58.4182 52.6971 58.9208 52.6971 59.5302V59.652C52.7057 60.2613 52.142 60.764 51.4502 60.764Z" fill="url(#paint3_linear_1879_6070)"/>
<path id="Vector_7" opacity="0.3" d="M44.5233 66.9562H14.9465C14.323 66.9562 13.8105 66.4992 13.8105 65.9432V65.6081C13.8105 65.0521 14.323 64.5951 14.9465 64.5951H44.5148C45.1382 64.5951 45.6507 65.0521 45.6507 65.6081V65.9432C45.6507 66.4992 45.1382 66.9562 44.5233 66.9562Z" fill="url(#paint4_linear_1879_6070)"/>
<path id="Vector_8" opacity="0.6" d="M48.2474 72.6914H15.015C14.3574 72.6914 13.8193 72.2116 13.8193 71.6251V71.4119C13.8193 70.8254 14.3574 70.3456 15.015 70.3456H48.2474C48.905 70.3456 49.4431 70.8254 49.4431 71.4119V71.6251C49.4431 72.204 48.905 72.6914 48.2474 72.6914Z" fill="url(#paint5_linear_1879_6070)"/>
<path id="Vector_9" d="M37.3293 26.1208C39.7955 26.1208 41.7947 24.3141 41.7947 22.0854C41.7947 19.8566 39.7955 18.05 37.3293 18.05C34.863 18.05 32.8639 19.8566 32.8639 22.0854C32.8639 24.3141 34.8537 26.1208 37.3293 26.1208ZM37.3293 28.1385C34.3492 28.1385 28.3984 29.4892 28.3984 32.1739V33.1869C28.3984 33.7441 28.9029 34.2 29.5195 34.2H45.1578C45.7743 34.2 46.2788 33.7441 46.2788 33.1869V32.1739C46.2601 29.4977 40.3093 28.1385 37.3293 28.1385Z" fill="white"/>
</g>
<defs>
<linearGradient id="paint0_linear_1879_6070" x1="4.5138" y1="45.0301" x2="74.4448" y2="51.6674" gradientUnits="userSpaceOnUse">
<stop stop-color="#B6D4CA"/>
<stop offset="1" stop-color="#127453"/>
</linearGradient>
<linearGradient id="paint1_linear_1879_6070" x1="20.6708" y1="19.2924" x2="52.1624" y2="37.2856" gradientUnits="userSpaceOnUse">
<stop stop-color="#E7F1EE"/>
<stop offset="0.0856277" stop-color="#E7F1EE"/>
<stop offset="0.2972" stop-color="#DBEAE5"/>
<stop offset="0.5161" stop-color="#B6D4CA"/>
<stop offset="0.7451" stop-color="#B6D4CA"/>
<stop offset="1" stop-color="#B6D4CA"/>
</linearGradient>
<linearGradient id="paint2_linear_1879_6070" x1="60.6867" y1="49.257" x2="13.8186" y2="49.257" gradientUnits="userSpaceOnUse">
<stop stop-color="#B6D4CA"/>
<stop offset="1" stop-color="#127453"/>
</linearGradient>
<linearGradient id="paint3_linear_1879_6070" x1="52.7032" y1="59.5877" x2="13.8188" y2="59.5877" gradientUnits="userSpaceOnUse">
<stop stop-color="#DBEAE5"/>
<stop offset="1" stop-color="#127453"/>
</linearGradient>
<linearGradient id="paint4_linear_1879_6070" x1="45.6516" y1="65.7799" x2="13.8186" y2="65.7799" gradientUnits="userSpaceOnUse">
<stop stop-color="#B6D4CA"/>
<stop offset="1" stop-color="#127453"/>
</linearGradient>
<linearGradient id="paint5_linear_1879_6070" x1="49.4424" y1="71.5124" x2="13.8188" y2="71.5124" gradientUnits="userSpaceOnUse">
<stop stop-color="#DBEAE5"/>
<stop offset="1" stop-color="#127453"/>
</linearGradient>
<clipPath id="clip0_1879_6070">
<rect width="74.5015" height="95" fill="white"/>
</clipPath>
</defs>
</svg>
