<svg width="74" height="78" viewBox="0 0 74 78" fill="none" xmlns="http://www.w3.org/2000/svg">
<g id="Group">
<path id="Vector" fill-rule="evenodd" clip-rule="evenodd" d="M44.7957 2.37934C42.788 5.14252 41.5704 8.40016 41.2737 11.8028C40.9769 15.2054 41.612 18.6247 43.111 21.6937C44.61 24.7628 46.9162 27.3658 49.7823 29.2237C52.6484 31.0815 55.9662 32.124 59.3799 32.2393V32.2787C59.4336 32.9882 59.4874 33.7156 59.559 34.4179C60.4083 42.4697 62.3433 47.9988 64.203 51.6287C65.4393 54.0475 66.654 55.6528 67.514 56.6239C67.8915 57.0521 68.2986 57.4532 68.7324 57.8243L68.7682 57.8458C69.228 58.1795 69.5702 58.6503 69.7457 59.1906C69.9213 59.731 69.921 60.313 69.7451 60.8532C69.5691 61.3934 69.2265 61.864 68.7664 62.1973C68.3064 62.5306 67.7525 62.7095 67.1844 62.7084H2.68433C2.11745 62.7077 1.5653 62.5278 1.10684 62.1944C0.648378 61.861 0.307084 61.3912 0.131762 60.8521C-0.0435592 60.313 -0.043929 59.7323 0.130706 59.193C0.305342 58.6537 0.646038 58.1834 1.10408 57.8494L1.13274 57.8243L1.36208 57.6308C1.57708 57.4373 1.92466 57.1112 2.35466 56.6239C3.21466 55.6564 4.42941 54.051 5.66566 51.6323C8.13816 46.7984 10.7468 38.6284 10.7468 25.6209C10.7468 18.8806 13.2552 12.384 17.7702 7.56801C22.2923 2.74484 28.4628 0 34.9343 0C36.3056 0 37.6589 0.120639 38.9943 0.361917C39.8471 0.516 42.6421 1.38675 44.7957 2.37934Z" fill="url(#paint0_linear_1879_6039)"/>
<path id="Vector_2" fill-rule="evenodd" clip-rule="evenodd" d="M46.5802 13.4375C46.5802 9.87365 47.9959 6.45577 50.5159 3.93575C53.036 1.41573 56.4538 0 60.0177 0C63.5815 0 66.9994 1.41573 69.5194 3.93575C72.0395 6.45577 73.4552 9.87365 73.4552 13.4375C73.4552 17.0013 72.0395 20.4192 69.5194 22.9392C66.9994 25.4593 63.5815 26.875 60.0177 26.875C56.4538 26.875 53.036 25.4593 50.5159 22.9392C47.9959 20.4192 46.5802 17.0013 46.5802 13.4375ZM27.3879 68.4453C27.6933 68.2683 28.0305 68.1532 28.3804 68.1066C28.7303 68.06 29.0859 68.0828 29.427 68.1736C29.768 68.2645 30.0879 68.4216 30.3682 68.636C30.6485 68.8505 30.8839 69.1181 31.0608 69.4235C31.4546 70.1019 32.0197 70.6649 32.6995 71.0562C33.3793 71.4476 34.15 71.6536 34.9344 71.6536C35.7188 71.6536 36.4894 71.4476 37.1692 71.0562C37.849 70.6649 38.4141 70.1019 38.8079 69.4235C38.9851 69.1181 39.2207 68.8506 39.5013 68.6362C39.7818 68.4219 40.1018 68.2649 40.4431 68.1742C40.7843 68.0835 41.14 68.061 41.49 68.1078C41.84 68.1546 42.1773 68.2699 42.4827 68.447C42.7881 68.6242 43.0556 68.8598 43.2699 69.1404C43.4843 69.4209 43.6413 69.7409 43.7319 70.0822C43.8226 70.4234 43.8452 70.7791 43.7984 71.1291C43.7516 71.479 43.6363 71.8164 43.4591 72.1218C42.593 73.6155 41.3496 74.8554 39.8535 75.7173C38.3574 76.5792 36.661 77.0329 34.9344 77.0329C33.2077 77.0329 31.5114 76.5792 30.0153 75.7173C28.5191 74.8554 27.2757 73.6155 26.4096 72.1218C26.2321 71.8162 26.1166 71.4786 26.0697 71.1284C26.0228 70.7782 26.0454 70.4221 26.1363 70.0806C26.2271 69.7391 26.3844 69.4189 26.5992 69.1383C26.814 68.8577 27.082 68.6222 27.3879 68.4453Z" fill="url(#paint1_linear_1879_6039)"/>
</g>
<defs>
<linearGradient id="paint0_linear_1879_6039" x1="12" y1="36.5" x2="59" y2="36.5" gradientUnits="userSpaceOnUse">
<stop stop-color="#30735C"/>
<stop offset="0.5" stop-color="#3B866D"/>
<stop offset="0.75" stop-color="#3A8D71"/>
<stop offset="1" stop-color="#519D84"/>
</linearGradient>
<linearGradient id="paint1_linear_1879_6039" x1="73" y1="12.5" x2="45.5" y2="13.5" gradientUnits="userSpaceOnUse">
<stop stop-color="#127453"/>
<stop offset="1" stop-color="#B6D4CA"/>
</linearGradient>
</defs>
</svg>
