<svg width="77" height="95" viewBox="0 0 77 95" fill="none" xmlns="http://www.w3.org/2000/svg">
<g id="Frame" clip-path="url(#clip0_1879_6047)">
<g id="Group">
<path id="Vector" d="M76.9319 4.31029V90.7055C76.9319 93.0896 74.7993 95.0158 72.1598 95.0158H4.84339C2.20388 95 0.0712891 93.0738 0.0712891 90.7055V4.31029C0.0712891 1.92621 2.20388 0 4.84339 0H72.1773C74.7993 0 76.9319 1.92621 76.9319 4.31029Z" fill="url(#paint0_linear_1879_6047)"/>
<path id="Vector_2" d="M72.0357 7.94666V87.0533C72.0357 89.2363 70.1618 91 67.8426 91H8.69314C6.37386 90.9855 4.5 89.2218 4.5 87.0533V7.94666C4.5 5.76371 6.37386 4 8.69314 4H67.8579C70.1618 4 72.0357 5.76371 72.0357 7.94666Z" fill="url(#paint1_linear_1879_6047)"/>
<g id="Group_2">
<g id="Group_3">
<g id="Group_4">
<path id="Vector_3" d="M29.823 18.2516V22.183C29.823 22.4672 29.5783 22.6882 29.2636 22.6882H23.9322C23.6175 22.6882 23.3728 22.9093 23.3728 23.1935V28.009C23.3728 28.2932 23.1281 28.5142 22.8134 28.5142H18.4608C18.1462 28.5142 17.9015 28.2932 17.9015 28.009V23.1935C17.9015 22.9093 17.6568 22.6882 17.3421 22.6882H12.0281C11.7135 22.6882 11.4688 22.4672 11.4688 22.183V18.2516C11.4688 17.9674 11.7135 17.7464 12.0281 17.7464H17.3596C17.6742 17.7464 17.919 17.5254 17.919 17.2412V12.4256C17.919 12.1415 18.1637 11.9204 18.4783 11.9204H22.8309C23.1455 11.9204 23.3903 12.1415 23.3903 12.4256V17.2412C23.3903 17.5254 23.635 17.7464 23.9496 17.7464H29.2636C29.5783 17.7464 29.823 17.9674 29.823 18.2516Z" fill="url(#paint2_linear_1879_6047)"/>
</g>
</g>
<path id="Vector_4" opacity="0.5" d="M64.9232 39.6768H12.0805C11.7309 39.6768 11.4512 39.4242 11.4512 39.1084V37.2927C11.4512 36.9769 11.7309 36.7243 12.0805 36.7243H64.9232C65.2728 36.7243 65.5525 36.9769 65.5525 37.2927V39.1084C65.535 39.4242 65.2728 39.6768 64.9232 39.6768Z" fill="url(#paint3_linear_1879_6047)"/>
<path id="Vector_5" d="M64.9229 17.0517H38.7025C38.3529 17.0517 38.0732 16.7991 38.0732 16.4833V14.6834C38.0732 14.3677 38.3529 14.1151 38.7025 14.1151H64.9229C65.2725 14.1151 65.5522 14.3677 65.5522 14.6834V16.4991C65.5347 16.7991 65.2725 17.0517 64.9229 17.0517Z" fill="url(#paint4_linear_1879_6047)"/>
<path id="Vector_6" opacity="0.5" d="M57.1617 24.725H38.7025C38.3529 24.725 38.0732 24.4724 38.0732 24.1566V22.3409C38.0732 22.0251 38.3529 21.7725 38.7025 21.7725H57.1617C57.5113 21.7725 57.7909 22.0251 57.7909 22.3409V24.1566C57.7735 24.4724 57.5113 24.725 57.1617 24.725Z" fill="url(#paint5_linear_1879_6047)"/>
<path id="Vector_7" opacity="0.5" d="M64.9232 48.2973H12.0805C11.7309 48.2973 11.4512 48.0447 11.4512 47.7289V45.9132C11.4512 45.5975 11.7309 45.3448 12.0805 45.3448H64.9232C65.2728 45.3448 65.5525 45.5975 65.5525 45.9132V47.7289C65.535 48.0447 65.2728 48.2973 64.9232 48.2973Z" fill="url(#paint6_linear_1879_6047)"/>
<path id="Vector_8" opacity="0.5" d="M64.9232 56.9179H12.0805C11.7309 56.9179 11.4512 56.6653 11.4512 56.3495V54.5338C11.4512 54.2181 11.7309 53.9655 12.0805 53.9655H64.9232C65.2728 53.9655 65.5525 54.2181 65.5525 54.5338V56.3653C65.535 56.6653 65.2728 56.9179 64.9232 56.9179Z" fill="url(#paint7_linear_1879_6047)"/>
<path id="Vector_9" opacity="0.5" d="M64.9232 65.5543H12.0805C11.7309 65.5543 11.4512 65.3017 11.4512 64.9859V63.1702C11.4512 62.8544 11.7309 62.6018 12.0805 62.6018H64.9232C65.2728 62.6018 65.5525 62.8544 65.5525 63.1702V64.9859C65.535 65.3017 65.2728 65.5543 64.9232 65.5543Z" fill="url(#paint8_linear_1879_6047)"/>
<path id="Vector_10" opacity="0.5" d="M64.9232 74.1749H12.0805C11.7309 74.1749 11.4512 73.9223 11.4512 73.6065V71.7908C11.4512 71.475 11.7309 71.2224 12.0805 71.2224H64.9232C65.2728 71.2224 65.5525 71.475 65.5525 71.7908V73.6065C65.535 73.9223 65.2728 74.1749 64.9232 74.1749Z" fill="url(#paint9_linear_1879_6047)"/>
<path id="Vector_11" opacity="0.5" d="M64.9232 82.7954H12.0805C11.7309 82.7954 11.4512 82.5428 11.4512 82.227V80.4113C11.4512 80.0956 11.7309 79.843 12.0805 79.843H64.9232C65.2728 79.843 65.5525 80.0956 65.5525 80.4113V82.227C65.535 82.5428 65.2728 82.7954 64.9232 82.7954Z" fill="url(#paint10_linear_1879_6047)"/>
</g>
<path id="Vector_12" opacity="0.1" d="M76.9319 4.31029V90.7055C76.9319 93.0896 74.7993 95.0158 72.1598 95.0158H4.84339C2.20388 95 0.0712891 93.0738 0.0712891 90.7055V89.2056C41.1324 73.8906 60.2557 15.1571 64.5734 0H72.1598C74.7993 0 76.9319 1.92621 76.9319 4.31029Z" fill="#127453" fill-opacity="0.5"/>
</g>
</g>
<defs>
<linearGradient id="paint0_linear_1879_6047" x1="105.25" y1="126" x2="7.33251" y2="-15.1457" gradientUnits="userSpaceOnUse">
<stop offset="0.3061" stop-color="#127453"/>
<stop offset="1" stop-color="#B6D4CA"/>
</linearGradient>
<linearGradient id="paint1_linear_1879_6047" x1="9.61954" y1="7.04564" x2="57.0024" y2="82.5587" gradientUnits="userSpaceOnUse">
<stop offset="0.3061" stop-color="white"/>
<stop offset="1" stop-color="white"/>
</linearGradient>
<linearGradient id="paint2_linear_1879_6047" x1="11.1431" y1="9.50003" x2="25.4078" y2="35.2954" gradientUnits="userSpaceOnUse">
<stop stop-color="#DBEAE5"/>
<stop offset="0.368525" stop-color="#DBEAE5"/>
<stop offset="1" stop-color="#127453"/>
</linearGradient>
<linearGradient id="paint3_linear_1879_6047" x1="11.4647" y1="38.2072" x2="65.543" y2="38.2072" gradientUnits="userSpaceOnUse">
<stop stop-color="#B6D4CA"/>
<stop offset="1" stop-color="#10684B"/>
</linearGradient>
<linearGradient id="paint4_linear_1879_6047" x1="38.0737" y1="15.5845" x2="65.5427" y2="15.5845" gradientUnits="userSpaceOnUse">
<stop stop-color="#B6D4CA"/>
<stop offset="1" stop-color="#127453"/>
</linearGradient>
<linearGradient id="paint5_linear_1879_6047" x1="38.0737" y1="23.2616" x2="57.7817" y2="23.2616" gradientUnits="userSpaceOnUse">
<stop stop-color="#B6D4CA"/>
<stop offset="1" stop-color="#10684B"/>
</linearGradient>
<linearGradient id="paint6_linear_1879_6047" x1="11.4647" y1="46.8317" x2="65.543" y2="46.8317" gradientUnits="userSpaceOnUse">
<stop stop-color="#B6D4CA"/>
<stop offset="1" stop-color="#10684B"/>
</linearGradient>
<linearGradient id="paint7_linear_1879_6047" x1="11.4647" y1="55.4562" x2="65.543" y2="55.4562" gradientUnits="userSpaceOnUse">
<stop stop-color="#B6D4CA"/>
<stop offset="1" stop-color="#10684B"/>
</linearGradient>
<linearGradient id="paint8_linear_1879_6047" x1="11.4647" y1="64.0807" x2="65.543" y2="64.0807" gradientUnits="userSpaceOnUse">
<stop stop-color="#127453"/>
<stop offset="1" stop-color="#0E5D42"/>
</linearGradient>
<linearGradient id="paint9_linear_1879_6047" x1="11.4647" y1="72.7052" x2="65.543" y2="72.7052" gradientUnits="userSpaceOnUse">
<stop stop-color="#B6D4CA"/>
<stop offset="1" stop-color="#127453"/>
</linearGradient>
<linearGradient id="paint10_linear_1879_6047" x1="11.4647" y1="81.3296" x2="65.543" y2="81.3296" gradientUnits="userSpaceOnUse">
<stop stop-color="#B6D4CA"/>
<stop offset="1" stop-color="#127453"/>
</linearGradient>
<clipPath id="clip0_1879_6047">
<rect width="76.8606" height="95" fill="white" transform="translate(0.0712891)"/>
</clipPath>
</defs>
</svg>
