<svg width="24" height="25" viewBox="0 0 24 25" fill="none" xmlns="http://www.w3.org/2000/svg">
<g id="carbon:send-filled">
<path id="Vector" d="M20.6134 11.8292L4.11341 3.57921C3.98409 3.51453 3.83883 3.48862 3.69512 3.50459C3.55141 3.52056 3.41539 3.57772 3.30341 3.66921C3.19648 3.75883 3.11667 3.8765 3.07295 4.00899C3.02922 4.14148 3.02333 4.28355 3.05591 4.41921L5.04341 11.7467H13.5259V13.2467H5.04341L3.02591 20.5517C2.99533 20.665 2.99176 20.7839 3.01549 20.8988C3.03922 21.0137 3.08958 21.1215 3.16253 21.2134C3.23548 21.3053 3.32898 21.3788 3.43551 21.428C3.54205 21.4772 3.65864 21.5008 3.77591 21.4967C3.89332 21.496 4.00892 21.4677 4.11341 21.4142L20.6134 13.1642C20.7363 13.1013 20.8394 13.0056 20.9114 12.8879C20.9834 12.7701 21.0214 12.6347 21.0214 12.4967C21.0214 12.3587 20.9834 12.2233 20.9114 12.1055C20.8394 11.9878 20.7363 11.8921 20.6134 11.8292Z" fill="white"/>
</g>
</svg>
