<svg width="18" height="18" viewBox="0 0 18 18" fill="none" xmlns="http://www.w3.org/2000/svg">
<g id="cib:gmail">
<path id="Vector" d="M18 3.37503V14.625C18 15.2635 17.5134 15.75 16.875 15.75H15.75V5.54009L9 10.3888L2.25 5.54009V15.75H1.125C0.486562 15.75 0 15.2635 0 14.625V3.37503C0 3.05553 0.120375 2.77428 0.322313 2.57516C0.427427 2.46985 0.552672 2.38679 0.690579 2.33093C0.828486 2.27507 0.97623 2.24756 1.125 2.25003H1.50019L9 7.68772L16.4998 2.25003H16.875C17.1945 2.25003 17.4757 2.37041 17.6777 2.57516C17.8796 2.77428 18 3.05553 18 3.37503Z" fill="#9CA3AF"/>
</g>
</svg>
