<svg width="15" height="15" viewBox="0 0 15 15" fill="none" xmlns="http://www.w3.org/2000/svg">
<path id="Vector" d="M2.7252 1.36407C2.48409 1.12295 2.15706 0.98749 1.81607 0.98749C1.47507 0.98749 1.14805 1.12295 0.90693 1.36407C0.665811 1.60518 0.530353 1.93221 0.530353 2.2732C0.530353 2.6142 0.665812 2.94122 0.90693 3.18234L5.45262 7.72803L0.90693 12.2737C0.665812 12.5148 0.530353 12.8419 0.530353 13.1829C0.530353 13.5238 0.665811 13.8509 0.90693 14.092C1.14805 14.3331 1.47507 14.4686 1.81607 14.4686C2.15706 14.4686 2.48409 14.3331 2.7252 14.092L7.27089 9.5463L11.8166 14.092C12.0577 14.3331 12.3847 14.4686 12.7257 14.4686C13.0667 14.4686 13.3937 14.3331 13.6349 14.092C13.876 13.8509 14.0114 13.5238 14.0114 13.1829C14.0114 12.8419 13.876 12.5148 13.6349 12.2737L9.08916 7.72803L13.6349 3.18234C13.876 2.94122 14.0114 2.6142 14.0114 2.2732C14.0114 1.93221 13.876 1.60518 13.6349 1.36407C13.3937 1.12295 13.0667 0.987489 12.7257 0.987489C12.3847 0.987489 12.0577 1.12295 11.8166 1.36407L7.27089 5.90975L2.7252 1.36407Z" fill="#231419" fill-opacity="0.6"/>
</svg>
