<svg width="39" height="38" viewBox="0 0 39 38" fill="none" xmlns="http://www.w3.org/2000/svg">
<g id="delete">
<path id="Vector" fill-rule="evenodd" clip-rule="evenodd" d="M15.024 12.4L15.836 26.048C15.8482 26.2514 15.9376 26.4425 16.0859 26.5822C16.2342 26.722 16.4302 26.7999 16.634 26.8H23.866C24.0698 26.7999 24.2658 26.722 24.4141 26.5822C24.5624 26.4425 24.6518 26.2514 24.664 26.048L25.476 12.4H15.024ZM26.679 12.4L25.862 26.119C25.8317 26.6278 25.6082 27.1059 25.2372 27.4555C24.8662 27.8051 24.3758 27.9999 23.866 28H16.634C16.1242 27.9999 15.6338 27.8051 15.2628 27.4555C14.8918 27.1059 14.6683 26.6278 14.638 26.119L13.821 12.4H11.75V11.7C11.75 11.5674 11.8027 11.4402 11.8964 11.3464C11.9902 11.2527 12.1174 11.2 12.25 11.2H28.25C28.3826 11.2 28.5098 11.2527 28.6036 11.3464C28.6973 11.4402 28.75 11.5674 28.75 11.7V12.4H26.679ZM22.25 9C22.3826 9 22.5098 9.05268 22.6036 9.14645C22.6973 9.24021 22.75 9.36739 22.75 9.5V10.2H17.75V9.5C17.75 9.36739 17.8027 9.24021 17.8964 9.14645C17.9902 9.05268 18.1174 9 18.25 9H22.25ZM17.75 15H18.95L19.45 24H18.25L17.75 15ZM21.55 15H22.75L22.25 24H21.05L21.55 15Z" fill="#B4231B"/>
</g>
</svg>
