<svg width="25" height="20" viewBox="0 0 25 20" fill="none" xmlns="http://www.w3.org/2000/svg">
<g id="fa6-solid:children" clip-path="url(#clip0_1128_1331)">
<path id="Vector" d="M6.25125 0C6.91429 0 7.55018 0.263392 8.01902 0.732233C8.48786 1.20107 8.75125 1.83696 8.75125 2.5C8.75125 3.16304 8.48786 3.79893 8.01902 4.26777C7.55018 4.73661 6.91429 5 6.25125 5C5.58821 5 4.95232 4.73661 4.48348 4.26777C4.01464 3.79893 3.75125 3.16304 3.75125 2.5C3.75125 1.83696 4.01464 1.20107 4.48348 0.732233C4.95232 0.263392 5.58821 0 6.25125 0ZM3.43875 18.75V15.625H2.74344C2.31766 15.625 2.01688 15.207 2.14969 14.8008L3.36453 11.1523L2.24734 12.6289C1.82938 13.1797 1.04422 13.2852 0.497345 12.8711C-0.0495302 12.457 -0.158905 11.6719 0.255157 11.1211L2.55594 8.08594C3.43094 6.92969 4.80203 6.25 6.25125 6.25C7.70047 6.25 9.07156 6.92969 9.94656 8.08594L12.2473 11.1211C12.6653 11.6719 12.5559 12.457 12.0052 12.8711C11.4544 13.2852 10.6692 13.1797 10.2552 12.6289L9.13797 11.1523L10.3528 14.8008C10.4895 15.207 10.1848 15.625 9.75906 15.625H9.06375V18.75C9.06375 19.4414 8.50516 20 7.81375 20C7.12234 20 6.56375 19.4414 6.56375 18.75V15.625H5.93875V18.75C5.93875 19.4414 5.38016 20 4.68875 20C3.99734 20 3.43875 19.4414 3.43875 18.75ZM18.7512 0C19.4143 0 20.0502 0.263392 20.519 0.732233C20.9879 1.20107 21.2512 1.83696 21.2512 2.5C21.2512 3.16304 20.9879 3.79893 20.519 4.26777C20.0502 4.73661 19.4143 5 18.7512 5C18.0882 5 17.4523 4.73661 16.9835 4.26777C16.5146 3.79893 16.2512 3.16304 16.2512 2.5C16.2512 1.83696 16.5146 1.20107 16.9835 0.732233C17.4523 0.263392 18.0882 0 18.7512 0ZM18.4387 15V18.75C18.4387 19.4414 17.8802 20 17.1887 20C16.4973 20 15.9388 19.4414 15.9388 18.75V11.7383L15.4348 12.5391C15.0677 13.125 14.2942 13.2969 13.7122 12.9297C13.1302 12.5625 12.9544 11.7891 13.3216 11.207L15.3411 8C16.0286 6.91016 17.2278 6.24609 18.513 6.24609H18.9934C20.2825 6.24609 21.4817 6.90625 22.1653 8L24.1848 11.2109C24.552 11.7969 24.3762 12.5664 23.7942 12.9336C23.2122 13.3008 22.4387 13.125 22.0716 12.543L21.5637 11.7383V18.75C21.5637 19.4414 21.0052 20 20.3137 20C19.6223 20 19.0637 19.4414 19.0637 18.75V15H18.4387Z" fill="white"/>
</g>
<defs>
<clipPath id="clip0_1128_1331">
<rect width="25" height="20" fill="white"/>
</clipPath>
</defs>
</svg>
