<svg width="18" height="18" viewBox="0 0 18 18" fill="none" xmlns="http://www.w3.org/2000/svg">
<g id="fluent:call-28-filled">
<path id="Vector" d="M5.04614 1.73757L6.29135 1.36214C6.70231 1.23844 7.14424 1.26845 7.5347 1.44659C7.92517 1.62473 8.23749 1.93882 8.41342 2.33029L9.28642 4.27171C9.43794 4.60852 9.48017 4.98433 9.40719 5.34636C9.3342 5.7084 9.14967 6.03849 8.87949 6.29029L7.55071 7.52843C7.37264 7.6975 7.50764 8.35643 8.15821 9.484C8.80942 10.6122 9.31278 11.0584 9.54485 10.9889L11.2857 10.4566C11.6386 10.3487 12.0164 10.3539 12.3662 10.4715C12.7159 10.5891 13.0201 10.8132 13.2361 11.1124L14.4768 12.832C14.7275 13.1793 14.8435 13.6057 14.8034 14.032C14.7633 14.4584 14.5698 14.8557 14.2589 15.1501L13.2998 16.0585C12.9901 16.3517 12.6083 16.5576 12.1931 16.655C11.778 16.7525 11.3444 16.7381 10.9366 16.6133C8.92706 15.9981 7.06599 14.1724 5.32835 11.1619C3.58685 8.14686 2.92921 5.60371 3.38756 3.526C3.48001 3.10734 3.68244 2.72091 3.97398 2.40655C4.26551 2.09218 4.63562 1.86125 5.04614 1.73757Z" fill="#9CA3AF"/>
</g>
</svg>
