<svg width="24" height="24" viewBox="0 0 24 24" fill="none" xmlns="http://www.w3.org/2000/svg">
<g id="fluent:arrow-enter-20-filled">
<path id="Vector" d="M14.7008 21C14.9395 21 15.1684 20.9052 15.3372 20.7364C15.506 20.5676 15.6008 20.3387 15.6008 20.1C15.6008 19.8613 15.506 19.6324 15.3372 19.4636C15.1684 19.2948 14.9395 19.2 14.7008 19.2H7.20078C6.56426 19.2 5.95381 18.9471 5.50373 18.4971C5.05364 18.047 4.80078 17.4365 4.80078 16.8V7.2C4.80078 6.56348 5.05364 5.95303 5.50373 5.50294C5.95381 5.05286 6.56426 4.8 7.20078 4.8H14.7008C14.9395 4.8 15.1684 4.70518 15.3372 4.5364C15.506 4.36761 15.6008 4.13869 15.6008 3.9C15.6008 3.66131 15.506 3.43239 15.3372 3.2636C15.1684 3.09482 14.9395 3 14.7008 3H7.20078C6.08687 3 5.01858 3.4425 4.23093 4.23015C3.44328 5.0178 3.00078 6.08609 3.00078 7.2V16.8C3.00078 17.9139 3.44328 18.9822 4.23093 19.7698C5.01858 20.5575 6.08687 21 7.20078 21H14.7008ZM14.7116 7.4388C14.6248 7.35857 14.523 7.29623 14.4121 7.25534C14.3011 7.21446 14.1833 7.19582 14.0651 7.2005C13.947 7.20518 13.831 7.23309 13.7236 7.28262C13.6163 7.33216 13.5198 7.40235 13.4396 7.4892L9.83958 11.3892C9.68592 11.5555 9.60058 11.7736 9.60058 12C9.60058 12.2264 9.68592 12.4445 9.83958 12.6108L13.4396 16.5108C13.5199 16.5976 13.6165 16.6676 13.7238 16.7171C13.8312 16.7665 13.9473 16.7943 14.0654 16.7988C14.1835 16.8034 14.3014 16.7847 14.4122 16.7437C14.5231 16.7027 14.6248 16.6403 14.7116 16.56C14.7983 16.4797 14.8684 16.3831 14.9178 16.2757C14.9673 16.1684 14.9951 16.0523 14.9996 15.9342C15.0088 15.6956 14.9229 15.4632 14.7608 15.288L12.5552 12.8988H21.9008C22.1395 12.8988 22.3684 12.804 22.5372 12.6352C22.706 12.4664 22.8008 12.2375 22.8008 11.9988C22.8008 11.7601 22.706 11.5312 22.5372 11.3624C22.3684 11.1936 22.1395 11.0988 21.9008 11.0988H12.5564L14.762 8.7108C14.8422 8.62398 14.9045 8.5222 14.9454 8.41129C14.9863 8.30037 15.005 8.18248 15.0003 8.06436C14.9956 7.94624 14.9677 7.8302 14.9182 7.72286C14.8686 7.61553 14.7984 7.519 14.7116 7.4388Z" fill="#FBFBFB"/>
</g>
</svg>
