<svg width="20" height="24" viewBox="0 0 20 24" fill="none" xmlns="http://www.w3.org/2000/svg">
<g id="Frame" clip-path="url(#clip0_1128_1366)">
<path id="Vector" d="M9.999 0C9.20882 0 8.57043 0.670313 8.57043 1.5V2.33906C5.33382 2.87813 2.85614 5.82188 2.85614 9.375V10.9406C2.85614 13.0688 2.16418 15.1359 0.900788 16.7953L0.235609 17.6719C-0.0233197 18.0094 -0.0724268 18.4734 0.106145 18.8625C0.284716 19.2516 0.659716 19.5 1.07043 19.5H18.9276C19.3383 19.5 19.7133 19.2516 19.8919 18.8625C20.0704 18.4734 20.0213 18.0094 19.7624 17.6719L19.0972 16.8C17.8338 15.1359 17.1419 13.0688 17.1419 10.9406V9.375C17.1419 5.82188 14.6642 2.87813 11.4276 2.33906V1.5C11.4276 0.670313 10.7892 0 9.999 0ZM9.999 4.5H10.3561C12.9186 4.5 14.999 6.68438 14.999 9.375V10.9406C14.999 13.1859 15.6195 15.375 16.7713 17.25H3.22668C4.37847 15.375 4.999 13.1859 4.999 10.9406V9.375C4.999 6.68438 7.07936 4.5 9.64186 4.5H9.999ZM12.8561 21H9.999H7.14186C7.14186 21.7969 7.44097 22.5609 7.97668 23.1234C8.5124 23.6859 9.24007 24 9.999 24C10.7579 24 11.4856 23.6859 12.0213 23.1234C12.557 22.5609 12.8561 21.7969 12.8561 21Z" fill="white"/>
</g>
<defs>
<clipPath id="clip0_1128_1366">
<rect width="20" height="24" fill="white"/>
</clipPath>
</defs>
</svg>
