<svg width="36" height="37" viewBox="0 0 36 37" fill="none" xmlns="http://www.w3.org/2000/svg">
<g id="Group">
<path id="Vector" fill-rule="evenodd" clip-rule="evenodd" d="M18 0.5C27.9414 0.5 36 8.5586 36 18.5C36.0062 22.6542 34.5695 26.6816 31.9356 29.894L31.9716 29.9336L31.734 30.1352C30.0458 32.1316 27.9423 33.7355 25.5701 34.8348C23.198 35.9341 20.6145 36.5024 18 36.5C12.69 36.5 7.92001 34.2014 4.62601 30.5474L4.26601 30.1334L4.02841 29.9354L4.06441 29.8922C1.43084 26.6803 -0.00576419 22.6536 1.73828e-05 18.5C1.73828e-05 8.5586 8.05861 0.5 18 0.5ZM18 27.5C14.652 27.5 11.6262 28.5656 9.37261 30.0308C11.8613 31.8973 14.8892 32.9043 18 32.9C21.1108 32.9043 24.1387 31.8973 26.6274 30.0308C24.0521 28.3809 21.0584 27.5028 18 27.5ZM18 4.1C15.2901 4.09992 12.6353 4.86449 10.3405 6.30581C8.04575 7.74713 6.20426 9.80671 5.0277 12.2478C3.85114 14.6889 3.38726 17.4125 3.68938 20.1055C3.99151 22.7984 5.04737 25.3515 6.73561 27.4712C9.65341 25.3778 13.635 23.9 18 23.9C22.365 23.9 26.3466 25.3778 29.2644 27.4712C30.9526 25.3515 32.0085 22.7984 32.3106 20.1055C32.6127 17.4125 32.1489 14.6889 30.9723 12.2478C29.7957 9.80671 27.9542 7.74713 25.6595 6.30581C23.3647 4.86449 20.7099 4.09992 18 4.1ZM18 7.7C19.9096 7.7 21.7409 8.45857 23.0912 9.80883C24.4414 11.1591 25.2 12.9904 25.2 14.9C25.2 16.8096 24.4414 18.6409 23.0912 19.9912C21.7409 21.3414 19.9096 22.1 18 22.1C16.0904 22.1 14.2591 21.3414 12.9088 19.9912C11.5586 18.6409 10.8 16.8096 10.8 14.9C10.8 12.9904 11.5586 11.1591 12.9088 9.80883C14.2591 8.45857 16.0904 7.7 18 7.7ZM18 11.3C17.0452 11.3 16.1295 11.6793 15.4544 12.3544C14.7793 13.0295 14.4 13.9452 14.4 14.9C14.4 15.8548 14.7793 16.7704 15.4544 17.4456C16.1295 18.1207 17.0452 18.5 18 18.5C18.9548 18.5 19.8704 18.1207 20.5456 17.4456C21.2207 16.7704 21.6 15.8548 21.6 14.9C21.6 13.9452 21.2207 13.0295 20.5456 12.3544C19.8704 11.6793 18.9548 11.3 18 11.3Z" fill="#06291D"/>
</g>
</svg>
