<svg width="23" height="24" viewBox="0 0 23 24" fill="none" xmlns="http://www.w3.org/2000/svg">
<g id="home icon">
<g id="Vector">
<path d="M3.59375 10.0234V20.625C3.59375 20.8156 3.66948 20.9984 3.80427 21.1332C3.93906 21.268 4.12188 21.3438 4.3125 21.3438H8.625V15.2344C8.625 14.9484 8.73859 14.6742 8.94078 14.472C9.14296 14.2698 9.41719 14.1562 9.70312 14.1562H13.2969C13.5828 14.1562 13.857 14.2698 14.0592 14.472C14.2614 14.6742 14.375 14.9484 14.375 15.2344V21.3438H18.6875C18.8781 21.3438 19.0609 21.268 19.1957 21.1332C19.3305 20.9984 19.4062 20.8156 19.4062 20.625V10.0234" fill="#06291D"/>
<path d="M3.59375 10.0234V20.625C3.59375 20.8156 3.66948 20.9984 3.80427 21.1332C3.93906 21.268 4.12188 21.3438 4.3125 21.3438H8.625V15.2344C8.625 14.9484 8.73859 14.6742 8.94078 14.472C9.14296 14.2698 9.41719 14.1562 9.70312 14.1562H13.2969C13.5828 14.1562 13.857 14.2698 14.0592 14.472C14.2614 14.6742 14.375 14.9484 14.375 15.2344V21.3438H18.6875C18.8781 21.3438 19.0609 21.268 19.1957 21.1332C19.3305 20.9984 19.4062 20.8156 19.4062 20.625V10.0234" stroke="#06291D" stroke-width="1.5" stroke-linecap="round" stroke-linejoin="round"/>
</g>
<g id="Vector_2">
<path d="M21.5625 11.9999L11.9892 2.83589C11.7646 2.5987 11.2395 2.596 11.0108 2.83589L1.4375 11.9999M17.9688 8.54096V3.37495H15.8125V6.47456" fill="#06291D"/>
<path d="M21.5625 11.9999L11.9892 2.83589C11.7646 2.5987 11.2395 2.596 11.0108 2.83589L1.4375 11.9999M17.9688 8.54096V3.37495H15.8125V6.47456" stroke="#06291D" stroke-width="1.5" stroke-linecap="round" stroke-linejoin="round"/>
</g>
</g>
</svg>
