<svg width="17" height="20" viewBox="0 0 17 20" fill="none" xmlns="http://www.w3.org/2000/svg">
<g id="humbleicons:lock">
<path id="Vector" d="M8.5 13V15.4M3.5 8.2V5.8C3.5 4.52696 4.02678 3.30606 4.96447 2.40589C5.90215 1.50571 7.17392 1 8.5 1C9.82608 1 11.0979 1.50571 12.0355 2.40589C12.9732 3.30606 13.5 4.52696 13.5 5.8V8.2M2.25 19H14.75C15.0815 19 15.3995 18.8736 15.6339 18.6485C15.8683 18.4235 16 18.1183 16 17.8V9.4C16 9.08174 15.8683 8.77652 15.6339 8.55147C15.3995 8.32643 15.0815 8.2 14.75 8.2H2.25C1.91848 8.2 1.60054 8.32643 1.36612 8.55147C1.1317 8.77652 1 9.08174 1 9.4V17.8C1 18.1183 1.1317 18.4235 1.36612 18.6485C1.60054 18.8736 1.91848 19 2.25 19Z" stroke="#9CA3AF" stroke-width="1.5" stroke-linecap="round" stroke-linejoin="round"/>
</g>
</svg>
