<svg width="24" height="24" viewBox="0 0 24 24" fill="none" xmlns="http://www.w3.org/2000/svg">
<g id="humbleicons:certificate">
<path id="Vector" d="M9.00138 17V21L12.0014 19L15.0014 21V17M13.9584 4.27498L13.6354 3.83098C13.4477 3.57354 13.2019 3.36409 12.918 3.21968C12.634 3.07527 12.3199 3 12.0014 3C11.6828 3 11.3688 3.07527 11.0848 3.21968C10.8008 3.36409 10.555 3.57354 10.3674 3.83098L10.0444 4.27498L9.50138 4.18998C9.18672 4.14036 8.86479 4.16586 8.56186 4.2644C8.25894 4.36294 7.98361 4.53172 7.75837 4.75697C7.53312 4.98221 7.36434 5.25754 7.2658 5.56046C7.16726 5.86339 7.14176 6.18532 7.19138 6.49998L7.27638 7.04298L6.83238 7.36598C6.57457 7.55336 6.36475 7.79909 6.22008 8.08308C6.07542 8.36707 6 8.68127 6 8.99998C6 9.3187 6.07542 9.63289 6.22008 9.91688C6.36475 10.2009 6.57457 10.4466 6.83238 10.634L7.27638 10.957L7.19138 11.499C7.14158 11.8137 7.16695 12.1358 7.26541 12.4388C7.36387 12.7419 7.53262 13.0173 7.75789 13.2427C7.98317 13.4681 8.25856 13.637 8.56157 13.7355C8.86458 13.8341 9.18662 13.8596 9.50138 13.81L10.0444 13.725L10.3674 14.169C10.555 14.4264 10.8008 14.6359 11.0848 14.7803C11.3688 14.9247 11.6828 15 12.0014 15C12.3199 15 12.634 14.9247 12.918 14.7803C13.2019 14.6359 13.4477 14.4264 13.6354 14.169L13.9584 13.725L14.5004 13.81C14.8151 13.8598 15.1372 13.8344 15.4402 13.736C15.7433 13.6375 16.0187 13.4687 16.2441 13.2435C16.4695 13.0182 16.6384 12.7428 16.7369 12.4398C16.8355 12.1368 16.861 11.8147 16.8114 11.5L16.7264 10.957L17.1704 10.634C17.4278 10.4463 17.6373 10.2005 17.7817 9.91656C17.9261 9.63261 18.0014 9.31855 18.0014 8.99998C18.0014 8.68141 17.9261 8.36736 17.7817 8.0834C17.6373 7.79944 17.4278 7.55363 17.1704 7.36598L16.7264 7.04298L16.8114 6.50098C16.8612 6.18625 16.8358 5.8642 16.7374 5.56114C16.6389 5.25808 16.4701 4.98262 16.2449 4.75725C16.0196 4.53188 15.7442 4.36301 15.4412 4.26441C15.1382 4.16582 14.8161 4.14032 14.5014 4.18998L13.9584 4.27498Z" stroke="white" stroke-width="2" stroke-linecap="round" stroke-linejoin="round"/>
</g>
</svg>
