<svg width="21" height="20" viewBox="0 0 21 20" fill="none" xmlns="http://www.w3.org/2000/svg">
<g id="icon-park-outline:appointment">
<g id="Group">
<path id="Vector" d="M10.5026 7.49996C12.1134 7.49996 13.4193 6.19412 13.4193 4.58329C13.4193 2.97246 12.1134 1.66663 10.5026 1.66663C8.89177 1.66663 7.58594 2.97246 7.58594 4.58329C7.58594 6.19412 8.89177 7.49996 10.5026 7.49996Z" stroke="white" stroke-width="2" stroke-linecap="round" stroke-linejoin="round"/>
<path id="Vector_2" d="M2.16797 17.0833C2.16797 13.4012 5.52589 10.4166 9.66797 10.4166" stroke="white" stroke-width="2" stroke-linecap="round" stroke-linejoin="round"/>
<path id="Vector_3" d="M14.668 17.9166C16.739 17.9166 18.418 16.2377 18.418 14.1666C18.418 12.0956 16.739 10.4166 14.668 10.4166C12.5969 10.4166 10.918 12.0956 10.918 14.1666C10.918 16.2377 12.5969 17.9166 14.668 17.9166Z" stroke="white" stroke-width="2"/>
<path id="Vector_4" d="M14.25 12.9166V14.5833H15.9167" stroke="white" stroke-width="2" stroke-linecap="round" stroke-linejoin="round"/>
</g>
</g>
</svg>
