<svg width="25" height="24" viewBox="0 0 25 24" fill="none" xmlns="http://www.w3.org/2000/svg">
<g id="lets-icons:user-add">
<g id="Group">
<path id="Vector" d="M12.5 12C14.7091 12 16.5 10.2091 16.5 8C16.5 5.79086 14.7091 4 12.5 4C10.2909 4 8.5 5.79086 8.5 8C8.5 10.2091 10.2909 12 12.5 12Z" stroke="white" stroke-width="2" stroke-linecap="round"/>
<path id="Vector_2" fill-rule="evenodd" clip-rule="evenodd" d="M13.827 15.076C13.3883 15.0253 12.946 15 12.5 15C10.58 15 8.69397 15.474 7.13097 16.373C5.56897 17.273 4.38097 18.57 3.83097 20.111C3.74979 20.3587 3.76856 20.6284 3.88328 20.8625C3.998 21.0966 4.19961 21.2766 4.44514 21.3642C4.69066 21.4519 4.9607 21.4401 5.19772 21.3316C5.43473 21.223 5.61997 21.0262 5.71397 20.783C6.07597 19.773 6.89698 18.816 8.12897 18.107C9.14297 17.523 10.364 17.15 11.658 17.037C11.8222 16.5523 12.1077 16.1176 12.4874 15.7744C12.867 15.4311 13.3282 15.1907 13.827 15.076Z" fill="white"/>
<path id="Vector_3" d="M18.5 14V22M22.5 18H14.5" stroke="white" stroke-width="2.5" stroke-linecap="round"/>
</g>
</g>
</svg>
