<svg width="32" height="32" viewBox="0 0 32 32" fill="none" xmlns="http://www.w3.org/2000/svg">
<g id="mdi:table-clock">
<path id="Vector" d="M19.5714 19.384L22.36 21.076L21.5029 22.636L17.8571 20.428V16H19.5714V19.384ZM23.5714 12.712V6.4C23.5714 5.76348 23.3306 5.15303 22.902 4.70294C22.4733 4.25286 21.8919 4 21.2857 4H5.28571C4.02857 4 3 5.08 3 6.4V20.8C3 21.4365 3.24082 22.047 3.66947 22.4971C4.09812 22.9471 4.67951 23.2 5.28571 23.2H11.7771C13.0686 26.032 15.8114 28 19 28C23.4229 28 27 24.244 27 19.6C27 16.744 25.64 14.236 23.5714 12.712ZM21.2857 8.8V11.548C20.5657 11.332 19.8 11.2 19 11.2C17.2857 11.2 15.72 11.764 14.4286 12.712V8.8H21.2857ZM5.28571 8.8H12.1429V13.6H5.28571V8.8ZM5.28571 20.8V16H11.7771C11.2671 17.1247 11.0016 18.3543 11 19.6C11 20.008 11.0343 20.404 11.0914 20.8H5.28571ZM19 25.6C15.8457 25.6 13.2857 22.912 13.2857 19.6C13.2857 16.288 15.8457 13.6 19 13.6C22.1543 13.6 24.7143 16.288 24.7143 19.6C24.7143 22.912 22.1543 25.6 19 25.6Z" fill="#151419"/>
</g>
</svg>
