<svg width="24" height="24" viewBox="0 0 24 24" fill="none" xmlns="http://www.w3.org/2000/svg">
<g id="mingcute:warning-line">
<g id="Group">
<path id="Vector" d="M12.5912 23.258L12.5802 23.26L12.5092 23.295L12.4892 23.299L12.4752 23.295L12.4042 23.26C12.3936 23.2567 12.3856 23.2583 12.3802 23.265L12.3762 23.275L12.3592 23.703L12.3642 23.723L12.3742 23.736L12.4782 23.81L12.4932 23.814L12.5052 23.81L12.6092 23.736L12.6212 23.72L12.6252 23.703L12.6082 23.276C12.6056 23.2653 12.5999 23.2593 12.5912 23.258ZM12.8562 23.145L12.8432 23.147L12.6582 23.24L12.6482 23.25L12.6452 23.261L12.6632 23.691L12.6682 23.703L12.6762 23.71L12.8772 23.803C12.8899 23.8063 12.8996 23.8037 12.9062 23.795L12.9102 23.781L12.8762 23.167C12.8729 23.155 12.8662 23.1477 12.8562 23.145ZM12.1412 23.147C12.1368 23.1443 12.1315 23.1435 12.1265 23.1446C12.1215 23.1457 12.1171 23.1487 12.1142 23.153L12.1082 23.167L12.0742 23.781C12.0749 23.793 12.0806 23.801 12.0912 23.805L12.1062 23.803L12.3072 23.71L12.3172 23.702L12.3212 23.691L12.3382 23.261L12.3352 23.249L12.3252 23.239L12.1412 23.147Z" fill="white"/>
<path id="Vector_2" d="M12 2C17.523 2 22 6.477 22 12C22 17.523 17.523 22 12 22C6.477 22 2 17.523 2 12C2 6.477 6.477 2 12 2ZM12 4C9.87827 4 7.84344 4.84286 6.34315 6.34315C4.84286 7.84344 4 9.87827 4 12C4 14.1217 4.84286 16.1566 6.34315 17.6569C7.84344 19.1571 9.87827 20 12 20C14.1217 20 16.1566 19.1571 17.6569 17.6569C19.1571 16.1566 20 14.1217 20 12C20 9.87827 19.1571 7.84344 17.6569 6.34315C16.1566 4.84286 14.1217 4 12 4ZM12 15C12.2652 15 12.5196 15.1054 12.7071 15.2929C12.8946 15.4804 13 15.7348 13 16C13 16.2652 12.8946 16.5196 12.7071 16.7071C12.5196 16.8946 12.2652 17 12 17C11.7348 17 11.4804 16.8946 11.2929 16.7071C11.1054 16.5196 11 16.2652 11 16C11 15.7348 11.1054 15.4804 11.2929 15.2929C11.4804 15.1054 11.7348 15 12 15ZM12 6C12.2652 6 12.5196 6.10536 12.7071 6.29289C12.8946 6.48043 13 6.73478 13 7V13C13 13.2652 12.8946 13.5196 12.7071 13.7071C12.5196 13.8946 12.2652 14 12 14C11.7348 14 11.4804 13.8946 11.2929 13.7071C11.1054 13.5196 11 13.2652 11 13V7C11 6.73478 11.1054 6.48043 11.2929 6.29289C11.4804 6.10536 11.7348 6 12 6Z" fill="white"/>
</g>
</g>
</svg>
