<svg width="44" height="44" viewBox="0 0 44 44" fill="none" xmlns="http://www.w3.org/2000/svg">
<g id="Outline">
<path id="Vector" fill-rule="evenodd" clip-rule="evenodd" d="M17.4314 9.33183C21.7474 5.2005 28.7259 5.2005 33.0419 9.33183C37.385 13.4891 37.385 20.2502 33.0419 24.4075L21.3847 35.566C18.3193 38.5002 13.3684 38.5002 10.3029 35.566C7.21037 32.6057 7.21037 27.7854 10.3029 24.8252L21.7923 13.8273C23.6072 12.0901 26.5306 12.0901 28.3455 13.8273C30.1875 15.5905 30.1875 18.47 28.3455 20.2332L16.7722 31.3113C16.3333 31.7314 15.637 31.7162 15.2169 31.2773C14.7968 30.8384 14.8121 30.1421 15.2509 29.722L26.8242 18.6439C27.7612 17.747 27.7612 16.3135 26.8242 15.4166C25.8601 14.4937 24.2778 14.4937 23.3136 15.4166L11.8242 26.4144C9.63661 28.5084 9.63661 31.8827 11.8242 33.9767C14.0389 36.0967 17.6488 36.0966 19.8635 33.9767L31.5206 22.8183C34.9588 19.5272 34.9588 14.2121 31.5206 10.9211C28.0553 7.60408 22.4179 7.60408 18.9527 10.9211L9.55985 19.9121C9.12099 20.3321 8.42468 20.3169 8.00459 19.8781C7.5845 19.4392 7.59972 18.7429 8.03859 18.3228L17.4314 9.33183Z" fill="#02040F"/>
</g>
</svg>
