<svg width="24" height="24" viewBox="0 0 24 24" fill="none" xmlns="http://www.w3.org/2000/svg">
<g id="ph:clock-clockwise-fill">
<path id="Vector" d="M12.7487 7.49999V11.5753L16.1349 13.6069C16.3055 13.7093 16.4284 13.8753 16.4766 14.0684C16.5247 14.2614 16.4942 14.4657 16.3918 14.6362C16.2894 14.8068 16.1234 14.9297 15.9303 14.9779C15.7373 15.026 15.533 14.9956 15.3624 14.8931L11.6124 12.6431C11.5014 12.5764 11.4096 12.4822 11.3459 12.3695C11.2821 12.2568 11.2486 12.1295 11.2487 12V7.49999C11.2487 7.30108 11.3277 7.11031 11.4684 6.96966C11.609 6.82901 11.7998 6.74999 11.9987 6.74999C12.1976 6.74999 12.3884 6.82901 12.529 6.96966C12.6697 7.11031 12.7487 7.30108 12.7487 7.49999ZM21.2856 5.30718C21.1485 5.25033 20.9977 5.23539 20.8522 5.26426C20.7067 5.29313 20.573 5.36451 20.4681 5.46936L19.3112 6.62905C19.0084 6.29999 18.6962 5.9728 18.3643 5.63624C17.1135 4.38534 15.5219 3.53076 13.7882 3.17929C12.0545 2.82782 10.2557 2.99504 8.61655 3.66005C6.97737 4.32507 5.5705 5.45839 4.57175 6.9184C3.573 8.37842 3.02664 10.1004 3.00095 11.8691C2.97526 13.6379 3.47138 15.375 4.42731 16.8634C5.38324 18.3518 6.75659 19.5255 8.37577 20.2379C9.99494 20.9502 11.7881 21.1696 13.5313 20.8686C15.2744 20.5676 16.8902 19.7597 18.1768 18.5456C18.2485 18.4779 18.3061 18.3967 18.3464 18.3068C18.3866 18.2168 18.4088 18.1197 18.4116 18.0212C18.4144 17.9227 18.3977 17.8245 18.3626 17.7324C18.3275 17.6403 18.2745 17.556 18.2068 17.4844C18.1391 17.4127 18.0579 17.3551 17.968 17.3148C17.878 17.2745 17.7809 17.2524 17.6824 17.2496C17.5839 17.2468 17.4857 17.2634 17.3936 17.2986C17.3015 17.3337 17.2172 17.3866 17.1456 17.4544C16.0735 18.4659 14.7272 19.1392 13.2747 19.39C11.8223 19.6408 10.3281 19.4581 8.97889 18.8647C7.62967 18.2713 6.48522 17.2935 5.68849 16.0535C4.89176 14.8134 4.47809 13.3661 4.49915 11.8923C4.5202 10.4185 4.97506 8.98354 5.80689 7.76674C6.63872 6.54995 7.81065 5.60524 9.17627 5.05062C10.5419 4.496 12.0407 4.35606 13.4854 4.64829C14.93 4.94052 16.2566 5.65197 17.2993 6.69374C17.6312 7.02936 17.9434 7.35936 18.2471 7.6903L16.7181 9.21936C16.6131 9.32425 16.5415 9.45794 16.5125 9.60351C16.4835 9.74907 16.4984 9.89996 16.5552 10.0371C16.612 10.1742 16.7083 10.2914 16.8317 10.3738C16.9551 10.4562 17.1003 10.5001 17.2487 10.5H20.9987C21.1976 10.5 21.3884 10.421 21.529 10.2803C21.6697 10.1397 21.7487 9.9489 21.7487 9.74999V5.99999C21.7487 5.85165 21.7046 5.70666 21.6222 5.58334C21.5398 5.46002 21.4226 5.36391 21.2856 5.30718Z" fill="white"/>
</g>
</svg>
