<svg width="19" height="18" viewBox="0 0 19 18" fill="none" xmlns="http://www.w3.org/2000/svg">
<g id="radix-icons:cross-2">
<path id="Vector" fill-rule="evenodd" clip-rule="evenodd" d="M14.6383 4.83828C14.7024 4.77422 14.7533 4.69816 14.7881 4.61443C14.8228 4.5307 14.8407 4.44095 14.8408 4.35031C14.8408 4.25966 14.823 4.16989 14.7884 4.08612C14.7537 4.00235 14.7029 3.92622 14.6389 3.86208C14.5748 3.79794 14.4988 3.74705 14.415 3.71231C14.3313 3.67757 14.2416 3.65966 14.1509 3.6596C14.0603 3.65955 13.9705 3.67735 13.8867 3.71199C13.8029 3.74662 13.7268 3.79742 13.6627 3.86148L9.49988 8.02428L5.33828 3.86148C5.20875 3.73195 5.03307 3.65918 4.84988 3.65918C4.6667 3.65918 4.49101 3.73195 4.36148 3.86148C4.23195 3.99101 4.15918 4.1667 4.15918 4.34988C4.15918 4.53307 4.23195 4.70875 4.36148 4.83828L8.52428 8.99988L4.36148 13.1615C4.29734 13.2256 4.24647 13.3018 4.21176 13.3856C4.17705 13.4694 4.15918 13.5592 4.15918 13.6499C4.15918 13.7406 4.17705 13.8304 4.21176 13.9142C4.24647 13.998 4.29734 14.0741 4.36148 14.1383C4.49101 14.2678 4.6667 14.3406 4.84988 14.3406C4.94059 14.3406 5.0304 14.3227 5.1142 14.288C5.198 14.2533 5.27414 14.2024 5.33828 14.1383L9.49988 9.97548L13.6627 14.1383C13.7922 14.2677 13.9678 14.3403 14.1509 14.3402C14.334 14.34 14.5095 14.2672 14.6389 14.1377C14.7683 14.0081 14.8409 13.8325 14.8408 13.6495C14.8406 13.4664 14.7678 13.2909 14.6383 13.1615L10.4755 8.99988L14.6383 4.83828Z" fill="white"/>
</g>
</svg>
