<svg width="168" height="52" viewBox="0 0 168 52" fill="none" xmlns="http://www.w3.org/2000/svg">
<rect x="0.5" width="167" height="52" rx="8" fill="#127453"/>
<path d="M33.8755 35.648C33.7915 35.144 33.7122 34.654 33.6375 34.178C33.5722 33.702 33.5395 33.282 33.5395 32.918C33.5395 32.19 33.6795 31.56 33.9595 31.028C34.2395 30.5053 34.6362 30.0993 35.1495 29.81C35.6628 29.5207 36.2695 29.376 36.9695 29.376C37.1095 29.376 37.2822 29.376 37.4875 29.376C37.7022 29.376 37.9495 29.376 38.2295 29.376C38.5095 29.376 38.8222 29.376 39.1675 29.376C39.5128 29.376 39.8908 29.376 40.3015 29.376L39.4475 30.188V27.542C39.4475 27.0567 39.3915 26.674 39.2795 26.394C39.1768 26.1047 38.9855 25.8993 38.7055 25.778C38.4348 25.6567 38.0382 25.596 37.5155 25.596C37.1608 25.596 36.7968 25.624 36.4235 25.68C36.0595 25.7267 35.7702 25.792 35.5555 25.876L36.7315 24.784C36.6662 25.008 36.6055 25.288 36.5495 25.624C36.5028 25.96 36.4655 26.31 36.4375 26.674C36.4095 27.0287 36.3955 27.3647 36.3955 27.682C36.3955 28.0273 36.4095 28.3773 36.4375 28.732C36.4655 29.0773 36.4982 29.3853 36.5355 29.656C36.5822 29.9267 36.6195 30.1133 36.6475 30.216L34.8695 30.706C34.8228 30.5753 34.7715 30.3607 34.7155 30.062C34.6688 29.7633 34.6222 29.4133 34.5755 29.012C34.5382 28.6013 34.5195 28.1673 34.5195 27.71C34.5195 27.2527 34.5382 26.8093 34.5755 26.38C34.6222 25.9413 34.6782 25.5493 34.7435 25.204C34.8088 24.8493 34.8695 24.5647 34.9255 24.35C35.1682 24.2567 35.5275 24.1727 36.0035 24.098C36.4795 24.014 36.9928 23.972 37.5435 23.972C38.1502 23.972 38.6682 24.0327 39.0975 24.154C39.5362 24.266 39.8955 24.4293 40.1755 24.644C40.4648 24.8587 40.6935 25.1153 40.8615 25.414C41.0295 25.7033 41.1462 26.03 41.2115 26.394C41.2768 26.758 41.3095 27.1453 41.3095 27.556V31C40.8988 31 40.4695 31 40.0215 31C39.5828 31 39.1535 31 38.7335 31C38.3228 31 37.9588 31 37.6415 31C37.3335 31 37.1095 31 36.9695 31C36.8202 31 36.6568 31.0187 36.4795 31.056C36.3022 31.1027 36.1295 31.1867 35.9615 31.308C35.8028 31.4387 35.6722 31.63 35.5695 31.882C35.4668 32.1433 35.4155 32.4887 35.4155 32.918C35.4155 33.254 35.4435 33.646 35.4995 34.094C35.5648 34.542 35.6395 35.06 35.7235 35.648H33.8755ZM50.942 31V29.376H52.412V31H50.942ZM42.85 31V29.376H49.962L49.066 30.3V21.102H50.942V31H42.85ZM44.796 29.376V23.062H46.658V29.376H44.796ZM52.412 31V29.376C52.468 29.376 52.51 29.3947 52.538 29.432C52.5754 29.4693 52.6034 29.5253 52.622 29.6C52.65 29.6747 52.6687 29.7633 52.678 29.866C52.6874 29.9593 52.692 30.0667 52.692 30.188C52.692 30.3093 52.6874 30.4213 52.678 30.524C52.6687 30.6267 52.65 30.7153 52.622 30.79C52.6034 30.8553 52.5754 30.9067 52.538 30.944C52.51 30.9813 52.468 31 52.412 31ZM56.4952 31V29.376H58.2452V31H56.4952ZM58.2452 31V29.376C58.2919 29.376 58.3339 29.3947 58.3712 29.432C58.4086 29.4693 58.4366 29.5253 58.4552 29.6C58.4739 29.6747 58.4879 29.7633 58.4972 29.866C58.5159 29.9593 58.5252 30.0667 58.5252 30.188C58.5252 30.3093 58.5159 30.4213 58.4972 30.524C58.4879 30.6267 58.4739 30.7153 58.4552 30.79C58.4366 30.8553 58.4086 30.9067 58.3712 30.944C58.3432 30.9813 58.3012 31 58.2452 31ZM52.4072 31C52.3512 31 52.3092 30.9813 52.2812 30.944C52.2439 30.9067 52.2159 30.8553 52.1972 30.79C52.1692 30.7153 52.1506 30.6267 52.1412 30.524C52.1319 30.4213 52.1272 30.3093 52.1272 30.188C52.1272 30.02 52.1366 29.88 52.1552 29.768C52.1739 29.6467 52.2066 29.5533 52.2532 29.488C52.2906 29.4133 52.3419 29.376 52.4072 29.376V31ZM52.4072 31V29.376H55.7252L54.6332 30.286V23.972H56.4952V31H52.4072ZM53.4012 22.684V21.088H55.2072V22.684H53.4012ZM55.9492 22.684V21.088H57.7552V22.684H55.9492ZM66.4771 31C66.0945 31 65.7118 30.93 65.3291 30.79C64.9558 30.6407 64.6105 30.4213 64.2931 30.132L65.4411 28.942C65.6278 29.0913 65.8005 29.2033 65.9591 29.278C66.1271 29.3433 66.2998 29.376 66.4771 29.376H69.0951L68.1291 30.258V27.15C68.1291 27.0007 68.1105 26.7767 68.0731 26.478C68.0451 26.17 67.9985 25.8247 67.9331 25.442C67.8771 25.05 67.8071 24.6533 67.7231 24.252L69.5711 23.972C69.6365 24.308 69.6971 24.686 69.7531 25.106C69.8185 25.5167 69.8745 25.9087 69.9211 26.282C69.9678 26.646 69.9911 26.9353 69.9911 27.15V31H66.4771ZM58.2451 31V29.376H60.2891L59.8691 29.81V25.4H61.7451V31H58.2451ZM61.7451 31V29.376H62.8791C63.1778 29.376 63.4065 29.334 63.5651 29.25C63.7238 29.1567 63.8311 28.9747 63.8871 28.704C63.9525 28.424 63.9851 28.0087 63.9851 27.458V24.7H65.8611V27.458C65.8611 28.2887 65.7538 28.9653 65.5391 29.488C65.3338 30.0107 65.0118 30.3933 64.5731 30.636C64.1345 30.8787 63.5698 31 62.8791 31H61.7451ZM58.2451 31C58.1891 31 58.1471 30.9813 58.1191 30.944C58.0818 30.9067 58.0538 30.8553 58.0351 30.79C58.0071 30.7153 57.9885 30.6267 57.9791 30.524C57.9698 30.4213 57.9651 30.3093 57.9651 30.188C57.9651 30.02 57.9745 29.88 57.9931 29.768C58.0118 29.6467 58.0445 29.5533 58.0911 29.488C58.1285 29.4133 58.1798 29.376 58.2451 29.376V31ZM71.5336 31V29.376H78.6456L77.7496 30.3V21.102H79.6256V31H71.5336ZM73.4796 29.376V23.062H75.3416V29.376H73.4796ZM73.5776 35.186C73.4003 34.9713 73.265 34.766 73.1716 34.57C73.0783 34.374 73.0316 34.164 73.0316 33.94C73.0316 33.6227 73.1156 33.3333 73.2836 33.072C73.4516 32.82 73.671 32.6193 73.9416 32.47C74.2123 32.33 74.511 32.26 74.8376 32.26C75.015 32.26 75.197 32.2833 75.3836 32.33C75.5703 32.3767 75.729 32.4467 75.8596 32.54L75.3836 33.394C75.2996 33.3473 75.2156 33.3147 75.1316 33.296C75.057 33.2867 74.9776 33.282 74.8936 33.282C74.6696 33.282 74.497 33.338 74.3756 33.45C74.2543 33.5713 74.1936 33.73 74.1936 33.926C74.1936 34.038 74.217 34.1453 74.2636 34.248C74.3103 34.3507 74.3803 34.4627 74.4736 34.584L73.5776 35.186ZM72.7236 35.298V34.276H76.1116V35.298H72.7236ZM81.9133 31V21.102H83.7753V31H81.9133ZM96.4208 31V29.376H97.9048V31H96.4208ZM88.9868 35.648C88.9028 35.144 88.8235 34.654 88.7488 34.178C88.6835 33.702 88.6508 33.282 88.6508 32.918C88.6508 32.19 88.7908 31.56 89.0708 31.028C89.3508 30.5053 89.7475 30.0993 90.2608 29.81C90.7742 29.5207 91.3808 29.376 92.0808 29.376C92.2208 29.376 92.3935 29.376 92.5988 29.376C92.8135 29.376 93.0608 29.376 93.3408 29.376C93.6208 29.376 93.9335 29.376 94.2788 29.376C94.6242 29.376 95.0022 29.376 95.4128 29.376L94.5588 30.188V27.542C94.5588 27.0567 94.5028 26.674 94.3908 26.394C94.2882 26.1047 94.0968 25.8993 93.8168 25.778C93.5462 25.6567 93.1495 25.596 92.6268 25.596C92.2722 25.596 91.9082 25.624 91.5348 25.68C91.1708 25.7267 90.8815 25.792 90.6668 25.876L91.8428 24.784C91.7775 25.008 91.7168 25.288 91.6608 25.624C91.6142 25.96 91.5768 26.31 91.5488 26.674C91.5208 27.0287 91.5068 27.3647 91.5068 27.682C91.5068 28.0273 91.5208 28.3773 91.5488 28.732C91.5768 29.0773 91.6095 29.3853 91.6468 29.656C91.6935 29.9267 91.7308 30.1133 91.7588 30.216L89.9808 30.706C89.9342 30.5753 89.8828 30.3607 89.8268 30.062C89.7802 29.7633 89.7335 29.4133 89.6868 29.012C89.6495 28.6013 89.6308 28.1673 89.6308 27.71C89.6308 27.2527 89.6495 26.8093 89.6868 26.38C89.7335 25.9413 89.7895 25.5493 89.8548 25.204C89.9202 24.8493 89.9808 24.5647 90.0368 24.35C90.2795 24.2567 90.6388 24.1727 91.1148 24.098C91.5908 24.014 92.1042 23.972 92.6548 23.972C93.2615 23.972 93.7795 24.0327 94.2088 24.154C94.6475 24.266 95.0068 24.4293 95.2868 24.644C95.5762 24.8587 95.8048 25.1153 95.9728 25.414C96.1408 25.7033 96.2575 26.03 96.3228 26.394C96.3882 26.758 96.4208 27.1453 96.4208 27.556V31C96.0102 31 95.5808 31 95.1328 31C94.6942 31 94.2648 31 93.8448 31C93.4342 31 93.0702 31 92.7528 31C92.4448 31 92.2208 31 92.0808 31C91.9315 31 91.7682 31.0187 91.5908 31.056C91.4135 31.1027 91.2408 31.1867 91.0728 31.308C90.9142 31.4387 90.7835 31.63 90.6808 31.882C90.5782 32.1433 90.5268 32.4887 90.5268 32.918C90.5268 33.254 90.5548 33.646 90.6108 34.094C90.6762 34.542 90.7508 35.06 90.8348 35.648H88.9868ZM97.9048 31V29.376C97.9515 29.376 97.9935 29.3947 98.0308 29.432C98.0682 29.4693 98.0962 29.5253 98.1148 29.6C98.1335 29.6747 98.1475 29.7633 98.1568 29.866C98.1755 29.9593 98.1848 30.0667 98.1848 30.188C98.1848 30.3093 98.1755 30.4213 98.1568 30.524C98.1475 30.6267 98.1335 30.7153 98.1148 30.79C98.0962 30.8553 98.0682 30.9067 98.0308 30.944C97.9935 30.9813 97.9515 31 97.9048 31ZM97.9072 31V29.376H101.225L100.133 30.286V23.972H101.995V31H97.9072ZM97.9072 31C97.8512 31 97.8092 30.9813 97.7812 30.944C97.7439 30.9067 97.7159 30.8553 97.6972 30.79C97.6692 30.7153 97.6506 30.6267 97.6412 30.524C97.6319 30.4213 97.6272 30.3093 97.6272 30.188C97.6272 30.02 97.6366 29.88 97.6552 29.768C97.6739 29.6467 97.7066 29.5533 97.7532 29.488C97.7906 29.4133 97.8419 29.376 97.9072 29.376V31ZM98.9012 22.684V21.088H100.707V22.684H98.9012ZM101.449 22.684V21.088H103.255V22.684H101.449Z" fill="#FBFBFB"/>
<path d="M112.319 25.7611C115.664 29.3798 118.907 32.6376 122.024 36.7579C125.413 30.0173 128.882 23.2532 134.605 15.9281L133.063 15.2217C128.23 20.347 124.475 25.1986 121.213 30.9642C118.944 28.9204 115.278 26.0282 113.039 24.5423L112.319 25.7611Z" fill="white"/>
</svg>
