<svg width="26" height="26" viewBox="0 0 26 26" fill="none" xmlns="http://www.w3.org/2000/svg">
<g id="ri:eye-off-line">
<path id="Vector" d="M19.3733 20.905C17.4676 22.1137 15.2567 22.7537 13 22.75C7.15868 22.75 2.29885 18.5466 1.28052 13C1.74734 10.4777 3.01556 8.17341 4.89668 6.42955L1.51018 3.04197L3.04202 1.51013L13.7665 12.234L24.4909 22.958L22.9591 24.4909L19.3733 20.905ZM6.43068 7.96246C4.95832 9.3011 3.9324 11.0595 3.4916 13C3.82992 14.4803 4.50914 15.8612 5.47519 17.0328C6.44124 18.2043 7.66745 19.1342 9.0562 19.7484C10.445 20.3625 11.9579 20.644 13.4746 20.5704C14.9913 20.4968 16.4699 20.0702 17.7927 19.3245L15.5957 17.1275C14.6604 17.7166 13.5527 17.9704 12.4543 17.8473C11.3558 17.7241 10.3318 17.2314 9.55022 16.4498C8.76863 15.6682 8.27585 14.6442 8.15271 13.5457C8.02957 12.4472 8.28338 11.3396 8.87252 10.4043L6.43068 7.96246ZM13.9902 15.522L10.478 12.0109C10.2853 12.5016 10.2399 13.0378 10.3475 13.5539C10.4551 14.07 10.711 14.5435 11.0837 14.9163C11.4565 15.289 11.93 15.5449 12.4461 15.6525C12.9622 15.7601 13.4995 15.7147 13.9902 15.522ZM22.5399 17.9757L20.9896 16.4255C21.7154 15.394 22.2318 14.2302 22.5095 13C22.2151 11.7104 21.6615 10.4941 20.8824 9.42518C20.1033 8.35622 19.1149 7.45687 17.9774 6.7818C16.8399 6.10674 15.5769 5.67007 14.2654 5.49833C12.9538 5.32659 11.621 5.42337 10.348 5.7828L8.63852 4.0733C9.98943 3.54246 11.4617 3.24997 13 3.24997C18.8414 3.24997 23.7012 7.4533 24.7206 13C24.3887 14.8048 23.6415 16.5081 22.5399 17.9757ZM12.6999 8.13471C12.7989 8.12821 12.8989 8.12496 13 8.12496C13.6656 8.12488 14.3242 8.2611 14.9352 8.52523C15.5461 8.78936 16.0965 9.17581 16.5525 9.66076C17.0084 10.1457 17.3602 10.7189 17.5861 11.345C17.8121 11.9711 17.9075 12.6368 17.8664 13.3011L12.6999 8.13471Z" fill="#9CA3AF"/>
</g>
</svg>
