<svg width="16" height="16" viewBox="0 0 16 16" fill="none" xmlns="http://www.w3.org/2000/svg">
<g id="Frame" clip-path="url(#clip0_1000_6210)">
<path id="Vector" d="M3 6.5C3 7.93437 3.46562 9.25938 4.25 10.3344L0.29375 14.2937C-0.0968742 14.6844 -0.0968742 15.3188 0.29375 15.7094C0.684375 16.1 1.31875 16.1 1.70938 15.7094L5.66562 11.75C6.74062 12.5375 8.06563 13 9.5 13C13.0906 13 16 10.0906 16 6.5C16 2.90937 13.0906 0 9.5 0C5.90938 0 3 2.90937 3 6.5ZM9.5 11C8.90905 11 8.32389 10.8836 7.77792 10.6575C7.23196 10.4313 6.73588 10.0998 6.31802 9.68198C5.90016 9.26412 5.56869 8.76804 5.34254 8.22208C5.1164 7.67611 5 7.09095 5 6.5C5 5.90905 5.1164 5.32389 5.34254 4.77792C5.56869 4.23196 5.90016 3.73588 6.31802 3.31802C6.73588 2.90016 7.23196 2.56869 7.77792 2.34254C8.32389 2.1164 8.90905 2 9.5 2C10.0909 2 10.6761 2.1164 11.2221 2.34254C11.768 2.56869 12.2641 2.90016 12.682 3.31802C13.0998 3.73588 13.4313 4.23196 13.6575 4.77792C13.8836 5.32389 14 5.90905 14 6.5C14 7.09095 13.8836 7.67611 13.6575 8.22208C13.4313 8.76804 13.0998 9.26412 12.682 9.68198C12.2641 10.0998 11.768 10.4313 11.2221 10.6575C10.6761 10.8836 10.0909 11 9.5 11Z" fill="#9CA3AF"/>
</g>
<defs>
<clipPath id="clip0_1000_6210">
<rect width="16" height="16" fill="white" transform="matrix(-1 0 0 1 16 0)"/>
</clipPath>
</defs>
</svg>
