<svg width="48" height="48" viewBox="0 0 48 48" fill="none" xmlns="http://www.w3.org/2000/svg">
<g id="Send">
<path id="Vector" fill-rule="evenodd" clip-rule="evenodd" d="M20.1698 12.4968L28.7396 16.9612C31.3447 18.3183 33.3949 19.3863 34.7857 20.3977C36.1595 21.3967 37.2329 22.5812 37.2329 24.2998C37.2329 26.0184 36.1595 27.2029 34.7857 28.2019C33.3949 29.2133 31.3447 30.2813 28.7396 31.6384L20.1698 36.1028C18.5776 36.9323 17.3389 37.5776 16.3717 37.9964C15.4253 38.4062 14.5794 38.6753 13.8273 38.5806C12.003 38.3509 10.4332 36.9024 10.0533 34.8574C9.8923 33.9907 10.1175 33.0211 10.441 32.0139C10.7759 30.971 11.3083 29.632 11.9865 27.9261L12.0048 27.8802C12.5348 26.5469 12.7388 26.0208 12.8429 25.496C12.9994 24.7065 12.9994 23.8931 12.8429 23.1036C12.7388 22.5788 12.5348 22.0527 12.0048 20.7195L11.9865 20.6735C11.3083 18.9676 10.7759 17.6286 10.441 16.5857C10.1175 15.5785 9.8923 14.6089 10.0533 13.7422C10.4333 11.6972 12.003 10.2487 13.8273 10.019C14.5794 9.92431 15.4253 10.1934 16.3717 10.6032C17.3389 11.022 18.5776 11.6673 20.1698 12.4968ZM15.7062 12.6639C14.7763 12.2612 14.3012 12.1723 14.0327 12.2061C12.9078 12.3478 12.0955 13.2111 11.9108 14.2048C11.8765 14.3897 11.9005 14.8184 12.2218 15.8188C12.5287 16.7743 13.0303 18.0378 13.7307 19.7995C13.746 19.8381 13.7612 19.8762 13.7762 19.9139C14.2461 21.0956 14.5413 21.8379 14.6947 22.6113C14.9155 23.7248 14.9155 24.8748 14.6947 25.9883C14.5413 26.7618 14.2461 27.504 13.7762 28.6857C13.7612 28.7234 13.746 28.7615 13.7307 28.8001C13.0303 30.5618 12.5287 31.8253 12.2218 32.7808C11.9005 33.7812 11.8765 34.2099 11.9108 34.3948C12.0955 35.3885 12.9078 36.2518 14.0327 36.3935C14.3012 36.4273 14.7763 36.3384 15.7062 35.9357C16.6085 35.5451 17.7909 34.9297 19.4246 34.0786L27.8832 29.6721C30.5816 28.2664 32.5097 27.2591 33.7752 26.3388C35.0714 25.3962 35.3329 24.7838 35.3329 24.2998C35.3329 23.8158 35.0714 23.2034 33.7752 22.2608C32.5097 21.3405 30.5816 20.3332 27.8832 18.9275L19.4246 14.521C17.7909 13.6699 16.6085 13.0545 15.7062 12.6639Z" fill="#02040F"/>
</g>
</svg>
