<svg width="20" height="22" viewBox="0 0 20 22" fill="none" xmlns="http://www.w3.org/2000/svg">
<path d="M10.5912 21.258L10.5802 21.26L10.5092 21.295L10.4892 21.299L10.4752 21.295L10.4042 21.26C10.3936 21.2567 10.3856 21.2583 10.3802 21.265L10.3762 21.275L10.3592 21.703L10.3642 21.723L10.3742 21.736L10.4782 21.81L10.4932 21.814L10.5052 21.81L10.6092 21.736L10.6212 21.72L10.6252 21.703L10.6082 21.276C10.6056 21.2653 10.5999 21.2593 10.5912 21.258ZM10.8562 21.145L10.8432 21.147L10.6582 21.24L10.6482 21.25L10.6452 21.261L10.6632 21.691L10.6682 21.703L10.6762 21.71L10.8772 21.803C10.8899 21.8063 10.8996 21.8037 10.9062 21.795L10.9102 21.781L10.8762 21.167C10.8729 21.155 10.8662 21.1477 10.8562 21.145ZM10.1412 21.147C10.1368 21.1443 10.1315 21.1435 10.1265 21.1446C10.1215 21.1457 10.1171 21.1487 10.1142 21.153L10.1082 21.167L10.0742 21.781C10.0749 21.793 10.0806 21.801 10.0912 21.805L10.1062 21.803L10.3072 21.71L10.3172 21.702L10.3212 21.691L10.3382 21.261L10.3352 21.249L10.3252 21.239L10.1412 21.147Z" fill="white"/>
<path d="M10 0C15.523 0 20 4.477 20 10C20 15.523 15.523 20 10 20C4.477 20 0 15.523 0 10C0 4.477 4.477 0 10 0ZM10 2C7.87827 2 5.84344 2.84286 4.34315 4.34315C2.84286 5.84344 2 7.87827 2 10C2 12.1217 2.84286 14.1566 4.34315 15.6569C5.84344 17.1571 7.87827 18 10 18C12.1217 18 14.1566 17.1571 15.6569 15.6569C17.1571 14.1566 18 12.1217 18 10C18 7.87827 17.1571 5.84344 15.6569 4.34315C14.1566 2.84286 12.1217 2 10 2ZM10 13C10.2652 13 10.5196 13.1054 10.7071 13.2929C10.8946 13.4804 11 13.7348 11 14C11 14.2652 10.8946 14.5196 10.7071 14.7071C10.5196 14.8946 10.2652 15 10 15C9.73479 15 9.48043 14.8946 9.29289 14.7071C9.10536 14.5196 9 14.2652 9 14C9 13.7348 9.10536 13.4804 9.29289 13.2929C9.48043 13.1054 9.73479 13 10 13ZM10 4C10.2652 4 10.5196 4.10536 10.7071 4.29289C10.8946 4.48043 11 4.73478 11 5V11C11 11.2652 10.8946 11.5196 10.7071 11.7071C10.5196 11.8946 10.2652 12 10 12C9.73479 12 9.48043 11.8946 9.29289 11.7071C9.10536 11.5196 9 11.2652 9 11V5C9 4.73478 9.10536 4.48043 9.29289 4.29289C9.48043 4.10536 9.73479 4 10 4Z" fill="white"/>
</svg>
