<svg width="24" height="24" viewBox="0 0 24 24" fill="none" xmlns="http://www.w3.org/2000/svg">
<g id="streamline:emergency-exit" clip-path="url(#clip0_1160_1229)">
<g id="Group">
<path id="Vector" d="M8.9375 2.8165C8.9375 1.97136 9.62321 1.28564 10.4684 1.28564H21.1826C22.0278 1.28564 22.7135 1.97136 22.7135 2.8165V21.1834C22.7135 22.0285 22.0278 22.7142 21.1826 22.7142H15.8255" stroke="#FBFBFB" stroke-linecap="round" stroke-linejoin="round"/>
<path id="Vector_2" d="M4.34766 10.4691H7.46423C7.91885 10.4692 8.35481 10.6499 8.67623 10.9714L13.0288 15.3257C13.3505 15.6465 13.7864 15.8266 14.2408 15.8262H16.5911M11.2339 9.32222C11.2339 10.0329 11.5162 10.7144 12.0187 11.2169C12.5212 11.7194 13.2027 12.0017 13.9134 12.0017C14.624 12.0017 15.3055 11.7194 15.808 11.2169C16.3105 10.7144 16.5928 10.0329 16.5928 9.32222C16.5928 8.61159 16.3105 7.93007 15.808 7.42758C15.3055 6.92509 14.624 6.64279 13.9134 6.64279C13.2027 6.64279 12.5212 6.92509 12.0187 7.42758C11.5162 7.93007 11.2339 8.61159 11.2339 9.32222Z" stroke="#FBFBFB" stroke-linecap="round" stroke-linejoin="round"/>
<path id="Vector_3" d="M10.4686 12.7645L6.3783 16.8548C6.05688 17.1763 5.62092 17.357 5.1663 17.3571H1.28516" stroke="#FBFBFB" stroke-linecap="round" stroke-linejoin="round"/>
<path id="Vector_4" d="M7.40625 15.8262L9.96568 18.3856C10.2872 18.7071 10.4679 19.143 10.468 19.5976V22.7142" stroke="#FBFBFB" stroke-linecap="round" stroke-linejoin="round"/>
</g>
</g>
<defs>
<clipPath id="clip0_1160_1229">
<rect width="24" height="24" fill="white"/>
</clipPath>
</defs>
</svg>
