<svg width="20" height="18" viewBox="0 0 20 18" fill="none" xmlns="http://www.w3.org/2000/svg">
<g id="tabler:mail">
<g id="Group">
<path id="Vector" d="M1 4.17857C1 3.66708 1.21071 3.17654 1.58579 2.81487C1.96086 2.45319 2.46957 2.25 3 2.25H17C17.5304 2.25 18.0391 2.45319 18.4142 2.81487C18.7893 3.17654 19 3.66708 19 4.17857V13.8214C19 14.3329 18.7893 14.8235 18.4142 15.1851C18.0391 15.5468 17.5304 15.75 17 15.75H3C2.46957 15.75 1.96086 15.5468 1.58579 15.1851C1.21071 14.8235 1 14.3329 1 13.8214V4.17857Z" stroke="#9CA3AF" stroke-width="1.5" stroke-linecap="round" stroke-linejoin="round"/>
<path id="Vector_2" d="M1 4.17725L10 9.96296L19 4.17725" stroke="#9CA3AF" stroke-width="1.5" stroke-linecap="round" stroke-linejoin="round"/>
</g>
</g>
</svg>
