<svg width="38" height="31" viewBox="0 0 38 31" fill="none" xmlns="http://www.w3.org/2000/svg">
<g id="Union">
<path fill-rule="evenodd" clip-rule="evenodd" d="M13.5119 14.6823C12.2491 11.6901 11.5509 8.4013 11.5509 4.94947V1H36.6014V30C30.9252 30 25.6899 28.1121 21.4892 24.9299C17.2571 27.3925 9.95286 29.9836 1 28.6816C3.30729 27.8907 12.2068 23.1453 11.8772 13.6543C12.2725 14.0891 12.8361 14.4257 13.5119 14.6823Z" fill="#EAEDEB"/>
<path d="M13.5119 14.6823L13.3345 15.1497L14.4269 15.5644L13.9726 14.4879L13.5119 14.6823ZM11.5509 1V0.5H11.0509V1H11.5509ZM36.6014 1H37.1014V0.5H36.6014V1ZM36.6014 30V30.5H37.1014V30H36.6014ZM21.4892 24.9299L21.7911 24.5314L21.5256 24.3303L21.2378 24.4978L21.4892 24.9299ZM1 28.6816L0.837867 28.2086L0.928044 29.1764L1 28.6816ZM11.8772 13.6543L12.2471 13.318L11.3302 12.3095L11.3775 13.6717L11.8772 13.6543ZM11.0509 4.94947C11.0509 8.46927 11.7629 11.8241 13.0512 14.8767L13.9726 14.4879C12.7352 11.5561 12.0509 8.33332 12.0509 4.94947H11.0509ZM11.0509 1V4.94947H12.0509V1H11.0509ZM36.6014 0.5H11.5509V1.5H36.6014V0.5ZM37.1014 30V1H36.1014V30H37.1014ZM21.1873 25.3285C25.4719 28.5742 30.8125 30.5 36.6014 30.5V29.5C31.0379 29.5 25.908 27.65 21.7911 24.5314L21.1873 25.3285ZM0.928044 29.1764C10.0147 30.4978 17.4321 27.8692 21.7407 25.3621L21.2378 24.4978C17.0821 26.9158 9.89101 29.4693 1.07196 28.1868L0.928044 29.1764ZM11.3775 13.6717C11.5362 18.2408 9.47838 21.6729 7.07392 24.0769C4.66024 26.4901 1.92579 27.8357 0.837867 28.2086L1.16213 29.1546C2.38149 28.7366 5.25045 27.3141 7.78096 24.7841C10.3207 22.2449 12.5478 18.5588 12.3769 13.637L11.3775 13.6717ZM13.6893 14.2148C13.0576 13.975 12.5717 13.6749 12.2471 13.318L11.5073 13.9907C11.9733 14.5033 12.6146 14.8765 13.3345 15.1497L13.6893 14.2148Z" fill="#EAEDEB"/>
</g>
</svg>
