<svg width="34" height="32" viewBox="0 0 34 32" fill="none" xmlns="http://www.w3.org/2000/svg">
<g id="Union">
<path fill-rule="evenodd" clip-rule="evenodd" d="M22.1673 14.4807C22.5897 12.7861 22.8139 11.0132 22.8139 9.18787V1H1.00174V31C6.20479 31 10.9823 29.1782 14.7313 26.1378C18.4834 28.5607 24.5939 30.9158 32 29.6363C29.9909 28.8181 22.2415 23.909 22.5285 14.0908C22.4217 14.2304 22.3008 14.3601 22.1673 14.4807Z" fill="#127453"/>
<path d="M22.1673 14.4807L22.5023 14.8518L21.2857 15.95L21.6821 14.3598L22.1673 14.4807ZM22.8139 1V0.5H23.3139V1H22.8139ZM1.00174 1H0.501741V0.5H1.00174V1ZM1.00174 31V31.5H0.501741V31H1.00174ZM14.7313 26.1378L14.4164 25.7494L14.698 25.521L15.0026 25.7177L14.7313 26.1378ZM32 29.6363L32.1886 29.1732L33.8056 29.8317L32.0851 30.129L32 29.6363ZM22.5285 14.0908L22.1315 13.7869L23.0736 12.556L23.0283 14.1054L22.5285 14.0908ZM23.3139 9.18787C23.3139 11.0543 23.0846 12.8678 22.6524 14.6016L21.6821 14.3598C22.0947 12.7044 22.3139 10.9721 22.3139 9.18787H23.3139ZM23.3139 1V9.18787H22.3139V1H23.3139ZM1.00174 0.5H22.8139V1.5H1.00174V0.5ZM0.501741 31V1H1.50174V31H0.501741ZM15.0463 26.5261C11.2115 29.6362 6.32359 31.5 1.00174 31.5V30.5C6.08599 30.5 10.7532 28.7203 14.4164 25.7494L15.0463 26.5261ZM32.0851 30.129C24.5259 31.435 18.2896 29.0307 14.4601 26.5578L15.0026 25.7177C18.6772 28.0906 24.6619 30.3967 31.9149 29.1436L32.0851 30.129ZM23.0283 14.1054C22.8891 18.8685 24.6959 22.4343 26.7857 24.9165C28.8855 27.4106 31.2583 28.7944 32.1886 29.1732L31.8114 30.0993C30.7326 29.66 28.2262 28.1801 26.0207 25.5606C23.8053 22.9292 21.881 19.1313 22.0288 14.0762L23.0283 14.1054ZM21.8322 14.1095C21.9447 14.008 22.0445 13.9006 22.1315 13.7869L22.9256 14.3947C22.799 14.5602 22.657 14.7122 22.5023 14.8518L21.8322 14.1095Z" fill="#127453"/>
</g>
</svg>
