<svg width="20" height="20" viewBox="0 0 20 20" fill="none" xmlns="http://www.w3.org/2000/svg">
<g id="Group">
<path id="Vector" d="M19 19H1" stroke="#9CA3AF" stroke-width="1.5" stroke-linecap="round"/>
<path id="Vector_2" d="M14.4984 19V4.6C14.4984 2.9026 14.4984 2.0548 13.971 1.5274C13.4436 1 12.5958 1 10.8984 1H9.09844C7.40104 1 6.55324 1 6.02584 1.5274C5.49844 2.0548 5.49844 2.9026 5.49844 4.6V19M18.0984 19V6.85C18.0984 5.5864 18.0984 4.9537 17.7951 4.5001C17.6638 4.30347 17.495 4.13466 17.2983 4.0033C16.8447 3.7 16.212 3.7 14.9484 3.7M1.89844 19V6.85C1.89844 5.5864 1.89844 4.9537 2.20174 4.5001C2.3331 4.30347 2.50191 4.13466 2.69854 4.0033C3.15214 3.7 3.78484 3.7 5.04844 3.7" stroke="#9CA3AF" stroke-width="1.5"/>
<path id="Vector_3" d="M9.99844 18.9999V16.2999M8.19844 9.9999H11.7984M4.14844 9.0999H5.49844M4.14844 11.7999H5.49844M14.4984 9.0999H15.8484M14.4984 11.7999H15.8484M4.14844 6.3999H5.49844M14.4984 6.3999H15.8484M8.19844 12.6999H11.7984" stroke="#9CA3AF" stroke-width="1.5" stroke-linecap="round"/>
<path id="Vector_4" d="M10.0031 7.29995V3.69995M11.8031 5.49995H8.20312" stroke="#9CA3AF" stroke-width="1.5" stroke-linecap="round" stroke-linejoin="round"/>
</g>
</svg>
