<svg width="18" height="20" viewBox="0 0 18 20" fill="none" xmlns="http://www.w3.org/2000/svg">
<g id="Frame" clip-path="url(#clip0_1518_3805)">
<path id="Vector" d="M9 10C7.63603 10 6.32792 9.47322 5.36345 8.53553C4.39898 7.59785 3.85714 6.32608 3.85714 5C3.85714 3.67392 4.39898 2.40215 5.36345 1.46447C6.32792 0.526784 7.63603 0 9 0C10.364 0 11.6721 0.526784 12.6365 1.46447C13.601 2.40215 14.1429 3.67392 14.1429 5C14.1429 6.32608 13.601 7.59785 12.6365 8.53553C11.6721 9.47322 10.364 10 9 10ZM8.40134 14.0312L7.65402 12.8203C7.39687 12.4023 7.70625 11.875 8.20446 11.875H9H9.79152C10.2897 11.875 10.5991 12.4062 10.342 12.8203L9.59464 14.0312L10.9366 18.8711L12.383 13.1328C12.4634 12.8164 12.7768 12.6094 13.1022 12.6914C15.9187 13.3789 18 15.8555 18 18.8008C18 19.4648 17.4455 20 16.7665 20H11.471C11.3866 20 11.3103 19.9844 11.2379 19.957L11.25 20H6.75L6.76205 19.957C6.68973 19.9844 6.60938 20 6.52902 20H1.23348C0.554464 20 0 19.4609 0 18.8008C0 15.8516 2.08527 13.375 4.89777 12.6914C5.22321 12.6133 5.53661 12.8203 5.61696 13.1328L7.06339 18.8711L8.40536 14.0312H8.40134Z" fill="#9CA3AF"/>
</g>
<defs>
<clipPath id="clip0_1518_3805">
<rect width="18" height="20" fill="white"/>
</clipPath>
</defs>
</svg>
