<svg width="140" height="140" viewBox="0 0 140 140" fill="none" xmlns="http://www.w3.org/2000/svg">
<g id="Group">
<path id="Vector" fill-rule="evenodd" clip-rule="evenodd" d="M95.456 50.9096C95.456 57.6605 92.7742 64.135 88.0005 68.9087C83.2269 73.6823 76.7524 76.3641 70.0014 76.3641C63.2505 76.3641 56.776 73.6823 52.0023 68.9087C47.2287 64.135 44.5469 57.6605 44.5469 50.9096C44.5469 44.1586 47.2287 37.6841 52.0023 32.9105C56.776 28.1368 63.2505 25.455 70.0014 25.455C76.7524 25.455 83.2269 28.1368 88.0005 32.9105C92.7742 37.6841 95.456 44.1586 95.456 50.9096ZM82.7287 50.9096C82.7287 54.285 81.3878 57.5223 79.001 59.9091C76.6141 62.2959 73.3769 63.6368 70.0014 63.6368C66.6259 63.6368 63.3887 62.2959 61.0019 59.9091C58.6151 57.5223 57.2741 54.285 57.2741 50.9096C57.2741 47.5341 58.6151 44.2969 61.0019 41.91C63.3887 39.5232 66.6259 38.1823 70.0014 38.1823C73.3769 38.1823 76.6141 39.5232 79.001 41.91C81.3878 44.2969 82.7287 47.5341 82.7287 50.9096Z" fill="black"/>
<path id="Vector_2" fill-rule="evenodd" clip-rule="evenodd" d="M70 0C31.3409 0 0 31.3409 0 70C0 108.659 31.3409 140 70 140C108.659 140 140 108.659 140 70C140 31.3409 108.659 0 70 0ZM12.7273 70C12.7273 83.3 17.2645 95.5436 24.8691 105.267C30.211 98.2554 37.101 92.5727 45.0013 88.6628C52.9017 84.7529 61.5987 82.7216 70.4136 82.7273C79.1151 82.7171 87.7041 84.6942 95.5254 88.5078C103.347 92.3214 110.194 97.8708 115.545 104.733C121.058 97.5011 124.771 89.0605 126.375 80.1092C127.979 71.158 127.428 61.9534 124.769 53.2572C122.109 44.5609 117.417 36.623 111.08 30.1002C104.744 23.5774 96.9452 18.6573 88.3297 15.7469C79.7142 12.8365 70.5294 12.0195 61.5355 13.3635C52.5415 14.7075 43.9969 18.1739 36.6085 23.4758C29.2202 28.7777 23.2006 35.7628 19.0478 43.8531C14.895 51.9433 12.7284 60.9062 12.7273 70ZM70 127.273C56.8521 127.294 44.1009 122.771 33.9055 114.469C38.0088 108.593 43.4712 103.795 49.8278 100.485C56.1843 97.1741 63.2466 95.4484 70.4136 95.4545C77.4911 95.4484 84.4679 97.1311 90.7645 100.363C97.061 103.595 102.495 108.282 106.616 114.036C96.3421 122.608 83.3805 127.294 70 127.273Z" fill="black"/>
</g>
</svg>
