<svg width="21" height="20" viewBox="0 0 21 20" fill="none" xmlns="http://www.w3.org/2000/svg">
<path id="Vector" d="M14.1571 1.33013L10.1601 9.32813C10.0454 9.55697 9.99122 9.81134 10.0026 10.067C10.0141 10.3228 10.0907 10.5713 10.2253 10.789C10.3599 11.0067 10.548 11.1863 10.7717 11.3108C10.9953 11.4353 11.2471 11.5005 11.5031 11.5001H19.4971C19.7531 11.5005 20.0048 11.4353 20.2285 11.3108C20.4522 11.1863 20.6402 11.0067 20.7749 10.789C20.9095 10.5713 20.9861 10.3228 20.9976 10.067C21.009 9.81134 20.9548 9.55697 20.8401 9.32813L16.8431 1.33013C16.2901 0.223128 14.7101 0.223128 14.1571 1.33013ZM16.0001 3.99613V6.99713C16.0001 7.12974 15.9474 7.25691 15.8536 7.35068C15.7599 7.44445 15.6327 7.49713 15.5001 7.49713C15.3675 7.49713 15.2403 7.44445 15.1465 7.35068C15.0528 7.25691 15.0001 7.12974 15.0001 6.99713V3.99613C15.0001 3.86352 15.0528 3.73634 15.1465 3.64257C15.2403 3.54881 15.3675 3.49613 15.5001 3.49613C15.6327 3.49613 15.7599 3.54881 15.8536 3.64257C15.9474 3.73634 16.0001 3.86352 16.0001 3.99613ZM15.5001 9.49913C15.3674 9.49913 15.24 9.4464 15.1462 9.35253C15.0523 9.25867 14.9996 9.13137 14.9996 8.99863C14.9996 8.86589 15.0523 8.73858 15.1462 8.64472C15.24 8.55086 15.3674 8.49813 15.5001 8.49813C15.6327 8.49813 15.7599 8.55081 15.8536 8.64457C15.9474 8.73834 16.0001 8.86552 16.0001 8.99813C16.0001 9.13074 15.9474 9.25791 15.8536 9.35168C15.7599 9.44545 15.6327 9.49913 15.5001 9.49913ZM19.4961 12.5001H11.6121L10.3441 13.1641C10.2367 13.2204 10.1173 13.2498 9.99609 13.2498C9.87488 13.2498 9.75547 13.2204 9.64809 13.1641L-0.00390625 8.10813V16.2501L0.00109386 16.4341C0.0480924 17.2629 0.410461 18.0423 1.01386 18.6125C1.61727 19.1826 2.41596 19.5002 3.24609 19.5001H16.7461L16.9301 19.4951C17.7589 19.4481 18.5383 19.0858 19.1084 18.4824C19.6785 17.879 19.9961 17.0803 19.9961 16.2501V12.4511C19.8354 12.4831 19.6688 12.4995 19.4961 12.5001ZM3.24609 3.50013H11.9561L9.26609 8.88013C9.07159 9.26503 8.98081 9.69401 9.00274 10.1247C9.02466 10.5554 9.15851 10.973 9.39109 11.3361L0.0120938 6.42413C0.0896171 5.65444 0.439144 4.93764 0.997844 4.40259C1.55654 3.86754 2.28778 3.54931 3.06009 3.50513L3.24609 3.50013Z" fill="white"/>
</svg>
