<svg width="27" height="27" viewBox="0 0 27 27" fill="none" xmlns="http://www.w3.org/2000/svg">
<path id="Vector" d="M3 27C2.175 27 1.469 26.7065 0.882 26.1195C0.295 25.5325 0.001 24.826 0 24V2.99999C0 2.17499 0.294 1.46899 0.882 0.881992C1.47 0.294992 2.176 0.000992371 3 -7.62939e-06H12C12.425 -7.62939e-06 12.7815 0.143993 13.0695 0.431993C13.3575 0.719992 13.501 1.07599 13.5 1.49999C13.499 1.92399 13.355 2.28049 13.068 2.56949C12.781 2.85849 12.425 3.00199 12 2.99999H3V24H12C12.425 24 12.7815 24.144 13.0695 24.432C13.3575 24.72 13.501 25.076 13.5 25.5C13.499 25.924 13.355 26.2805 13.068 26.5695C12.781 26.8585 12.425 27.002 12 27H3ZM21.2625 15H10.5C10.075 15 9.719 14.856 9.432 14.568C9.145 14.28 9.001 13.924 9 13.5C8.999 13.076 9.143 12.72 9.432 12.432C9.721 12.144 10.077 12 10.5 12H21.2625L18.45 9.18749C18.175 8.91249 18.0375 8.57499 18.0375 8.17499C18.0375 7.77499 18.175 7.42499 18.45 7.12499C18.725 6.82499 19.075 6.66849 19.5 6.65549C19.925 6.64249 20.2875 6.78649 20.5875 7.08749L25.95 12.45C26.25 12.75 26.4 13.1 26.4 13.5C26.4 13.9 26.25 14.25 25.95 14.55L20.5875 19.9125C20.2875 20.2125 19.9315 20.3565 19.5195 20.3445C19.1075 20.3325 18.751 20.176 18.45 19.875C18.175 19.575 18.044 19.219 18.057 18.807C18.07 18.395 18.2135 18.051 18.4875 17.775L21.2625 15Z" fill="#151419"/>
</svg>
