<svg width="18" height="18" viewBox="0 0 18 18" fill="none" xmlns="http://www.w3.org/2000/svg">
<g id="Frame" clip-path="url(#clip0_1023_11338)">
<path id="Vector" d="M17.9395 15.6747L15.372 5.40452C15.2384 4.8705 14.7941 4.50031 14.2868 4.50031H12.1686C12.2941 4.14699 12.3753 3.77187 12.3753 3.37531C12.3753 1.51132 10.8643 0.000305176 9.00032 0.000305176C7.13634 0.000305176 5.62532 1.51132 5.62532 3.37531C5.62532 3.77187 5.70618 4.14699 5.83204 4.50031H3.71388C3.20657 4.50031 2.76185 4.87085 2.6286 5.40452L0.0604393 15.6747C-0.232412 16.8458 0.57583 18 1.68853 18H16.3118C17.4241 18 18.2324 16.8458 17.9395 15.6747ZM8.99997 4.49995C8.37981 4.49995 7.87497 3.99511 7.87497 3.37495C7.87497 2.7548 8.37981 2.24995 8.99997 2.24995C9.62013 2.24995 10.125 2.7548 10.125 3.37495C10.125 3.99511 9.62013 4.49995 8.99997 4.49995Z" fill="#9CA3AF"/>
</g>
<defs>
<clipPath id="clip0_1023_11338">
<rect width="18" height="18" fill="white"/>
</clipPath>
</defs>
</svg>
